G75*
%MOIN*%
%OFA0B0*%
%FSLAX25Y25*%
%IPPOS*%
%LPD*%
%AMOC8*
5,1,8,0,0,1.08239X$1,22.5*
%
%ADD10R,0.08674X0.05524*%
%ADD11R,0.05524X0.03950*%
%ADD12R,0.05524X0.08674*%
%ADD13R,0.03950X0.05524*%
%ADD14R,0.06587X0.05800*%
%ADD15R,0.10249X0.10249*%
%ADD16R,0.05524X0.06312*%
%ADD17C,0.04737*%
%ADD18C,0.14973*%
%ADD19C,0.12611*%
%ADD20C,0.18800*%
%ADD21OC8,0.20485*%
%ADD22R,0.07099X0.07898*%
%ADD23R,0.05600X0.09600*%
%ADD24R,0.14973X0.09461*%
%ADD25R,0.07099X0.12611*%
%ADD26R,0.19800X0.23300*%
%ADD27R,0.03950X0.04343*%
%ADD28R,0.07887X0.07099*%
%ADD29R,0.07887X0.11430*%
%ADD30R,0.07099X0.07887*%
%ADD31R,0.09461X0.03162*%
%ADD32R,0.07887X0.01981*%
%ADD33R,0.15748X0.27165*%
%ADD34R,0.05524X0.02965*%
%ADD35C,0.00355*%
%ADD36C,0.00926*%
%ADD37R,0.06115X0.02965*%
%ADD38C,0.06706*%
%ADD39C,0.05169*%
%ADD40C,0.00394*%
%ADD41R,0.14580X0.11627*%
%ADD42C,0.25800*%
%ADD43R,0.03300X0.05800*%
%ADD44C,0.07200*%
%ADD45R,0.02965X0.05524*%
%ADD46R,0.08674X0.04737*%
%ADD47C,0.08200*%
%ADD48R,0.07887X0.03753*%
D10*
X0187747Y0162701D03*
X0187747Y0175299D03*
X0269247Y0206701D03*
X0269247Y0219299D03*
X0233747Y0253201D03*
X0233747Y0265799D03*
X0359747Y0262299D03*
X0372247Y0262299D03*
X0372247Y0249701D03*
X0359747Y0249701D03*
D11*
X0347247Y0283957D03*
X0347247Y0291043D03*
X0332247Y0291043D03*
X0332247Y0283957D03*
X0389747Y0284957D03*
X0389747Y0292043D03*
X0479747Y0270543D03*
X0479747Y0263457D03*
X0310747Y0207543D03*
X0310747Y0200457D03*
X0310747Y0185043D03*
X0310747Y0177957D03*
X0262247Y0191957D03*
X0262247Y0199043D03*
X0259747Y0206957D03*
X0259747Y0214043D03*
X0216747Y0217043D03*
X0200247Y0215457D03*
X0200247Y0210043D03*
X0200247Y0202957D03*
X0208747Y0202957D03*
X0208747Y0210043D03*
X0216747Y0209957D03*
X0200247Y0222543D03*
X0233747Y0239957D03*
X0233747Y0247043D03*
X0223247Y0257957D03*
X0223247Y0265043D03*
X0272747Y0268457D03*
X0272747Y0275543D03*
X0142247Y0313957D03*
X0142247Y0321043D03*
X0128747Y0321043D03*
X0128747Y0313957D03*
X0113247Y0313957D03*
X0113247Y0321043D03*
X0098747Y0321043D03*
X0098747Y0313957D03*
X0109247Y0286043D03*
X0109247Y0278957D03*
X0108747Y0271043D03*
X0108747Y0263957D03*
X0108747Y0255543D03*
X0108747Y0248457D03*
X0258747Y0338957D03*
X0258747Y0346043D03*
X0268247Y0346043D03*
X0268247Y0338957D03*
X0268247Y0353457D03*
X0258747Y0353457D03*
X0258747Y0360543D03*
X0268247Y0360543D03*
X0268247Y0367957D03*
X0268247Y0375043D03*
X0258747Y0375043D03*
X0258747Y0367957D03*
X0208747Y0146543D03*
X0208747Y0139457D03*
X0216247Y0141543D03*
X0216247Y0134457D03*
X0106747Y0076043D03*
X0106747Y0068957D03*
X0407247Y0066043D03*
X0418747Y0066043D03*
X0418747Y0058957D03*
X0407247Y0058957D03*
X0620247Y0026043D03*
X0620247Y0018957D03*
D12*
X0249047Y0133500D03*
X0236448Y0133500D03*
X0248948Y0241500D03*
X0261547Y0241500D03*
X0261547Y0253000D03*
X0248948Y0253000D03*
D13*
X0204791Y0231500D03*
X0197704Y0231500D03*
X0241704Y0209500D03*
X0248791Y0209500D03*
X0284204Y0202500D03*
X0291291Y0202500D03*
X0291291Y0187500D03*
X0284204Y0187500D03*
X0284204Y0173500D03*
X0291291Y0173500D03*
X0305204Y0160500D03*
X0312291Y0160500D03*
X0291291Y0150500D03*
X0284204Y0150500D03*
X0305204Y0137000D03*
X0312291Y0137000D03*
X0312291Y0113500D03*
X0305204Y0113500D03*
X0248291Y0142500D03*
X0241204Y0142500D03*
X0191291Y0116000D03*
X0184204Y0116000D03*
X0183704Y0106000D03*
X0190791Y0106000D03*
X0190791Y0096000D03*
X0183704Y0096000D03*
X0228704Y0086000D03*
X0235791Y0086000D03*
X0109291Y0086000D03*
X0102204Y0086000D03*
X0248204Y0023000D03*
X0255291Y0023000D03*
X0378204Y0084000D03*
X0385291Y0084000D03*
X0202791Y0173500D03*
X0195704Y0173500D03*
X0112291Y0196000D03*
X0105204Y0196000D03*
X0105204Y0206000D03*
X0112291Y0206000D03*
X0112291Y0216000D03*
X0105204Y0216000D03*
X0272704Y0291500D03*
X0279791Y0291500D03*
X0399204Y0287000D03*
X0406291Y0287000D03*
X0406291Y0299000D03*
X0399204Y0299000D03*
X0311791Y0231500D03*
X0304704Y0231500D03*
X0623204Y0052500D03*
X0630291Y0052500D03*
X0634704Y0020000D03*
X0641791Y0020000D03*
D14*
X0409747Y0332535D03*
X0409747Y0349465D03*
D15*
X0447086Y0344000D03*
X0464409Y0344000D03*
X0464747Y0304661D03*
X0464747Y0287339D03*
X0257909Y0228500D03*
X0240586Y0228500D03*
D16*
X0406342Y0363500D03*
X0418153Y0363500D03*
D17*
X0084747Y0044500D03*
X0084747Y0331500D03*
X0563747Y0331500D03*
D18*
X0664094Y0336500D03*
X0685747Y0336500D03*
X0685747Y0353035D03*
X0664094Y0353035D03*
X0664094Y0369571D03*
X0685747Y0369571D03*
X0685747Y0054571D03*
X0664094Y0054571D03*
X0664094Y0038035D03*
X0685747Y0038035D03*
X0685747Y0021500D03*
X0664094Y0021500D03*
D19*
X0714488Y0021500D03*
X0714488Y0054571D03*
X0714488Y0336500D03*
X0714488Y0369571D03*
D20*
X0650747Y0290870D03*
X0631062Y0290870D03*
X0631062Y0251500D03*
X0650747Y0251500D03*
X0650747Y0180240D03*
X0631062Y0180240D03*
X0631062Y0140870D03*
X0650747Y0140870D03*
X0650747Y0101500D03*
X0631062Y0101500D03*
D21*
X0686181Y0078980D03*
X0686181Y0202799D03*
X0686181Y0228980D03*
X0686181Y0313429D03*
D22*
X0260846Y0264500D03*
X0249649Y0264500D03*
D23*
X0375647Y0346300D03*
X0384747Y0346300D03*
X0393847Y0346300D03*
D24*
X0384747Y0370701D03*
D25*
X0376224Y0282594D03*
X0358271Y0282594D03*
X0420771Y0282594D03*
X0438724Y0282594D03*
D26*
X0429747Y0309752D03*
X0367247Y0309752D03*
D27*
X0476007Y0317063D03*
X0483488Y0317063D03*
X0479747Y0325331D03*
D28*
X0464747Y0329012D03*
X0464747Y0317988D03*
X0318747Y0283512D03*
X0318747Y0272488D03*
X0248247Y0044012D03*
X0248247Y0032988D03*
D29*
X0391086Y0316000D03*
X0408409Y0316000D03*
D30*
X0390259Y0331000D03*
X0379236Y0331000D03*
X0365259Y0331000D03*
X0354236Y0331000D03*
X0431736Y0363500D03*
X0442759Y0363500D03*
X0308259Y0285000D03*
X0297236Y0285000D03*
X0297236Y0274000D03*
X0308259Y0274000D03*
X0307736Y0262500D03*
X0318759Y0262500D03*
X0391236Y0275500D03*
X0402259Y0275500D03*
D31*
X0332484Y0301000D03*
X0332484Y0306000D03*
X0332484Y0311000D03*
X0332484Y0316000D03*
X0332484Y0321000D03*
X0332484Y0326000D03*
X0332484Y0331000D03*
X0332484Y0336000D03*
X0312011Y0336000D03*
X0312011Y0331000D03*
X0312011Y0326000D03*
X0312011Y0321000D03*
X0312011Y0316000D03*
X0312011Y0311000D03*
X0312011Y0306000D03*
X0312011Y0301000D03*
D32*
X0248818Y0202508D03*
X0248818Y0200539D03*
X0248818Y0198571D03*
X0248818Y0196602D03*
X0248818Y0194634D03*
X0248818Y0192665D03*
X0248818Y0190697D03*
X0248818Y0188728D03*
X0248818Y0186760D03*
X0248818Y0184791D03*
X0248818Y0182823D03*
X0248818Y0180854D03*
X0248818Y0178886D03*
X0248818Y0176917D03*
X0248818Y0174949D03*
X0248818Y0172980D03*
X0248818Y0171012D03*
X0248818Y0169043D03*
X0248818Y0167075D03*
X0248818Y0165106D03*
X0248818Y0163138D03*
X0248818Y0161169D03*
X0248818Y0159201D03*
X0248818Y0157232D03*
X0248818Y0155264D03*
X0248818Y0153295D03*
X0248818Y0151327D03*
X0248818Y0149358D03*
X0219291Y0149161D03*
X0219291Y0151130D03*
X0219291Y0153098D03*
X0219291Y0155067D03*
X0219291Y0157035D03*
X0219291Y0159004D03*
X0219291Y0160972D03*
X0219291Y0162941D03*
X0219291Y0164909D03*
X0219291Y0166878D03*
X0219291Y0168846D03*
X0219291Y0170815D03*
X0219291Y0172783D03*
X0219291Y0174752D03*
X0219291Y0176720D03*
X0219291Y0178689D03*
X0219291Y0180657D03*
X0219291Y0182626D03*
X0219291Y0184594D03*
X0219291Y0186563D03*
X0219291Y0188531D03*
X0219291Y0190500D03*
X0219291Y0192469D03*
X0219291Y0194437D03*
X0219291Y0196406D03*
X0219291Y0198374D03*
X0219291Y0200343D03*
X0219291Y0202311D03*
D33*
X0233858Y0176819D03*
D34*
X0134366Y0345760D03*
X0134366Y0349500D03*
X0134366Y0353240D03*
X0124129Y0353240D03*
X0124129Y0349500D03*
X0124129Y0345760D03*
X0217129Y0348760D03*
X0217129Y0352500D03*
X0217129Y0356240D03*
X0227366Y0356240D03*
X0227366Y0352500D03*
X0227366Y0348760D03*
X0630629Y0043240D03*
X0630629Y0039500D03*
X0630629Y0035760D03*
X0640866Y0035760D03*
X0640866Y0039500D03*
X0640866Y0043240D03*
D35*
X0338312Y0098128D02*
X0318182Y0098128D01*
X0318182Y0104872D01*
X0338312Y0104872D01*
X0338312Y0098128D01*
X0338312Y0098482D02*
X0318182Y0098482D01*
X0318182Y0098836D02*
X0338312Y0098836D01*
X0338312Y0099190D02*
X0318182Y0099190D01*
X0318182Y0099544D02*
X0338312Y0099544D01*
X0338312Y0099898D02*
X0318182Y0099898D01*
X0318182Y0100252D02*
X0338312Y0100252D01*
X0338312Y0100606D02*
X0318182Y0100606D01*
X0318182Y0100960D02*
X0338312Y0100960D01*
X0338312Y0101314D02*
X0318182Y0101314D01*
X0318182Y0101668D02*
X0338312Y0101668D01*
X0338312Y0102022D02*
X0318182Y0102022D01*
X0318182Y0102376D02*
X0338312Y0102376D01*
X0338312Y0102730D02*
X0318182Y0102730D01*
X0318182Y0103084D02*
X0338312Y0103084D01*
X0338312Y0103438D02*
X0318182Y0103438D01*
X0318182Y0103792D02*
X0338312Y0103792D01*
X0338312Y0104146D02*
X0318182Y0104146D01*
X0318182Y0104500D02*
X0338312Y0104500D01*
X0338312Y0104854D02*
X0318182Y0104854D01*
X0318182Y0109939D02*
X0338312Y0109939D01*
X0318182Y0109939D02*
X0318182Y0116683D01*
X0338312Y0116683D01*
X0338312Y0109939D01*
X0338312Y0110293D02*
X0318182Y0110293D01*
X0318182Y0110647D02*
X0338312Y0110647D01*
X0338312Y0111001D02*
X0318182Y0111001D01*
X0318182Y0111355D02*
X0338312Y0111355D01*
X0338312Y0111709D02*
X0318182Y0111709D01*
X0318182Y0112063D02*
X0338312Y0112063D01*
X0338312Y0112417D02*
X0318182Y0112417D01*
X0318182Y0112771D02*
X0338312Y0112771D01*
X0338312Y0113125D02*
X0318182Y0113125D01*
X0318182Y0113479D02*
X0338312Y0113479D01*
X0338312Y0113833D02*
X0318182Y0113833D01*
X0318182Y0114187D02*
X0338312Y0114187D01*
X0338312Y0114541D02*
X0318182Y0114541D01*
X0318182Y0114895D02*
X0338312Y0114895D01*
X0338312Y0115249D02*
X0318182Y0115249D01*
X0318182Y0115603D02*
X0338312Y0115603D01*
X0338312Y0115957D02*
X0318182Y0115957D01*
X0318182Y0116311D02*
X0338312Y0116311D01*
X0338312Y0116665D02*
X0318182Y0116665D01*
X0318182Y0121750D02*
X0338312Y0121750D01*
X0318182Y0121750D02*
X0318182Y0128494D01*
X0338312Y0128494D01*
X0338312Y0121750D01*
X0338312Y0122104D02*
X0318182Y0122104D01*
X0318182Y0122458D02*
X0338312Y0122458D01*
X0338312Y0122812D02*
X0318182Y0122812D01*
X0318182Y0123166D02*
X0338312Y0123166D01*
X0338312Y0123520D02*
X0318182Y0123520D01*
X0318182Y0123874D02*
X0338312Y0123874D01*
X0338312Y0124228D02*
X0318182Y0124228D01*
X0318182Y0124582D02*
X0338312Y0124582D01*
X0338312Y0124936D02*
X0318182Y0124936D01*
X0318182Y0125290D02*
X0338312Y0125290D01*
X0338312Y0125644D02*
X0318182Y0125644D01*
X0318182Y0125998D02*
X0338312Y0125998D01*
X0338312Y0126352D02*
X0318182Y0126352D01*
X0318182Y0126706D02*
X0338312Y0126706D01*
X0338312Y0127060D02*
X0318182Y0127060D01*
X0318182Y0127414D02*
X0338312Y0127414D01*
X0338312Y0127768D02*
X0318182Y0127768D01*
X0318182Y0128122D02*
X0338312Y0128122D01*
X0338312Y0128476D02*
X0318182Y0128476D01*
X0318182Y0133561D02*
X0338312Y0133561D01*
X0318182Y0133561D02*
X0318182Y0140305D01*
X0338312Y0140305D01*
X0338312Y0133561D01*
X0338312Y0133915D02*
X0318182Y0133915D01*
X0318182Y0134269D02*
X0338312Y0134269D01*
X0338312Y0134623D02*
X0318182Y0134623D01*
X0318182Y0134977D02*
X0338312Y0134977D01*
X0338312Y0135331D02*
X0318182Y0135331D01*
X0318182Y0135685D02*
X0338312Y0135685D01*
X0338312Y0136039D02*
X0318182Y0136039D01*
X0318182Y0136393D02*
X0338312Y0136393D01*
X0338312Y0136747D02*
X0318182Y0136747D01*
X0318182Y0137101D02*
X0338312Y0137101D01*
X0338312Y0137455D02*
X0318182Y0137455D01*
X0318182Y0137809D02*
X0338312Y0137809D01*
X0338312Y0138163D02*
X0318182Y0138163D01*
X0318182Y0138517D02*
X0338312Y0138517D01*
X0338312Y0138871D02*
X0318182Y0138871D01*
X0318182Y0139225D02*
X0338312Y0139225D01*
X0338312Y0139579D02*
X0318182Y0139579D01*
X0318182Y0139933D02*
X0338312Y0139933D01*
X0338312Y0140287D02*
X0318182Y0140287D01*
X0318182Y0145372D02*
X0338312Y0145372D01*
X0318182Y0145372D02*
X0318182Y0152116D01*
X0338312Y0152116D01*
X0338312Y0145372D01*
X0338312Y0145726D02*
X0318182Y0145726D01*
X0318182Y0146080D02*
X0338312Y0146080D01*
X0338312Y0146434D02*
X0318182Y0146434D01*
X0318182Y0146788D02*
X0338312Y0146788D01*
X0338312Y0147142D02*
X0318182Y0147142D01*
X0318182Y0147496D02*
X0338312Y0147496D01*
X0338312Y0147850D02*
X0318182Y0147850D01*
X0318182Y0148204D02*
X0338312Y0148204D01*
X0338312Y0148558D02*
X0318182Y0148558D01*
X0318182Y0148912D02*
X0338312Y0148912D01*
X0338312Y0149266D02*
X0318182Y0149266D01*
X0318182Y0149620D02*
X0338312Y0149620D01*
X0338312Y0149974D02*
X0318182Y0149974D01*
X0318182Y0150328D02*
X0338312Y0150328D01*
X0338312Y0150682D02*
X0318182Y0150682D01*
X0318182Y0151036D02*
X0338312Y0151036D01*
X0338312Y0151390D02*
X0318182Y0151390D01*
X0318182Y0151744D02*
X0338312Y0151744D01*
X0338312Y0152098D02*
X0318182Y0152098D01*
X0318182Y0157183D02*
X0338312Y0157183D01*
X0318182Y0157183D02*
X0318182Y0163927D01*
X0338312Y0163927D01*
X0338312Y0157183D01*
X0338312Y0157537D02*
X0318182Y0157537D01*
X0318182Y0157891D02*
X0338312Y0157891D01*
X0338312Y0158245D02*
X0318182Y0158245D01*
X0318182Y0158599D02*
X0338312Y0158599D01*
X0338312Y0158953D02*
X0318182Y0158953D01*
X0318182Y0159307D02*
X0338312Y0159307D01*
X0338312Y0159661D02*
X0318182Y0159661D01*
X0318182Y0160015D02*
X0338312Y0160015D01*
X0338312Y0160369D02*
X0318182Y0160369D01*
X0318182Y0160723D02*
X0338312Y0160723D01*
X0338312Y0161077D02*
X0318182Y0161077D01*
X0318182Y0161431D02*
X0338312Y0161431D01*
X0338312Y0161785D02*
X0318182Y0161785D01*
X0318182Y0162139D02*
X0338312Y0162139D01*
X0338312Y0162493D02*
X0318182Y0162493D01*
X0318182Y0162847D02*
X0338312Y0162847D01*
X0338312Y0163201D02*
X0318182Y0163201D01*
X0318182Y0163555D02*
X0338312Y0163555D01*
X0338312Y0163909D02*
X0318182Y0163909D01*
X0318182Y0168994D02*
X0338312Y0168994D01*
X0318182Y0168994D02*
X0318182Y0175738D01*
X0338312Y0175738D01*
X0338312Y0168994D01*
X0338312Y0169348D02*
X0318182Y0169348D01*
X0318182Y0169702D02*
X0338312Y0169702D01*
X0338312Y0170056D02*
X0318182Y0170056D01*
X0318182Y0170410D02*
X0338312Y0170410D01*
X0338312Y0170764D02*
X0318182Y0170764D01*
X0318182Y0171118D02*
X0338312Y0171118D01*
X0338312Y0171472D02*
X0318182Y0171472D01*
X0318182Y0171826D02*
X0338312Y0171826D01*
X0338312Y0172180D02*
X0318182Y0172180D01*
X0318182Y0172534D02*
X0338312Y0172534D01*
X0338312Y0172888D02*
X0318182Y0172888D01*
X0318182Y0173242D02*
X0338312Y0173242D01*
X0338312Y0173596D02*
X0318182Y0173596D01*
X0318182Y0173950D02*
X0338312Y0173950D01*
X0338312Y0174304D02*
X0318182Y0174304D01*
X0318182Y0174658D02*
X0338312Y0174658D01*
X0338312Y0175012D02*
X0318182Y0175012D01*
X0318182Y0175366D02*
X0338312Y0175366D01*
X0338312Y0175720D02*
X0318182Y0175720D01*
X0318182Y0180805D02*
X0338312Y0180805D01*
X0318182Y0180805D02*
X0318182Y0187549D01*
X0338312Y0187549D01*
X0338312Y0180805D01*
X0338312Y0181159D02*
X0318182Y0181159D01*
X0318182Y0181513D02*
X0338312Y0181513D01*
X0338312Y0181867D02*
X0318182Y0181867D01*
X0318182Y0182221D02*
X0338312Y0182221D01*
X0338312Y0182575D02*
X0318182Y0182575D01*
X0318182Y0182929D02*
X0338312Y0182929D01*
X0338312Y0183283D02*
X0318182Y0183283D01*
X0318182Y0183637D02*
X0338312Y0183637D01*
X0338312Y0183991D02*
X0318182Y0183991D01*
X0318182Y0184345D02*
X0338312Y0184345D01*
X0338312Y0184699D02*
X0318182Y0184699D01*
X0318182Y0185053D02*
X0338312Y0185053D01*
X0338312Y0185407D02*
X0318182Y0185407D01*
X0318182Y0185761D02*
X0338312Y0185761D01*
X0338312Y0186115D02*
X0318182Y0186115D01*
X0318182Y0186469D02*
X0338312Y0186469D01*
X0338312Y0186823D02*
X0318182Y0186823D01*
X0318182Y0187177D02*
X0338312Y0187177D01*
X0338312Y0187531D02*
X0318182Y0187531D01*
X0318182Y0192616D02*
X0338312Y0192616D01*
X0318182Y0192616D02*
X0318182Y0199360D01*
X0338312Y0199360D01*
X0338312Y0192616D01*
X0338312Y0192970D02*
X0318182Y0192970D01*
X0318182Y0193324D02*
X0338312Y0193324D01*
X0338312Y0193678D02*
X0318182Y0193678D01*
X0318182Y0194032D02*
X0338312Y0194032D01*
X0338312Y0194386D02*
X0318182Y0194386D01*
X0318182Y0194740D02*
X0338312Y0194740D01*
X0338312Y0195094D02*
X0318182Y0195094D01*
X0318182Y0195448D02*
X0338312Y0195448D01*
X0338312Y0195802D02*
X0318182Y0195802D01*
X0318182Y0196156D02*
X0338312Y0196156D01*
X0338312Y0196510D02*
X0318182Y0196510D01*
X0318182Y0196864D02*
X0338312Y0196864D01*
X0338312Y0197218D02*
X0318182Y0197218D01*
X0318182Y0197572D02*
X0338312Y0197572D01*
X0338312Y0197926D02*
X0318182Y0197926D01*
X0318182Y0198280D02*
X0338312Y0198280D01*
X0338312Y0198634D02*
X0318182Y0198634D01*
X0318182Y0198988D02*
X0338312Y0198988D01*
X0338312Y0199342D02*
X0318182Y0199342D01*
X0318182Y0204427D02*
X0338312Y0204427D01*
X0318182Y0204427D02*
X0318182Y0211171D01*
X0338312Y0211171D01*
X0338312Y0204427D01*
X0338312Y0204781D02*
X0318182Y0204781D01*
X0318182Y0205135D02*
X0338312Y0205135D01*
X0338312Y0205489D02*
X0318182Y0205489D01*
X0318182Y0205843D02*
X0338312Y0205843D01*
X0338312Y0206197D02*
X0318182Y0206197D01*
X0318182Y0206551D02*
X0338312Y0206551D01*
X0338312Y0206905D02*
X0318182Y0206905D01*
X0318182Y0207259D02*
X0338312Y0207259D01*
X0338312Y0207613D02*
X0318182Y0207613D01*
X0318182Y0207967D02*
X0338312Y0207967D01*
X0338312Y0208321D02*
X0318182Y0208321D01*
X0318182Y0208675D02*
X0338312Y0208675D01*
X0338312Y0209029D02*
X0318182Y0209029D01*
X0318182Y0209383D02*
X0338312Y0209383D01*
X0338312Y0209737D02*
X0318182Y0209737D01*
X0318182Y0210091D02*
X0338312Y0210091D01*
X0338312Y0210445D02*
X0318182Y0210445D01*
X0318182Y0210799D02*
X0338312Y0210799D01*
X0338312Y0211153D02*
X0318182Y0211153D01*
X0318182Y0216238D02*
X0338312Y0216238D01*
X0318182Y0216238D02*
X0318182Y0222982D01*
X0338312Y0222982D01*
X0338312Y0216238D01*
X0338312Y0216592D02*
X0318182Y0216592D01*
X0318182Y0216946D02*
X0338312Y0216946D01*
X0338312Y0217300D02*
X0318182Y0217300D01*
X0318182Y0217654D02*
X0338312Y0217654D01*
X0338312Y0218008D02*
X0318182Y0218008D01*
X0318182Y0218362D02*
X0338312Y0218362D01*
X0338312Y0218716D02*
X0318182Y0218716D01*
X0318182Y0219070D02*
X0338312Y0219070D01*
X0338312Y0219424D02*
X0318182Y0219424D01*
X0318182Y0219778D02*
X0338312Y0219778D01*
X0338312Y0220132D02*
X0318182Y0220132D01*
X0318182Y0220486D02*
X0338312Y0220486D01*
X0338312Y0220840D02*
X0318182Y0220840D01*
X0318182Y0221194D02*
X0338312Y0221194D01*
X0338312Y0221548D02*
X0318182Y0221548D01*
X0318182Y0221902D02*
X0338312Y0221902D01*
X0338312Y0222256D02*
X0318182Y0222256D01*
X0318182Y0222610D02*
X0338312Y0222610D01*
X0338312Y0222964D02*
X0318182Y0222964D01*
X0318182Y0228049D02*
X0338312Y0228049D01*
X0318182Y0228049D02*
X0318182Y0234793D01*
X0338312Y0234793D01*
X0338312Y0228049D01*
X0338312Y0228403D02*
X0318182Y0228403D01*
X0318182Y0228757D02*
X0338312Y0228757D01*
X0338312Y0229111D02*
X0318182Y0229111D01*
X0318182Y0229465D02*
X0338312Y0229465D01*
X0338312Y0229819D02*
X0318182Y0229819D01*
X0318182Y0230173D02*
X0338312Y0230173D01*
X0338312Y0230527D02*
X0318182Y0230527D01*
X0318182Y0230881D02*
X0338312Y0230881D01*
X0338312Y0231235D02*
X0318182Y0231235D01*
X0318182Y0231589D02*
X0338312Y0231589D01*
X0338312Y0231943D02*
X0318182Y0231943D01*
X0318182Y0232297D02*
X0338312Y0232297D01*
X0338312Y0232651D02*
X0318182Y0232651D01*
X0318182Y0233005D02*
X0338312Y0233005D01*
X0338312Y0233359D02*
X0318182Y0233359D01*
X0318182Y0233713D02*
X0338312Y0233713D01*
X0338312Y0234067D02*
X0318182Y0234067D01*
X0318182Y0234421D02*
X0338312Y0234421D01*
X0338312Y0234775D02*
X0318182Y0234775D01*
D36*
X0458232Y0216721D02*
X0477790Y0216721D01*
X0458232Y0216721D02*
X0458232Y0234311D01*
X0477790Y0234311D01*
X0477790Y0216721D01*
X0477790Y0217646D02*
X0458232Y0217646D01*
X0458232Y0218571D02*
X0477790Y0218571D01*
X0477790Y0219496D02*
X0458232Y0219496D01*
X0458232Y0220421D02*
X0477790Y0220421D01*
X0477790Y0221346D02*
X0458232Y0221346D01*
X0458232Y0222271D02*
X0477790Y0222271D01*
X0477790Y0223196D02*
X0458232Y0223196D01*
X0458232Y0224121D02*
X0477790Y0224121D01*
X0477790Y0225046D02*
X0458232Y0225046D01*
X0458232Y0225971D02*
X0477790Y0225971D01*
X0477790Y0226896D02*
X0458232Y0226896D01*
X0458232Y0227821D02*
X0477790Y0227821D01*
X0477790Y0228746D02*
X0458232Y0228746D01*
X0458232Y0229671D02*
X0477790Y0229671D01*
X0477790Y0230596D02*
X0458232Y0230596D01*
X0458232Y0231521D02*
X0477790Y0231521D01*
X0477790Y0232446D02*
X0458232Y0232446D01*
X0458232Y0233371D02*
X0477790Y0233371D01*
X0477790Y0234296D02*
X0458232Y0234296D01*
X0458232Y0193099D02*
X0477790Y0193099D01*
X0458232Y0193099D02*
X0458232Y0210689D01*
X0477790Y0210689D01*
X0477790Y0193099D01*
X0477790Y0194024D02*
X0458232Y0194024D01*
X0458232Y0194949D02*
X0477790Y0194949D01*
X0477790Y0195874D02*
X0458232Y0195874D01*
X0458232Y0196799D02*
X0477790Y0196799D01*
X0477790Y0197724D02*
X0458232Y0197724D01*
X0458232Y0198649D02*
X0477790Y0198649D01*
X0477790Y0199574D02*
X0458232Y0199574D01*
X0458232Y0200499D02*
X0477790Y0200499D01*
X0477790Y0201424D02*
X0458232Y0201424D01*
X0458232Y0202349D02*
X0477790Y0202349D01*
X0477790Y0203274D02*
X0458232Y0203274D01*
X0458232Y0204199D02*
X0477790Y0204199D01*
X0477790Y0205124D02*
X0458232Y0205124D01*
X0458232Y0206049D02*
X0477790Y0206049D01*
X0477790Y0206974D02*
X0458232Y0206974D01*
X0458232Y0207899D02*
X0477790Y0207899D01*
X0477790Y0208824D02*
X0458232Y0208824D01*
X0458232Y0209749D02*
X0477790Y0209749D01*
X0477790Y0210674D02*
X0458232Y0210674D01*
X0458232Y0145855D02*
X0477790Y0145855D01*
X0458232Y0145855D02*
X0458232Y0163445D01*
X0477790Y0163445D01*
X0477790Y0145855D01*
X0477790Y0146780D02*
X0458232Y0146780D01*
X0458232Y0147705D02*
X0477790Y0147705D01*
X0477790Y0148630D02*
X0458232Y0148630D01*
X0458232Y0149555D02*
X0477790Y0149555D01*
X0477790Y0150480D02*
X0458232Y0150480D01*
X0458232Y0151405D02*
X0477790Y0151405D01*
X0477790Y0152330D02*
X0458232Y0152330D01*
X0458232Y0153255D02*
X0477790Y0153255D01*
X0477790Y0154180D02*
X0458232Y0154180D01*
X0458232Y0155105D02*
X0477790Y0155105D01*
X0477790Y0156030D02*
X0458232Y0156030D01*
X0458232Y0156955D02*
X0477790Y0156955D01*
X0477790Y0157880D02*
X0458232Y0157880D01*
X0458232Y0158805D02*
X0477790Y0158805D01*
X0477790Y0159730D02*
X0458232Y0159730D01*
X0458232Y0160655D02*
X0477790Y0160655D01*
X0477790Y0161580D02*
X0458232Y0161580D01*
X0458232Y0162505D02*
X0477790Y0162505D01*
X0477790Y0163430D02*
X0458232Y0163430D01*
X0458232Y0122233D02*
X0477790Y0122233D01*
X0458232Y0122233D02*
X0458232Y0139823D01*
X0477790Y0139823D01*
X0477790Y0122233D01*
X0477790Y0123158D02*
X0458232Y0123158D01*
X0458232Y0124083D02*
X0477790Y0124083D01*
X0477790Y0125008D02*
X0458232Y0125008D01*
X0458232Y0125933D02*
X0477790Y0125933D01*
X0477790Y0126858D02*
X0458232Y0126858D01*
X0458232Y0127783D02*
X0477790Y0127783D01*
X0477790Y0128708D02*
X0458232Y0128708D01*
X0458232Y0129633D02*
X0477790Y0129633D01*
X0477790Y0130558D02*
X0458232Y0130558D01*
X0458232Y0131483D02*
X0477790Y0131483D01*
X0477790Y0132408D02*
X0458232Y0132408D01*
X0458232Y0133333D02*
X0477790Y0133333D01*
X0477790Y0134258D02*
X0458232Y0134258D01*
X0458232Y0135183D02*
X0477790Y0135183D01*
X0477790Y0136108D02*
X0458232Y0136108D01*
X0458232Y0137033D02*
X0477790Y0137033D01*
X0477790Y0137958D02*
X0458232Y0137958D01*
X0458232Y0138883D02*
X0477790Y0138883D01*
X0477790Y0139808D02*
X0458232Y0139808D01*
X0458232Y0098611D02*
X0477790Y0098611D01*
X0458232Y0098611D02*
X0458232Y0116201D01*
X0477790Y0116201D01*
X0477790Y0098611D01*
X0477790Y0099536D02*
X0458232Y0099536D01*
X0458232Y0100461D02*
X0477790Y0100461D01*
X0477790Y0101386D02*
X0458232Y0101386D01*
X0458232Y0102311D02*
X0477790Y0102311D01*
X0477790Y0103236D02*
X0458232Y0103236D01*
X0458232Y0104161D02*
X0477790Y0104161D01*
X0477790Y0105086D02*
X0458232Y0105086D01*
X0458232Y0106011D02*
X0477790Y0106011D01*
X0477790Y0106936D02*
X0458232Y0106936D01*
X0458232Y0107861D02*
X0477790Y0107861D01*
X0477790Y0108786D02*
X0458232Y0108786D01*
X0458232Y0109711D02*
X0477790Y0109711D01*
X0477790Y0110636D02*
X0458232Y0110636D01*
X0458232Y0111561D02*
X0477790Y0111561D01*
X0477790Y0112486D02*
X0458232Y0112486D01*
X0458232Y0113411D02*
X0477790Y0113411D01*
X0477790Y0114336D02*
X0458232Y0114336D01*
X0458232Y0115261D02*
X0477790Y0115261D01*
X0477790Y0116186D02*
X0458232Y0116186D01*
D37*
X0403161Y0084740D03*
X0403161Y0081000D03*
X0403161Y0077260D03*
X0392334Y0077260D03*
X0392334Y0081000D03*
X0392334Y0084740D03*
D38*
X0488247Y0263480D03*
X0488247Y0271000D03*
X0488247Y0278520D03*
D39*
X0565019Y0282811D03*
X0566988Y0276906D03*
X0578799Y0276906D03*
X0580767Y0282811D03*
X0580767Y0290685D03*
X0565019Y0290685D03*
X0565019Y0298559D03*
X0580767Y0298559D03*
X0578799Y0265094D03*
X0580767Y0259189D03*
X0566988Y0265094D03*
X0565019Y0259189D03*
X0565019Y0251315D03*
X0580767Y0251315D03*
X0580767Y0243441D03*
X0565019Y0243441D03*
D40*
X0560901Y0241729D02*
X0584098Y0241729D01*
X0583959Y0241357D02*
X0583098Y0239779D01*
X0582021Y0238340D01*
X0580750Y0237069D01*
X0579311Y0235992D01*
X0577733Y0235131D01*
X0576049Y0234502D01*
X0574292Y0234120D01*
X0572499Y0233992D01*
X0570706Y0234120D01*
X0568950Y0234502D01*
X0567266Y0235131D01*
X0565688Y0235992D01*
X0564249Y0237069D01*
X0562978Y0238340D01*
X0561901Y0239779D01*
X0561039Y0241357D01*
X0560411Y0243041D01*
X0560029Y0244798D01*
X0559901Y0246591D01*
X0559901Y0262339D01*
X0559950Y0263357D01*
X0560158Y0264356D01*
X0560520Y0265309D01*
X0561026Y0266194D01*
X0561664Y0266990D01*
X0562420Y0267675D01*
X0563273Y0268234D01*
X0564202Y0268653D01*
X0565186Y0268921D01*
X0566200Y0269031D01*
X0578011Y0269031D01*
X0579091Y0268977D01*
X0580150Y0268755D01*
X0581161Y0268370D01*
X0582099Y0267831D01*
X0582941Y0267153D01*
X0583666Y0266351D01*
X0584258Y0265445D01*
X0584700Y0264458D01*
X0584982Y0263414D01*
X0585098Y0262339D01*
X0585098Y0246591D01*
X0584970Y0244798D01*
X0584588Y0243041D01*
X0583959Y0241357D01*
X0583948Y0241336D02*
X0561051Y0241336D01*
X0561265Y0240944D02*
X0583734Y0240944D01*
X0583520Y0240552D02*
X0561479Y0240552D01*
X0561693Y0240160D02*
X0583306Y0240160D01*
X0583089Y0239767D02*
X0561910Y0239767D01*
X0562203Y0239375D02*
X0582795Y0239375D01*
X0582502Y0238983D02*
X0562497Y0238983D01*
X0562791Y0238591D02*
X0582208Y0238591D01*
X0581879Y0238199D02*
X0563120Y0238199D01*
X0563512Y0237806D02*
X0581487Y0237806D01*
X0581095Y0237414D02*
X0563904Y0237414D01*
X0564312Y0237022D02*
X0580686Y0237022D01*
X0580162Y0236630D02*
X0564836Y0236630D01*
X0565360Y0236238D02*
X0579639Y0236238D01*
X0579042Y0235845D02*
X0565957Y0235845D01*
X0566675Y0235453D02*
X0578324Y0235453D01*
X0577546Y0235061D02*
X0567453Y0235061D01*
X0568504Y0234669D02*
X0576495Y0234669D01*
X0575010Y0234276D02*
X0569989Y0234276D01*
X0560755Y0242121D02*
X0584244Y0242121D01*
X0584390Y0242513D02*
X0560608Y0242513D01*
X0560462Y0242905D02*
X0584537Y0242905D01*
X0584643Y0243297D02*
X0560356Y0243297D01*
X0560270Y0243690D02*
X0584729Y0243690D01*
X0584814Y0244082D02*
X0560185Y0244082D01*
X0560100Y0244474D02*
X0584899Y0244474D01*
X0584975Y0244866D02*
X0560024Y0244866D01*
X0559996Y0245258D02*
X0585003Y0245258D01*
X0585031Y0245651D02*
X0559968Y0245651D01*
X0559940Y0246043D02*
X0585059Y0246043D01*
X0585087Y0246435D02*
X0559912Y0246435D01*
X0559901Y0246827D02*
X0585098Y0246827D01*
X0585098Y0247219D02*
X0559901Y0247219D01*
X0559901Y0247612D02*
X0585098Y0247612D01*
X0585098Y0248004D02*
X0559901Y0248004D01*
X0559901Y0248396D02*
X0585098Y0248396D01*
X0585098Y0248788D02*
X0559901Y0248788D01*
X0559901Y0249181D02*
X0585098Y0249181D01*
X0585098Y0249573D02*
X0559901Y0249573D01*
X0559901Y0249965D02*
X0585098Y0249965D01*
X0585098Y0250357D02*
X0559901Y0250357D01*
X0559901Y0250749D02*
X0585098Y0250749D01*
X0585098Y0251142D02*
X0559901Y0251142D01*
X0559901Y0251534D02*
X0585098Y0251534D01*
X0585098Y0251926D02*
X0559901Y0251926D01*
X0559901Y0252318D02*
X0585098Y0252318D01*
X0585098Y0252710D02*
X0559901Y0252710D01*
X0559901Y0253103D02*
X0585098Y0253103D01*
X0585098Y0253495D02*
X0559901Y0253495D01*
X0559901Y0253887D02*
X0585098Y0253887D01*
X0585098Y0254279D02*
X0559901Y0254279D01*
X0559901Y0254672D02*
X0585098Y0254672D01*
X0585098Y0255064D02*
X0559901Y0255064D01*
X0559901Y0255456D02*
X0585098Y0255456D01*
X0585098Y0255848D02*
X0559901Y0255848D01*
X0559901Y0256240D02*
X0585098Y0256240D01*
X0585098Y0256633D02*
X0559901Y0256633D01*
X0559901Y0257025D02*
X0585098Y0257025D01*
X0585098Y0257417D02*
X0559901Y0257417D01*
X0559901Y0257809D02*
X0585098Y0257809D01*
X0585098Y0258201D02*
X0559901Y0258201D01*
X0559901Y0258594D02*
X0585098Y0258594D01*
X0585098Y0258986D02*
X0559901Y0258986D01*
X0559901Y0259378D02*
X0585098Y0259378D01*
X0585098Y0259770D02*
X0559901Y0259770D01*
X0559901Y0260162D02*
X0585098Y0260162D01*
X0585098Y0260555D02*
X0559901Y0260555D01*
X0559901Y0260947D02*
X0585098Y0260947D01*
X0585098Y0261339D02*
X0559901Y0261339D01*
X0559901Y0261731D02*
X0585098Y0261731D01*
X0585098Y0262124D02*
X0559901Y0262124D01*
X0559910Y0262516D02*
X0585079Y0262516D01*
X0585037Y0262908D02*
X0559928Y0262908D01*
X0559947Y0263300D02*
X0584994Y0263300D01*
X0584907Y0263692D02*
X0560020Y0263692D01*
X0560102Y0264085D02*
X0584801Y0264085D01*
X0584691Y0264477D02*
X0560204Y0264477D01*
X0560353Y0264869D02*
X0584516Y0264869D01*
X0584340Y0265261D02*
X0560501Y0265261D01*
X0560717Y0265653D02*
X0584121Y0265653D01*
X0583865Y0266046D02*
X0560941Y0266046D01*
X0561221Y0266438D02*
X0583587Y0266438D01*
X0583233Y0266830D02*
X0561536Y0266830D01*
X0561921Y0267222D02*
X0582854Y0267222D01*
X0582368Y0267615D02*
X0562353Y0267615D01*
X0562925Y0268007D02*
X0581793Y0268007D01*
X0581084Y0268399D02*
X0563639Y0268399D01*
X0564711Y0268791D02*
X0579978Y0268791D01*
X0579091Y0273023D02*
X0580150Y0273245D01*
X0581161Y0273630D01*
X0582099Y0274169D01*
X0582941Y0274847D01*
X0583666Y0275649D01*
X0584258Y0276555D01*
X0584700Y0277542D01*
X0584982Y0278586D01*
X0585098Y0279661D01*
X0585098Y0295409D01*
X0584970Y0297202D01*
X0584588Y0298959D01*
X0583959Y0300643D01*
X0583098Y0302221D01*
X0582021Y0303660D01*
X0580750Y0304931D01*
X0579311Y0306008D01*
X0577733Y0306869D01*
X0576049Y0307498D01*
X0574292Y0307880D01*
X0572499Y0308008D01*
X0570706Y0307880D01*
X0568950Y0307498D01*
X0567266Y0306869D01*
X0565688Y0306008D01*
X0564249Y0304931D01*
X0562978Y0303660D01*
X0561901Y0302221D01*
X0561039Y0300643D01*
X0560411Y0298959D01*
X0560029Y0297202D01*
X0559901Y0295409D01*
X0559901Y0279661D01*
X0559950Y0278643D01*
X0560158Y0277644D01*
X0560520Y0276691D01*
X0561026Y0275806D01*
X0561664Y0275010D01*
X0562420Y0274325D01*
X0563273Y0273766D01*
X0564202Y0273347D01*
X0565186Y0273079D01*
X0566200Y0272969D01*
X0578011Y0272969D01*
X0579091Y0273023D01*
X0579486Y0273105D02*
X0565090Y0273105D01*
X0563868Y0273498D02*
X0580813Y0273498D01*
X0581613Y0273890D02*
X0563083Y0273890D01*
X0562485Y0274282D02*
X0582239Y0274282D01*
X0582726Y0274674D02*
X0562035Y0274674D01*
X0561619Y0275067D02*
X0583139Y0275067D01*
X0583494Y0275459D02*
X0561304Y0275459D01*
X0561000Y0275851D02*
X0583798Y0275851D01*
X0584054Y0276243D02*
X0560776Y0276243D01*
X0560551Y0276635D02*
X0584294Y0276635D01*
X0584469Y0277028D02*
X0560392Y0277028D01*
X0560243Y0277420D02*
X0584645Y0277420D01*
X0584773Y0277812D02*
X0560123Y0277812D01*
X0560041Y0278204D02*
X0584879Y0278204D01*
X0584983Y0278596D02*
X0559960Y0278596D01*
X0559933Y0278989D02*
X0585026Y0278989D01*
X0585068Y0279381D02*
X0559915Y0279381D01*
X0559901Y0279773D02*
X0585098Y0279773D01*
X0585098Y0280165D02*
X0559901Y0280165D01*
X0559901Y0280558D02*
X0585098Y0280558D01*
X0585098Y0280950D02*
X0559901Y0280950D01*
X0559901Y0281342D02*
X0585098Y0281342D01*
X0585098Y0281734D02*
X0559901Y0281734D01*
X0559901Y0282126D02*
X0585098Y0282126D01*
X0585098Y0282519D02*
X0559901Y0282519D01*
X0559901Y0282911D02*
X0585098Y0282911D01*
X0585098Y0283303D02*
X0559901Y0283303D01*
X0559901Y0283695D02*
X0585098Y0283695D01*
X0585098Y0284087D02*
X0559901Y0284087D01*
X0559901Y0284480D02*
X0585098Y0284480D01*
X0585098Y0284872D02*
X0559901Y0284872D01*
X0559901Y0285264D02*
X0585098Y0285264D01*
X0585098Y0285656D02*
X0559901Y0285656D01*
X0559901Y0286048D02*
X0585098Y0286048D01*
X0585098Y0286441D02*
X0559901Y0286441D01*
X0559901Y0286833D02*
X0585098Y0286833D01*
X0585098Y0287225D02*
X0559901Y0287225D01*
X0559901Y0287617D02*
X0585098Y0287617D01*
X0585098Y0288010D02*
X0559901Y0288010D01*
X0559901Y0288402D02*
X0585098Y0288402D01*
X0585098Y0288794D02*
X0559901Y0288794D01*
X0559901Y0289186D02*
X0585098Y0289186D01*
X0585098Y0289578D02*
X0559901Y0289578D01*
X0559901Y0289971D02*
X0585098Y0289971D01*
X0585098Y0290363D02*
X0559901Y0290363D01*
X0559901Y0290755D02*
X0585098Y0290755D01*
X0585098Y0291147D02*
X0559901Y0291147D01*
X0559901Y0291539D02*
X0585098Y0291539D01*
X0585098Y0291932D02*
X0559901Y0291932D01*
X0559901Y0292324D02*
X0585098Y0292324D01*
X0585098Y0292716D02*
X0559901Y0292716D01*
X0559901Y0293108D02*
X0585098Y0293108D01*
X0585098Y0293501D02*
X0559901Y0293501D01*
X0559901Y0293893D02*
X0585098Y0293893D01*
X0585098Y0294285D02*
X0559901Y0294285D01*
X0559901Y0294677D02*
X0585098Y0294677D01*
X0585098Y0295069D02*
X0559901Y0295069D01*
X0559905Y0295462D02*
X0585094Y0295462D01*
X0585066Y0295854D02*
X0559933Y0295854D01*
X0559961Y0296246D02*
X0585038Y0296246D01*
X0585010Y0296638D02*
X0559989Y0296638D01*
X0560017Y0297030D02*
X0584982Y0297030D01*
X0584922Y0297423D02*
X0560077Y0297423D01*
X0560162Y0297815D02*
X0584836Y0297815D01*
X0584751Y0298207D02*
X0560248Y0298207D01*
X0560333Y0298599D02*
X0584666Y0298599D01*
X0584575Y0298991D02*
X0560423Y0298991D01*
X0560570Y0299384D02*
X0584429Y0299384D01*
X0584283Y0299776D02*
X0560716Y0299776D01*
X0560862Y0300168D02*
X0584136Y0300168D01*
X0583990Y0300560D02*
X0561009Y0300560D01*
X0561208Y0300953D02*
X0583790Y0300953D01*
X0583576Y0301345D02*
X0561423Y0301345D01*
X0561637Y0301737D02*
X0583362Y0301737D01*
X0583148Y0302129D02*
X0561851Y0302129D01*
X0562126Y0302521D02*
X0582873Y0302521D01*
X0582579Y0302914D02*
X0562420Y0302914D01*
X0562713Y0303306D02*
X0582286Y0303306D01*
X0581982Y0303698D02*
X0563017Y0303698D01*
X0563409Y0304090D02*
X0581590Y0304090D01*
X0581198Y0304482D02*
X0563801Y0304482D01*
X0564193Y0304875D02*
X0580806Y0304875D01*
X0580301Y0305267D02*
X0564698Y0305267D01*
X0565222Y0305659D02*
X0579777Y0305659D01*
X0579231Y0306051D02*
X0565768Y0306051D01*
X0566486Y0306444D02*
X0578513Y0306444D01*
X0577795Y0306836D02*
X0567204Y0306836D01*
X0568227Y0307228D02*
X0576772Y0307228D01*
X0575485Y0307620D02*
X0569514Y0307620D01*
D41*
X0279747Y0249335D03*
X0279747Y0228665D03*
D42*
X0085747Y0351500D03*
X0560747Y0351500D03*
X0560747Y0036500D03*
X0220747Y0036500D03*
D43*
X0120747Y0076000D03*
X0116747Y0076000D03*
X0210476Y0265500D03*
X0214019Y0265500D03*
X0297747Y0326000D03*
X0301747Y0326000D03*
D44*
X0536547Y0189500D02*
X0542947Y0189500D01*
X0571047Y0189500D02*
X0577447Y0189500D01*
X0577447Y0169500D02*
X0571047Y0169500D01*
X0542947Y0169500D02*
X0536547Y0169500D01*
X0536547Y0143500D02*
X0542947Y0143500D01*
X0571047Y0143500D02*
X0577447Y0143500D01*
X0577447Y0123500D02*
X0571047Y0123500D01*
X0542947Y0123500D02*
X0536547Y0123500D01*
X0536547Y0099000D02*
X0542947Y0099000D01*
X0571047Y0099000D02*
X0577447Y0099000D01*
X0577447Y0079000D02*
X0571047Y0079000D01*
X0542947Y0079000D02*
X0536547Y0079000D01*
D45*
X0204988Y0316381D03*
X0201247Y0316381D03*
X0197507Y0316381D03*
X0197507Y0326619D03*
X0201247Y0326619D03*
X0204988Y0326619D03*
D46*
X0158251Y0306000D03*
X0171244Y0296000D03*
X0158251Y0286000D03*
X0171244Y0276000D03*
X0158251Y0266000D03*
X0171244Y0256000D03*
X0158251Y0246000D03*
X0171244Y0236000D03*
X0158251Y0226000D03*
X0171244Y0216000D03*
X0158251Y0206000D03*
X0171244Y0196000D03*
X0158251Y0186000D03*
X0171244Y0176000D03*
X0158251Y0166000D03*
X0171244Y0156000D03*
X0158251Y0146000D03*
X0171244Y0136000D03*
X0158251Y0126000D03*
X0171244Y0116000D03*
X0158251Y0106000D03*
X0171244Y0096000D03*
X0158251Y0086000D03*
X0171244Y0076000D03*
X0158251Y0066000D03*
X0171244Y0056000D03*
X0091244Y0056000D03*
X0078251Y0066000D03*
X0091244Y0076000D03*
X0078251Y0086000D03*
X0091244Y0096000D03*
X0078251Y0106000D03*
X0091244Y0116000D03*
X0078251Y0126000D03*
X0091244Y0136000D03*
X0078251Y0146000D03*
X0091244Y0156000D03*
X0078251Y0166000D03*
X0091244Y0176000D03*
X0078251Y0186000D03*
X0091244Y0196000D03*
X0078251Y0206000D03*
X0091244Y0216000D03*
X0078251Y0226000D03*
X0091244Y0236000D03*
X0078251Y0246000D03*
X0091244Y0256000D03*
X0078251Y0266000D03*
X0091244Y0276000D03*
X0078251Y0286000D03*
X0091244Y0296000D03*
X0078251Y0306000D03*
D47*
X0103747Y0370500D03*
X0113747Y0370500D03*
X0123747Y0370500D03*
X0133747Y0370500D03*
X0143747Y0370500D03*
X0153747Y0370500D03*
D48*
X0225055Y0106354D03*
X0225055Y0100646D03*
X0238440Y0100646D03*
X0238440Y0106354D03*
M02*
