G75*
%MOIN*%
%OFA0B0*%
%FSLAX25Y25*%
%IPPOS*%
%LPD*%
%AMOC8*
5,1,8,0,0,1.08239X$1,22.5*
%
%ADD10C,0.03400*%
%ADD11C,0.01500*%
%ADD12C,0.00700*%
%ADD13C,0.00400*%
%ADD14C,0.01000*%
%ADD15C,0.00600*%
%ADD16C,0.00900*%
%ADD17C,0.00500*%
D10*
X0595947Y0252007D02*
X0607024Y0252007D01*
X0600986Y0285469D02*
X0600986Y0296545D01*
X0606524Y0291007D02*
X0595447Y0291007D01*
D11*
X0597629Y0185356D02*
X0595260Y0182987D01*
X0595260Y0178250D01*
X0595260Y0181803D02*
X0599997Y0181803D01*
X0599997Y0182987D02*
X0597629Y0185356D01*
X0599997Y0182987D02*
X0599997Y0178250D01*
X0599997Y0143356D02*
X0596444Y0143356D01*
X0595260Y0142172D01*
X0595260Y0140987D01*
X0596444Y0139803D01*
X0599997Y0139803D01*
X0596444Y0139803D02*
X0595260Y0138619D01*
X0595260Y0137434D01*
X0596444Y0136250D01*
X0599997Y0136250D01*
X0599997Y0143356D01*
X0598813Y0105356D02*
X0599997Y0104172D01*
X0599997Y0099434D01*
X0598813Y0098250D01*
X0596444Y0098250D01*
X0595260Y0099434D01*
X0595260Y0104172D02*
X0596444Y0105356D01*
X0598813Y0105356D01*
D12*
X0697497Y0061702D02*
X0697497Y0056431D01*
X0697497Y0059067D02*
X0705404Y0059067D01*
X0702769Y0056431D01*
X0705404Y0053784D02*
X0705404Y0048512D01*
X0705404Y0051148D02*
X0697497Y0051148D01*
X0697097Y0044540D02*
X0697097Y0039269D01*
X0702369Y0044540D01*
X0703686Y0044540D01*
X0705004Y0043222D01*
X0705004Y0040587D01*
X0703686Y0039269D01*
X0705004Y0036621D02*
X0705004Y0031350D01*
X0705004Y0033986D02*
X0697097Y0033986D01*
X0697915Y0028040D02*
X0696597Y0026722D01*
X0696597Y0024087D01*
X0697915Y0022769D01*
X0700551Y0025404D02*
X0700551Y0026722D01*
X0699233Y0028040D01*
X0697915Y0028040D01*
X0700551Y0026722D02*
X0701869Y0028040D01*
X0703186Y0028040D01*
X0704504Y0026722D01*
X0704504Y0024087D01*
X0703186Y0022769D01*
X0704504Y0020121D02*
X0704504Y0014850D01*
X0704504Y0017486D02*
X0696597Y0017486D01*
X0653404Y0018931D02*
X0653404Y0022885D01*
X0652086Y0024202D01*
X0646815Y0024202D01*
X0645497Y0022885D01*
X0645497Y0018931D01*
X0653404Y0018931D01*
X0653904Y0052431D02*
X0645997Y0052431D01*
X0648633Y0052431D02*
X0648633Y0056385D01*
X0649951Y0057702D01*
X0652586Y0057702D01*
X0653904Y0056385D01*
X0653904Y0052431D01*
X0648633Y0055067D02*
X0645997Y0057702D01*
D13*
X0647715Y0043477D02*
X0650784Y0043477D01*
X0651551Y0042710D01*
X0651551Y0040408D01*
X0646947Y0040408D01*
X0646947Y0042710D01*
X0647715Y0043477D01*
X0646947Y0038873D02*
X0651551Y0038873D01*
X0651551Y0035804D02*
X0646947Y0038873D01*
X0646947Y0035804D02*
X0651551Y0035804D01*
X0650784Y0034269D02*
X0651551Y0033502D01*
X0651551Y0031967D01*
X0650784Y0031200D01*
X0647715Y0031200D01*
X0646947Y0031967D01*
X0646947Y0033502D01*
X0647715Y0034269D01*
X0649249Y0034269D01*
X0649249Y0032735D01*
D14*
X0551240Y0251315D02*
X0500058Y0251315D01*
X0500058Y0290685D01*
X0551240Y0290685D01*
X0551240Y0251315D01*
X0696747Y0330267D02*
X0703753Y0330267D01*
X0700250Y0330267D02*
X0700250Y0334938D01*
X0703753Y0334938D02*
X0696747Y0334938D01*
X0697915Y0337634D02*
X0696747Y0338801D01*
X0696747Y0341137D01*
X0697915Y0342304D01*
X0699083Y0342304D01*
X0700250Y0341137D01*
X0700250Y0339969D01*
X0700250Y0341137D02*
X0701418Y0342304D01*
X0702586Y0342304D01*
X0703753Y0341137D01*
X0703753Y0338801D01*
X0702586Y0337634D01*
X0703753Y0346767D02*
X0696747Y0346767D01*
X0700250Y0346767D02*
X0700250Y0351438D01*
X0703753Y0351438D02*
X0696747Y0351438D01*
X0696747Y0354134D02*
X0701418Y0358804D01*
X0702586Y0358804D01*
X0703753Y0357637D01*
X0703753Y0355301D01*
X0702586Y0354134D01*
X0696747Y0354134D02*
X0696747Y0358804D01*
X0696747Y0363767D02*
X0703753Y0363767D01*
X0700250Y0363767D02*
X0700250Y0368438D01*
X0701418Y0371134D02*
X0703753Y0373469D01*
X0696747Y0373469D01*
X0696747Y0371134D02*
X0696747Y0375804D01*
X0696747Y0368438D02*
X0703753Y0368438D01*
X0652753Y0351938D02*
X0652753Y0347267D01*
X0649250Y0347267D01*
X0650418Y0349603D01*
X0650418Y0350770D01*
X0649250Y0351938D01*
X0646915Y0351938D01*
X0645747Y0350770D01*
X0645747Y0348435D01*
X0646915Y0347267D01*
X0650418Y0354634D02*
X0645747Y0356969D01*
X0650418Y0359304D01*
D15*
X0649717Y0365488D02*
X0646781Y0365488D01*
X0646047Y0366222D01*
X0646047Y0367690D01*
X0646781Y0368424D01*
X0648249Y0368424D01*
X0648249Y0366956D01*
X0649717Y0365488D02*
X0650451Y0366222D01*
X0650451Y0367690D01*
X0649717Y0368424D01*
X0650451Y0370092D02*
X0646047Y0373028D01*
X0650451Y0373028D01*
X0650451Y0374696D02*
X0650451Y0376898D01*
X0649717Y0377632D01*
X0646781Y0377632D01*
X0646047Y0376898D01*
X0646047Y0374696D01*
X0650451Y0374696D01*
X0650451Y0370092D02*
X0646047Y0370092D01*
X0646781Y0340132D02*
X0649717Y0340132D01*
X0650451Y0339398D01*
X0650451Y0337196D01*
X0646047Y0337196D01*
X0646047Y0339398D01*
X0646781Y0340132D01*
X0646047Y0335528D02*
X0650451Y0335528D01*
X0650451Y0332592D02*
X0646047Y0335528D01*
X0646047Y0332592D02*
X0650451Y0332592D01*
X0649717Y0330924D02*
X0650451Y0330190D01*
X0650451Y0328722D01*
X0649717Y0327988D01*
X0646781Y0327988D01*
X0646047Y0328722D01*
X0646047Y0330190D01*
X0646781Y0330924D01*
X0648249Y0330924D01*
X0648249Y0329456D01*
X0155451Y0376800D02*
X0153249Y0376800D01*
X0153983Y0378268D01*
X0153983Y0379002D01*
X0153249Y0379736D01*
X0151781Y0379736D01*
X0151047Y0379002D01*
X0151047Y0377534D01*
X0151781Y0376800D01*
X0155451Y0376800D02*
X0155451Y0379736D01*
X0153983Y0381404D02*
X0151047Y0382872D01*
X0153983Y0384340D01*
X0145451Y0384340D02*
X0141047Y0381404D01*
X0141047Y0384340D02*
X0145451Y0381404D01*
X0145451Y0379736D02*
X0145451Y0376800D01*
X0145451Y0378268D02*
X0141047Y0378268D01*
X0135451Y0379002D02*
X0134717Y0379736D01*
X0133249Y0379736D01*
X0132515Y0379002D01*
X0132515Y0376800D01*
X0131047Y0376800D02*
X0135451Y0376800D01*
X0135451Y0379002D01*
X0135451Y0381404D02*
X0131047Y0384340D01*
X0131047Y0381404D02*
X0135451Y0384340D01*
X0131047Y0379736D02*
X0132515Y0378268D01*
X0125451Y0379002D02*
X0125451Y0376800D01*
X0121047Y0376800D01*
X0121047Y0379002D01*
X0121781Y0379736D01*
X0124717Y0379736D01*
X0125451Y0379002D01*
X0124717Y0381404D02*
X0121781Y0381404D01*
X0121047Y0382138D01*
X0121047Y0383606D01*
X0121781Y0384340D01*
X0124717Y0384340D01*
X0125451Y0383606D01*
X0125451Y0382138D01*
X0124717Y0381404D01*
X0115451Y0382071D02*
X0114717Y0382805D01*
X0111781Y0382805D01*
X0111047Y0382071D01*
X0111047Y0380603D01*
X0111781Y0379869D01*
X0114717Y0379869D01*
X0115451Y0380603D01*
X0115451Y0382071D01*
X0115451Y0378268D02*
X0115451Y0376800D01*
X0115451Y0377534D02*
X0111047Y0377534D01*
X0111047Y0376800D02*
X0111047Y0378268D01*
X0105447Y0380034D02*
X0105447Y0382970D01*
X0104713Y0383704D01*
X0103246Y0383704D01*
X0102512Y0382970D01*
X0102512Y0381502D02*
X0103980Y0381502D01*
X0102512Y0381502D02*
X0102512Y0380034D01*
X0103246Y0379300D01*
X0104713Y0379300D01*
X0105447Y0380034D01*
X0100844Y0379300D02*
X0100844Y0383704D01*
X0097908Y0379300D01*
X0097908Y0383704D01*
X0096240Y0383704D02*
X0094038Y0383704D01*
X0093304Y0382970D01*
X0093304Y0380034D01*
X0094038Y0379300D01*
X0096240Y0379300D01*
X0096240Y0383704D01*
D16*
X0315298Y0032204D02*
X0316349Y0031154D01*
X0315298Y0032204D02*
X0315298Y0034306D01*
X0317400Y0034306D02*
X0317400Y0032204D01*
X0318451Y0031154D01*
X0320661Y0030103D02*
X0320661Y0034306D01*
X0323033Y0031154D02*
X0326186Y0029052D01*
X0323033Y0026950D01*
X0320661Y0026950D02*
X0320661Y0028001D01*
X0326186Y0026950D02*
X0326186Y0033255D01*
X0328612Y0030103D02*
X0328612Y0026950D01*
X0328612Y0030103D02*
X0329663Y0031154D01*
X0332815Y0031154D01*
X0332815Y0026950D01*
X0335133Y0026950D02*
X0337235Y0026950D01*
X0336184Y0026950D02*
X0336184Y0031154D01*
X0337235Y0031154D01*
X0336184Y0033255D02*
X0336184Y0034306D01*
X0339607Y0031154D02*
X0340658Y0031154D01*
X0342760Y0029052D01*
X0342760Y0026950D02*
X0342760Y0031154D01*
X0345186Y0030103D02*
X0345186Y0026950D01*
X0345186Y0030103D02*
X0346237Y0031154D01*
X0348338Y0031154D01*
X0349389Y0030103D01*
X0351815Y0031154D02*
X0354968Y0031154D01*
X0356019Y0030103D01*
X0354968Y0029052D01*
X0352866Y0029052D01*
X0351815Y0028001D01*
X0352866Y0026950D01*
X0356019Y0026950D01*
X0358337Y0026950D02*
X0359388Y0028001D01*
X0359388Y0032204D01*
X0360439Y0031154D02*
X0358337Y0031154D01*
X0362865Y0030103D02*
X0362865Y0026950D01*
X0366018Y0026950D01*
X0367068Y0028001D01*
X0366018Y0029052D01*
X0362865Y0029052D01*
X0362865Y0030103D02*
X0363916Y0031154D01*
X0366018Y0031154D01*
X0369495Y0030103D02*
X0369495Y0029052D01*
X0373698Y0029052D01*
X0373698Y0028001D02*
X0373698Y0030103D01*
X0372647Y0031154D01*
X0370545Y0031154D01*
X0369495Y0030103D01*
X0370545Y0026950D02*
X0372647Y0026950D01*
X0373698Y0028001D01*
X0376124Y0026950D02*
X0376124Y0030103D01*
X0377175Y0031154D01*
X0379277Y0031154D01*
X0380328Y0030103D01*
X0380328Y0033255D02*
X0380328Y0026950D01*
X0389384Y0029052D02*
X0389384Y0030103D01*
X0390434Y0031154D01*
X0392536Y0031154D01*
X0393587Y0030103D01*
X0393587Y0028001D01*
X0392536Y0026950D01*
X0390434Y0026950D01*
X0389384Y0029052D02*
X0393587Y0029052D01*
X0396013Y0030103D02*
X0396013Y0026950D01*
X0396013Y0030103D02*
X0397064Y0031154D01*
X0399166Y0031154D01*
X0400217Y0030103D01*
X0402535Y0031154D02*
X0404637Y0031154D01*
X0403586Y0032204D02*
X0403586Y0028001D01*
X0402535Y0026950D01*
X0400217Y0026950D02*
X0400217Y0033255D01*
X0413584Y0031154D02*
X0415686Y0031154D01*
X0414635Y0032204D02*
X0414635Y0028001D01*
X0413584Y0026950D01*
X0418112Y0029052D02*
X0418112Y0030103D01*
X0419163Y0031154D01*
X0421265Y0031154D01*
X0422316Y0030103D01*
X0422316Y0028001D01*
X0421265Y0026950D01*
X0419163Y0026950D01*
X0418112Y0029052D02*
X0422316Y0029052D01*
X0424742Y0031154D02*
X0424742Y0025899D01*
X0425793Y0024848D01*
X0426844Y0024848D01*
X0427894Y0026950D02*
X0424742Y0026950D01*
X0427894Y0026950D02*
X0428945Y0028001D01*
X0428945Y0030103D01*
X0427894Y0031154D01*
X0424742Y0031154D01*
X0431317Y0031154D02*
X0432368Y0031154D01*
X0434470Y0029052D01*
X0434470Y0026950D02*
X0434470Y0031154D01*
X0436896Y0030103D02*
X0436896Y0028001D01*
X0437947Y0026950D01*
X0440049Y0026950D01*
X0441100Y0028001D01*
X0441100Y0030103D01*
X0440049Y0031154D01*
X0437947Y0031154D01*
X0436896Y0030103D01*
X0443418Y0030103D02*
X0445519Y0030103D01*
X0444469Y0032204D02*
X0444469Y0026950D01*
X0444469Y0032204D02*
X0443418Y0033255D01*
X0454467Y0031154D02*
X0456569Y0031154D01*
X0455518Y0032204D02*
X0455518Y0028001D01*
X0454467Y0026950D01*
X0458833Y0032204D02*
X0459884Y0031154D01*
X0458833Y0032204D02*
X0458833Y0034306D01*
X0462310Y0030103D02*
X0462310Y0026950D01*
X0462310Y0030103D02*
X0463361Y0031154D01*
X0466513Y0031154D01*
X0466513Y0026950D01*
X0468939Y0028001D02*
X0468939Y0030103D01*
X0469990Y0031154D01*
X0472092Y0031154D01*
X0473143Y0030103D01*
X0473143Y0028001D01*
X0472092Y0026950D01*
X0469990Y0026950D01*
X0468939Y0028001D01*
X0475569Y0028001D02*
X0475569Y0032204D01*
X0476620Y0033255D01*
X0479773Y0033255D01*
X0479773Y0026950D01*
X0476620Y0026950D01*
X0475569Y0028001D01*
X0482145Y0032204D02*
X0483196Y0031154D01*
X0484247Y0032204D02*
X0485297Y0031154D01*
X0484247Y0032204D02*
X0484247Y0034306D01*
X0482145Y0034306D02*
X0482145Y0032204D01*
X0349389Y0033255D02*
X0349389Y0026950D01*
D17*
X0271873Y0225614D02*
X0266755Y0225614D01*
X0287621Y0252386D02*
X0292740Y0252386D01*
X0543881Y0295322D02*
X0543881Y0296223D01*
X0544332Y0296674D01*
X0546584Y0296674D01*
X0545232Y0297819D02*
X0545232Y0299170D01*
X0544782Y0299620D01*
X0544332Y0299620D01*
X0543881Y0299170D01*
X0543881Y0298269D01*
X0544332Y0297819D01*
X0545232Y0297819D01*
X0546133Y0298719D01*
X0546584Y0299620D01*
X0546584Y0294872D02*
X0544332Y0294872D01*
X0543881Y0295322D01*
M02*
