G75*
%MOIN*%
%OFA0B0*%
%FSLAX25Y25*%
%IPPOS*%
%LPD*%
%AMOC8*
5,1,8,0,0,1.08239X$1,22.5*
%
%ADD10C,0.01700*%
%ADD11C,0.01500*%
%ADD12C,0.00500*%
%ADD13C,0.01100*%
%ADD14C,0.03400*%
%ADD15C,0.00800*%
%ADD16C,0.00600*%
%ADD17C,0.00400*%
%ADD18C,0.01600*%
%ADD19C,0.01969*%
%ADD20R,0.03400X0.03700*%
%ADD21C,0.01000*%
%ADD22R,0.04000X0.40000*%
D10*
X0567097Y0317235D02*
X0568482Y0315850D01*
X0571251Y0315850D01*
X0572636Y0317235D01*
X0572636Y0318619D01*
X0571251Y0320004D01*
X0567097Y0320004D01*
X0567097Y0317235D01*
X0567097Y0320004D02*
X0569866Y0322773D01*
X0572636Y0324157D01*
X0576305Y0322773D02*
X0576305Y0317235D01*
X0581843Y0322773D01*
X0581843Y0317235D01*
X0580459Y0315850D01*
X0577690Y0315850D01*
X0576305Y0317235D01*
X0576305Y0322773D02*
X0577690Y0324157D01*
X0580459Y0324157D01*
X0581843Y0322773D01*
X0585513Y0324157D02*
X0585513Y0318619D01*
X0588282Y0315850D01*
X0591051Y0318619D01*
X0591051Y0324157D01*
X0603929Y0324157D02*
X0603929Y0315850D01*
X0609467Y0315850D02*
X0609467Y0324157D01*
X0606698Y0321388D01*
X0603929Y0324157D01*
X0613137Y0321388D02*
X0615906Y0324157D01*
X0618675Y0321388D01*
X0618675Y0315850D01*
X0622345Y0315850D02*
X0627883Y0324157D01*
X0622345Y0324157D02*
X0627883Y0315850D01*
X0618675Y0320004D02*
X0613137Y0320004D01*
X0613137Y0321388D02*
X0613137Y0315850D01*
D11*
X0603866Y0185356D02*
X0601497Y0182987D01*
X0601497Y0178250D01*
X0601497Y0181803D02*
X0606235Y0181803D01*
X0606235Y0182987D02*
X0606235Y0178250D01*
X0606235Y0182987D02*
X0603866Y0185356D01*
X0605050Y0143356D02*
X0601497Y0143356D01*
X0601497Y0136250D01*
X0605050Y0136250D01*
X0606235Y0137434D01*
X0606235Y0138619D01*
X0605050Y0139803D01*
X0601497Y0139803D01*
X0605050Y0139803D02*
X0606235Y0140987D01*
X0606235Y0142172D01*
X0605050Y0143356D01*
X0605050Y0105356D02*
X0602682Y0105356D01*
X0601497Y0104172D01*
X0601497Y0099434D01*
X0602682Y0098250D01*
X0605050Y0098250D01*
X0606235Y0099434D01*
X0606235Y0104172D02*
X0605050Y0105356D01*
X0415500Y0038757D02*
X0415500Y0030250D01*
X0409829Y0030250D02*
X0409829Y0038757D01*
X0412665Y0035922D01*
X0415500Y0038757D01*
X0397085Y0038757D02*
X0391413Y0038757D01*
X0391413Y0030250D01*
X0397085Y0030250D01*
X0394249Y0034504D02*
X0391413Y0034504D01*
X0378669Y0033086D02*
X0378669Y0031668D01*
X0377251Y0030250D01*
X0374415Y0030250D01*
X0372997Y0031668D01*
X0374415Y0034504D02*
X0377251Y0034504D01*
X0378669Y0033086D01*
X0378669Y0037339D02*
X0377251Y0038757D01*
X0374415Y0038757D01*
X0372997Y0037339D01*
X0372997Y0035922D01*
X0374415Y0034504D01*
D12*
X0082799Y0014250D02*
X0080997Y0014250D01*
X0080997Y0016952D01*
X0082799Y0016952D01*
X0083944Y0016052D02*
X0085295Y0016052D01*
X0085745Y0015601D01*
X0085745Y0014250D01*
X0086890Y0014700D02*
X0087341Y0014250D01*
X0088692Y0014250D01*
X0088692Y0013800D02*
X0088692Y0016052D01*
X0087341Y0016052D01*
X0086890Y0015601D01*
X0086890Y0014700D01*
X0087791Y0013349D02*
X0088242Y0013349D01*
X0088692Y0013800D01*
X0089837Y0014250D02*
X0090738Y0014250D01*
X0090287Y0014250D02*
X0090287Y0016052D01*
X0089837Y0016052D01*
X0090287Y0016952D02*
X0090287Y0017403D01*
X0091801Y0016052D02*
X0093152Y0016052D01*
X0093603Y0015601D01*
X0093603Y0014250D01*
X0094748Y0014700D02*
X0094748Y0015601D01*
X0095198Y0016052D01*
X0096099Y0016052D01*
X0096549Y0015601D01*
X0096549Y0015151D01*
X0094748Y0015151D01*
X0094748Y0014700D02*
X0095198Y0014250D01*
X0096099Y0014250D01*
X0097694Y0014700D02*
X0097694Y0015601D01*
X0098145Y0016052D01*
X0099046Y0016052D01*
X0099496Y0015601D01*
X0099496Y0015151D01*
X0097694Y0015151D01*
X0097694Y0014700D02*
X0098145Y0014250D01*
X0099046Y0014250D01*
X0100641Y0014250D02*
X0100641Y0016052D01*
X0101542Y0016052D02*
X0101992Y0016052D01*
X0101542Y0016052D02*
X0100641Y0015151D01*
X0103096Y0015601D02*
X0103096Y0016052D01*
X0103547Y0016052D01*
X0103547Y0015601D01*
X0103096Y0015601D01*
X0103096Y0014700D02*
X0103096Y0014250D01*
X0103547Y0014250D01*
X0103547Y0014700D01*
X0103096Y0014700D01*
X0107516Y0016952D02*
X0109318Y0016952D01*
X0108417Y0016952D02*
X0108417Y0014250D01*
X0110463Y0014700D02*
X0110913Y0014250D01*
X0111814Y0014250D01*
X0112264Y0014700D01*
X0112264Y0015601D01*
X0111814Y0016052D01*
X0110913Y0016052D01*
X0110463Y0015601D01*
X0110463Y0014700D01*
X0113409Y0014250D02*
X0113409Y0016052D01*
X0113860Y0016052D01*
X0114310Y0015601D01*
X0114760Y0016052D01*
X0115211Y0015601D01*
X0115211Y0014250D01*
X0114310Y0014250D02*
X0114310Y0015601D01*
X0119302Y0016952D02*
X0119302Y0014250D01*
X0120653Y0014250D01*
X0121104Y0014700D01*
X0121104Y0016502D01*
X0120653Y0016952D01*
X0119302Y0016952D01*
X0122249Y0016052D02*
X0122699Y0016502D01*
X0122699Y0017403D01*
X0123722Y0016052D02*
X0124623Y0016952D01*
X0125523Y0016052D01*
X0125523Y0014250D01*
X0126668Y0014700D02*
X0127119Y0014250D01*
X0128470Y0014250D01*
X0128470Y0013800D02*
X0128470Y0016052D01*
X0127119Y0016052D01*
X0126668Y0015601D01*
X0126668Y0014700D01*
X0125523Y0015601D02*
X0123722Y0015601D01*
X0123722Y0016052D02*
X0123722Y0014250D01*
X0127569Y0013349D02*
X0128020Y0013349D01*
X0128470Y0013800D01*
X0129615Y0014700D02*
X0130065Y0014250D01*
X0130966Y0014250D01*
X0131417Y0014700D01*
X0131417Y0015601D01*
X0130966Y0016052D01*
X0130065Y0016052D01*
X0129615Y0015601D01*
X0129615Y0014700D01*
X0132561Y0014250D02*
X0133913Y0014250D01*
X0134363Y0014700D01*
X0133913Y0015151D01*
X0133012Y0015151D01*
X0132561Y0015601D01*
X0133012Y0016052D01*
X0134363Y0016052D01*
X0135508Y0016052D02*
X0136409Y0016052D01*
X0135958Y0016502D02*
X0135958Y0014700D01*
X0136409Y0014250D01*
X0137472Y0014250D02*
X0138373Y0014250D01*
X0137923Y0014250D02*
X0137923Y0016052D01*
X0137472Y0016052D01*
X0137923Y0016952D02*
X0137923Y0017403D01*
X0139437Y0016052D02*
X0140788Y0016052D01*
X0141238Y0015601D01*
X0141238Y0014250D01*
X0142383Y0014700D02*
X0142834Y0014250D01*
X0143734Y0014250D01*
X0144185Y0014700D01*
X0144185Y0015601D01*
X0143734Y0016052D01*
X0142834Y0016052D01*
X0142383Y0015601D01*
X0142383Y0014700D01*
X0139437Y0014250D02*
X0139437Y0016052D01*
X0137801Y0024250D02*
X0137801Y0026052D01*
X0136900Y0026952D01*
X0135999Y0026052D01*
X0135999Y0024250D01*
X0135999Y0025601D02*
X0137801Y0025601D01*
X0131908Y0026052D02*
X0131007Y0024250D01*
X0130106Y0026052D01*
X0128961Y0025601D02*
X0128961Y0025151D01*
X0127160Y0025151D01*
X0127160Y0025601D02*
X0127160Y0024700D01*
X0127610Y0024250D01*
X0128511Y0024250D01*
X0128961Y0025601D02*
X0128511Y0026052D01*
X0127610Y0026052D01*
X0127160Y0025601D01*
X0126015Y0025601D02*
X0125564Y0025151D01*
X0124213Y0025151D01*
X0125114Y0025151D02*
X0126015Y0024250D01*
X0126015Y0025601D02*
X0126015Y0026502D01*
X0125564Y0026952D01*
X0124213Y0026952D01*
X0124213Y0024250D01*
X0120162Y0026052D02*
X0119712Y0026052D01*
X0118811Y0025151D01*
X0118811Y0024250D02*
X0118811Y0026052D01*
X0117666Y0025601D02*
X0117666Y0025151D01*
X0115865Y0025151D01*
X0115865Y0025601D02*
X0115865Y0024700D01*
X0116315Y0024250D01*
X0117216Y0024250D01*
X0117666Y0025601D02*
X0117216Y0026052D01*
X0116315Y0026052D01*
X0115865Y0025601D01*
X0114801Y0024250D02*
X0113900Y0024250D01*
X0114351Y0024250D02*
X0114351Y0026952D01*
X0113900Y0026952D01*
X0112386Y0026952D02*
X0112386Y0024250D01*
X0111936Y0024250D02*
X0112837Y0024250D01*
X0110791Y0024700D02*
X0110791Y0025601D01*
X0110341Y0026052D01*
X0109440Y0026052D01*
X0108989Y0025601D01*
X0108989Y0024700D01*
X0109440Y0024250D01*
X0110341Y0024250D01*
X0110791Y0024700D01*
X0111936Y0026952D02*
X0112386Y0026952D01*
X0107885Y0026052D02*
X0107435Y0026052D01*
X0106534Y0025151D01*
X0106534Y0024250D02*
X0106534Y0026052D01*
X0105470Y0026052D02*
X0104570Y0026052D01*
X0105020Y0026502D02*
X0105020Y0024700D01*
X0105470Y0024250D01*
X0103425Y0024250D02*
X0103425Y0025601D01*
X0102974Y0026052D01*
X0101623Y0026052D01*
X0101623Y0024250D01*
X0100478Y0024700D02*
X0100478Y0025601D01*
X0100028Y0026052D01*
X0099127Y0026052D01*
X0098677Y0025601D01*
X0098677Y0024700D01*
X0099127Y0024250D01*
X0100028Y0024250D01*
X0100478Y0024700D01*
X0097532Y0024700D02*
X0097081Y0024250D01*
X0096180Y0024250D01*
X0095730Y0024700D01*
X0095730Y0026502D01*
X0096180Y0026952D01*
X0097081Y0026952D01*
X0097532Y0026502D01*
X0091639Y0026502D02*
X0091188Y0026952D01*
X0090287Y0026952D01*
X0089837Y0026502D01*
X0089837Y0024700D01*
X0090287Y0024250D01*
X0091188Y0024250D01*
X0091639Y0024700D01*
X0088692Y0024700D02*
X0088692Y0026502D01*
X0088242Y0026952D01*
X0086890Y0026952D01*
X0086890Y0024250D01*
X0088242Y0024250D01*
X0088692Y0024700D01*
X0085745Y0024250D02*
X0083944Y0024250D01*
X0083944Y0026952D01*
X0082799Y0026502D02*
X0082799Y0026052D01*
X0082349Y0025601D01*
X0080997Y0025601D01*
X0080997Y0024250D02*
X0080997Y0026952D01*
X0082349Y0026952D01*
X0082799Y0026502D01*
X0082349Y0025601D02*
X0082799Y0025151D01*
X0082799Y0024700D01*
X0082349Y0024250D01*
X0080997Y0024250D01*
X0080997Y0015601D02*
X0081898Y0015601D01*
X0083944Y0016052D02*
X0083944Y0014250D01*
X0091801Y0014250D02*
X0091801Y0016052D01*
X0074747Y0036000D02*
X0109747Y0036000D01*
X0139747Y0036000D01*
X0139747Y0051000D01*
X0109747Y0051000D01*
X0109747Y0036000D01*
X0139747Y0036000D02*
X0174747Y0036000D01*
X0174747Y0051000D01*
X0169669Y0050606D02*
X0169669Y0052654D01*
X0169669Y0050606D02*
X0159826Y0050606D01*
X0159826Y0063154D01*
X0169669Y0059106D02*
X0169669Y0072894D01*
X0169669Y0079106D02*
X0169669Y0092894D01*
X0159826Y0088768D02*
X0159826Y0103232D01*
X0159826Y0109346D02*
X0159826Y0111394D01*
X0159826Y0110606D02*
X0159826Y0123154D01*
X0159826Y0128768D02*
X0159826Y0143232D01*
X0169669Y0139106D02*
X0169669Y0152894D01*
X0169669Y0158846D02*
X0169669Y0171394D01*
X0169669Y0170606D02*
X0169669Y0172654D01*
X0159826Y0171394D02*
X0159826Y0169346D01*
X0159826Y0170606D02*
X0159826Y0183154D01*
X0159826Y0188768D02*
X0159826Y0203232D01*
X0159826Y0208768D02*
X0159826Y0223232D01*
X0169669Y0218846D02*
X0169669Y0231394D01*
X0169669Y0230606D02*
X0169669Y0232654D01*
X0169669Y0239106D02*
X0169669Y0252894D01*
X0159826Y0248768D02*
X0159826Y0263232D01*
X0159826Y0268768D02*
X0159826Y0283232D01*
X0159826Y0289346D02*
X0159826Y0291394D01*
X0159747Y0291000D02*
X0159747Y0301000D01*
X0159747Y0311000D02*
X0169747Y0311000D01*
X0174747Y0311000D02*
X0174747Y0326000D01*
X0074747Y0326000D01*
X0074747Y0311000D01*
X0079826Y0311394D02*
X0079826Y0309346D01*
X0079826Y0311394D02*
X0089669Y0311394D01*
X0089669Y0298846D01*
X0089669Y0293232D02*
X0089669Y0278768D01*
X0089669Y0273232D02*
X0089669Y0258768D01*
X0079826Y0263154D02*
X0079826Y0250606D01*
X0079826Y0251394D02*
X0079826Y0249346D01*
X0089669Y0250606D02*
X0089669Y0252654D01*
X0089669Y0251394D02*
X0089669Y0238846D01*
X0089669Y0233232D02*
X0089669Y0218768D01*
X0089669Y0213232D02*
X0089669Y0198768D01*
X0079826Y0203154D02*
X0079826Y0190606D01*
X0079826Y0191394D02*
X0079826Y0189346D01*
X0079826Y0182894D02*
X0079826Y0169106D01*
X0089669Y0173232D02*
X0089669Y0158768D01*
X0089669Y0153232D02*
X0089669Y0138768D01*
X0089669Y0132654D02*
X0089669Y0130606D01*
X0089669Y0131394D02*
X0089669Y0118846D01*
X0079826Y0122894D02*
X0079826Y0109106D01*
X0079826Y0102894D02*
X0079826Y0089106D01*
X0089669Y0093232D02*
X0089669Y0078768D01*
X0089669Y0072654D02*
X0089669Y0070606D01*
X0089747Y0071000D02*
X0089747Y0061000D01*
X0102497Y0062500D02*
X0102497Y0065202D01*
X0103849Y0065202D01*
X0104299Y0064752D01*
X0104299Y0063851D01*
X0103849Y0063401D01*
X0102497Y0063401D01*
X0103398Y0063401D02*
X0104299Y0062500D01*
X0105444Y0062500D02*
X0107245Y0062500D01*
X0106345Y0062500D02*
X0106345Y0065202D01*
X0105444Y0064302D01*
X0108390Y0063851D02*
X0109291Y0064302D01*
X0109742Y0064302D01*
X0110192Y0063851D01*
X0110192Y0062950D01*
X0109742Y0062500D01*
X0108841Y0062500D01*
X0108390Y0062950D01*
X0108390Y0063851D02*
X0108390Y0065202D01*
X0110192Y0065202D01*
X0089747Y0051000D02*
X0079747Y0051000D01*
X0074747Y0051000D02*
X0074747Y0036000D01*
X0079826Y0070606D02*
X0079826Y0083154D01*
X0101658Y0091300D02*
X0101658Y0094002D01*
X0103009Y0094002D01*
X0103459Y0093552D01*
X0103459Y0092651D01*
X0103009Y0092201D01*
X0101658Y0092201D01*
X0102559Y0092201D02*
X0103459Y0091300D01*
X0104604Y0091300D02*
X0106406Y0093102D01*
X0106406Y0093552D01*
X0105956Y0094002D01*
X0105055Y0094002D01*
X0104604Y0093552D01*
X0104604Y0091300D02*
X0106406Y0091300D01*
X0107551Y0091300D02*
X0109352Y0091300D01*
X0108452Y0091300D02*
X0108452Y0094002D01*
X0107551Y0093102D01*
X0089669Y0098768D02*
X0089669Y0113232D01*
X0079826Y0129346D02*
X0079826Y0131394D01*
X0079826Y0130606D02*
X0079826Y0143154D01*
X0079826Y0149106D02*
X0079826Y0162894D01*
X0089669Y0178846D02*
X0089669Y0191394D01*
X0089669Y0190606D02*
X0089669Y0192654D01*
X0116497Y0194500D02*
X0116497Y0197202D01*
X0117849Y0197202D01*
X0118299Y0196752D01*
X0118299Y0195851D01*
X0117849Y0195401D01*
X0116497Y0195401D01*
X0117398Y0195401D02*
X0118299Y0194500D01*
X0119444Y0194950D02*
X0119894Y0194500D01*
X0120795Y0194500D01*
X0121245Y0194950D01*
X0121245Y0195401D01*
X0120795Y0195851D01*
X0120345Y0195851D01*
X0120795Y0195851D02*
X0121245Y0196302D01*
X0121245Y0196752D01*
X0120795Y0197202D01*
X0119894Y0197202D01*
X0119444Y0196752D01*
X0122390Y0196752D02*
X0122841Y0197202D01*
X0123742Y0197202D01*
X0124192Y0196752D01*
X0122390Y0194950D01*
X0122841Y0194500D01*
X0123742Y0194500D01*
X0124192Y0194950D01*
X0124192Y0196752D01*
X0122390Y0196752D02*
X0122390Y0194950D01*
X0122841Y0204500D02*
X0123742Y0204500D01*
X0124192Y0204950D01*
X0124192Y0206752D01*
X0123742Y0207202D01*
X0122841Y0207202D01*
X0122390Y0206752D01*
X0122390Y0206302D01*
X0122841Y0205851D01*
X0124192Y0205851D01*
X0122841Y0204500D02*
X0122390Y0204950D01*
X0121245Y0204500D02*
X0119444Y0204500D01*
X0121245Y0206302D01*
X0121245Y0206752D01*
X0120795Y0207202D01*
X0119894Y0207202D01*
X0119444Y0206752D01*
X0118299Y0206752D02*
X0117849Y0207202D01*
X0116497Y0207202D01*
X0116497Y0204500D01*
X0116497Y0205401D02*
X0117849Y0205401D01*
X0118299Y0205851D01*
X0118299Y0206752D01*
X0117398Y0205401D02*
X0118299Y0204500D01*
X0118299Y0214500D02*
X0117398Y0215401D01*
X0117849Y0215401D02*
X0116497Y0215401D01*
X0116497Y0214500D02*
X0116497Y0217202D01*
X0117849Y0217202D01*
X0118299Y0216752D01*
X0118299Y0215851D01*
X0117849Y0215401D01*
X0119444Y0214500D02*
X0121245Y0216302D01*
X0121245Y0216752D01*
X0120795Y0217202D01*
X0119894Y0217202D01*
X0119444Y0216752D01*
X0119444Y0214500D02*
X0121245Y0214500D01*
X0122390Y0214950D02*
X0122390Y0215401D01*
X0122841Y0215851D01*
X0123742Y0215851D01*
X0124192Y0215401D01*
X0124192Y0214950D01*
X0123742Y0214500D01*
X0122841Y0214500D01*
X0122390Y0214950D01*
X0122841Y0215851D02*
X0122390Y0216302D01*
X0122390Y0216752D01*
X0122841Y0217202D01*
X0123742Y0217202D01*
X0124192Y0216752D01*
X0124192Y0216302D01*
X0123742Y0215851D01*
X0159826Y0229346D02*
X0159826Y0231394D01*
X0159826Y0230606D02*
X0159826Y0243154D01*
X0197497Y0238702D02*
X0197497Y0236000D01*
X0197497Y0236901D02*
X0198849Y0236901D01*
X0199299Y0237351D01*
X0199299Y0238252D01*
X0198849Y0238702D01*
X0197497Y0238702D01*
X0198398Y0236901D02*
X0199299Y0236000D01*
X0200444Y0236000D02*
X0202245Y0236000D01*
X0201345Y0236000D02*
X0201345Y0238702D01*
X0200444Y0237802D01*
X0203390Y0237351D02*
X0204742Y0237351D01*
X0205192Y0236901D01*
X0205192Y0236450D01*
X0204742Y0236000D01*
X0203841Y0236000D01*
X0203390Y0236450D01*
X0203390Y0237351D01*
X0204291Y0238252D01*
X0205192Y0238702D01*
X0226745Y0239410D02*
X0226745Y0240762D01*
X0227196Y0241212D01*
X0228096Y0241212D01*
X0228547Y0240762D01*
X0228547Y0239410D01*
X0229447Y0239410D02*
X0226745Y0239410D01*
X0228547Y0240311D02*
X0229447Y0241212D01*
X0229447Y0242357D02*
X0229447Y0244159D01*
X0229447Y0243258D02*
X0226745Y0243258D01*
X0227646Y0242357D01*
X0227646Y0245303D02*
X0227196Y0245303D01*
X0226745Y0245754D01*
X0226745Y0246655D01*
X0227196Y0247105D01*
X0228997Y0247105D01*
X0229447Y0246655D01*
X0229447Y0245754D01*
X0228997Y0245303D01*
X0228096Y0245754D02*
X0228096Y0247105D01*
X0228096Y0245754D02*
X0227646Y0245303D01*
X0226442Y0251500D02*
X0225541Y0251500D01*
X0225090Y0251950D01*
X0223945Y0251500D02*
X0222144Y0251500D01*
X0223945Y0253302D01*
X0223945Y0253752D01*
X0223495Y0254202D01*
X0222594Y0254202D01*
X0222144Y0253752D01*
X0220999Y0253752D02*
X0220549Y0254202D01*
X0219648Y0254202D01*
X0219197Y0253752D01*
X0219197Y0251950D01*
X0219648Y0251500D01*
X0220549Y0251500D01*
X0220999Y0251950D01*
X0225090Y0253752D02*
X0225541Y0254202D01*
X0226442Y0254202D01*
X0226892Y0253752D01*
X0226892Y0253302D01*
X0226442Y0252851D01*
X0226892Y0252401D01*
X0226892Y0251950D01*
X0226442Y0251500D01*
X0226442Y0252851D02*
X0225991Y0252851D01*
X0214927Y0258000D02*
X0214477Y0257550D01*
X0213576Y0257550D01*
X0213126Y0258000D01*
X0214026Y0258901D02*
X0214477Y0258901D01*
X0214927Y0258451D01*
X0214927Y0258000D01*
X0214477Y0258901D02*
X0214927Y0259352D01*
X0214927Y0259802D01*
X0214477Y0260252D01*
X0213576Y0260252D01*
X0213126Y0259802D01*
X0211981Y0260252D02*
X0211080Y0260252D01*
X0211530Y0260252D02*
X0211530Y0258000D01*
X0211080Y0257550D01*
X0210630Y0257550D01*
X0210179Y0258000D01*
X0209034Y0258000D02*
X0208584Y0257550D01*
X0207683Y0257550D01*
X0207233Y0258000D01*
X0207683Y0258901D02*
X0208584Y0258901D01*
X0209034Y0258451D01*
X0209034Y0258000D01*
X0207683Y0258901D02*
X0207233Y0259352D01*
X0207233Y0259802D01*
X0207683Y0260252D01*
X0208584Y0260252D01*
X0209034Y0259802D01*
X0230848Y0271169D02*
X0231298Y0270719D01*
X0232199Y0270719D01*
X0232649Y0271169D01*
X0233794Y0270719D02*
X0235596Y0272520D01*
X0235596Y0272970D01*
X0235145Y0273421D01*
X0234245Y0273421D01*
X0233794Y0272970D01*
X0232649Y0272970D02*
X0232199Y0273421D01*
X0231298Y0273421D01*
X0230848Y0272970D01*
X0230848Y0271169D01*
X0233794Y0270719D02*
X0235596Y0270719D01*
X0236741Y0270719D02*
X0238542Y0272520D01*
X0238542Y0272970D01*
X0238092Y0273421D01*
X0237191Y0273421D01*
X0236741Y0272970D01*
X0236741Y0270719D02*
X0238542Y0270719D01*
X0252597Y0270150D02*
X0254399Y0270150D01*
X0255544Y0270150D02*
X0257345Y0271952D01*
X0257345Y0272402D01*
X0256895Y0272852D01*
X0255994Y0272852D01*
X0255544Y0272402D01*
X0255544Y0270150D02*
X0257345Y0270150D01*
X0252597Y0270150D02*
X0252597Y0272852D01*
X0265827Y0260394D02*
X0268529Y0260394D01*
X0268529Y0259493D02*
X0268529Y0261295D01*
X0266727Y0259493D02*
X0265827Y0260394D01*
X0266277Y0258348D02*
X0265827Y0257898D01*
X0265827Y0256997D01*
X0266277Y0256547D01*
X0266277Y0255402D02*
X0265827Y0254952D01*
X0265827Y0254051D01*
X0266277Y0253600D01*
X0268079Y0253600D01*
X0268529Y0254051D01*
X0268529Y0254952D01*
X0268079Y0255402D01*
X0268529Y0256547D02*
X0266727Y0258348D01*
X0266277Y0258348D01*
X0268529Y0258348D02*
X0268529Y0256547D01*
X0266755Y0252386D02*
X0271873Y0252386D01*
X0266755Y0252386D02*
X0266755Y0225614D01*
X0249352Y0219752D02*
X0247551Y0219752D01*
X0247551Y0218401D01*
X0248452Y0218852D01*
X0248902Y0218852D01*
X0249352Y0218401D01*
X0249352Y0217500D01*
X0248902Y0217050D01*
X0248001Y0217050D01*
X0247551Y0217500D01*
X0246406Y0217500D02*
X0246406Y0219302D01*
X0245956Y0219752D01*
X0244604Y0219752D01*
X0244604Y0217050D01*
X0245956Y0217050D01*
X0246406Y0217500D01*
X0247352Y0215502D02*
X0246452Y0215052D01*
X0245551Y0214151D01*
X0246902Y0214151D01*
X0247352Y0213701D01*
X0247352Y0213250D01*
X0246902Y0212800D01*
X0246001Y0212800D01*
X0245551Y0213250D01*
X0245551Y0214151D01*
X0244406Y0213250D02*
X0243956Y0212800D01*
X0243055Y0212800D01*
X0242604Y0213250D01*
X0242604Y0215052D01*
X0243055Y0215502D01*
X0243956Y0215502D01*
X0244406Y0215052D01*
X0252545Y0214097D02*
X0255247Y0214097D01*
X0255247Y0213197D02*
X0255247Y0214998D01*
X0254797Y0216143D02*
X0252996Y0217945D01*
X0254797Y0217945D01*
X0255247Y0217494D01*
X0255247Y0216593D01*
X0254797Y0216143D01*
X0252996Y0216143D01*
X0252545Y0216593D01*
X0252545Y0217494D01*
X0252996Y0217945D01*
X0252545Y0214097D02*
X0253446Y0213197D01*
X0252996Y0212052D02*
X0252545Y0211601D01*
X0252545Y0210700D01*
X0252996Y0210250D01*
X0254797Y0210250D01*
X0255247Y0210700D01*
X0255247Y0211601D01*
X0254797Y0212052D01*
X0276327Y0211345D02*
X0276327Y0210444D01*
X0276777Y0209993D01*
X0276327Y0211345D02*
X0276777Y0211795D01*
X0277227Y0211795D01*
X0279029Y0209993D01*
X0279029Y0211795D01*
X0279029Y0208848D02*
X0279029Y0207047D01*
X0279029Y0207948D02*
X0276327Y0207948D01*
X0277227Y0207047D01*
X0276777Y0205902D02*
X0276327Y0205452D01*
X0276327Y0204551D01*
X0276777Y0204100D01*
X0278579Y0204100D01*
X0279029Y0204551D01*
X0279029Y0205452D01*
X0278579Y0205902D01*
X0287997Y0206950D02*
X0287997Y0208752D01*
X0288448Y0209202D01*
X0289349Y0209202D01*
X0289799Y0208752D01*
X0290944Y0208752D02*
X0290944Y0208302D01*
X0291394Y0207851D01*
X0292745Y0207851D01*
X0292745Y0206950D02*
X0292745Y0208752D01*
X0292295Y0209202D01*
X0291394Y0209202D01*
X0290944Y0208752D01*
X0290944Y0206950D02*
X0291394Y0206500D01*
X0292295Y0206500D01*
X0292745Y0206950D01*
X0289799Y0206950D02*
X0289349Y0206500D01*
X0288448Y0206500D01*
X0287997Y0206950D01*
X0305497Y0211000D02*
X0305497Y0213702D01*
X0306849Y0213702D01*
X0307299Y0213252D01*
X0307299Y0212351D01*
X0306849Y0211901D01*
X0305497Y0211901D01*
X0306398Y0211901D02*
X0307299Y0211000D01*
X0308444Y0212351D02*
X0310245Y0212351D01*
X0311390Y0212351D02*
X0313192Y0212351D01*
X0312742Y0211000D02*
X0312742Y0213702D01*
X0311390Y0212351D01*
X0309795Y0211000D02*
X0309795Y0213702D01*
X0308444Y0212351D01*
X0308456Y0224300D02*
X0308456Y0227002D01*
X0307104Y0225651D01*
X0308906Y0225651D01*
X0310051Y0224750D02*
X0310501Y0224300D01*
X0311402Y0224300D01*
X0311852Y0224750D01*
X0311852Y0225201D01*
X0311402Y0225651D01*
X0310952Y0225651D01*
X0311402Y0225651D02*
X0311852Y0226102D01*
X0311852Y0226552D01*
X0311402Y0227002D01*
X0310501Y0227002D01*
X0310051Y0226552D01*
X0305959Y0226552D02*
X0305959Y0225651D01*
X0305509Y0225201D01*
X0304158Y0225201D01*
X0305059Y0225201D02*
X0305959Y0224300D01*
X0304158Y0224300D02*
X0304158Y0227002D01*
X0305509Y0227002D01*
X0305959Y0226552D01*
X0292740Y0225614D02*
X0287621Y0225614D01*
X0292740Y0225614D02*
X0292740Y0252386D01*
X0281569Y0256396D02*
X0279767Y0256396D01*
X0280668Y0256396D02*
X0280668Y0259099D01*
X0279767Y0258198D01*
X0278622Y0256396D02*
X0276821Y0256396D01*
X0276821Y0259099D01*
X0277745Y0267910D02*
X0277745Y0269262D01*
X0278196Y0269712D01*
X0279096Y0269712D01*
X0279547Y0269262D01*
X0279547Y0267910D01*
X0280447Y0267910D02*
X0277745Y0267910D01*
X0279547Y0268811D02*
X0280447Y0269712D01*
X0280447Y0270857D02*
X0280447Y0272659D01*
X0280447Y0271758D02*
X0277745Y0271758D01*
X0278646Y0270857D01*
X0277745Y0273803D02*
X0277745Y0275605D01*
X0278196Y0275605D01*
X0279997Y0273803D01*
X0280447Y0273803D01*
X0284497Y0273651D02*
X0285849Y0273651D01*
X0286299Y0274101D01*
X0286299Y0275002D01*
X0285849Y0275452D01*
X0284497Y0275452D01*
X0284497Y0272750D01*
X0285398Y0273651D02*
X0286299Y0272750D01*
X0287444Y0274101D02*
X0288795Y0275452D01*
X0288795Y0272750D01*
X0289245Y0274101D02*
X0287444Y0274101D01*
X0290390Y0275002D02*
X0290841Y0275452D01*
X0291742Y0275452D01*
X0292192Y0275002D01*
X0292192Y0274552D01*
X0290390Y0272750D01*
X0292192Y0272750D01*
X0324495Y0274410D02*
X0324495Y0275762D01*
X0324946Y0276212D01*
X0325846Y0276212D01*
X0326297Y0275762D01*
X0326297Y0274410D01*
X0327197Y0274410D02*
X0324495Y0274410D01*
X0326297Y0275311D02*
X0327197Y0276212D01*
X0327197Y0277357D02*
X0327197Y0279159D01*
X0327197Y0278258D02*
X0324495Y0278258D01*
X0325396Y0277357D01*
X0325396Y0280303D02*
X0324495Y0281204D01*
X0327197Y0281204D01*
X0327197Y0280303D02*
X0327197Y0282105D01*
X0336745Y0285307D02*
X0337196Y0284857D01*
X0338997Y0284857D01*
X0339447Y0285307D01*
X0339447Y0286208D01*
X0338997Y0286659D01*
X0339447Y0287803D02*
X0337646Y0289605D01*
X0337196Y0289605D01*
X0336745Y0289155D01*
X0336745Y0288254D01*
X0337196Y0287803D01*
X0337196Y0286659D02*
X0336745Y0286208D01*
X0336745Y0285307D01*
X0339447Y0287803D02*
X0339447Y0289605D01*
X0331352Y0294300D02*
X0329551Y0294300D01*
X0330452Y0294300D02*
X0330452Y0297002D01*
X0329551Y0296102D01*
X0328406Y0294300D02*
X0326604Y0294300D01*
X0327505Y0294300D02*
X0327505Y0297002D01*
X0326604Y0296102D01*
X0325459Y0297002D02*
X0325459Y0294750D01*
X0325009Y0294300D01*
X0324108Y0294300D01*
X0323658Y0294750D01*
X0323658Y0297002D01*
X0306692Y0293502D02*
X0306242Y0293952D01*
X0305341Y0293952D01*
X0304890Y0293502D01*
X0306692Y0293502D02*
X0306692Y0293052D01*
X0304890Y0291250D01*
X0306692Y0291250D01*
X0303745Y0291250D02*
X0301944Y0291250D01*
X0302845Y0291250D02*
X0302845Y0293952D01*
X0301944Y0293052D01*
X0300799Y0293502D02*
X0300799Y0292601D01*
X0300349Y0292151D01*
X0298997Y0292151D01*
X0298997Y0291250D02*
X0298997Y0293952D01*
X0300349Y0293952D01*
X0300799Y0293502D01*
X0299898Y0292151D02*
X0300799Y0291250D01*
X0280692Y0296950D02*
X0280242Y0296500D01*
X0279341Y0296500D01*
X0278890Y0296950D01*
X0278890Y0297401D01*
X0279341Y0297851D01*
X0280242Y0297851D01*
X0280692Y0297401D01*
X0280692Y0296950D01*
X0280242Y0297851D02*
X0280692Y0298302D01*
X0280692Y0298752D01*
X0280242Y0299202D01*
X0279341Y0299202D01*
X0278890Y0298752D01*
X0278890Y0298302D01*
X0279341Y0297851D01*
X0277745Y0296500D02*
X0275944Y0296500D01*
X0276845Y0296500D02*
X0276845Y0299202D01*
X0275944Y0298302D01*
X0274799Y0298752D02*
X0274799Y0297851D01*
X0274349Y0297401D01*
X0272997Y0297401D01*
X0272997Y0296500D02*
X0272997Y0299202D01*
X0274349Y0299202D01*
X0274799Y0298752D01*
X0273898Y0297401D02*
X0274799Y0296500D01*
X0295358Y0318050D02*
X0294908Y0318500D01*
X0295358Y0318050D02*
X0296259Y0318050D01*
X0296709Y0318500D01*
X0296709Y0318951D01*
X0296259Y0319401D01*
X0295358Y0319401D01*
X0294908Y0319852D01*
X0294908Y0320302D01*
X0295358Y0320752D01*
X0296259Y0320752D01*
X0296709Y0320302D01*
X0298755Y0320752D02*
X0299656Y0320752D01*
X0299206Y0320752D02*
X0299206Y0318500D01*
X0298755Y0318050D01*
X0298305Y0318050D01*
X0297854Y0318500D01*
X0300801Y0318050D02*
X0302602Y0318050D01*
X0301702Y0318050D02*
X0301702Y0320752D01*
X0300801Y0319852D01*
X0274747Y0340200D02*
X0274747Y0341101D01*
X0274297Y0341552D01*
X0274747Y0342697D02*
X0272946Y0344498D01*
X0272496Y0344498D01*
X0272045Y0344048D01*
X0272045Y0343147D01*
X0272496Y0342697D01*
X0272496Y0341552D02*
X0272045Y0341101D01*
X0272045Y0340200D01*
X0272496Y0339750D01*
X0274297Y0339750D01*
X0274747Y0340200D01*
X0274747Y0342697D02*
X0274747Y0344498D01*
X0274297Y0345643D02*
X0273847Y0345643D01*
X0273396Y0346093D01*
X0273396Y0346994D01*
X0273847Y0347445D01*
X0274297Y0347445D01*
X0274747Y0346994D01*
X0274747Y0346093D01*
X0274297Y0345643D01*
X0273396Y0346093D02*
X0272946Y0345643D01*
X0272496Y0345643D01*
X0272045Y0346093D01*
X0272045Y0346994D01*
X0272496Y0347445D01*
X0272946Y0347445D01*
X0273396Y0346994D01*
X0272496Y0354250D02*
X0274297Y0354250D01*
X0274747Y0354700D01*
X0274747Y0355601D01*
X0274297Y0356052D01*
X0274747Y0357197D02*
X0272946Y0358998D01*
X0272496Y0358998D01*
X0272045Y0358548D01*
X0272045Y0357647D01*
X0272496Y0357197D01*
X0272496Y0356052D02*
X0272045Y0355601D01*
X0272045Y0354700D01*
X0272496Y0354250D01*
X0274747Y0357197D02*
X0274747Y0358998D01*
X0274747Y0360143D02*
X0274297Y0360143D01*
X0272496Y0361945D01*
X0272045Y0361945D01*
X0272045Y0360143D01*
X0272496Y0368750D02*
X0274297Y0368750D01*
X0274747Y0369200D01*
X0274747Y0370101D01*
X0274297Y0370552D01*
X0274747Y0371697D02*
X0272946Y0373498D01*
X0272496Y0373498D01*
X0272045Y0373048D01*
X0272045Y0372147D01*
X0272496Y0371697D01*
X0272496Y0370552D02*
X0272045Y0370101D01*
X0272045Y0369200D01*
X0272496Y0368750D01*
X0274747Y0371697D02*
X0274747Y0373498D01*
X0274297Y0374643D02*
X0274747Y0375093D01*
X0274747Y0375994D01*
X0274297Y0376445D01*
X0273847Y0376445D01*
X0273396Y0375994D01*
X0273396Y0374643D01*
X0274297Y0374643D01*
X0273396Y0374643D02*
X0272496Y0375544D01*
X0272045Y0376445D01*
X0254747Y0375994D02*
X0254747Y0375093D01*
X0254297Y0374643D01*
X0253847Y0374643D01*
X0253396Y0375093D01*
X0253396Y0375994D01*
X0253847Y0376445D01*
X0254297Y0376445D01*
X0254747Y0375994D01*
X0253396Y0375994D02*
X0252946Y0376445D01*
X0252496Y0376445D01*
X0252045Y0375994D01*
X0252045Y0375093D01*
X0252496Y0374643D01*
X0252946Y0374643D01*
X0253396Y0375093D01*
X0252946Y0373498D02*
X0253396Y0373048D01*
X0253847Y0373498D01*
X0254297Y0373498D01*
X0254747Y0373048D01*
X0254747Y0372147D01*
X0254297Y0371697D01*
X0254747Y0370552D02*
X0253847Y0369651D01*
X0253847Y0370101D02*
X0253847Y0368750D01*
X0254747Y0368750D02*
X0252045Y0368750D01*
X0252045Y0370101D01*
X0252496Y0370552D01*
X0253396Y0370552D01*
X0253847Y0370101D01*
X0252496Y0371697D02*
X0252045Y0372147D01*
X0252045Y0373048D01*
X0252496Y0373498D01*
X0252946Y0373498D01*
X0253396Y0373048D02*
X0253396Y0372597D01*
X0253396Y0361945D02*
X0253396Y0360593D01*
X0252946Y0360143D01*
X0252496Y0360143D01*
X0252045Y0360593D01*
X0252045Y0361494D01*
X0252496Y0361945D01*
X0254297Y0361945D01*
X0254747Y0361494D01*
X0254747Y0360593D01*
X0254297Y0360143D01*
X0254297Y0358998D02*
X0254747Y0358548D01*
X0254747Y0357647D01*
X0254297Y0357197D01*
X0254747Y0356052D02*
X0253847Y0355151D01*
X0253847Y0355601D02*
X0253847Y0354250D01*
X0254747Y0354250D02*
X0252045Y0354250D01*
X0252045Y0355601D01*
X0252496Y0356052D01*
X0253396Y0356052D01*
X0253847Y0355601D01*
X0252496Y0357197D02*
X0252045Y0357647D01*
X0252045Y0358548D01*
X0252496Y0358998D01*
X0252946Y0358998D01*
X0253396Y0358548D01*
X0253847Y0358998D01*
X0254297Y0358998D01*
X0253396Y0358548D02*
X0253396Y0358097D01*
X0252496Y0347445D02*
X0254297Y0345643D01*
X0254747Y0346093D01*
X0254747Y0346994D01*
X0254297Y0347445D01*
X0252496Y0347445D01*
X0252045Y0346994D01*
X0252045Y0346093D01*
X0252496Y0345643D01*
X0254297Y0345643D01*
X0253396Y0344498D02*
X0253396Y0342697D01*
X0252045Y0344048D01*
X0254747Y0344048D01*
X0254747Y0341552D02*
X0253847Y0340651D01*
X0253847Y0341101D02*
X0253847Y0339750D01*
X0254747Y0339750D02*
X0252045Y0339750D01*
X0252045Y0341101D01*
X0252496Y0341552D01*
X0253396Y0341552D01*
X0253847Y0341101D01*
X0231194Y0359750D02*
X0231194Y0360200D01*
X0232995Y0362002D01*
X0232995Y0362452D01*
X0231194Y0362452D01*
X0230049Y0362452D02*
X0230049Y0360200D01*
X0229599Y0359750D01*
X0228698Y0359750D01*
X0228247Y0360200D01*
X0228247Y0362452D01*
X0158152Y0361701D02*
X0156351Y0361701D01*
X0157702Y0363052D01*
X0157702Y0360350D01*
X0154756Y0360800D02*
X0154756Y0363052D01*
X0155206Y0363052D02*
X0154305Y0363052D01*
X0154756Y0360800D02*
X0154305Y0360350D01*
X0153855Y0360350D01*
X0153404Y0360800D01*
X0132495Y0358101D02*
X0130694Y0358101D01*
X0132045Y0359452D01*
X0132045Y0356750D01*
X0129549Y0357200D02*
X0129549Y0359452D01*
X0127747Y0359452D02*
X0127747Y0357200D01*
X0128198Y0356750D01*
X0129099Y0356750D01*
X0129549Y0357200D01*
X0080238Y0330952D02*
X0080238Y0328250D01*
X0079337Y0328250D02*
X0081139Y0328250D01*
X0079337Y0330052D02*
X0080238Y0330952D01*
X0078192Y0330502D02*
X0078192Y0328700D01*
X0077742Y0328250D01*
X0076390Y0328250D01*
X0076390Y0330952D01*
X0077742Y0330952D01*
X0078192Y0330502D01*
X0075245Y0330502D02*
X0074795Y0330952D01*
X0073894Y0330952D01*
X0073444Y0330502D01*
X0073444Y0328700D01*
X0073894Y0328250D01*
X0074795Y0328250D01*
X0075245Y0328700D01*
X0075245Y0330502D01*
X0072299Y0330952D02*
X0072299Y0328250D01*
X0070497Y0328250D02*
X0070497Y0330952D01*
X0071398Y0330052D01*
X0072299Y0330952D01*
X0091045Y0320994D02*
X0091496Y0321445D01*
X0091946Y0321445D01*
X0093747Y0319643D01*
X0093747Y0321445D01*
X0091045Y0320994D02*
X0091045Y0320093D01*
X0091496Y0319643D01*
X0091496Y0318498D02*
X0091045Y0318048D01*
X0091045Y0317147D01*
X0091496Y0316697D01*
X0091496Y0315552D02*
X0092396Y0315552D01*
X0092847Y0315101D01*
X0092847Y0313750D01*
X0093747Y0313750D02*
X0091045Y0313750D01*
X0091045Y0315101D01*
X0091496Y0315552D01*
X0092847Y0314651D02*
X0093747Y0315552D01*
X0093747Y0316697D02*
X0091946Y0318498D01*
X0091496Y0318498D01*
X0093747Y0318498D02*
X0093747Y0316697D01*
X0081211Y0318500D02*
X0081213Y0318619D01*
X0081219Y0318737D01*
X0081229Y0318856D01*
X0081243Y0318974D01*
X0081261Y0319091D01*
X0081283Y0319208D01*
X0081308Y0319324D01*
X0081338Y0319439D01*
X0081371Y0319553D01*
X0081409Y0319666D01*
X0081450Y0319777D01*
X0081495Y0319887D01*
X0081543Y0319996D01*
X0081595Y0320103D01*
X0081651Y0320208D01*
X0081710Y0320311D01*
X0081772Y0320412D01*
X0081838Y0320511D01*
X0081907Y0320607D01*
X0081980Y0320701D01*
X0082055Y0320793D01*
X0082134Y0320882D01*
X0082215Y0320969D01*
X0082300Y0321052D01*
X0082387Y0321133D01*
X0082477Y0321211D01*
X0082569Y0321286D01*
X0082664Y0321357D01*
X0082761Y0321426D01*
X0082860Y0321491D01*
X0082962Y0321552D01*
X0083065Y0321611D01*
X0083171Y0321665D01*
X0083278Y0321716D01*
X0083387Y0321764D01*
X0083497Y0321808D01*
X0083609Y0321848D01*
X0083722Y0321884D01*
X0083837Y0321917D01*
X0083952Y0321945D01*
X0084068Y0321970D01*
X0084185Y0321991D01*
X0084303Y0322008D01*
X0084421Y0322021D01*
X0084539Y0322030D01*
X0084658Y0322035D01*
X0084777Y0322036D01*
X0084895Y0322033D01*
X0085014Y0322026D01*
X0085132Y0322015D01*
X0085250Y0322000D01*
X0085368Y0321981D01*
X0085484Y0321958D01*
X0085600Y0321932D01*
X0085715Y0321901D01*
X0085828Y0321867D01*
X0085941Y0321828D01*
X0086052Y0321786D01*
X0086162Y0321741D01*
X0086270Y0321691D01*
X0086376Y0321638D01*
X0086481Y0321582D01*
X0086583Y0321522D01*
X0086684Y0321459D01*
X0086782Y0321392D01*
X0086878Y0321322D01*
X0086972Y0321249D01*
X0087063Y0321172D01*
X0087151Y0321093D01*
X0087237Y0321011D01*
X0087320Y0320926D01*
X0087400Y0320838D01*
X0087477Y0320748D01*
X0087551Y0320655D01*
X0087622Y0320559D01*
X0087689Y0320461D01*
X0087753Y0320361D01*
X0087814Y0320259D01*
X0087872Y0320155D01*
X0087925Y0320049D01*
X0087976Y0319942D01*
X0088022Y0319833D01*
X0088065Y0319722D01*
X0088104Y0319610D01*
X0088140Y0319496D01*
X0088171Y0319382D01*
X0088199Y0319266D01*
X0088223Y0319150D01*
X0088243Y0319033D01*
X0088259Y0318915D01*
X0088271Y0318797D01*
X0088279Y0318678D01*
X0088283Y0318559D01*
X0088283Y0318441D01*
X0088279Y0318322D01*
X0088271Y0318203D01*
X0088259Y0318085D01*
X0088243Y0317967D01*
X0088223Y0317850D01*
X0088199Y0317734D01*
X0088171Y0317618D01*
X0088140Y0317504D01*
X0088104Y0317390D01*
X0088065Y0317278D01*
X0088022Y0317167D01*
X0087976Y0317058D01*
X0087925Y0316951D01*
X0087872Y0316845D01*
X0087814Y0316741D01*
X0087753Y0316639D01*
X0087689Y0316539D01*
X0087622Y0316441D01*
X0087551Y0316345D01*
X0087477Y0316252D01*
X0087400Y0316162D01*
X0087320Y0316074D01*
X0087237Y0315989D01*
X0087151Y0315907D01*
X0087063Y0315828D01*
X0086972Y0315751D01*
X0086878Y0315678D01*
X0086782Y0315608D01*
X0086684Y0315541D01*
X0086583Y0315478D01*
X0086481Y0315418D01*
X0086376Y0315362D01*
X0086270Y0315309D01*
X0086162Y0315259D01*
X0086052Y0315214D01*
X0085941Y0315172D01*
X0085828Y0315133D01*
X0085715Y0315099D01*
X0085600Y0315068D01*
X0085484Y0315042D01*
X0085368Y0315019D01*
X0085250Y0315000D01*
X0085132Y0314985D01*
X0085014Y0314974D01*
X0084895Y0314967D01*
X0084777Y0314964D01*
X0084658Y0314965D01*
X0084539Y0314970D01*
X0084421Y0314979D01*
X0084303Y0314992D01*
X0084185Y0315009D01*
X0084068Y0315030D01*
X0083952Y0315055D01*
X0083837Y0315083D01*
X0083722Y0315116D01*
X0083609Y0315152D01*
X0083497Y0315192D01*
X0083387Y0315236D01*
X0083278Y0315284D01*
X0083171Y0315335D01*
X0083065Y0315389D01*
X0082962Y0315448D01*
X0082860Y0315509D01*
X0082761Y0315574D01*
X0082664Y0315643D01*
X0082569Y0315714D01*
X0082477Y0315789D01*
X0082387Y0315867D01*
X0082300Y0315948D01*
X0082215Y0316031D01*
X0082134Y0316118D01*
X0082055Y0316207D01*
X0081980Y0316299D01*
X0081907Y0316393D01*
X0081838Y0316489D01*
X0081772Y0316588D01*
X0081710Y0316689D01*
X0081651Y0316792D01*
X0081595Y0316897D01*
X0081543Y0317004D01*
X0081495Y0317113D01*
X0081450Y0317223D01*
X0081409Y0317334D01*
X0081371Y0317447D01*
X0081338Y0317561D01*
X0081308Y0317676D01*
X0081283Y0317792D01*
X0081261Y0317909D01*
X0081243Y0318026D01*
X0081229Y0318144D01*
X0081219Y0318263D01*
X0081213Y0318381D01*
X0081211Y0318500D01*
X0105545Y0318048D02*
X0105545Y0317147D01*
X0105996Y0316697D01*
X0105996Y0315552D02*
X0106896Y0315552D01*
X0107347Y0315101D01*
X0107347Y0313750D01*
X0108247Y0313750D02*
X0105545Y0313750D01*
X0105545Y0315101D01*
X0105996Y0315552D01*
X0107347Y0314651D02*
X0108247Y0315552D01*
X0108247Y0316697D02*
X0106446Y0318498D01*
X0105996Y0318498D01*
X0105545Y0318048D01*
X0105996Y0319643D02*
X0105545Y0320093D01*
X0105545Y0320994D01*
X0105996Y0321445D01*
X0107797Y0319643D01*
X0108247Y0320093D01*
X0108247Y0320994D01*
X0107797Y0321445D01*
X0105996Y0321445D01*
X0105996Y0319643D02*
X0107797Y0319643D01*
X0108247Y0318498D02*
X0108247Y0316697D01*
X0121045Y0317147D02*
X0121496Y0316697D01*
X0121045Y0317147D02*
X0121045Y0318048D01*
X0121496Y0318498D01*
X0121946Y0318498D01*
X0122396Y0318048D01*
X0122847Y0318498D01*
X0123297Y0318498D01*
X0123747Y0318048D01*
X0123747Y0317147D01*
X0123297Y0316697D01*
X0123747Y0315552D02*
X0122847Y0314651D01*
X0122847Y0315101D02*
X0122847Y0313750D01*
X0123747Y0313750D02*
X0121045Y0313750D01*
X0121045Y0315101D01*
X0121496Y0315552D01*
X0122396Y0315552D01*
X0122847Y0315101D01*
X0122396Y0317597D02*
X0122396Y0318048D01*
X0121496Y0319643D02*
X0121045Y0320093D01*
X0121045Y0320994D01*
X0121496Y0321445D01*
X0121946Y0321445D01*
X0123747Y0319643D01*
X0123747Y0321445D01*
X0134545Y0320544D02*
X0137247Y0320544D01*
X0137247Y0319643D02*
X0137247Y0321445D01*
X0135446Y0319643D02*
X0134545Y0320544D01*
X0134996Y0318498D02*
X0135446Y0318498D01*
X0135896Y0318048D01*
X0136347Y0318498D01*
X0136797Y0318498D01*
X0137247Y0318048D01*
X0137247Y0317147D01*
X0136797Y0316697D01*
X0137247Y0315552D02*
X0136347Y0314651D01*
X0136347Y0315101D02*
X0136347Y0313750D01*
X0137247Y0313750D02*
X0134545Y0313750D01*
X0134545Y0315101D01*
X0134996Y0315552D01*
X0135896Y0315552D01*
X0136347Y0315101D01*
X0134996Y0316697D02*
X0134545Y0317147D01*
X0134545Y0318048D01*
X0134996Y0318498D01*
X0135896Y0318048D02*
X0135896Y0317597D01*
X0079826Y0302894D02*
X0079826Y0289106D01*
X0079826Y0282894D02*
X0079826Y0269106D01*
X0101045Y0269643D02*
X0102396Y0269643D01*
X0101946Y0270544D01*
X0101946Y0270994D01*
X0102396Y0271445D01*
X0103297Y0271445D01*
X0103747Y0270994D01*
X0103747Y0270093D01*
X0103297Y0269643D01*
X0103747Y0268498D02*
X0103747Y0266697D01*
X0101946Y0268498D01*
X0101496Y0268498D01*
X0101045Y0268048D01*
X0101045Y0267147D01*
X0101496Y0266697D01*
X0101496Y0265552D02*
X0101045Y0265101D01*
X0101045Y0264200D01*
X0101496Y0263750D01*
X0103297Y0263750D01*
X0103747Y0264200D01*
X0103747Y0265101D01*
X0103297Y0265552D01*
X0101045Y0269643D02*
X0101045Y0271445D01*
X0113745Y0278361D02*
X0114196Y0277910D01*
X0115997Y0277910D01*
X0116447Y0278361D01*
X0116447Y0279262D01*
X0115997Y0279712D01*
X0116447Y0280857D02*
X0114646Y0282659D01*
X0114196Y0282659D01*
X0113745Y0282208D01*
X0113745Y0281307D01*
X0114196Y0280857D01*
X0114196Y0279712D02*
X0113745Y0279262D01*
X0113745Y0278361D01*
X0116447Y0280857D02*
X0116447Y0282659D01*
X0115997Y0283803D02*
X0116447Y0284254D01*
X0116447Y0285155D01*
X0115997Y0285605D01*
X0114196Y0285605D01*
X0113745Y0285155D01*
X0113745Y0284254D01*
X0114196Y0283803D01*
X0114646Y0283803D01*
X0115096Y0284254D01*
X0115096Y0285605D01*
X0169669Y0291394D02*
X0169669Y0278846D01*
X0169669Y0272894D02*
X0169669Y0259106D01*
X0237464Y0244804D02*
X0237914Y0245255D01*
X0239716Y0243453D01*
X0240166Y0243903D01*
X0240166Y0244804D01*
X0239716Y0245255D01*
X0237914Y0245255D01*
X0237464Y0244804D02*
X0237464Y0243903D01*
X0237914Y0243453D01*
X0239716Y0243453D01*
X0240166Y0242308D02*
X0240166Y0240507D01*
X0238364Y0242308D01*
X0237914Y0242308D01*
X0237464Y0241858D01*
X0237464Y0240957D01*
X0237914Y0240507D01*
X0237914Y0239362D02*
X0237464Y0238911D01*
X0237464Y0238010D01*
X0237914Y0237560D01*
X0239716Y0237560D01*
X0240166Y0238010D01*
X0240166Y0238911D01*
X0239716Y0239362D01*
X0224447Y0219155D02*
X0221745Y0219155D01*
X0223096Y0217803D01*
X0223096Y0219605D01*
X0224447Y0216659D02*
X0224447Y0214857D01*
X0224447Y0215758D02*
X0221745Y0215758D01*
X0222646Y0214857D01*
X0223096Y0213712D02*
X0223547Y0213262D01*
X0223547Y0211910D01*
X0224447Y0211910D02*
X0221745Y0211910D01*
X0221745Y0213262D01*
X0222196Y0213712D01*
X0223096Y0213712D01*
X0223547Y0212811D02*
X0224447Y0213712D01*
X0225227Y0209159D02*
X0225227Y0206457D01*
X0226127Y0206457D02*
X0224326Y0206457D01*
X0223181Y0206907D02*
X0223181Y0209159D01*
X0224326Y0208259D02*
X0225227Y0209159D01*
X0223181Y0206907D02*
X0222730Y0206457D01*
X0221830Y0206457D01*
X0221379Y0206907D01*
X0221379Y0209159D01*
X0210352Y0198802D02*
X0208551Y0198802D01*
X0208551Y0197451D01*
X0209452Y0197902D01*
X0209902Y0197902D01*
X0210352Y0197451D01*
X0210352Y0196550D01*
X0209902Y0196100D01*
X0209001Y0196100D01*
X0208551Y0196550D01*
X0207406Y0196550D02*
X0206956Y0196100D01*
X0206055Y0196100D01*
X0205604Y0196550D01*
X0205604Y0198352D01*
X0206055Y0198802D01*
X0206956Y0198802D01*
X0207406Y0198352D01*
X0200352Y0197552D02*
X0200352Y0197102D01*
X0199902Y0196651D01*
X0200352Y0196201D01*
X0200352Y0195750D01*
X0199902Y0195300D01*
X0199001Y0195300D01*
X0198551Y0195750D01*
X0197406Y0195300D02*
X0195604Y0195300D01*
X0196505Y0195300D02*
X0196505Y0198002D01*
X0195604Y0197102D01*
X0194459Y0197552D02*
X0194459Y0196651D01*
X0194009Y0196201D01*
X0192658Y0196201D01*
X0193559Y0196201D02*
X0194459Y0195300D01*
X0192658Y0195300D02*
X0192658Y0198002D01*
X0194009Y0198002D01*
X0194459Y0197552D01*
X0198551Y0197552D02*
X0199001Y0198002D01*
X0199902Y0198002D01*
X0200352Y0197552D01*
X0199902Y0196651D02*
X0199452Y0196651D01*
X0169669Y0199106D02*
X0169669Y0212894D01*
X0193545Y0216700D02*
X0193996Y0216250D01*
X0195797Y0216250D01*
X0196247Y0216700D01*
X0196247Y0217601D01*
X0195797Y0218052D01*
X0194896Y0219197D02*
X0194896Y0220998D01*
X0193545Y0220548D02*
X0194896Y0219197D01*
X0193996Y0218052D02*
X0193545Y0217601D01*
X0193545Y0216700D01*
X0193545Y0220548D02*
X0196247Y0220548D01*
X0169669Y0192894D02*
X0169669Y0179106D01*
X0196497Y0179252D02*
X0196497Y0177450D01*
X0196948Y0177000D01*
X0197849Y0177000D01*
X0198299Y0177450D01*
X0199444Y0177000D02*
X0201245Y0177000D01*
X0200345Y0177000D02*
X0200345Y0179702D01*
X0199444Y0178802D01*
X0198299Y0179252D02*
X0197849Y0179702D01*
X0196948Y0179702D01*
X0196497Y0179252D01*
X0202390Y0178802D02*
X0203291Y0179702D01*
X0203291Y0177000D01*
X0202390Y0177000D02*
X0204192Y0177000D01*
X0196414Y0167255D02*
X0198216Y0165453D01*
X0198666Y0165453D01*
X0198666Y0164308D02*
X0198666Y0162507D01*
X0198666Y0163407D02*
X0195964Y0163407D01*
X0196864Y0162507D01*
X0196414Y0161362D02*
X0195964Y0160911D01*
X0195964Y0160010D01*
X0196414Y0159560D01*
X0198216Y0159560D01*
X0198666Y0160010D01*
X0198666Y0160911D01*
X0198216Y0161362D01*
X0195964Y0165453D02*
X0195964Y0167255D01*
X0196414Y0167255D01*
X0159826Y0163232D02*
X0159826Y0148768D01*
X0169669Y0132894D02*
X0169669Y0119106D01*
X0183997Y0121000D02*
X0183997Y0123702D01*
X0185349Y0123702D01*
X0185799Y0123252D01*
X0185799Y0122351D01*
X0185349Y0121901D01*
X0183997Y0121901D01*
X0184898Y0121901D02*
X0185799Y0121000D01*
X0186944Y0121000D02*
X0188745Y0122802D01*
X0188745Y0123252D01*
X0188295Y0123702D01*
X0187394Y0123702D01*
X0186944Y0123252D01*
X0186944Y0121000D02*
X0188745Y0121000D01*
X0189890Y0121450D02*
X0190341Y0121000D01*
X0191242Y0121000D01*
X0191692Y0121450D01*
X0191692Y0121901D01*
X0191242Y0122351D01*
X0189890Y0122351D01*
X0189890Y0121450D01*
X0189890Y0122351D02*
X0190791Y0123252D01*
X0191692Y0123702D01*
X0178297Y0109945D02*
X0177396Y0109945D01*
X0176946Y0109494D01*
X0176946Y0109044D01*
X0177396Y0108143D01*
X0176045Y0108143D01*
X0176045Y0109945D01*
X0178297Y0109945D02*
X0178747Y0109494D01*
X0178747Y0108593D01*
X0178297Y0108143D01*
X0178747Y0106998D02*
X0178747Y0105197D01*
X0176946Y0106998D01*
X0176496Y0106998D01*
X0176045Y0106548D01*
X0176045Y0105647D01*
X0176496Y0105197D01*
X0176496Y0104052D02*
X0177396Y0104052D01*
X0177847Y0103601D01*
X0177847Y0102250D01*
X0178747Y0102250D02*
X0176045Y0102250D01*
X0176045Y0103601D01*
X0176496Y0104052D01*
X0177847Y0103151D02*
X0178747Y0104052D01*
X0169669Y0098846D02*
X0169669Y0111394D01*
X0169669Y0110606D02*
X0169669Y0112654D01*
X0196497Y0097702D02*
X0197849Y0097702D01*
X0198299Y0097252D01*
X0198299Y0096351D01*
X0197849Y0095901D01*
X0196497Y0095901D01*
X0196497Y0095000D02*
X0196497Y0097702D01*
X0197398Y0095901D02*
X0198299Y0095000D01*
X0199444Y0095000D02*
X0201245Y0096802D01*
X0201245Y0097252D01*
X0200795Y0097702D01*
X0199894Y0097702D01*
X0199444Y0097252D01*
X0199444Y0095000D02*
X0201245Y0095000D01*
X0202390Y0096351D02*
X0204192Y0096351D01*
X0203742Y0095000D02*
X0203742Y0097702D01*
X0202390Y0096351D01*
X0222338Y0094863D02*
X0222338Y0092160D01*
X0223690Y0092160D01*
X0224140Y0092611D01*
X0224140Y0094412D01*
X0223690Y0094863D01*
X0222338Y0094863D01*
X0225285Y0093511D02*
X0226636Y0093511D01*
X0227086Y0093061D01*
X0227086Y0092611D01*
X0226636Y0092160D01*
X0225735Y0092160D01*
X0225285Y0092611D01*
X0225285Y0093511D01*
X0226186Y0094412D01*
X0227086Y0094863D01*
X0231747Y0101300D02*
X0232237Y0101355D01*
X0232702Y0101518D01*
X0233119Y0101780D01*
X0233467Y0102128D01*
X0233730Y0102545D01*
X0233892Y0103010D01*
X0233947Y0103500D01*
X0231747Y0103500D01*
X0229552Y0103500D02*
X0229554Y0103593D01*
X0229560Y0103686D01*
X0229570Y0103779D01*
X0229584Y0103871D01*
X0229601Y0103962D01*
X0229623Y0104053D01*
X0229648Y0104143D01*
X0229677Y0104231D01*
X0229710Y0104318D01*
X0229747Y0104404D01*
X0229787Y0104488D01*
X0229831Y0104570D01*
X0229878Y0104651D01*
X0229928Y0104729D01*
X0229982Y0104805D01*
X0230039Y0104879D01*
X0230099Y0104950D01*
X0230162Y0105019D01*
X0230228Y0105085D01*
X0230297Y0105148D01*
X0230368Y0105208D01*
X0230442Y0105265D01*
X0230518Y0105319D01*
X0230596Y0105369D01*
X0230677Y0105416D01*
X0230759Y0105460D01*
X0230843Y0105500D01*
X0230929Y0105537D01*
X0231016Y0105570D01*
X0231104Y0105599D01*
X0231194Y0105624D01*
X0231285Y0105646D01*
X0231376Y0105663D01*
X0231468Y0105677D01*
X0231561Y0105687D01*
X0231654Y0105693D01*
X0231747Y0105695D01*
X0231840Y0105693D01*
X0231933Y0105687D01*
X0232026Y0105677D01*
X0232118Y0105663D01*
X0232209Y0105646D01*
X0232300Y0105624D01*
X0232390Y0105599D01*
X0232478Y0105570D01*
X0232565Y0105537D01*
X0232651Y0105500D01*
X0232735Y0105460D01*
X0232817Y0105416D01*
X0232898Y0105369D01*
X0232976Y0105319D01*
X0233052Y0105265D01*
X0233126Y0105208D01*
X0233197Y0105148D01*
X0233266Y0105085D01*
X0233332Y0105019D01*
X0233395Y0104950D01*
X0233455Y0104879D01*
X0233512Y0104805D01*
X0233566Y0104729D01*
X0233616Y0104651D01*
X0233663Y0104570D01*
X0233707Y0104488D01*
X0233747Y0104404D01*
X0233784Y0104318D01*
X0233817Y0104231D01*
X0233846Y0104143D01*
X0233871Y0104053D01*
X0233893Y0103962D01*
X0233910Y0103871D01*
X0233924Y0103779D01*
X0233934Y0103686D01*
X0233940Y0103593D01*
X0233942Y0103500D01*
X0233940Y0103407D01*
X0233934Y0103314D01*
X0233924Y0103221D01*
X0233910Y0103129D01*
X0233893Y0103038D01*
X0233871Y0102947D01*
X0233846Y0102857D01*
X0233817Y0102769D01*
X0233784Y0102682D01*
X0233747Y0102596D01*
X0233707Y0102512D01*
X0233663Y0102430D01*
X0233616Y0102349D01*
X0233566Y0102271D01*
X0233512Y0102195D01*
X0233455Y0102121D01*
X0233395Y0102050D01*
X0233332Y0101981D01*
X0233266Y0101915D01*
X0233197Y0101852D01*
X0233126Y0101792D01*
X0233052Y0101735D01*
X0232976Y0101681D01*
X0232898Y0101631D01*
X0232817Y0101584D01*
X0232735Y0101540D01*
X0232651Y0101500D01*
X0232565Y0101463D01*
X0232478Y0101430D01*
X0232390Y0101401D01*
X0232300Y0101376D01*
X0232209Y0101354D01*
X0232118Y0101337D01*
X0232026Y0101323D01*
X0231933Y0101313D01*
X0231840Y0101307D01*
X0231747Y0101305D01*
X0231654Y0101307D01*
X0231561Y0101313D01*
X0231468Y0101323D01*
X0231376Y0101337D01*
X0231285Y0101354D01*
X0231194Y0101376D01*
X0231104Y0101401D01*
X0231016Y0101430D01*
X0230929Y0101463D01*
X0230843Y0101500D01*
X0230759Y0101540D01*
X0230677Y0101584D01*
X0230596Y0101631D01*
X0230518Y0101681D01*
X0230442Y0101735D01*
X0230368Y0101792D01*
X0230297Y0101852D01*
X0230228Y0101915D01*
X0230162Y0101981D01*
X0230099Y0102050D01*
X0230039Y0102121D01*
X0229982Y0102195D01*
X0229928Y0102271D01*
X0229878Y0102349D01*
X0229831Y0102430D01*
X0229787Y0102512D01*
X0229747Y0102596D01*
X0229710Y0102682D01*
X0229677Y0102769D01*
X0229648Y0102857D01*
X0229623Y0102947D01*
X0229601Y0103038D01*
X0229584Y0103129D01*
X0229570Y0103221D01*
X0229560Y0103314D01*
X0229554Y0103407D01*
X0229552Y0103500D01*
X0231747Y0103500D02*
X0231747Y0101300D01*
X0231747Y0101731D02*
X0233040Y0101731D01*
X0233531Y0102229D02*
X0231747Y0102229D01*
X0231747Y0102728D02*
X0233793Y0102728D01*
X0233917Y0103226D02*
X0231747Y0103226D01*
X0231956Y0081002D02*
X0231055Y0081002D01*
X0230604Y0080552D01*
X0229459Y0080552D02*
X0229459Y0079651D01*
X0229009Y0079201D01*
X0227658Y0079201D01*
X0228559Y0079201D02*
X0229459Y0078300D01*
X0230604Y0078300D02*
X0232406Y0080102D01*
X0232406Y0080552D01*
X0231956Y0081002D01*
X0233551Y0080552D02*
X0234001Y0081002D01*
X0234902Y0081002D01*
X0235352Y0080552D01*
X0235352Y0080102D01*
X0234902Y0079651D01*
X0235352Y0079201D01*
X0235352Y0078750D01*
X0234902Y0078300D01*
X0234001Y0078300D01*
X0233551Y0078750D01*
X0232406Y0078300D02*
X0230604Y0078300D01*
X0229459Y0080552D02*
X0229009Y0081002D01*
X0227658Y0081002D01*
X0227658Y0078300D01*
X0234452Y0079651D02*
X0234902Y0079651D01*
X0304658Y0106300D02*
X0304658Y0109002D01*
X0306009Y0109002D01*
X0306459Y0108552D01*
X0306459Y0107651D01*
X0306009Y0107201D01*
X0304658Y0107201D01*
X0305559Y0107201D02*
X0306459Y0106300D01*
X0307604Y0107651D02*
X0309406Y0107651D01*
X0310551Y0107201D02*
X0311001Y0107651D01*
X0311902Y0107651D01*
X0312352Y0107201D01*
X0312352Y0106750D01*
X0311902Y0106300D01*
X0311001Y0106300D01*
X0310551Y0106750D01*
X0310551Y0107201D01*
X0311001Y0107651D02*
X0310551Y0108102D01*
X0310551Y0108552D01*
X0311001Y0109002D01*
X0311902Y0109002D01*
X0312352Y0108552D01*
X0312352Y0108102D01*
X0311902Y0107651D01*
X0308956Y0106300D02*
X0308956Y0109002D01*
X0307604Y0107651D01*
X0308456Y0129800D02*
X0308456Y0132502D01*
X0307104Y0131151D01*
X0308906Y0131151D01*
X0310051Y0130250D02*
X0311852Y0132052D01*
X0311852Y0132502D01*
X0310051Y0132502D01*
X0310051Y0130250D02*
X0310051Y0129800D01*
X0305959Y0129800D02*
X0305059Y0130701D01*
X0305509Y0130701D02*
X0304158Y0130701D01*
X0304158Y0129800D02*
X0304158Y0132502D01*
X0305509Y0132502D01*
X0305959Y0132052D01*
X0305959Y0131151D01*
X0305509Y0130701D01*
X0261692Y0146450D02*
X0261692Y0148252D01*
X0261242Y0148702D01*
X0260341Y0148702D01*
X0259890Y0148252D01*
X0259890Y0147802D01*
X0260341Y0147351D01*
X0261692Y0147351D01*
X0261692Y0146450D02*
X0261242Y0146000D01*
X0260341Y0146000D01*
X0259890Y0146450D01*
X0258745Y0146000D02*
X0256944Y0146000D01*
X0257845Y0146000D02*
X0257845Y0148702D01*
X0256944Y0147802D01*
X0255799Y0148252D02*
X0255349Y0148702D01*
X0254448Y0148702D01*
X0253997Y0148252D01*
X0253997Y0146450D01*
X0254448Y0146000D01*
X0255349Y0146000D01*
X0255799Y0146450D01*
X0284497Y0155450D02*
X0284497Y0157252D01*
X0284948Y0157702D01*
X0285849Y0157702D01*
X0286299Y0157252D01*
X0287444Y0156802D02*
X0288345Y0157702D01*
X0288345Y0155000D01*
X0289245Y0155000D02*
X0287444Y0155000D01*
X0286299Y0155450D02*
X0285849Y0155000D01*
X0284948Y0155000D01*
X0284497Y0155450D01*
X0290390Y0155450D02*
X0290841Y0155000D01*
X0291742Y0155000D01*
X0292192Y0155450D01*
X0292192Y0156351D01*
X0291742Y0156802D01*
X0291291Y0156802D01*
X0290390Y0156351D01*
X0290390Y0157702D01*
X0292192Y0157702D01*
X0304158Y0156002D02*
X0305509Y0156002D01*
X0305959Y0155552D01*
X0305959Y0154651D01*
X0305509Y0154201D01*
X0304158Y0154201D01*
X0305059Y0154201D02*
X0305959Y0153300D01*
X0307104Y0154651D02*
X0308906Y0154651D01*
X0310051Y0154651D02*
X0311402Y0154651D01*
X0311852Y0154201D01*
X0311852Y0153750D01*
X0311402Y0153300D01*
X0310501Y0153300D01*
X0310051Y0153750D01*
X0310051Y0154651D01*
X0310952Y0155552D01*
X0311852Y0156002D01*
X0308456Y0156002D02*
X0307104Y0154651D01*
X0308456Y0153300D02*
X0308456Y0156002D01*
X0304158Y0156002D02*
X0304158Y0153300D01*
X0304997Y0172000D02*
X0304997Y0174702D01*
X0306349Y0174702D01*
X0306799Y0174252D01*
X0306799Y0173351D01*
X0306349Y0172901D01*
X0304997Y0172901D01*
X0305898Y0172901D02*
X0306799Y0172000D01*
X0307944Y0173351D02*
X0309745Y0173351D01*
X0310890Y0173351D02*
X0311791Y0173802D01*
X0312242Y0173802D01*
X0312692Y0173351D01*
X0312692Y0172450D01*
X0312242Y0172000D01*
X0311341Y0172000D01*
X0310890Y0172450D01*
X0310890Y0173351D02*
X0310890Y0174702D01*
X0312692Y0174702D01*
X0309295Y0174702D02*
X0307944Y0173351D01*
X0309295Y0172000D02*
X0309295Y0174702D01*
X0292692Y0178851D02*
X0290890Y0178851D01*
X0292242Y0180202D01*
X0292242Y0177500D01*
X0289745Y0177500D02*
X0287944Y0177500D01*
X0288845Y0177500D02*
X0288845Y0180202D01*
X0287944Y0179302D01*
X0286799Y0179752D02*
X0286349Y0180202D01*
X0285448Y0180202D01*
X0284997Y0179752D01*
X0284997Y0177950D01*
X0285448Y0177500D01*
X0286349Y0177500D01*
X0286799Y0177950D01*
X0267192Y0186950D02*
X0267192Y0187401D01*
X0266742Y0187851D01*
X0265390Y0187851D01*
X0265390Y0186950D01*
X0265841Y0186500D01*
X0266742Y0186500D01*
X0267192Y0186950D01*
X0266291Y0188752D02*
X0265390Y0187851D01*
X0266291Y0188752D02*
X0267192Y0189202D01*
X0263345Y0189202D02*
X0263345Y0186500D01*
X0264245Y0186500D02*
X0262444Y0186500D01*
X0261299Y0186950D02*
X0260849Y0186500D01*
X0259948Y0186500D01*
X0259497Y0186950D01*
X0259497Y0188752D01*
X0259948Y0189202D01*
X0260849Y0189202D01*
X0261299Y0188752D01*
X0262444Y0188302D02*
X0263345Y0189202D01*
X0280497Y0191950D02*
X0280948Y0191500D01*
X0281849Y0191500D01*
X0282299Y0191950D01*
X0283444Y0191500D02*
X0285245Y0191500D01*
X0284345Y0191500D02*
X0284345Y0194202D01*
X0283444Y0193302D01*
X0282299Y0193752D02*
X0281849Y0194202D01*
X0280948Y0194202D01*
X0280497Y0193752D01*
X0280497Y0191950D01*
X0286390Y0191950D02*
X0286841Y0191500D01*
X0287742Y0191500D01*
X0288192Y0191950D01*
X0288192Y0192401D01*
X0287742Y0192851D01*
X0287291Y0192851D01*
X0287742Y0192851D02*
X0288192Y0193302D01*
X0288192Y0193752D01*
X0287742Y0194202D01*
X0286841Y0194202D01*
X0286390Y0193752D01*
X0204497Y0143303D02*
X0202696Y0145105D01*
X0202245Y0145105D01*
X0202245Y0143303D01*
X0202696Y0142159D02*
X0202245Y0141708D01*
X0202245Y0140807D01*
X0202696Y0140357D01*
X0204497Y0140357D01*
X0204947Y0140807D01*
X0204947Y0141708D01*
X0204497Y0142159D01*
X0204497Y0143303D02*
X0204947Y0143303D01*
X0220745Y0139155D02*
X0221196Y0139605D01*
X0221646Y0139605D01*
X0222096Y0139155D01*
X0222096Y0138254D01*
X0221646Y0137803D01*
X0221196Y0137803D01*
X0220745Y0138254D01*
X0220745Y0139155D01*
X0222096Y0139155D02*
X0222547Y0139605D01*
X0222997Y0139605D01*
X0223447Y0139155D01*
X0223447Y0138254D01*
X0222997Y0137803D01*
X0222547Y0137803D01*
X0222096Y0138254D01*
X0221196Y0136659D02*
X0220745Y0136208D01*
X0220745Y0135307D01*
X0221196Y0134857D01*
X0222997Y0134857D01*
X0223447Y0135307D01*
X0223447Y0136208D01*
X0222997Y0136659D01*
X0240348Y0126470D02*
X0240798Y0126921D01*
X0241699Y0126921D01*
X0242149Y0126470D01*
X0243294Y0126020D02*
X0244195Y0126921D01*
X0244195Y0124219D01*
X0243294Y0124219D02*
X0245096Y0124219D01*
X0246241Y0124669D02*
X0246241Y0125119D01*
X0246691Y0125570D01*
X0247592Y0125570D01*
X0248042Y0125119D01*
X0248042Y0124669D01*
X0247592Y0124219D01*
X0246691Y0124219D01*
X0246241Y0124669D01*
X0246691Y0125570D02*
X0246241Y0126020D01*
X0246241Y0126470D01*
X0246691Y0126921D01*
X0247592Y0126921D01*
X0248042Y0126470D01*
X0248042Y0126020D01*
X0247592Y0125570D01*
X0242149Y0124669D02*
X0241699Y0124219D01*
X0240798Y0124219D01*
X0240348Y0124669D01*
X0240348Y0126470D01*
X0159826Y0083232D02*
X0159826Y0068768D01*
X0122442Y0082750D02*
X0120640Y0082750D01*
X0122442Y0084552D01*
X0122442Y0085002D01*
X0121992Y0085452D01*
X0121091Y0085452D01*
X0120640Y0085002D01*
X0119495Y0085452D02*
X0118595Y0085452D01*
X0119045Y0085452D02*
X0119045Y0083200D01*
X0118595Y0082750D01*
X0118144Y0082750D01*
X0117694Y0083200D01*
X0116549Y0083200D02*
X0116099Y0082750D01*
X0115198Y0082750D01*
X0114747Y0083200D01*
X0115198Y0084101D02*
X0116099Y0084101D01*
X0116549Y0083651D01*
X0116549Y0083200D01*
X0115198Y0084101D02*
X0114747Y0084552D01*
X0114747Y0085002D01*
X0115198Y0085452D01*
X0116099Y0085452D01*
X0116549Y0085002D01*
X0239495Y0041655D02*
X0239495Y0040754D01*
X0239946Y0040303D01*
X0240396Y0040303D01*
X0240846Y0040754D01*
X0240846Y0042105D01*
X0239946Y0042105D02*
X0239495Y0041655D01*
X0239946Y0042105D02*
X0241747Y0042105D01*
X0242197Y0041655D01*
X0242197Y0040754D01*
X0241747Y0040303D01*
X0240846Y0039159D02*
X0240846Y0037357D01*
X0239495Y0038708D01*
X0242197Y0038708D01*
X0242197Y0036212D02*
X0241297Y0035311D01*
X0241297Y0035762D02*
X0241297Y0034410D01*
X0242197Y0034410D02*
X0239495Y0034410D01*
X0239495Y0035762D01*
X0239946Y0036212D01*
X0240846Y0036212D01*
X0241297Y0035762D01*
X0259497Y0024252D02*
X0259497Y0022450D01*
X0259948Y0022000D01*
X0260849Y0022000D01*
X0261299Y0022450D01*
X0262444Y0022450D02*
X0262894Y0022000D01*
X0263795Y0022000D01*
X0264245Y0022450D01*
X0264245Y0022901D01*
X0263795Y0023351D01*
X0263345Y0023351D01*
X0263795Y0023351D02*
X0264245Y0023802D01*
X0264245Y0024252D01*
X0263795Y0024702D01*
X0262894Y0024702D01*
X0262444Y0024252D01*
X0261299Y0024252D02*
X0260849Y0024702D01*
X0259948Y0024702D01*
X0259497Y0024252D01*
X0265390Y0023802D02*
X0266291Y0024702D01*
X0266291Y0022000D01*
X0265390Y0022000D02*
X0267192Y0022000D01*
X0376158Y0078250D02*
X0376608Y0077800D01*
X0377509Y0077800D01*
X0377959Y0078250D01*
X0379104Y0077800D02*
X0380906Y0079602D01*
X0380906Y0080052D01*
X0380456Y0080502D01*
X0379555Y0080502D01*
X0379104Y0080052D01*
X0377959Y0080052D02*
X0377509Y0080502D01*
X0376608Y0080502D01*
X0376158Y0080052D01*
X0376158Y0078250D01*
X0379104Y0077800D02*
X0380906Y0077800D01*
X0382051Y0079151D02*
X0383852Y0079151D01*
X0383402Y0077800D02*
X0383402Y0080502D01*
X0382051Y0079151D01*
X0391497Y0073452D02*
X0391497Y0071200D01*
X0391948Y0070750D01*
X0392849Y0070750D01*
X0393299Y0071200D01*
X0393299Y0073452D01*
X0394444Y0073452D02*
X0394444Y0072101D01*
X0395345Y0072552D01*
X0395795Y0072552D01*
X0396245Y0072101D01*
X0396245Y0071200D01*
X0395795Y0070750D01*
X0394894Y0070750D01*
X0394444Y0071200D01*
X0394444Y0073452D02*
X0396245Y0073452D01*
X0399045Y0066945D02*
X0399496Y0066945D01*
X0401297Y0065143D01*
X0401747Y0065143D01*
X0401297Y0063998D02*
X0401747Y0063548D01*
X0401747Y0062647D01*
X0401297Y0062197D01*
X0401747Y0061052D02*
X0400847Y0060151D01*
X0400847Y0060601D02*
X0400847Y0059250D01*
X0401747Y0059250D02*
X0399045Y0059250D01*
X0399045Y0060601D01*
X0399496Y0061052D01*
X0400396Y0061052D01*
X0400847Y0060601D01*
X0399496Y0062197D02*
X0399045Y0062647D01*
X0399045Y0063548D01*
X0399496Y0063998D01*
X0399946Y0063998D01*
X0400396Y0063548D01*
X0400847Y0063998D01*
X0401297Y0063998D01*
X0400396Y0063548D02*
X0400396Y0063097D01*
X0399045Y0065143D02*
X0399045Y0066945D01*
X0411545Y0066445D02*
X0411996Y0065544D01*
X0412896Y0064643D01*
X0412896Y0065994D01*
X0413347Y0066445D01*
X0413797Y0066445D01*
X0414247Y0065994D01*
X0414247Y0065093D01*
X0413797Y0064643D01*
X0412896Y0064643D01*
X0412446Y0063498D02*
X0412896Y0063048D01*
X0413347Y0063498D01*
X0413797Y0063498D01*
X0414247Y0063048D01*
X0414247Y0062147D01*
X0413797Y0061697D01*
X0414247Y0060552D02*
X0413347Y0059651D01*
X0413347Y0060101D02*
X0413347Y0058750D01*
X0414247Y0058750D02*
X0411545Y0058750D01*
X0411545Y0060101D01*
X0411996Y0060552D01*
X0412896Y0060552D01*
X0413347Y0060101D01*
X0411996Y0061697D02*
X0411545Y0062147D01*
X0411545Y0063048D01*
X0411996Y0063498D01*
X0412446Y0063498D01*
X0412896Y0063048D02*
X0412896Y0062597D01*
X0348245Y0083200D02*
X0347795Y0082750D01*
X0346894Y0082750D01*
X0346444Y0083200D01*
X0346444Y0083651D01*
X0346894Y0084101D01*
X0347795Y0084101D01*
X0348245Y0083651D01*
X0348245Y0083200D01*
X0347795Y0084101D02*
X0348245Y0084552D01*
X0348245Y0085002D01*
X0347795Y0085452D01*
X0346894Y0085452D01*
X0346444Y0085002D01*
X0346444Y0084552D01*
X0346894Y0084101D01*
X0345299Y0083200D02*
X0345299Y0085452D01*
X0343497Y0085452D02*
X0343497Y0083200D01*
X0343948Y0082750D01*
X0344849Y0082750D01*
X0345299Y0083200D01*
X0527495Y0083410D02*
X0527495Y0084762D01*
X0527946Y0085212D01*
X0529747Y0085212D01*
X0530197Y0084762D01*
X0530197Y0083410D01*
X0527495Y0083410D01*
X0528396Y0086357D02*
X0527495Y0087258D01*
X0530197Y0087258D01*
X0530197Y0086357D02*
X0530197Y0088159D01*
X0530197Y0089303D02*
X0530197Y0091105D01*
X0530197Y0090204D02*
X0527495Y0090204D01*
X0528396Y0089303D01*
X0583795Y0090097D02*
X0586497Y0090097D01*
X0586497Y0089197D02*
X0586497Y0090998D01*
X0586497Y0092143D02*
X0584696Y0093945D01*
X0584246Y0093945D01*
X0583795Y0093494D01*
X0583795Y0092593D01*
X0584246Y0092143D01*
X0583795Y0090097D02*
X0584696Y0089197D01*
X0584246Y0088052D02*
X0583795Y0087601D01*
X0583795Y0086250D01*
X0586497Y0086250D01*
X0586497Y0087601D01*
X0586047Y0088052D01*
X0584246Y0088052D01*
X0586497Y0092143D02*
X0586497Y0093945D01*
X0644232Y0076363D02*
X0644232Y0075462D01*
X0644683Y0075011D01*
X0644232Y0073866D02*
X0644232Y0072966D01*
X0644232Y0073416D02*
X0646484Y0073416D01*
X0646934Y0072966D01*
X0646934Y0072515D01*
X0646484Y0072065D01*
X0646484Y0075011D02*
X0646934Y0075462D01*
X0646934Y0076363D01*
X0646484Y0076813D01*
X0646034Y0076813D01*
X0645583Y0076363D01*
X0645583Y0075912D01*
X0645583Y0076363D02*
X0645133Y0076813D01*
X0644683Y0076813D01*
X0644232Y0076363D01*
X0630742Y0059702D02*
X0629390Y0058351D01*
X0631192Y0058351D01*
X0630742Y0057000D02*
X0630742Y0059702D01*
X0628245Y0059252D02*
X0628245Y0058802D01*
X0627795Y0058351D01*
X0628245Y0057901D01*
X0628245Y0057450D01*
X0627795Y0057000D01*
X0626894Y0057000D01*
X0626444Y0057450D01*
X0625299Y0057000D02*
X0624398Y0057901D01*
X0624849Y0057901D02*
X0623497Y0057901D01*
X0623497Y0057000D02*
X0623497Y0059702D01*
X0624849Y0059702D01*
X0625299Y0059252D01*
X0625299Y0058351D01*
X0624849Y0057901D01*
X0626444Y0059252D02*
X0626894Y0059702D01*
X0627795Y0059702D01*
X0628245Y0059252D01*
X0627795Y0058351D02*
X0627345Y0058351D01*
X0633854Y0049252D02*
X0633854Y0047000D01*
X0634305Y0046550D01*
X0635206Y0046550D01*
X0635656Y0047000D01*
X0635656Y0049252D01*
X0636801Y0048802D02*
X0637251Y0049252D01*
X0638152Y0049252D01*
X0638602Y0048802D01*
X0638602Y0048352D01*
X0636801Y0046550D01*
X0638602Y0046550D01*
X0624242Y0032202D02*
X0623341Y0032202D01*
X0622890Y0031752D01*
X0621745Y0031752D02*
X0621745Y0031302D01*
X0621295Y0030851D01*
X0621745Y0030401D01*
X0621745Y0029950D01*
X0621295Y0029500D01*
X0620394Y0029500D01*
X0619944Y0029950D01*
X0618799Y0029500D02*
X0617898Y0030401D01*
X0618349Y0030401D02*
X0616997Y0030401D01*
X0616997Y0029500D02*
X0616997Y0032202D01*
X0618349Y0032202D01*
X0618799Y0031752D01*
X0618799Y0030851D01*
X0618349Y0030401D01*
X0619944Y0031752D02*
X0620394Y0032202D01*
X0621295Y0032202D01*
X0621745Y0031752D01*
X0621295Y0030851D02*
X0620845Y0030851D01*
X0622890Y0029950D02*
X0623341Y0029500D01*
X0624242Y0029500D01*
X0624692Y0029950D01*
X0624692Y0030401D01*
X0624242Y0030851D01*
X0623791Y0030851D01*
X0624242Y0030851D02*
X0624692Y0031302D01*
X0624692Y0031752D01*
X0624242Y0032202D01*
X0634158Y0027002D02*
X0635509Y0027002D01*
X0635959Y0026552D01*
X0635959Y0025651D01*
X0635509Y0025201D01*
X0634158Y0025201D01*
X0635059Y0025201D02*
X0635959Y0024300D01*
X0637104Y0024750D02*
X0637555Y0024300D01*
X0638456Y0024300D01*
X0638906Y0024750D01*
X0638906Y0025201D01*
X0638456Y0025651D01*
X0638005Y0025651D01*
X0638456Y0025651D02*
X0638906Y0026102D01*
X0638906Y0026552D01*
X0638456Y0027002D01*
X0637555Y0027002D01*
X0637104Y0026552D01*
X0634158Y0027002D02*
X0634158Y0024300D01*
X0640051Y0024750D02*
X0640501Y0024300D01*
X0641402Y0024300D01*
X0641852Y0024750D01*
X0641852Y0025651D01*
X0641402Y0026102D01*
X0640952Y0026102D01*
X0640051Y0025651D01*
X0640051Y0027002D01*
X0641852Y0027002D01*
X0645746Y0016498D02*
X0645295Y0016048D01*
X0645295Y0015147D01*
X0645746Y0014697D01*
X0645295Y0013552D02*
X0645295Y0012651D01*
X0645295Y0013101D02*
X0647547Y0013101D01*
X0647997Y0012651D01*
X0647997Y0012200D01*
X0647547Y0011750D01*
X0647997Y0014697D02*
X0646196Y0016498D01*
X0645746Y0016498D01*
X0647997Y0016498D02*
X0647997Y0014697D01*
X0530197Y0130857D02*
X0530197Y0132208D01*
X0529747Y0132659D01*
X0527946Y0132659D01*
X0527495Y0132208D01*
X0527495Y0130857D01*
X0530197Y0130857D01*
X0529747Y0133803D02*
X0530197Y0134254D01*
X0530197Y0135155D01*
X0529747Y0135605D01*
X0527946Y0135605D01*
X0527495Y0135155D01*
X0527495Y0134254D01*
X0527946Y0133803D01*
X0528396Y0133803D01*
X0528846Y0134254D01*
X0528846Y0135605D01*
X0583795Y0135597D02*
X0586497Y0135597D01*
X0586497Y0134697D02*
X0586497Y0136498D01*
X0586047Y0137643D02*
X0584246Y0139445D01*
X0586047Y0139445D01*
X0586497Y0138994D01*
X0586497Y0138093D01*
X0586047Y0137643D01*
X0584246Y0137643D01*
X0583795Y0138093D01*
X0583795Y0138994D01*
X0584246Y0139445D01*
X0583795Y0135597D02*
X0584696Y0134697D01*
X0584246Y0133552D02*
X0583795Y0133101D01*
X0583795Y0131750D01*
X0586497Y0131750D01*
X0586497Y0133101D01*
X0586047Y0133552D01*
X0584246Y0133552D01*
X0530197Y0176857D02*
X0530197Y0178208D01*
X0529747Y0178659D01*
X0527946Y0178659D01*
X0527495Y0178208D01*
X0527495Y0176857D01*
X0530197Y0176857D01*
X0530197Y0179803D02*
X0529747Y0179803D01*
X0527946Y0181605D01*
X0527495Y0181605D01*
X0527495Y0179803D01*
X0583795Y0179601D02*
X0583795Y0178250D01*
X0586497Y0178250D01*
X0586497Y0179601D01*
X0586047Y0180052D01*
X0584246Y0180052D01*
X0583795Y0179601D01*
X0584246Y0181197D02*
X0583795Y0181647D01*
X0583795Y0182548D01*
X0584246Y0182998D01*
X0584696Y0182998D01*
X0585146Y0182548D01*
X0585146Y0181647D01*
X0584696Y0181197D01*
X0584246Y0181197D01*
X0585146Y0181647D02*
X0585597Y0181197D01*
X0586047Y0181197D01*
X0586497Y0181647D01*
X0586497Y0182548D01*
X0586047Y0182998D01*
X0585597Y0182998D01*
X0585146Y0182548D01*
X0644232Y0222966D02*
X0644232Y0223866D01*
X0644232Y0223416D02*
X0646484Y0223416D01*
X0646934Y0222966D01*
X0646934Y0222515D01*
X0646484Y0222065D01*
X0646934Y0225011D02*
X0646934Y0226813D01*
X0646934Y0225912D02*
X0644232Y0225912D01*
X0645133Y0225011D01*
X0476247Y0264700D02*
X0476247Y0265601D01*
X0475797Y0266052D01*
X0475797Y0267197D02*
X0476247Y0267647D01*
X0476247Y0268548D01*
X0475797Y0268998D01*
X0475347Y0268998D01*
X0474896Y0268548D01*
X0474896Y0268097D01*
X0474896Y0268548D02*
X0474446Y0268998D01*
X0473996Y0268998D01*
X0473545Y0268548D01*
X0473545Y0267647D01*
X0473996Y0267197D01*
X0473996Y0266052D02*
X0473545Y0265601D01*
X0473545Y0264700D01*
X0473996Y0264250D01*
X0475797Y0264250D01*
X0476247Y0264700D01*
X0475797Y0270143D02*
X0473996Y0270143D01*
X0473545Y0270593D01*
X0473545Y0271494D01*
X0473996Y0271945D01*
X0475797Y0270143D01*
X0476247Y0270593D01*
X0476247Y0271494D01*
X0475797Y0271945D01*
X0473996Y0271945D01*
X0467245Y0276250D02*
X0465444Y0276250D01*
X0467245Y0278052D01*
X0467245Y0278502D01*
X0466795Y0278952D01*
X0465894Y0278952D01*
X0465444Y0278502D01*
X0464299Y0278502D02*
X0463849Y0278952D01*
X0462497Y0278952D01*
X0462497Y0276250D01*
X0463849Y0276250D01*
X0464299Y0276700D01*
X0464299Y0278502D01*
X0414245Y0282252D02*
X0412444Y0280450D01*
X0412444Y0280000D01*
X0411299Y0280000D02*
X0410398Y0280901D01*
X0410849Y0280901D02*
X0409497Y0280901D01*
X0409497Y0280000D02*
X0409497Y0282702D01*
X0410849Y0282702D01*
X0411299Y0282252D01*
X0411299Y0281351D01*
X0410849Y0280901D01*
X0412444Y0282702D02*
X0414245Y0282702D01*
X0414245Y0282252D01*
X0404795Y0292000D02*
X0405245Y0292450D01*
X0405245Y0292901D01*
X0404795Y0293351D01*
X0403444Y0293351D01*
X0403444Y0292450D01*
X0403894Y0292000D01*
X0404795Y0292000D01*
X0403444Y0293351D02*
X0404345Y0294252D01*
X0405245Y0294702D01*
X0402299Y0294252D02*
X0402299Y0293351D01*
X0401849Y0292901D01*
X0400497Y0292901D01*
X0400497Y0292000D02*
X0400497Y0294702D01*
X0401849Y0294702D01*
X0402299Y0294252D01*
X0401398Y0292901D02*
X0402299Y0292000D01*
X0412295Y0297126D02*
X0412295Y0298026D01*
X0412746Y0298477D01*
X0414547Y0298477D01*
X0414997Y0298026D01*
X0414997Y0297126D01*
X0414547Y0296675D01*
X0412746Y0296675D01*
X0412295Y0297126D01*
X0414097Y0297576D02*
X0414997Y0298477D01*
X0414547Y0299622D02*
X0414997Y0300072D01*
X0414997Y0300973D01*
X0414547Y0301423D01*
X0414097Y0301423D01*
X0413646Y0300973D01*
X0413646Y0300522D01*
X0413646Y0300973D02*
X0413196Y0301423D01*
X0412746Y0301423D01*
X0412295Y0300973D01*
X0412295Y0300072D01*
X0412746Y0299622D01*
X0408402Y0304800D02*
X0407501Y0304800D01*
X0407051Y0305250D01*
X0407051Y0305701D01*
X0407501Y0306151D01*
X0408402Y0306151D01*
X0408852Y0305701D01*
X0408852Y0305250D01*
X0408402Y0304800D01*
X0408402Y0306151D02*
X0408852Y0306602D01*
X0408852Y0307052D01*
X0408402Y0307502D01*
X0407501Y0307502D01*
X0407051Y0307052D01*
X0407051Y0306602D01*
X0407501Y0306151D01*
X0405906Y0306151D02*
X0405456Y0305701D01*
X0404104Y0305701D01*
X0404104Y0304800D02*
X0404104Y0307502D01*
X0405456Y0307502D01*
X0405906Y0307052D01*
X0405906Y0306151D01*
X0405005Y0305701D02*
X0405906Y0304800D01*
X0384247Y0290048D02*
X0383797Y0290498D01*
X0381996Y0290498D01*
X0381545Y0290048D01*
X0381545Y0289147D01*
X0381996Y0288697D01*
X0382446Y0288697D01*
X0382896Y0289147D01*
X0382896Y0290498D01*
X0384247Y0290048D02*
X0384247Y0289147D01*
X0383797Y0288697D01*
X0384247Y0287552D02*
X0383347Y0286651D01*
X0383347Y0287101D02*
X0383347Y0285750D01*
X0384247Y0285750D02*
X0381545Y0285750D01*
X0381545Y0287101D01*
X0381996Y0287552D01*
X0382896Y0287552D01*
X0383347Y0287101D01*
X0350692Y0279752D02*
X0348890Y0277950D01*
X0349341Y0277500D01*
X0350242Y0277500D01*
X0350692Y0277950D01*
X0350692Y0279752D01*
X0350242Y0280202D01*
X0349341Y0280202D01*
X0348890Y0279752D01*
X0348890Y0277950D01*
X0347745Y0277500D02*
X0345944Y0277500D01*
X0346845Y0277500D02*
X0346845Y0280202D01*
X0345944Y0279302D01*
X0344799Y0279752D02*
X0344799Y0278851D01*
X0344349Y0278401D01*
X0342997Y0278401D01*
X0342997Y0277500D02*
X0342997Y0280202D01*
X0344349Y0280202D01*
X0344799Y0279752D01*
X0343898Y0278401D02*
X0344799Y0277500D01*
X0350464Y0259354D02*
X0353166Y0259354D01*
X0353166Y0258453D02*
X0353166Y0260255D01*
X0351364Y0258453D02*
X0350464Y0259354D01*
X0350914Y0257308D02*
X0350464Y0256858D01*
X0350464Y0255957D01*
X0350914Y0255507D01*
X0352716Y0255507D01*
X0353166Y0255957D01*
X0353166Y0256858D01*
X0352716Y0257308D01*
X0378964Y0256858D02*
X0378964Y0255957D01*
X0379414Y0255507D01*
X0381216Y0255507D01*
X0381666Y0255957D01*
X0381666Y0256858D01*
X0381216Y0257308D01*
X0381216Y0258453D02*
X0381666Y0258903D01*
X0381666Y0259804D01*
X0381216Y0260255D01*
X0380765Y0260255D01*
X0380315Y0259804D01*
X0380315Y0259354D01*
X0380315Y0259804D02*
X0379864Y0260255D01*
X0379414Y0260255D01*
X0378964Y0259804D01*
X0378964Y0258903D01*
X0379414Y0258453D01*
X0379414Y0257308D02*
X0378964Y0256858D01*
X0394497Y0267250D02*
X0394497Y0269952D01*
X0395849Y0269952D01*
X0396299Y0269502D01*
X0396299Y0268601D01*
X0395849Y0268151D01*
X0394497Y0268151D01*
X0395398Y0268151D02*
X0396299Y0267250D01*
X0397444Y0267700D02*
X0397894Y0267250D01*
X0398795Y0267250D01*
X0399245Y0267700D01*
X0399245Y0268601D01*
X0398795Y0269052D01*
X0398345Y0269052D01*
X0397444Y0268601D01*
X0397444Y0269952D01*
X0399245Y0269952D01*
X0352497Y0304626D02*
X0352047Y0304175D01*
X0350246Y0304175D01*
X0349795Y0304626D01*
X0349795Y0305526D01*
X0350246Y0305977D01*
X0352047Y0305977D01*
X0352497Y0305526D01*
X0352497Y0304626D01*
X0351597Y0305076D02*
X0352497Y0305977D01*
X0351146Y0307122D02*
X0351146Y0308923D01*
X0349795Y0308473D02*
X0351146Y0307122D01*
X0352497Y0308473D02*
X0349795Y0308473D01*
X0357604Y0336550D02*
X0357604Y0339252D01*
X0358956Y0339252D01*
X0359406Y0338802D01*
X0359406Y0337901D01*
X0358956Y0337451D01*
X0357604Y0337451D01*
X0358505Y0337451D02*
X0359406Y0336550D01*
X0360551Y0337000D02*
X0361001Y0336550D01*
X0361902Y0336550D01*
X0362352Y0337000D01*
X0362352Y0337451D01*
X0361902Y0337901D01*
X0361452Y0337901D01*
X0361902Y0337901D02*
X0362352Y0338352D01*
X0362352Y0338802D01*
X0361902Y0339252D01*
X0361001Y0339252D01*
X0360551Y0338802D01*
X0382497Y0339452D02*
X0382497Y0336750D01*
X0382497Y0337651D02*
X0383849Y0337651D01*
X0384299Y0338101D01*
X0384299Y0339002D01*
X0383849Y0339452D01*
X0382497Y0339452D01*
X0383398Y0337651D02*
X0384299Y0336750D01*
X0385444Y0336750D02*
X0387245Y0338552D01*
X0387245Y0339002D01*
X0386795Y0339452D01*
X0385894Y0339452D01*
X0385444Y0339002D01*
X0385444Y0336750D02*
X0387245Y0336750D01*
X0399295Y0337750D02*
X0399295Y0339101D01*
X0399746Y0339552D01*
X0401547Y0339552D01*
X0401997Y0339101D01*
X0401997Y0337750D01*
X0399295Y0337750D01*
X0400646Y0340697D02*
X0400646Y0342498D01*
X0399295Y0342048D02*
X0400646Y0340697D01*
X0401997Y0342048D02*
X0399295Y0342048D01*
X0436604Y0356050D02*
X0436604Y0358752D01*
X0437956Y0358752D01*
X0438406Y0358302D01*
X0438406Y0357401D01*
X0437956Y0356951D01*
X0436604Y0356951D01*
X0437505Y0356951D02*
X0438406Y0356050D01*
X0439551Y0356050D02*
X0441352Y0356050D01*
X0440452Y0356050D02*
X0440452Y0358752D01*
X0439551Y0357852D01*
X0413745Y0369250D02*
X0411944Y0369250D01*
X0412845Y0369250D02*
X0412845Y0371952D01*
X0411944Y0371052D01*
X0410799Y0371502D02*
X0410349Y0371952D01*
X0408997Y0371952D01*
X0408997Y0369250D01*
X0410349Y0369250D01*
X0410799Y0369700D01*
X0410799Y0371502D01*
X0386495Y0376500D02*
X0384694Y0376500D01*
X0385595Y0376500D02*
X0385595Y0379202D01*
X0384694Y0378302D01*
X0383549Y0378752D02*
X0383549Y0376950D01*
X0383099Y0376500D01*
X0382198Y0376500D01*
X0381747Y0376950D01*
X0381747Y0378752D01*
X0382198Y0379202D01*
X0383099Y0379202D01*
X0383549Y0378752D01*
X0382648Y0377401D02*
X0383549Y0376500D01*
X0452104Y0334752D02*
X0453456Y0334752D01*
X0453906Y0334302D01*
X0453906Y0332500D01*
X0453456Y0332050D01*
X0452104Y0332050D01*
X0452104Y0334752D01*
X0455051Y0334302D02*
X0455501Y0334752D01*
X0456402Y0334752D01*
X0456852Y0334302D01*
X0456852Y0333852D01*
X0456402Y0333401D01*
X0456852Y0332951D01*
X0456852Y0332500D01*
X0456402Y0332050D01*
X0455501Y0332050D01*
X0455051Y0332500D01*
X0455952Y0333401D02*
X0456402Y0333401D01*
X0455849Y0324952D02*
X0454497Y0324952D01*
X0454497Y0322250D01*
X0454497Y0323151D02*
X0455849Y0323151D01*
X0456299Y0323601D01*
X0456299Y0324502D01*
X0455849Y0324952D01*
X0455398Y0323151D02*
X0456299Y0322250D01*
X0457444Y0323601D02*
X0459245Y0323601D01*
X0458795Y0322250D02*
X0458795Y0324952D01*
X0457444Y0323601D01*
X0477747Y0330200D02*
X0478198Y0329750D01*
X0479099Y0329750D01*
X0479549Y0330200D01*
X0479549Y0332002D01*
X0479099Y0332452D01*
X0478198Y0332452D01*
X0477747Y0332002D01*
X0477747Y0330200D01*
X0478648Y0330651D02*
X0479549Y0329750D01*
X0480694Y0329750D02*
X0482495Y0331552D01*
X0482495Y0332002D01*
X0482045Y0332452D01*
X0481144Y0332452D01*
X0480694Y0332002D01*
X0480694Y0329750D02*
X0482495Y0329750D01*
X0645295Y0329697D02*
X0646646Y0329697D01*
X0646196Y0330597D01*
X0646196Y0331048D01*
X0646646Y0331498D01*
X0647547Y0331498D01*
X0647997Y0331048D01*
X0647997Y0330147D01*
X0647547Y0329697D01*
X0647547Y0328101D02*
X0645295Y0328101D01*
X0645295Y0327651D02*
X0645295Y0328552D01*
X0645295Y0329697D02*
X0645295Y0331498D01*
X0647547Y0328101D02*
X0647997Y0327651D01*
X0647997Y0327200D01*
X0647547Y0326750D01*
X0317692Y0253750D02*
X0315890Y0253750D01*
X0316791Y0253750D02*
X0316791Y0256452D01*
X0315890Y0255552D01*
X0314745Y0255101D02*
X0312944Y0255101D01*
X0314295Y0256452D01*
X0314295Y0253750D01*
X0311799Y0253750D02*
X0310898Y0254651D01*
X0311349Y0254651D02*
X0309997Y0254651D01*
X0309997Y0253750D02*
X0309997Y0256452D01*
X0311349Y0256452D01*
X0311799Y0256002D01*
X0311799Y0255101D01*
X0311349Y0254651D01*
X0193995Y0317700D02*
X0193545Y0317250D01*
X0192644Y0317250D01*
X0192194Y0317700D01*
X0191049Y0317700D02*
X0191049Y0319952D01*
X0192194Y0319502D02*
X0192644Y0319952D01*
X0193545Y0319952D01*
X0193995Y0319502D01*
X0193995Y0319052D01*
X0193545Y0318601D01*
X0193995Y0318151D01*
X0193995Y0317700D01*
X0193545Y0318601D02*
X0193095Y0318601D01*
X0191049Y0317700D02*
X0190599Y0317250D01*
X0189698Y0317250D01*
X0189247Y0317700D01*
X0189247Y0319952D01*
X0103747Y0255143D02*
X0103297Y0255143D01*
X0101496Y0256945D01*
X0101045Y0256945D01*
X0101045Y0255143D01*
X0101496Y0253998D02*
X0101045Y0253548D01*
X0101045Y0252647D01*
X0101496Y0252197D01*
X0101496Y0251052D02*
X0102396Y0251052D01*
X0102847Y0250601D01*
X0102847Y0249250D01*
X0103747Y0249250D02*
X0101045Y0249250D01*
X0101045Y0250601D01*
X0101496Y0251052D01*
X0102847Y0250151D02*
X0103747Y0251052D01*
X0103747Y0252197D02*
X0101946Y0253998D01*
X0101496Y0253998D01*
X0103747Y0253998D02*
X0103747Y0252197D01*
X0079826Y0242894D02*
X0079826Y0229106D01*
X0079826Y0222894D02*
X0079826Y0209106D01*
D13*
X0284673Y0021939D02*
X0284673Y0020955D01*
X0284673Y0018987D02*
X0284673Y0015050D01*
X0285657Y0015050D02*
X0283688Y0015050D01*
X0281180Y0015050D02*
X0278227Y0015050D01*
X0277243Y0016034D01*
X0278227Y0017018D01*
X0281180Y0017018D01*
X0281180Y0018003D02*
X0281180Y0015050D01*
X0281180Y0018003D02*
X0280195Y0018987D01*
X0278227Y0018987D01*
X0274734Y0019971D02*
X0273750Y0020955D01*
X0271782Y0020955D01*
X0270797Y0019971D01*
X0270797Y0018987D01*
X0271782Y0018003D01*
X0273750Y0018003D01*
X0274734Y0017018D01*
X0274734Y0016034D01*
X0273750Y0015050D01*
X0271782Y0015050D01*
X0270797Y0016034D01*
X0283688Y0018987D02*
X0284673Y0018987D01*
X0287985Y0018987D02*
X0287985Y0015050D01*
X0287985Y0018987D02*
X0290938Y0018987D01*
X0291922Y0018003D01*
X0291922Y0015050D01*
X0295415Y0016034D02*
X0296399Y0015050D01*
X0295415Y0016034D02*
X0295415Y0019971D01*
X0294431Y0018987D02*
X0296399Y0018987D01*
X0305173Y0020955D02*
X0309110Y0020955D01*
X0307142Y0020955D02*
X0307142Y0015050D01*
X0311619Y0015050D02*
X0311619Y0020955D01*
X0312603Y0018987D02*
X0314571Y0018987D01*
X0315556Y0018003D01*
X0315556Y0015050D01*
X0318064Y0016034D02*
X0318064Y0018003D01*
X0319049Y0018987D01*
X0321017Y0018987D01*
X0322001Y0018003D01*
X0322001Y0016034D01*
X0321017Y0015050D01*
X0319049Y0015050D01*
X0318064Y0016034D01*
X0312603Y0018987D02*
X0311619Y0018003D01*
X0324510Y0018987D02*
X0324510Y0015050D01*
X0326478Y0015050D02*
X0326478Y0018003D01*
X0327462Y0018987D01*
X0328447Y0018003D01*
X0328447Y0015050D01*
X0330955Y0016034D02*
X0331940Y0017018D01*
X0334892Y0017018D01*
X0334892Y0018003D02*
X0334892Y0015050D01*
X0331940Y0015050D01*
X0330955Y0016034D01*
X0331940Y0018987D02*
X0333908Y0018987D01*
X0334892Y0018003D01*
X0337401Y0018003D02*
X0338385Y0018987D01*
X0341338Y0018987D01*
X0340353Y0017018D02*
X0338385Y0017018D01*
X0337401Y0018003D01*
X0337401Y0015050D02*
X0340353Y0015050D01*
X0341338Y0016034D01*
X0340353Y0017018D01*
X0350292Y0018003D02*
X0354229Y0018003D01*
X0354229Y0018987D02*
X0354229Y0015050D01*
X0356737Y0016034D02*
X0356737Y0018003D01*
X0357722Y0018987D01*
X0360674Y0018987D01*
X0364167Y0018987D02*
X0366135Y0018987D01*
X0367120Y0018003D01*
X0367120Y0015050D01*
X0364167Y0015050D01*
X0363183Y0016034D01*
X0364167Y0017018D01*
X0367120Y0017018D01*
X0369628Y0016034D02*
X0369628Y0018003D01*
X0370613Y0018987D01*
X0373565Y0018987D01*
X0373565Y0020955D02*
X0373565Y0015050D01*
X0370613Y0015050D01*
X0369628Y0016034D01*
X0376074Y0016034D02*
X0376074Y0018003D01*
X0377058Y0018987D01*
X0379026Y0018987D01*
X0380011Y0018003D01*
X0380011Y0017018D01*
X0376074Y0017018D01*
X0376074Y0016034D02*
X0377058Y0015050D01*
X0379026Y0015050D01*
X0382519Y0015050D02*
X0382519Y0018987D01*
X0383504Y0018987D01*
X0384488Y0018003D01*
X0385472Y0018987D01*
X0386456Y0018003D01*
X0386456Y0015050D01*
X0384488Y0015050D02*
X0384488Y0018003D01*
X0388965Y0018987D02*
X0388965Y0016034D01*
X0389949Y0015050D01*
X0392902Y0015050D01*
X0392902Y0014066D02*
X0391917Y0013082D01*
X0390933Y0013082D01*
X0392902Y0014066D02*
X0392902Y0018987D01*
X0401856Y0018003D02*
X0403824Y0018003D01*
X0401856Y0020955D02*
X0401856Y0015050D01*
X0405793Y0015050D01*
X0408301Y0015050D02*
X0412238Y0018987D01*
X0414747Y0018987D02*
X0417699Y0018987D01*
X0418684Y0018003D01*
X0418684Y0016034D01*
X0417699Y0015050D01*
X0414747Y0015050D01*
X0414747Y0013082D02*
X0414747Y0018987D01*
X0412238Y0015050D02*
X0408301Y0018987D01*
X0405793Y0020955D02*
X0401856Y0020955D01*
X0421192Y0018003D02*
X0421192Y0016034D01*
X0422177Y0015050D01*
X0424145Y0015050D01*
X0425129Y0017018D02*
X0421192Y0017018D01*
X0421192Y0018003D02*
X0422177Y0018987D01*
X0424145Y0018987D01*
X0425129Y0018003D01*
X0425129Y0017018D01*
X0427638Y0017018D02*
X0429606Y0018987D01*
X0430590Y0018987D01*
X0433009Y0018987D02*
X0433993Y0018987D01*
X0433993Y0015050D01*
X0433009Y0015050D02*
X0434977Y0015050D01*
X0437306Y0015050D02*
X0437306Y0018987D01*
X0438290Y0018987D01*
X0439274Y0018003D01*
X0440259Y0018987D01*
X0441243Y0018003D01*
X0441243Y0015050D01*
X0439274Y0015050D02*
X0439274Y0018003D01*
X0443752Y0018003D02*
X0444736Y0018987D01*
X0446704Y0018987D01*
X0447688Y0018003D01*
X0447688Y0017018D01*
X0443752Y0017018D01*
X0443752Y0016034D02*
X0443752Y0018003D01*
X0443752Y0016034D02*
X0444736Y0015050D01*
X0446704Y0015050D01*
X0450197Y0015050D02*
X0450197Y0018987D01*
X0453150Y0018987D01*
X0454134Y0018003D01*
X0454134Y0015050D01*
X0457627Y0016034D02*
X0457627Y0019971D01*
X0456643Y0018987D02*
X0458611Y0018987D01*
X0457627Y0016034D02*
X0458611Y0015050D01*
X0460940Y0016034D02*
X0461924Y0017018D01*
X0464876Y0017018D01*
X0464876Y0018003D02*
X0464876Y0015050D01*
X0461924Y0015050D01*
X0460940Y0016034D01*
X0461924Y0018987D02*
X0463892Y0018987D01*
X0464876Y0018003D01*
X0467385Y0020955D02*
X0468369Y0020955D01*
X0468369Y0015050D01*
X0467385Y0015050D02*
X0469353Y0015050D01*
X0478128Y0017018D02*
X0480096Y0015050D01*
X0482064Y0017018D01*
X0482064Y0020955D01*
X0484573Y0018003D02*
X0485557Y0018987D01*
X0487526Y0018987D01*
X0488510Y0018003D01*
X0488510Y0017018D01*
X0484573Y0017018D01*
X0484573Y0016034D02*
X0484573Y0018003D01*
X0484573Y0016034D02*
X0485557Y0015050D01*
X0487526Y0015050D01*
X0491019Y0015050D02*
X0491019Y0020955D01*
X0492003Y0018987D02*
X0493971Y0018987D01*
X0494955Y0018003D01*
X0494955Y0015050D01*
X0497464Y0015050D02*
X0499432Y0015050D01*
X0498448Y0015050D02*
X0498448Y0018987D01*
X0497464Y0018987D01*
X0498448Y0020955D02*
X0498448Y0021939D01*
X0501761Y0018003D02*
X0501761Y0016034D01*
X0502745Y0015050D01*
X0505698Y0015050D01*
X0508207Y0015050D02*
X0510175Y0015050D01*
X0509191Y0015050D02*
X0509191Y0020955D01*
X0508207Y0020955D01*
X0505698Y0018987D02*
X0502745Y0018987D01*
X0501761Y0018003D01*
X0492003Y0018987D02*
X0491019Y0018003D01*
X0478128Y0017018D02*
X0478128Y0020955D01*
X0512504Y0018003D02*
X0512504Y0016034D01*
X0513488Y0015050D01*
X0515456Y0015050D01*
X0516440Y0017018D02*
X0512504Y0017018D01*
X0512504Y0018003D02*
X0513488Y0018987D01*
X0515456Y0018987D01*
X0516440Y0018003D01*
X0516440Y0017018D01*
X0525395Y0020955D02*
X0529331Y0020955D01*
X0527363Y0020955D02*
X0527363Y0015050D01*
X0531840Y0016034D02*
X0531840Y0018003D01*
X0532824Y0018987D01*
X0534793Y0018987D01*
X0535777Y0018003D01*
X0535777Y0017018D01*
X0531840Y0017018D01*
X0531840Y0016034D02*
X0532824Y0015050D01*
X0534793Y0015050D01*
X0538286Y0016034D02*
X0539270Y0017018D01*
X0542222Y0017018D01*
X0542222Y0018003D02*
X0542222Y0015050D01*
X0539270Y0015050D01*
X0538286Y0016034D01*
X0539270Y0018987D02*
X0541238Y0018987D01*
X0542222Y0018003D01*
X0544731Y0018987D02*
X0544731Y0015050D01*
X0546699Y0015050D02*
X0546699Y0018003D01*
X0547684Y0018987D01*
X0548668Y0018003D01*
X0548668Y0015050D01*
X0546699Y0018003D02*
X0545715Y0018987D01*
X0544731Y0018987D01*
X0433993Y0020955D02*
X0433993Y0021939D01*
X0427638Y0018987D02*
X0427638Y0015050D01*
X0360674Y0015050D02*
X0357722Y0015050D01*
X0356737Y0016034D01*
X0354229Y0018987D02*
X0352260Y0020955D01*
X0350292Y0018987D01*
X0350292Y0015050D01*
X0326478Y0018003D02*
X0325494Y0018987D01*
X0324510Y0018987D01*
X0534993Y0228879D02*
X0534993Y0231431D01*
X0535844Y0232282D01*
X0537545Y0232282D01*
X0538396Y0231431D01*
X0538396Y0228879D01*
X0540097Y0228879D02*
X0534993Y0228879D01*
X0534993Y0234588D02*
X0534993Y0237140D01*
X0535844Y0237991D01*
X0537545Y0237991D01*
X0538396Y0237140D01*
X0538396Y0234588D01*
X0538396Y0236289D02*
X0540097Y0237991D01*
X0540097Y0240297D02*
X0540097Y0243700D01*
X0539247Y0246006D02*
X0540097Y0246856D01*
X0540097Y0248558D01*
X0539247Y0249408D01*
X0538396Y0249408D01*
X0537545Y0248558D01*
X0537545Y0246856D01*
X0536695Y0246006D01*
X0535844Y0246006D01*
X0534993Y0246856D01*
X0534993Y0248558D01*
X0535844Y0249408D01*
X0534993Y0251714D02*
X0540097Y0251714D01*
X0540097Y0255117D01*
X0540097Y0257423D02*
X0534993Y0257423D01*
X0540097Y0260826D01*
X0534993Y0260826D01*
X0534993Y0263132D02*
X0534993Y0266535D01*
X0534993Y0264834D02*
X0540097Y0264834D01*
X0530797Y0266737D02*
X0529096Y0268438D01*
X0525693Y0268438D01*
X0526544Y0270744D02*
X0529947Y0270744D01*
X0530797Y0271595D01*
X0530797Y0273296D01*
X0529947Y0274147D01*
X0526544Y0274147D01*
X0525693Y0273296D01*
X0525693Y0271595D01*
X0526544Y0270744D01*
X0521497Y0271293D02*
X0516393Y0267890D01*
X0521497Y0267890D01*
X0521497Y0265584D02*
X0518095Y0265584D01*
X0516393Y0263882D01*
X0518095Y0262181D01*
X0521497Y0262181D01*
X0520647Y0259875D02*
X0517244Y0259875D01*
X0516393Y0259024D01*
X0516393Y0256472D01*
X0521497Y0256472D01*
X0521497Y0259024D01*
X0520647Y0259875D01*
X0518945Y0262181D02*
X0518945Y0265584D01*
X0525693Y0265035D02*
X0529096Y0265035D01*
X0530797Y0266737D01*
X0535844Y0274550D02*
X0539247Y0274550D01*
X0540097Y0275401D01*
X0540097Y0277102D01*
X0539247Y0277953D01*
X0535844Y0277953D01*
X0534993Y0277102D01*
X0534993Y0275401D01*
X0535844Y0274550D01*
X0530797Y0276453D02*
X0530797Y0279856D01*
X0530797Y0276453D02*
X0525693Y0276453D01*
X0521497Y0276151D02*
X0521497Y0274449D01*
X0520647Y0273598D01*
X0517244Y0273598D01*
X0516393Y0274449D01*
X0516393Y0276151D01*
X0517244Y0277001D01*
X0518945Y0277001D02*
X0518945Y0275300D01*
X0518945Y0277001D02*
X0520647Y0277001D01*
X0521497Y0276151D01*
X0521497Y0279307D02*
X0521497Y0282710D01*
X0521497Y0285016D02*
X0516393Y0285016D01*
X0516393Y0287568D01*
X0517244Y0288419D01*
X0518945Y0288419D01*
X0519796Y0287568D01*
X0519796Y0285016D01*
X0519796Y0286718D02*
X0521497Y0288419D01*
X0521497Y0290725D02*
X0520647Y0290725D01*
X0518945Y0290725D02*
X0515542Y0290725D01*
X0525693Y0289572D02*
X0527395Y0291274D01*
X0530797Y0291274D01*
X0529947Y0293580D02*
X0530797Y0294430D01*
X0530797Y0296132D01*
X0529947Y0296982D01*
X0528245Y0296982D01*
X0528245Y0295281D01*
X0526544Y0296982D02*
X0525693Y0296132D01*
X0525693Y0294430D01*
X0526544Y0293580D01*
X0529947Y0293580D01*
X0528245Y0291274D02*
X0528245Y0287871D01*
X0527395Y0287871D02*
X0525693Y0289572D01*
X0527395Y0287871D02*
X0530797Y0287871D01*
X0530797Y0283863D02*
X0525693Y0283863D01*
X0525693Y0282162D02*
X0525693Y0285565D01*
X0521497Y0279307D02*
X0516393Y0279307D01*
X0516393Y0282710D01*
X0518945Y0281009D02*
X0518945Y0279307D01*
X0521497Y0271293D02*
X0516393Y0271293D01*
X0534993Y0280259D02*
X0540097Y0283662D01*
X0534993Y0283662D01*
X0534993Y0280259D02*
X0540097Y0280259D01*
X0540097Y0291677D02*
X0540097Y0294229D01*
X0539247Y0295079D01*
X0538396Y0295079D01*
X0537545Y0294229D01*
X0537545Y0291677D01*
X0537545Y0294229D02*
X0536695Y0295079D01*
X0535844Y0295079D01*
X0534993Y0294229D01*
X0534993Y0291677D01*
X0540097Y0291677D01*
X0539247Y0297385D02*
X0540097Y0298236D01*
X0540097Y0299938D01*
X0539247Y0300788D01*
X0535844Y0300788D01*
X0534993Y0299938D01*
X0534993Y0298236D01*
X0535844Y0297385D01*
X0539247Y0297385D01*
X0540097Y0303094D02*
X0536695Y0303094D01*
X0534993Y0304796D01*
X0536695Y0306497D01*
X0540097Y0306497D01*
X0540097Y0308803D02*
X0534993Y0308803D01*
X0534993Y0311355D01*
X0535844Y0312206D01*
X0537545Y0312206D01*
X0538396Y0311355D01*
X0538396Y0308803D01*
X0538396Y0310505D02*
X0540097Y0312206D01*
X0540097Y0314512D02*
X0540097Y0317064D01*
X0539247Y0317915D01*
X0535844Y0317915D01*
X0534993Y0317064D01*
X0534993Y0314512D01*
X0540097Y0314512D01*
X0537545Y0306497D02*
X0537545Y0303094D01*
X0530797Y0302691D02*
X0530797Y0299288D01*
X0525693Y0299288D01*
X0525693Y0302691D01*
X0526544Y0304997D02*
X0527395Y0304997D01*
X0528245Y0305848D01*
X0528245Y0307549D01*
X0529096Y0308400D01*
X0529947Y0308400D01*
X0530797Y0307549D01*
X0530797Y0305848D01*
X0529947Y0304997D01*
X0526544Y0304997D02*
X0525693Y0305848D01*
X0525693Y0307549D01*
X0526544Y0308400D01*
X0528245Y0300990D02*
X0528245Y0299288D01*
X0528245Y0257020D02*
X0528245Y0253617D01*
X0528245Y0251311D02*
X0528245Y0249610D01*
X0528245Y0251311D02*
X0529947Y0251311D01*
X0530797Y0250461D01*
X0530797Y0248759D01*
X0529947Y0247909D01*
X0526544Y0247909D01*
X0525693Y0248759D01*
X0525693Y0250461D01*
X0526544Y0251311D01*
X0525693Y0253617D02*
X0530797Y0253617D01*
X0530797Y0257020D02*
X0525693Y0257020D01*
X0534993Y0255117D02*
X0534993Y0251714D01*
X0537545Y0251714D02*
X0537545Y0253416D01*
X0530797Y0245804D02*
X0530797Y0244103D01*
X0530797Y0244953D02*
X0525693Y0244953D01*
X0525693Y0244103D02*
X0525693Y0245804D01*
X0525693Y0241797D02*
X0530797Y0241797D01*
X0528245Y0241797D02*
X0528245Y0238394D01*
X0530797Y0238394D02*
X0525693Y0238394D01*
X0534993Y0240297D02*
X0534993Y0243700D01*
X0537545Y0241998D02*
X0537545Y0240297D01*
X0534993Y0240297D02*
X0540097Y0240297D01*
X0540097Y0234588D02*
X0534993Y0234588D01*
D14*
X0595947Y0252007D02*
X0607024Y0252007D01*
X0600986Y0285469D02*
X0600986Y0296545D01*
X0606524Y0291007D02*
X0595447Y0291007D01*
D15*
X0485259Y0320606D02*
X0485259Y0323756D01*
X0482897Y0323756D01*
X0476598Y0323756D02*
X0474236Y0323756D01*
X0474236Y0320606D01*
X0442647Y0313206D02*
X0442649Y0289500D01*
X0416846Y0289500D01*
X0416847Y0313206D01*
X0415456Y0331945D02*
X0413684Y0331945D01*
X0415456Y0331945D02*
X0415456Y0350055D01*
X0413684Y0350055D01*
X0413684Y0344937D02*
X0405810Y0344937D01*
X0405810Y0350055D02*
X0404039Y0350055D01*
X0404039Y0331945D01*
X0405810Y0331945D01*
X0380147Y0313206D02*
X0380149Y0289500D01*
X0354346Y0289500D01*
X0354347Y0313206D01*
X0302997Y0322000D02*
X0296497Y0322000D01*
X0296437Y0322002D01*
X0296376Y0322007D01*
X0296317Y0322016D01*
X0296258Y0322029D01*
X0296199Y0322045D01*
X0296142Y0322065D01*
X0296087Y0322088D01*
X0296032Y0322115D01*
X0295980Y0322144D01*
X0295929Y0322177D01*
X0295880Y0322213D01*
X0295834Y0322251D01*
X0295790Y0322293D01*
X0295748Y0322337D01*
X0295710Y0322383D01*
X0295674Y0322432D01*
X0295641Y0322483D01*
X0295612Y0322535D01*
X0295585Y0322590D01*
X0295562Y0322645D01*
X0295542Y0322702D01*
X0295526Y0322761D01*
X0295513Y0322820D01*
X0295504Y0322879D01*
X0295499Y0322940D01*
X0295497Y0323000D01*
X0295497Y0329000D02*
X0295499Y0329060D01*
X0295504Y0329121D01*
X0295513Y0329180D01*
X0295526Y0329239D01*
X0295542Y0329298D01*
X0295562Y0329355D01*
X0295585Y0329410D01*
X0295612Y0329465D01*
X0295641Y0329517D01*
X0295674Y0329568D01*
X0295710Y0329617D01*
X0295748Y0329663D01*
X0295790Y0329707D01*
X0295834Y0329749D01*
X0295880Y0329787D01*
X0295929Y0329823D01*
X0295980Y0329856D01*
X0296032Y0329885D01*
X0296087Y0329912D01*
X0296142Y0329935D01*
X0296199Y0329955D01*
X0296258Y0329971D01*
X0296317Y0329984D01*
X0296376Y0329993D01*
X0296437Y0329998D01*
X0296497Y0330000D01*
X0302997Y0330000D01*
X0303057Y0329998D01*
X0303118Y0329993D01*
X0303177Y0329984D01*
X0303236Y0329971D01*
X0303295Y0329955D01*
X0303352Y0329935D01*
X0303407Y0329912D01*
X0303462Y0329885D01*
X0303514Y0329856D01*
X0303565Y0329823D01*
X0303614Y0329787D01*
X0303660Y0329749D01*
X0303704Y0329707D01*
X0303746Y0329663D01*
X0303784Y0329617D01*
X0303820Y0329568D01*
X0303853Y0329517D01*
X0303882Y0329465D01*
X0303909Y0329410D01*
X0303932Y0329355D01*
X0303952Y0329298D01*
X0303968Y0329239D01*
X0303981Y0329180D01*
X0303990Y0329121D01*
X0303995Y0329060D01*
X0303997Y0329000D01*
X0303997Y0323000D02*
X0303995Y0322940D01*
X0303990Y0322879D01*
X0303981Y0322820D01*
X0303968Y0322761D01*
X0303952Y0322702D01*
X0303932Y0322645D01*
X0303909Y0322590D01*
X0303882Y0322535D01*
X0303853Y0322483D01*
X0303820Y0322432D01*
X0303784Y0322383D01*
X0303746Y0322337D01*
X0303704Y0322293D01*
X0303660Y0322251D01*
X0303614Y0322213D01*
X0303565Y0322177D01*
X0303514Y0322144D01*
X0303462Y0322115D01*
X0303407Y0322088D01*
X0303352Y0322065D01*
X0303295Y0322045D01*
X0303236Y0322029D01*
X0303177Y0322016D01*
X0303118Y0322007D01*
X0303057Y0322002D01*
X0302997Y0322000D01*
X0371847Y0352000D02*
X0371847Y0365000D01*
X0397647Y0365000D01*
X0397647Y0352000D01*
X0371847Y0352000D01*
X0402799Y0359563D02*
X0402799Y0367437D01*
X0408310Y0367437D01*
X0411066Y0365862D02*
X0411066Y0361138D01*
X0413429Y0363500D01*
X0411066Y0365862D01*
X0413429Y0366256D02*
X0413429Y0363500D01*
X0413429Y0360744D01*
X0416184Y0359563D02*
X0421696Y0359563D01*
X0421696Y0367437D01*
X0416184Y0367437D01*
X0408310Y0359563D02*
X0402799Y0359563D01*
X0453216Y0347937D02*
X0453216Y0340063D01*
X0458621Y0344000D01*
X0453216Y0347937D01*
X0458621Y0347937D02*
X0458621Y0340063D01*
X0460810Y0298874D02*
X0468684Y0298874D01*
X0464747Y0298874D02*
X0460810Y0293469D01*
X0468684Y0293469D01*
X0464747Y0298874D01*
X0377366Y0262299D02*
X0377366Y0249701D01*
X0367129Y0249701D02*
X0367129Y0262299D01*
X0364866Y0262299D02*
X0364866Y0249701D01*
X0354629Y0249701D02*
X0354629Y0262299D01*
X0261547Y0258118D02*
X0248948Y0258118D01*
X0238866Y0253201D02*
X0238866Y0265799D01*
X0228629Y0265799D02*
X0228629Y0253201D01*
X0215397Y0261563D02*
X0209098Y0261563D01*
X0209098Y0261562D02*
X0209039Y0261576D01*
X0208981Y0261593D01*
X0208924Y0261614D01*
X0208868Y0261638D01*
X0208814Y0261666D01*
X0208762Y0261696D01*
X0208711Y0261730D01*
X0208663Y0261767D01*
X0208617Y0261806D01*
X0208574Y0261849D01*
X0208533Y0261893D01*
X0208495Y0261941D01*
X0208460Y0261990D01*
X0208428Y0262042D01*
X0208399Y0262095D01*
X0208373Y0262150D01*
X0208351Y0262206D01*
X0208332Y0262264D01*
X0208316Y0262323D01*
X0208305Y0262382D01*
X0208296Y0262442D01*
X0208292Y0262503D01*
X0208291Y0262563D01*
X0208294Y0262624D01*
X0208300Y0262684D01*
X0208310Y0262744D01*
X0208310Y0268256D02*
X0208300Y0268316D01*
X0208294Y0268376D01*
X0208291Y0268437D01*
X0208292Y0268497D01*
X0208296Y0268558D01*
X0208305Y0268618D01*
X0208316Y0268677D01*
X0208332Y0268736D01*
X0208351Y0268794D01*
X0208373Y0268850D01*
X0208399Y0268905D01*
X0208428Y0268958D01*
X0208460Y0269010D01*
X0208495Y0269059D01*
X0208533Y0269107D01*
X0208574Y0269151D01*
X0208617Y0269194D01*
X0208663Y0269233D01*
X0208711Y0269270D01*
X0208762Y0269304D01*
X0208814Y0269334D01*
X0208868Y0269362D01*
X0208924Y0269386D01*
X0208981Y0269407D01*
X0209039Y0269424D01*
X0209098Y0269438D01*
X0209098Y0269437D02*
X0215397Y0269437D01*
X0215397Y0269438D02*
X0215456Y0269424D01*
X0215514Y0269407D01*
X0215571Y0269386D01*
X0215627Y0269362D01*
X0215681Y0269334D01*
X0215733Y0269304D01*
X0215784Y0269270D01*
X0215832Y0269233D01*
X0215878Y0269194D01*
X0215921Y0269151D01*
X0215962Y0269107D01*
X0216000Y0269059D01*
X0216035Y0269010D01*
X0216067Y0268958D01*
X0216096Y0268905D01*
X0216122Y0268850D01*
X0216144Y0268794D01*
X0216163Y0268736D01*
X0216179Y0268677D01*
X0216190Y0268618D01*
X0216199Y0268558D01*
X0216203Y0268497D01*
X0216204Y0268437D01*
X0216201Y0268376D01*
X0216195Y0268316D01*
X0216185Y0268256D01*
X0216185Y0262744D02*
X0216195Y0262684D01*
X0216201Y0262624D01*
X0216204Y0262563D01*
X0216203Y0262503D01*
X0216199Y0262442D01*
X0216190Y0262382D01*
X0216179Y0262323D01*
X0216163Y0262264D01*
X0216144Y0262206D01*
X0216122Y0262150D01*
X0216096Y0262095D01*
X0216067Y0262042D01*
X0216035Y0261990D01*
X0216000Y0261941D01*
X0215962Y0261893D01*
X0215921Y0261849D01*
X0215878Y0261806D01*
X0215832Y0261767D01*
X0215784Y0261730D01*
X0215733Y0261696D01*
X0215681Y0261666D01*
X0215627Y0261638D01*
X0215571Y0261614D01*
X0215514Y0261593D01*
X0215456Y0261576D01*
X0215397Y0261562D01*
X0248948Y0247882D02*
X0261547Y0247882D01*
X0261547Y0246618D02*
X0248948Y0246618D01*
X0248948Y0236382D02*
X0261547Y0236382D01*
X0252121Y0232437D02*
X0252121Y0224563D01*
X0252121Y0228500D02*
X0246716Y0232437D01*
X0246716Y0224563D01*
X0252121Y0228500D01*
X0264129Y0219299D02*
X0264129Y0206701D01*
X0274366Y0206701D02*
X0274366Y0219299D01*
X0192866Y0175299D02*
X0192866Y0162701D01*
X0182629Y0162701D02*
X0182629Y0175299D01*
X0236448Y0138618D02*
X0249047Y0138618D01*
X0249047Y0128382D02*
X0236448Y0128382D01*
X0233747Y0109012D02*
X0229747Y0109012D01*
X0224858Y0103900D02*
X0224858Y0103100D01*
X0229747Y0097988D02*
X0233747Y0097988D01*
X0238637Y0103100D02*
X0238637Y0103900D01*
X0121997Y0080000D02*
X0115497Y0080000D01*
X0115437Y0079998D01*
X0115376Y0079993D01*
X0115317Y0079984D01*
X0115258Y0079971D01*
X0115199Y0079955D01*
X0115142Y0079935D01*
X0115087Y0079912D01*
X0115032Y0079885D01*
X0114980Y0079856D01*
X0114929Y0079823D01*
X0114880Y0079787D01*
X0114834Y0079749D01*
X0114790Y0079707D01*
X0114748Y0079663D01*
X0114710Y0079617D01*
X0114674Y0079568D01*
X0114641Y0079517D01*
X0114612Y0079465D01*
X0114585Y0079410D01*
X0114562Y0079355D01*
X0114542Y0079298D01*
X0114526Y0079239D01*
X0114513Y0079180D01*
X0114504Y0079121D01*
X0114499Y0079060D01*
X0114497Y0079000D01*
X0114497Y0073000D02*
X0114499Y0072940D01*
X0114504Y0072879D01*
X0114513Y0072820D01*
X0114526Y0072761D01*
X0114542Y0072702D01*
X0114562Y0072645D01*
X0114585Y0072590D01*
X0114612Y0072535D01*
X0114641Y0072483D01*
X0114674Y0072432D01*
X0114710Y0072383D01*
X0114748Y0072337D01*
X0114790Y0072293D01*
X0114834Y0072251D01*
X0114880Y0072213D01*
X0114929Y0072177D01*
X0114980Y0072144D01*
X0115032Y0072115D01*
X0115087Y0072088D01*
X0115142Y0072065D01*
X0115199Y0072045D01*
X0115258Y0072029D01*
X0115317Y0072016D01*
X0115376Y0072007D01*
X0115437Y0072002D01*
X0115497Y0072000D01*
X0121997Y0072000D01*
X0122057Y0072002D01*
X0122118Y0072007D01*
X0122177Y0072016D01*
X0122236Y0072029D01*
X0122295Y0072045D01*
X0122352Y0072065D01*
X0122407Y0072088D01*
X0122462Y0072115D01*
X0122514Y0072144D01*
X0122565Y0072177D01*
X0122614Y0072213D01*
X0122660Y0072251D01*
X0122704Y0072293D01*
X0122746Y0072337D01*
X0122784Y0072383D01*
X0122820Y0072432D01*
X0122853Y0072483D01*
X0122882Y0072535D01*
X0122909Y0072590D01*
X0122932Y0072645D01*
X0122952Y0072702D01*
X0122968Y0072761D01*
X0122981Y0072820D01*
X0122990Y0072879D01*
X0122995Y0072940D01*
X0122997Y0073000D01*
X0122997Y0079000D02*
X0122995Y0079060D01*
X0122990Y0079121D01*
X0122981Y0079180D01*
X0122968Y0079239D01*
X0122952Y0079298D01*
X0122932Y0079355D01*
X0122909Y0079410D01*
X0122882Y0079465D01*
X0122853Y0079517D01*
X0122820Y0079568D01*
X0122784Y0079617D01*
X0122746Y0079663D01*
X0122704Y0079707D01*
X0122660Y0079749D01*
X0122614Y0079787D01*
X0122565Y0079823D01*
X0122514Y0079856D01*
X0122462Y0079885D01*
X0122407Y0079912D01*
X0122352Y0079935D01*
X0122295Y0079955D01*
X0122236Y0079971D01*
X0122177Y0079984D01*
X0122118Y0079993D01*
X0122057Y0079998D01*
X0121997Y0080000D01*
X0396057Y0075400D02*
X0399438Y0075400D01*
X0401119Y0074504D02*
X0401121Y0074551D01*
X0401127Y0074598D01*
X0401137Y0074645D01*
X0401150Y0074690D01*
X0401168Y0074734D01*
X0401189Y0074776D01*
X0401213Y0074817D01*
X0401241Y0074855D01*
X0401272Y0074891D01*
X0401306Y0074924D01*
X0401342Y0074954D01*
X0401381Y0074981D01*
X0401422Y0075005D01*
X0401465Y0075025D01*
X0401509Y0075041D01*
X0401555Y0075054D01*
X0401601Y0075063D01*
X0401649Y0075068D01*
X0401696Y0075069D01*
X0401743Y0075066D01*
X0401790Y0075059D01*
X0401836Y0075048D01*
X0401881Y0075034D01*
X0401925Y0075015D01*
X0401966Y0074993D01*
X0402006Y0074968D01*
X0402044Y0074939D01*
X0402079Y0074908D01*
X0402112Y0074873D01*
X0402141Y0074836D01*
X0402167Y0074797D01*
X0402190Y0074755D01*
X0402209Y0074712D01*
X0402225Y0074667D01*
X0402237Y0074621D01*
X0402245Y0074575D01*
X0402249Y0074528D01*
X0402249Y0074480D01*
X0402245Y0074433D01*
X0402237Y0074387D01*
X0402225Y0074341D01*
X0402209Y0074296D01*
X0402190Y0074253D01*
X0402167Y0074211D01*
X0402141Y0074172D01*
X0402112Y0074135D01*
X0402079Y0074100D01*
X0402044Y0074069D01*
X0402006Y0074040D01*
X0401967Y0074015D01*
X0401925Y0073993D01*
X0401881Y0073974D01*
X0401836Y0073960D01*
X0401790Y0073949D01*
X0401743Y0073942D01*
X0401696Y0073939D01*
X0401649Y0073940D01*
X0401601Y0073945D01*
X0401555Y0073954D01*
X0401509Y0073967D01*
X0401465Y0073983D01*
X0401422Y0074003D01*
X0401381Y0074027D01*
X0401342Y0074054D01*
X0401306Y0074084D01*
X0401272Y0074117D01*
X0401241Y0074153D01*
X0401213Y0074191D01*
X0401189Y0074232D01*
X0401168Y0074274D01*
X0401150Y0074318D01*
X0401137Y0074363D01*
X0401127Y0074410D01*
X0401121Y0074457D01*
X0401119Y0074504D01*
X0399438Y0086600D02*
X0396057Y0086600D01*
X0534747Y0074000D02*
X0534747Y0072500D01*
X0534746Y0072385D01*
X0534749Y0072270D01*
X0534756Y0072155D01*
X0534767Y0072040D01*
X0534782Y0071926D01*
X0534800Y0071812D01*
X0534822Y0071699D01*
X0534848Y0071586D01*
X0534878Y0071475D01*
X0534912Y0071365D01*
X0534949Y0071255D01*
X0534990Y0071148D01*
X0535035Y0071041D01*
X0535083Y0070937D01*
X0535135Y0070833D01*
X0535190Y0070732D01*
X0535249Y0070633D01*
X0535310Y0070535D01*
X0535376Y0070440D01*
X0535444Y0070347D01*
X0535515Y0070257D01*
X0535590Y0070169D01*
X0535667Y0070083D01*
X0535747Y0070000D01*
X0535830Y0069920D01*
X0535916Y0069843D01*
X0536004Y0069768D01*
X0536094Y0069697D01*
X0536187Y0069629D01*
X0536282Y0069563D01*
X0536380Y0069502D01*
X0536479Y0069443D01*
X0536580Y0069388D01*
X0536684Y0069336D01*
X0536788Y0069288D01*
X0536895Y0069243D01*
X0537002Y0069202D01*
X0537112Y0069165D01*
X0537222Y0069131D01*
X0537333Y0069101D01*
X0537446Y0069075D01*
X0537559Y0069053D01*
X0537673Y0069035D01*
X0537787Y0069020D01*
X0537902Y0069009D01*
X0538017Y0069002D01*
X0538132Y0068999D01*
X0538247Y0069000D01*
X0547747Y0069000D01*
X0551747Y0069000D01*
X0551747Y0109000D01*
X0547747Y0109000D01*
X0547747Y0069000D01*
X0562247Y0069000D02*
X0562247Y0109000D01*
X0566247Y0109000D01*
X0566247Y0069000D01*
X0562247Y0069000D01*
X0566247Y0069000D02*
X0575747Y0069000D01*
X0575748Y0069000D02*
X0575863Y0068999D01*
X0575978Y0069002D01*
X0576093Y0069009D01*
X0576208Y0069020D01*
X0576322Y0069035D01*
X0576436Y0069053D01*
X0576549Y0069075D01*
X0576662Y0069101D01*
X0576773Y0069131D01*
X0576883Y0069165D01*
X0576993Y0069202D01*
X0577100Y0069243D01*
X0577207Y0069288D01*
X0577311Y0069336D01*
X0577415Y0069388D01*
X0577516Y0069443D01*
X0577615Y0069502D01*
X0577713Y0069563D01*
X0577808Y0069629D01*
X0577901Y0069697D01*
X0577991Y0069768D01*
X0578079Y0069843D01*
X0578165Y0069920D01*
X0578248Y0070000D01*
X0578328Y0070083D01*
X0578405Y0070169D01*
X0578480Y0070257D01*
X0578551Y0070347D01*
X0578619Y0070440D01*
X0578685Y0070535D01*
X0578746Y0070633D01*
X0578805Y0070732D01*
X0578860Y0070833D01*
X0578912Y0070937D01*
X0578960Y0071041D01*
X0579005Y0071148D01*
X0579046Y0071255D01*
X0579083Y0071365D01*
X0579117Y0071475D01*
X0579147Y0071586D01*
X0579173Y0071699D01*
X0579195Y0071812D01*
X0579213Y0071926D01*
X0579228Y0072040D01*
X0579239Y0072155D01*
X0579246Y0072270D01*
X0579249Y0072385D01*
X0579248Y0072500D01*
X0579247Y0072500D02*
X0579247Y0074000D01*
X0579247Y0104000D02*
X0579247Y0105500D01*
X0579248Y0105500D02*
X0579249Y0105615D01*
X0579246Y0105730D01*
X0579239Y0105845D01*
X0579228Y0105960D01*
X0579213Y0106074D01*
X0579195Y0106188D01*
X0579173Y0106301D01*
X0579147Y0106414D01*
X0579117Y0106525D01*
X0579083Y0106635D01*
X0579046Y0106745D01*
X0579005Y0106852D01*
X0578960Y0106959D01*
X0578912Y0107063D01*
X0578860Y0107167D01*
X0578805Y0107268D01*
X0578746Y0107367D01*
X0578685Y0107465D01*
X0578619Y0107560D01*
X0578551Y0107653D01*
X0578480Y0107743D01*
X0578405Y0107831D01*
X0578328Y0107917D01*
X0578248Y0108000D01*
X0578165Y0108080D01*
X0578079Y0108157D01*
X0577991Y0108232D01*
X0577901Y0108303D01*
X0577808Y0108371D01*
X0577713Y0108437D01*
X0577615Y0108498D01*
X0577516Y0108557D01*
X0577415Y0108612D01*
X0577311Y0108664D01*
X0577207Y0108712D01*
X0577100Y0108757D01*
X0576993Y0108798D01*
X0576883Y0108835D01*
X0576773Y0108869D01*
X0576662Y0108899D01*
X0576549Y0108925D01*
X0576436Y0108947D01*
X0576322Y0108965D01*
X0576208Y0108980D01*
X0576093Y0108991D01*
X0575978Y0108998D01*
X0575863Y0109001D01*
X0575748Y0109000D01*
X0575747Y0109000D02*
X0566247Y0109000D01*
X0566247Y0113500D02*
X0562247Y0113500D01*
X0562247Y0153500D01*
X0566247Y0153500D01*
X0566247Y0113500D01*
X0575747Y0113500D01*
X0575748Y0113500D02*
X0575863Y0113499D01*
X0575978Y0113502D01*
X0576093Y0113509D01*
X0576208Y0113520D01*
X0576322Y0113535D01*
X0576436Y0113553D01*
X0576549Y0113575D01*
X0576662Y0113601D01*
X0576773Y0113631D01*
X0576883Y0113665D01*
X0576993Y0113702D01*
X0577100Y0113743D01*
X0577207Y0113788D01*
X0577311Y0113836D01*
X0577415Y0113888D01*
X0577516Y0113943D01*
X0577615Y0114002D01*
X0577713Y0114063D01*
X0577808Y0114129D01*
X0577901Y0114197D01*
X0577991Y0114268D01*
X0578079Y0114343D01*
X0578165Y0114420D01*
X0578248Y0114500D01*
X0578328Y0114583D01*
X0578405Y0114669D01*
X0578480Y0114757D01*
X0578551Y0114847D01*
X0578619Y0114940D01*
X0578685Y0115035D01*
X0578746Y0115133D01*
X0578805Y0115232D01*
X0578860Y0115333D01*
X0578912Y0115437D01*
X0578960Y0115541D01*
X0579005Y0115648D01*
X0579046Y0115755D01*
X0579083Y0115865D01*
X0579117Y0115975D01*
X0579147Y0116086D01*
X0579173Y0116199D01*
X0579195Y0116312D01*
X0579213Y0116426D01*
X0579228Y0116540D01*
X0579239Y0116655D01*
X0579246Y0116770D01*
X0579249Y0116885D01*
X0579248Y0117000D01*
X0579247Y0117000D02*
X0579247Y0118500D01*
X0551747Y0113500D02*
X0547747Y0113500D01*
X0547747Y0153500D01*
X0551747Y0153500D01*
X0551747Y0113500D01*
X0547747Y0113500D02*
X0538247Y0113500D01*
X0538132Y0113499D01*
X0538017Y0113502D01*
X0537902Y0113509D01*
X0537787Y0113520D01*
X0537673Y0113535D01*
X0537559Y0113553D01*
X0537446Y0113575D01*
X0537333Y0113601D01*
X0537222Y0113631D01*
X0537112Y0113665D01*
X0537002Y0113702D01*
X0536895Y0113743D01*
X0536788Y0113788D01*
X0536684Y0113836D01*
X0536580Y0113888D01*
X0536479Y0113943D01*
X0536380Y0114002D01*
X0536282Y0114063D01*
X0536187Y0114129D01*
X0536094Y0114197D01*
X0536004Y0114268D01*
X0535916Y0114343D01*
X0535830Y0114420D01*
X0535747Y0114500D01*
X0535667Y0114583D01*
X0535590Y0114669D01*
X0535515Y0114757D01*
X0535444Y0114847D01*
X0535376Y0114940D01*
X0535310Y0115035D01*
X0535249Y0115133D01*
X0535190Y0115232D01*
X0535135Y0115333D01*
X0535083Y0115437D01*
X0535035Y0115541D01*
X0534990Y0115648D01*
X0534949Y0115755D01*
X0534912Y0115865D01*
X0534878Y0115975D01*
X0534848Y0116086D01*
X0534822Y0116199D01*
X0534800Y0116312D01*
X0534782Y0116426D01*
X0534767Y0116540D01*
X0534756Y0116655D01*
X0534749Y0116770D01*
X0534746Y0116885D01*
X0534747Y0117000D01*
X0534747Y0118500D01*
X0538247Y0109000D02*
X0547747Y0109000D01*
X0538247Y0109000D02*
X0538132Y0109001D01*
X0538017Y0108998D01*
X0537902Y0108991D01*
X0537787Y0108980D01*
X0537673Y0108965D01*
X0537559Y0108947D01*
X0537446Y0108925D01*
X0537333Y0108899D01*
X0537222Y0108869D01*
X0537112Y0108835D01*
X0537002Y0108798D01*
X0536895Y0108757D01*
X0536788Y0108712D01*
X0536684Y0108664D01*
X0536580Y0108612D01*
X0536479Y0108557D01*
X0536380Y0108498D01*
X0536282Y0108437D01*
X0536187Y0108371D01*
X0536094Y0108303D01*
X0536004Y0108232D01*
X0535916Y0108157D01*
X0535830Y0108080D01*
X0535747Y0108000D01*
X0535667Y0107917D01*
X0535590Y0107831D01*
X0535515Y0107743D01*
X0535444Y0107653D01*
X0535376Y0107560D01*
X0535310Y0107465D01*
X0535249Y0107367D01*
X0535190Y0107268D01*
X0535135Y0107167D01*
X0535083Y0107063D01*
X0535035Y0106959D01*
X0534990Y0106852D01*
X0534949Y0106745D01*
X0534912Y0106635D01*
X0534878Y0106525D01*
X0534848Y0106414D01*
X0534822Y0106301D01*
X0534800Y0106188D01*
X0534782Y0106074D01*
X0534767Y0105960D01*
X0534756Y0105845D01*
X0534749Y0105730D01*
X0534746Y0105615D01*
X0534747Y0105500D01*
X0534747Y0104000D01*
X0534747Y0148500D02*
X0534747Y0150000D01*
X0534746Y0150115D01*
X0534749Y0150230D01*
X0534756Y0150345D01*
X0534767Y0150460D01*
X0534782Y0150574D01*
X0534800Y0150688D01*
X0534822Y0150801D01*
X0534848Y0150914D01*
X0534878Y0151025D01*
X0534912Y0151135D01*
X0534949Y0151245D01*
X0534990Y0151352D01*
X0535035Y0151459D01*
X0535083Y0151563D01*
X0535135Y0151667D01*
X0535190Y0151768D01*
X0535249Y0151867D01*
X0535310Y0151965D01*
X0535376Y0152060D01*
X0535444Y0152153D01*
X0535515Y0152243D01*
X0535590Y0152331D01*
X0535667Y0152417D01*
X0535747Y0152500D01*
X0535830Y0152580D01*
X0535916Y0152657D01*
X0536004Y0152732D01*
X0536094Y0152803D01*
X0536187Y0152871D01*
X0536282Y0152937D01*
X0536380Y0152998D01*
X0536479Y0153057D01*
X0536580Y0153112D01*
X0536684Y0153164D01*
X0536788Y0153212D01*
X0536895Y0153257D01*
X0537002Y0153298D01*
X0537112Y0153335D01*
X0537222Y0153369D01*
X0537333Y0153399D01*
X0537446Y0153425D01*
X0537559Y0153447D01*
X0537673Y0153465D01*
X0537787Y0153480D01*
X0537902Y0153491D01*
X0538017Y0153498D01*
X0538132Y0153501D01*
X0538247Y0153500D01*
X0547747Y0153500D01*
X0547747Y0159500D02*
X0538247Y0159500D01*
X0538132Y0159499D01*
X0538017Y0159502D01*
X0537902Y0159509D01*
X0537787Y0159520D01*
X0537673Y0159535D01*
X0537559Y0159553D01*
X0537446Y0159575D01*
X0537333Y0159601D01*
X0537222Y0159631D01*
X0537112Y0159665D01*
X0537002Y0159702D01*
X0536895Y0159743D01*
X0536788Y0159788D01*
X0536684Y0159836D01*
X0536580Y0159888D01*
X0536479Y0159943D01*
X0536380Y0160002D01*
X0536282Y0160063D01*
X0536187Y0160129D01*
X0536094Y0160197D01*
X0536004Y0160268D01*
X0535916Y0160343D01*
X0535830Y0160420D01*
X0535747Y0160500D01*
X0535667Y0160583D01*
X0535590Y0160669D01*
X0535515Y0160757D01*
X0535444Y0160847D01*
X0535376Y0160940D01*
X0535310Y0161035D01*
X0535249Y0161133D01*
X0535190Y0161232D01*
X0535135Y0161333D01*
X0535083Y0161437D01*
X0535035Y0161541D01*
X0534990Y0161648D01*
X0534949Y0161755D01*
X0534912Y0161865D01*
X0534878Y0161975D01*
X0534848Y0162086D01*
X0534822Y0162199D01*
X0534800Y0162312D01*
X0534782Y0162426D01*
X0534767Y0162540D01*
X0534756Y0162655D01*
X0534749Y0162770D01*
X0534746Y0162885D01*
X0534747Y0163000D01*
X0534747Y0164500D01*
X0547747Y0159500D02*
X0551747Y0159500D01*
X0551747Y0199500D01*
X0547747Y0199500D01*
X0547747Y0159500D01*
X0562247Y0159500D02*
X0562247Y0199500D01*
X0566247Y0199500D01*
X0566247Y0159500D01*
X0562247Y0159500D01*
X0566247Y0159500D02*
X0575747Y0159500D01*
X0575748Y0159500D02*
X0575863Y0159499D01*
X0575978Y0159502D01*
X0576093Y0159509D01*
X0576208Y0159520D01*
X0576322Y0159535D01*
X0576436Y0159553D01*
X0576549Y0159575D01*
X0576662Y0159601D01*
X0576773Y0159631D01*
X0576883Y0159665D01*
X0576993Y0159702D01*
X0577100Y0159743D01*
X0577207Y0159788D01*
X0577311Y0159836D01*
X0577415Y0159888D01*
X0577516Y0159943D01*
X0577615Y0160002D01*
X0577713Y0160063D01*
X0577808Y0160129D01*
X0577901Y0160197D01*
X0577991Y0160268D01*
X0578079Y0160343D01*
X0578165Y0160420D01*
X0578248Y0160500D01*
X0578328Y0160583D01*
X0578405Y0160669D01*
X0578480Y0160757D01*
X0578551Y0160847D01*
X0578619Y0160940D01*
X0578685Y0161035D01*
X0578746Y0161133D01*
X0578805Y0161232D01*
X0578860Y0161333D01*
X0578912Y0161437D01*
X0578960Y0161541D01*
X0579005Y0161648D01*
X0579046Y0161755D01*
X0579083Y0161865D01*
X0579117Y0161975D01*
X0579147Y0162086D01*
X0579173Y0162199D01*
X0579195Y0162312D01*
X0579213Y0162426D01*
X0579228Y0162540D01*
X0579239Y0162655D01*
X0579246Y0162770D01*
X0579249Y0162885D01*
X0579248Y0163000D01*
X0579247Y0163000D02*
X0579247Y0164500D01*
X0575747Y0153500D02*
X0566247Y0153500D01*
X0575748Y0153500D02*
X0575863Y0153501D01*
X0575978Y0153498D01*
X0576093Y0153491D01*
X0576208Y0153480D01*
X0576322Y0153465D01*
X0576436Y0153447D01*
X0576549Y0153425D01*
X0576662Y0153399D01*
X0576773Y0153369D01*
X0576883Y0153335D01*
X0576993Y0153298D01*
X0577100Y0153257D01*
X0577207Y0153212D01*
X0577311Y0153164D01*
X0577415Y0153112D01*
X0577516Y0153057D01*
X0577615Y0152998D01*
X0577713Y0152937D01*
X0577808Y0152871D01*
X0577901Y0152803D01*
X0577991Y0152732D01*
X0578079Y0152657D01*
X0578165Y0152580D01*
X0578248Y0152500D01*
X0578328Y0152417D01*
X0578405Y0152331D01*
X0578480Y0152243D01*
X0578551Y0152153D01*
X0578619Y0152060D01*
X0578685Y0151965D01*
X0578746Y0151867D01*
X0578805Y0151768D01*
X0578860Y0151667D01*
X0578912Y0151563D01*
X0578960Y0151459D01*
X0579005Y0151352D01*
X0579046Y0151245D01*
X0579083Y0151135D01*
X0579117Y0151025D01*
X0579147Y0150914D01*
X0579173Y0150801D01*
X0579195Y0150688D01*
X0579213Y0150574D01*
X0579228Y0150460D01*
X0579239Y0150345D01*
X0579246Y0150230D01*
X0579249Y0150115D01*
X0579248Y0150000D01*
X0579247Y0150000D02*
X0579247Y0148500D01*
X0579247Y0194500D02*
X0579247Y0196000D01*
X0579248Y0196000D02*
X0579249Y0196115D01*
X0579246Y0196230D01*
X0579239Y0196345D01*
X0579228Y0196460D01*
X0579213Y0196574D01*
X0579195Y0196688D01*
X0579173Y0196801D01*
X0579147Y0196914D01*
X0579117Y0197025D01*
X0579083Y0197135D01*
X0579046Y0197245D01*
X0579005Y0197352D01*
X0578960Y0197459D01*
X0578912Y0197563D01*
X0578860Y0197667D01*
X0578805Y0197768D01*
X0578746Y0197867D01*
X0578685Y0197965D01*
X0578619Y0198060D01*
X0578551Y0198153D01*
X0578480Y0198243D01*
X0578405Y0198331D01*
X0578328Y0198417D01*
X0578248Y0198500D01*
X0578165Y0198580D01*
X0578079Y0198657D01*
X0577991Y0198732D01*
X0577901Y0198803D01*
X0577808Y0198871D01*
X0577713Y0198937D01*
X0577615Y0198998D01*
X0577516Y0199057D01*
X0577415Y0199112D01*
X0577311Y0199164D01*
X0577207Y0199212D01*
X0577100Y0199257D01*
X0576993Y0199298D01*
X0576883Y0199335D01*
X0576773Y0199369D01*
X0576662Y0199399D01*
X0576549Y0199425D01*
X0576436Y0199447D01*
X0576322Y0199465D01*
X0576208Y0199480D01*
X0576093Y0199491D01*
X0575978Y0199498D01*
X0575863Y0199501D01*
X0575748Y0199500D01*
X0575747Y0199500D02*
X0566247Y0199500D01*
X0547747Y0199500D02*
X0538247Y0199500D01*
X0538132Y0199501D01*
X0538017Y0199498D01*
X0537902Y0199491D01*
X0537787Y0199480D01*
X0537673Y0199465D01*
X0537559Y0199447D01*
X0537446Y0199425D01*
X0537333Y0199399D01*
X0537222Y0199369D01*
X0537112Y0199335D01*
X0537002Y0199298D01*
X0536895Y0199257D01*
X0536788Y0199212D01*
X0536684Y0199164D01*
X0536580Y0199112D01*
X0536479Y0199057D01*
X0536380Y0198998D01*
X0536282Y0198937D01*
X0536187Y0198871D01*
X0536094Y0198803D01*
X0536004Y0198732D01*
X0535916Y0198657D01*
X0535830Y0198580D01*
X0535747Y0198500D01*
X0535667Y0198417D01*
X0535590Y0198331D01*
X0535515Y0198243D01*
X0535444Y0198153D01*
X0535376Y0198060D01*
X0535310Y0197965D01*
X0535249Y0197867D01*
X0535190Y0197768D01*
X0535135Y0197667D01*
X0535083Y0197563D01*
X0535035Y0197459D01*
X0534990Y0197352D01*
X0534949Y0197245D01*
X0534912Y0197135D01*
X0534878Y0197025D01*
X0534848Y0196914D01*
X0534822Y0196801D01*
X0534800Y0196688D01*
X0534782Y0196574D01*
X0534767Y0196460D01*
X0534756Y0196345D01*
X0534749Y0196230D01*
X0534746Y0196115D01*
X0534747Y0196000D01*
X0534747Y0194500D01*
X0206247Y0319809D02*
X0206247Y0323191D01*
X0196247Y0323191D02*
X0196247Y0319809D01*
X0130938Y0344500D02*
X0127557Y0344500D01*
X0127557Y0354500D02*
X0130938Y0354500D01*
X0131247Y0365500D02*
X0128747Y0368000D01*
X0126247Y0365500D01*
X0121247Y0365500D01*
X0118747Y0368000D01*
X0116247Y0365500D01*
X0111247Y0365500D01*
X0108747Y0368000D01*
X0106247Y0365500D01*
X0101247Y0365500D01*
X0098747Y0368000D01*
X0098747Y0373000D01*
X0101247Y0375500D01*
X0106247Y0375500D01*
X0108747Y0373000D01*
X0111247Y0375500D01*
X0116247Y0375500D01*
X0118747Y0373000D01*
X0121247Y0375500D01*
X0126247Y0375500D01*
X0128747Y0373000D01*
X0131247Y0375500D01*
X0136247Y0375500D01*
X0138747Y0373000D01*
X0141247Y0375500D01*
X0146247Y0375500D01*
X0148747Y0373000D01*
X0151247Y0375500D01*
X0156247Y0375500D01*
X0158747Y0373000D01*
X0158747Y0368000D01*
X0156247Y0365500D01*
X0151247Y0365500D01*
X0148747Y0368000D01*
X0146247Y0365500D01*
X0141247Y0365500D01*
X0138747Y0368000D01*
X0136247Y0365500D01*
X0131247Y0365500D01*
X0220557Y0357500D02*
X0223938Y0357500D01*
X0223938Y0347500D02*
X0220557Y0347500D01*
X0634057Y0044500D02*
X0637438Y0044500D01*
X0637438Y0034500D02*
X0634057Y0034500D01*
D16*
X0637066Y0022362D02*
X0639429Y0022362D01*
X0639429Y0017638D02*
X0637066Y0017638D01*
X0622610Y0021319D02*
X0622610Y0023681D01*
X0617885Y0023681D02*
X0617885Y0021319D01*
X0625566Y0050138D02*
X0627929Y0050138D01*
X0627929Y0054862D02*
X0625566Y0054862D01*
X0421110Y0061319D02*
X0421110Y0063681D01*
X0416385Y0063681D02*
X0416385Y0061319D01*
X0409610Y0061319D02*
X0409610Y0063681D01*
X0404885Y0063681D02*
X0404885Y0061319D01*
X0382929Y0081638D02*
X0380566Y0081638D01*
X0380566Y0086362D02*
X0382929Y0086362D01*
X0309929Y0111138D02*
X0307566Y0111138D01*
X0307566Y0115862D02*
X0309929Y0115862D01*
X0309929Y0134638D02*
X0307566Y0134638D01*
X0307566Y0139362D02*
X0309929Y0139362D01*
X0288929Y0148138D02*
X0286566Y0148138D01*
X0286566Y0152862D02*
X0288929Y0152862D01*
X0307566Y0158138D02*
X0309929Y0158138D01*
X0309929Y0162862D02*
X0307566Y0162862D01*
X0288929Y0171138D02*
X0286566Y0171138D01*
X0286566Y0175862D02*
X0288929Y0175862D01*
X0288929Y0185138D02*
X0286566Y0185138D01*
X0286566Y0189862D02*
X0288929Y0189862D01*
X0308385Y0182681D02*
X0308385Y0180319D01*
X0313110Y0180319D02*
X0313110Y0182681D01*
X0288929Y0200138D02*
X0286566Y0200138D01*
X0286566Y0204862D02*
X0288929Y0204862D01*
X0308385Y0205181D02*
X0308385Y0202819D01*
X0313110Y0202819D02*
X0313110Y0205181D01*
X0264610Y0196681D02*
X0264610Y0194319D01*
X0259885Y0194319D02*
X0259885Y0196681D01*
X0262110Y0209319D02*
X0262110Y0211681D01*
X0257385Y0211681D02*
X0257385Y0209319D01*
X0246429Y0207138D02*
X0244066Y0207138D01*
X0244066Y0211862D02*
X0246429Y0211862D01*
X0219110Y0212319D02*
X0219110Y0214681D01*
X0214385Y0214681D02*
X0214385Y0212319D01*
X0211110Y0207681D02*
X0211110Y0205319D01*
X0206385Y0205319D02*
X0206385Y0207681D01*
X0202610Y0207681D02*
X0202610Y0205319D01*
X0197885Y0205319D02*
X0197885Y0207681D01*
X0197885Y0217819D02*
X0197885Y0220181D01*
X0202610Y0220181D02*
X0202610Y0217819D01*
X0202429Y0229138D02*
X0200066Y0229138D01*
X0200066Y0233862D02*
X0202429Y0233862D01*
X0231385Y0242319D02*
X0231385Y0244681D01*
X0236110Y0244681D02*
X0236110Y0242319D01*
X0225610Y0260319D02*
X0225610Y0262681D01*
X0220885Y0262681D02*
X0220885Y0260319D01*
X0270385Y0270819D02*
X0270385Y0273181D01*
X0275110Y0273181D02*
X0275110Y0270819D01*
X0275066Y0289138D02*
X0277429Y0289138D01*
X0277429Y0293862D02*
X0275066Y0293862D01*
X0329885Y0288681D02*
X0329885Y0286319D01*
X0334610Y0286319D02*
X0334610Y0288681D01*
X0344885Y0288681D02*
X0344885Y0286319D01*
X0349610Y0286319D02*
X0349610Y0288681D01*
X0387385Y0289681D02*
X0387385Y0287319D01*
X0392110Y0287319D02*
X0392110Y0289681D01*
X0401566Y0289362D02*
X0403929Y0289362D01*
X0403929Y0284638D02*
X0401566Y0284638D01*
X0401566Y0296638D02*
X0403929Y0296638D01*
X0403929Y0301362D02*
X0401566Y0301362D01*
X0403791Y0311098D02*
X0395704Y0311098D01*
X0395747Y0320902D02*
X0403692Y0320902D01*
X0477385Y0268181D02*
X0477385Y0265819D01*
X0482110Y0265819D02*
X0482110Y0268181D01*
X0309429Y0233862D02*
X0307066Y0233862D01*
X0307066Y0229138D02*
X0309429Y0229138D01*
X0200429Y0175862D02*
X0198066Y0175862D01*
X0198066Y0171138D02*
X0200429Y0171138D01*
X0206385Y0144181D02*
X0206385Y0141819D01*
X0211110Y0141819D02*
X0211110Y0144181D01*
X0213885Y0139181D02*
X0213885Y0136819D01*
X0218610Y0136819D02*
X0218610Y0139181D01*
X0243566Y0140138D02*
X0245929Y0140138D01*
X0245929Y0144862D02*
X0243566Y0144862D01*
X0188929Y0118362D02*
X0186566Y0118362D01*
X0186566Y0113638D02*
X0188929Y0113638D01*
X0188429Y0108362D02*
X0186066Y0108362D01*
X0186066Y0103638D02*
X0188429Y0103638D01*
X0188429Y0098362D02*
X0186066Y0098362D01*
X0186066Y0093638D02*
X0188429Y0093638D01*
X0231066Y0088362D02*
X0233429Y0088362D01*
X0233429Y0083638D02*
X0231066Y0083638D01*
X0109110Y0073681D02*
X0109110Y0071319D01*
X0104385Y0071319D02*
X0104385Y0073681D01*
X0104566Y0083638D02*
X0106929Y0083638D01*
X0106929Y0088362D02*
X0104566Y0088362D01*
X0250566Y0025362D02*
X0252929Y0025362D01*
X0252929Y0020638D02*
X0250566Y0020638D01*
X0109929Y0193638D02*
X0107566Y0193638D01*
X0107566Y0198362D02*
X0109929Y0198362D01*
X0109929Y0203638D02*
X0107566Y0203638D01*
X0107566Y0208362D02*
X0109929Y0208362D01*
X0109929Y0213638D02*
X0107566Y0213638D01*
X0107566Y0218362D02*
X0109929Y0218362D01*
X0111110Y0250819D02*
X0111110Y0253181D01*
X0106385Y0253181D02*
X0106385Y0250819D01*
X0106385Y0266319D02*
X0106385Y0268681D01*
X0111110Y0268681D02*
X0111110Y0266319D01*
X0111610Y0281319D02*
X0111610Y0283681D01*
X0106885Y0283681D02*
X0106885Y0281319D01*
X0110885Y0316319D02*
X0110885Y0318681D01*
X0115610Y0318681D02*
X0115610Y0316319D01*
X0126385Y0316319D02*
X0126385Y0318681D01*
X0131110Y0318681D02*
X0131110Y0316319D01*
X0139885Y0316319D02*
X0139885Y0318681D01*
X0144610Y0318681D02*
X0144610Y0316319D01*
X0101110Y0316319D02*
X0101110Y0318681D01*
X0096385Y0318681D02*
X0096385Y0316319D01*
X0256385Y0341319D02*
X0256385Y0343681D01*
X0261110Y0343681D02*
X0261110Y0341319D01*
X0265885Y0341319D02*
X0265885Y0343681D01*
X0270610Y0343681D02*
X0270610Y0341319D01*
X0270610Y0355819D02*
X0270610Y0358181D01*
X0265885Y0358181D02*
X0265885Y0355819D01*
X0261110Y0355819D02*
X0261110Y0358181D01*
X0256385Y0358181D02*
X0256385Y0355819D01*
X0256385Y0370319D02*
X0256385Y0372681D01*
X0261110Y0372681D02*
X0261110Y0370319D01*
X0265885Y0370319D02*
X0265885Y0372681D01*
X0270610Y0372681D02*
X0270610Y0370319D01*
D17*
X0446847Y0351500D02*
X0464647Y0351500D01*
X0464647Y0336500D02*
X0446847Y0336500D01*
X0457247Y0304900D02*
X0457247Y0287100D01*
X0472247Y0287100D02*
X0472247Y0304900D01*
X0258147Y0236000D02*
X0240347Y0236000D01*
X0240347Y0221000D02*
X0258147Y0221000D01*
X0247440Y0204772D02*
X0220669Y0204772D01*
X0220669Y0204043D01*
X0225038Y0201031D02*
X0225040Y0201102D01*
X0225046Y0201173D01*
X0225056Y0201244D01*
X0225070Y0201313D01*
X0225087Y0201382D01*
X0225109Y0201450D01*
X0225134Y0201517D01*
X0225163Y0201582D01*
X0225195Y0201645D01*
X0225231Y0201707D01*
X0225270Y0201766D01*
X0225313Y0201823D01*
X0225358Y0201878D01*
X0225407Y0201930D01*
X0225458Y0201979D01*
X0225512Y0202025D01*
X0225569Y0202069D01*
X0225627Y0202109D01*
X0225688Y0202145D01*
X0225751Y0202179D01*
X0225816Y0202208D01*
X0225882Y0202234D01*
X0225950Y0202257D01*
X0226018Y0202275D01*
X0226088Y0202290D01*
X0226158Y0202301D01*
X0226229Y0202308D01*
X0226300Y0202311D01*
X0226371Y0202310D01*
X0226442Y0202305D01*
X0226513Y0202296D01*
X0226583Y0202283D01*
X0226652Y0202267D01*
X0226720Y0202246D01*
X0226787Y0202222D01*
X0226853Y0202194D01*
X0226916Y0202162D01*
X0226978Y0202127D01*
X0227038Y0202089D01*
X0227096Y0202047D01*
X0227151Y0202003D01*
X0227204Y0201955D01*
X0227254Y0201904D01*
X0227301Y0201851D01*
X0227345Y0201795D01*
X0227386Y0201737D01*
X0227424Y0201676D01*
X0227458Y0201614D01*
X0227488Y0201549D01*
X0227515Y0201484D01*
X0227539Y0201416D01*
X0227558Y0201348D01*
X0227574Y0201279D01*
X0227586Y0201208D01*
X0227594Y0201138D01*
X0227598Y0201067D01*
X0227598Y0200995D01*
X0227594Y0200924D01*
X0227586Y0200854D01*
X0227574Y0200783D01*
X0227558Y0200714D01*
X0227539Y0200646D01*
X0227515Y0200578D01*
X0227488Y0200513D01*
X0227458Y0200448D01*
X0227424Y0200386D01*
X0227386Y0200325D01*
X0227345Y0200267D01*
X0227301Y0200211D01*
X0227254Y0200158D01*
X0227204Y0200107D01*
X0227151Y0200059D01*
X0227096Y0200015D01*
X0227038Y0199973D01*
X0226978Y0199935D01*
X0226916Y0199900D01*
X0226853Y0199868D01*
X0226787Y0199840D01*
X0226720Y0199816D01*
X0226652Y0199795D01*
X0226583Y0199779D01*
X0226513Y0199766D01*
X0226442Y0199757D01*
X0226371Y0199752D01*
X0226300Y0199751D01*
X0226229Y0199754D01*
X0226158Y0199761D01*
X0226088Y0199772D01*
X0226018Y0199787D01*
X0225950Y0199805D01*
X0225882Y0199828D01*
X0225816Y0199854D01*
X0225751Y0199883D01*
X0225688Y0199917D01*
X0225627Y0199953D01*
X0225569Y0199993D01*
X0225512Y0200037D01*
X0225458Y0200083D01*
X0225407Y0200132D01*
X0225358Y0200184D01*
X0225313Y0200239D01*
X0225270Y0200296D01*
X0225231Y0200355D01*
X0225195Y0200417D01*
X0225163Y0200480D01*
X0225134Y0200545D01*
X0225109Y0200612D01*
X0225087Y0200680D01*
X0225070Y0200749D01*
X0225056Y0200818D01*
X0225046Y0200889D01*
X0225040Y0200960D01*
X0225038Y0201031D01*
X0247440Y0204043D02*
X0247440Y0204772D01*
X0143017Y0210874D02*
X0143017Y0213176D01*
X0142249Y0213944D01*
X0141482Y0213176D01*
X0141482Y0211642D01*
X0140715Y0210874D01*
X0139947Y0211642D01*
X0139947Y0213944D01*
X0140715Y0215478D02*
X0141482Y0216246D01*
X0141482Y0217780D01*
X0142249Y0218548D01*
X0143017Y0217780D01*
X0143017Y0215478D01*
X0140715Y0215478D02*
X0139947Y0216246D01*
X0139947Y0218548D01*
X0141482Y0220082D02*
X0141482Y0223152D01*
X0140715Y0223152D02*
X0142249Y0223152D01*
X0143017Y0222384D01*
X0143017Y0220850D01*
X0142249Y0220082D01*
X0141482Y0220082D01*
X0139947Y0220850D02*
X0139947Y0222384D01*
X0140715Y0223152D01*
X0143017Y0224686D02*
X0143017Y0225454D01*
X0141482Y0226988D01*
X0139947Y0226988D02*
X0143017Y0226988D01*
X0142249Y0228523D02*
X0140715Y0228523D01*
X0139947Y0229290D01*
X0139947Y0231592D01*
X0138413Y0231592D02*
X0143017Y0231592D01*
X0143017Y0229290D01*
X0142249Y0228523D01*
X0143017Y0233127D02*
X0139180Y0233127D01*
X0138413Y0233894D01*
X0138413Y0234661D01*
X0139947Y0235429D02*
X0139947Y0233127D01*
X0139947Y0235429D02*
X0140715Y0236196D01*
X0143017Y0236196D01*
X0143784Y0237731D02*
X0144551Y0238498D01*
X0144551Y0240033D01*
X0143784Y0240800D01*
X0140715Y0240800D01*
X0139947Y0240033D01*
X0139947Y0238498D01*
X0140715Y0237731D01*
X0220647Y0147547D02*
X0220647Y0146898D01*
X0247440Y0146898D01*
X0247440Y0147547D01*
D18*
X0342027Y0091657D02*
X0342027Y0239295D01*
X0454232Y0239295D01*
X0454232Y0091657D01*
X0342027Y0091657D01*
X0653858Y0064413D02*
X0653858Y0011657D01*
X0654251Y0011657D02*
X0740866Y0011657D01*
X0740472Y0011657D02*
X0740472Y0064413D01*
X0740866Y0064807D02*
X0654251Y0064807D01*
X0737362Y0070004D02*
X0739724Y0070004D01*
X0739724Y0211736D01*
X0697992Y0211736D01*
X0739724Y0220004D02*
X0739724Y0322366D01*
X0739330Y0322366D01*
X0740472Y0326657D02*
X0740472Y0379413D01*
X0740866Y0379807D02*
X0654251Y0379807D01*
X0653858Y0379413D02*
X0653858Y0326657D01*
X0654251Y0326657D02*
X0740866Y0326657D01*
D19*
X0739330Y0322366D02*
X0697992Y0322366D01*
X0674369Y0322366D02*
X0654684Y0322366D01*
X0654684Y0310555D01*
X0739330Y0322366D02*
X0739330Y0220004D01*
X0697992Y0220004D01*
X0697992Y0211750D02*
X0697992Y0211736D01*
X0697992Y0211750D02*
X0739697Y0211750D01*
X0739697Y0070004D01*
X0737362Y0070004D01*
X0697992Y0070004D01*
X0674369Y0070004D02*
X0654684Y0070004D01*
X0654684Y0081815D01*
X0654684Y0199925D02*
X0654684Y0211736D01*
X0674369Y0211736D01*
X0674369Y0220004D02*
X0654684Y0220004D01*
X0654684Y0231815D01*
D20*
X0429747Y0287350D03*
X0367247Y0287350D03*
D21*
X0226247Y0346200D03*
X0207547Y0325500D03*
X0133247Y0343200D03*
X0631747Y0045800D03*
D22*
X0564247Y0089000D03*
X0549747Y0089000D03*
X0549747Y0133500D03*
X0564247Y0133500D03*
X0564247Y0179500D03*
X0549747Y0179500D03*
M02*
