G75*
%MOIN*%
%OFA0B0*%
%FSLAX25Y25*%
%IPPOS*%
%LPD*%
%AMOC8*
5,1,8,0,0,1.08239X$1,22.5*
%
%ADD10C,0.14973*%
%ADD11C,0.12611*%
%ADD12C,0.18800*%
%ADD13OC8,0.20485*%
%ADD14C,0.01600*%
%ADD15C,0.06706*%
%ADD16C,0.05169*%
%ADD17C,0.00394*%
%ADD18C,0.25800*%
%ADD19C,0.07200*%
%ADD20C,0.08200*%
D10*
X0664094Y0021500D03*
X0685747Y0021500D03*
X0685747Y0038035D03*
X0664094Y0038035D03*
X0664094Y0054571D03*
X0685747Y0054571D03*
X0685747Y0336500D03*
X0664094Y0336500D03*
X0664094Y0353035D03*
X0685747Y0353035D03*
X0685747Y0369571D03*
X0664094Y0369571D03*
D11*
X0714488Y0369571D03*
X0714488Y0336500D03*
X0714488Y0054571D03*
X0714488Y0021500D03*
D12*
X0650747Y0101500D03*
X0631062Y0101500D03*
X0631062Y0140870D03*
X0650747Y0140870D03*
X0650747Y0180240D03*
X0631062Y0180240D03*
X0631062Y0251500D03*
X0650747Y0251500D03*
X0650747Y0290870D03*
X0631062Y0290870D03*
D13*
X0686181Y0313429D03*
X0686181Y0228980D03*
X0686181Y0202799D03*
X0686181Y0078980D03*
D14*
X0663611Y0093765D02*
X0662419Y0092574D01*
X0661070Y0091564D01*
X0659591Y0090756D01*
X0658012Y0090167D01*
X0656365Y0089809D01*
X0654684Y0089689D01*
X0627125Y0089689D01*
X0625445Y0089809D01*
X0623798Y0090167D01*
X0622219Y0090756D01*
X0620740Y0091564D01*
X0619391Y0092574D01*
X0618199Y0093765D01*
X0617189Y0095114D01*
X0616382Y0096594D01*
X0615793Y0098172D01*
X0615435Y0099819D01*
X0615314Y0101500D01*
X0615435Y0103181D01*
X0615793Y0104828D01*
X0616382Y0106406D01*
X0617189Y0107886D01*
X0618199Y0109235D01*
X0619391Y0110426D01*
X0620740Y0111436D01*
X0622219Y0112244D01*
X0623798Y0112833D01*
X0625445Y0113191D01*
X0627125Y0113311D01*
X0654684Y0113311D01*
X0656365Y0113191D01*
X0658012Y0112833D01*
X0659591Y0112244D01*
X0661070Y0111436D01*
X0662419Y0110426D01*
X0663611Y0109235D01*
X0664621Y0107886D01*
X0665428Y0106406D01*
X0666017Y0104828D01*
X0666375Y0103181D01*
X0666495Y0101500D01*
X0666375Y0099819D01*
X0666017Y0098172D01*
X0665428Y0096594D01*
X0664621Y0095114D01*
X0663611Y0093765D01*
X0662869Y0093024D02*
X0618941Y0093024D01*
X0617558Y0094623D02*
X0664252Y0094623D01*
X0665225Y0096221D02*
X0616585Y0096221D01*
X0615924Y0097820D02*
X0665885Y0097820D01*
X0666288Y0099418D02*
X0615522Y0099418D01*
X0615349Y0101017D02*
X0666461Y0101017D01*
X0666416Y0102615D02*
X0615394Y0102615D01*
X0615659Y0104214D02*
X0666151Y0104214D01*
X0665650Y0105812D02*
X0616160Y0105812D01*
X0616930Y0107411D02*
X0664880Y0107411D01*
X0663779Y0109009D02*
X0618030Y0109009D01*
X0619633Y0110608D02*
X0662177Y0110608D01*
X0659660Y0112206D02*
X0622150Y0112206D01*
X0625445Y0129179D02*
X0627125Y0129059D01*
X0654684Y0129059D01*
X0656365Y0129179D01*
X0658012Y0129537D01*
X0659591Y0130126D01*
X0661070Y0130934D01*
X0662419Y0131944D01*
X0663611Y0133136D01*
X0664621Y0134485D01*
X0665428Y0135964D01*
X0666017Y0137543D01*
X0666375Y0139189D01*
X0666495Y0140870D01*
X0666375Y0142551D01*
X0666017Y0144198D01*
X0665428Y0145777D01*
X0664621Y0147256D01*
X0663611Y0148605D01*
X0662419Y0149796D01*
X0661070Y0150806D01*
X0659591Y0151614D01*
X0658012Y0152203D01*
X0656365Y0152561D01*
X0654684Y0152681D01*
X0627125Y0152681D01*
X0625445Y0152561D01*
X0623798Y0152203D01*
X0622219Y0151614D01*
X0620740Y0150806D01*
X0619391Y0149796D01*
X0618199Y0148605D01*
X0617189Y0147256D01*
X0616382Y0145777D01*
X0615793Y0144198D01*
X0615435Y0142551D01*
X0615314Y0140870D01*
X0615435Y0139189D01*
X0615793Y0137543D01*
X0616382Y0135964D01*
X0617189Y0134485D01*
X0618199Y0133136D01*
X0619391Y0131944D01*
X0620740Y0130934D01*
X0622219Y0130126D01*
X0623798Y0129537D01*
X0625445Y0129179D01*
X0623121Y0129790D02*
X0658689Y0129790D01*
X0661677Y0131388D02*
X0620133Y0131388D01*
X0618348Y0132987D02*
X0663462Y0132987D01*
X0664676Y0134585D02*
X0617134Y0134585D01*
X0616300Y0136184D02*
X0665510Y0136184D01*
X0666069Y0137782D02*
X0615741Y0137782D01*
X0615421Y0139381D02*
X0666389Y0139381D01*
X0666488Y0140979D02*
X0615322Y0140979D01*
X0615440Y0142578D02*
X0666369Y0142578D01*
X0666022Y0144176D02*
X0615788Y0144176D01*
X0616381Y0145775D02*
X0665429Y0145775D01*
X0664532Y0147373D02*
X0617278Y0147373D01*
X0618567Y0148972D02*
X0663243Y0148972D01*
X0661385Y0150570D02*
X0620425Y0150570D01*
X0623708Y0152169D02*
X0658102Y0152169D01*
X0656365Y0168549D02*
X0658012Y0168908D01*
X0659591Y0169496D01*
X0661070Y0170304D01*
X0662419Y0171314D01*
X0663611Y0172506D01*
X0664621Y0173855D01*
X0665428Y0175334D01*
X0666017Y0176913D01*
X0666375Y0178559D01*
X0666495Y0180240D01*
X0666375Y0181921D01*
X0666017Y0183568D01*
X0665428Y0185147D01*
X0664621Y0186626D01*
X0663611Y0187975D01*
X0662419Y0189166D01*
X0661070Y0190176D01*
X0659591Y0190984D01*
X0658012Y0191573D01*
X0656365Y0191931D01*
X0654684Y0192051D01*
X0627125Y0192051D01*
X0625445Y0191931D01*
X0623798Y0191573D01*
X0622219Y0190984D01*
X0620740Y0190176D01*
X0619391Y0189166D01*
X0618199Y0187975D01*
X0617189Y0186626D01*
X0616382Y0185147D01*
X0615793Y0183568D01*
X0615435Y0181921D01*
X0615314Y0180240D01*
X0615435Y0178559D01*
X0615793Y0176913D01*
X0616382Y0175334D01*
X0617189Y0173855D01*
X0618199Y0172506D01*
X0619391Y0171314D01*
X0620740Y0170304D01*
X0622219Y0169496D01*
X0623798Y0168908D01*
X0625445Y0168549D01*
X0627125Y0168429D01*
X0654684Y0168429D01*
X0656365Y0168549D01*
X0660060Y0169753D02*
X0621750Y0169753D01*
X0619354Y0171351D02*
X0662456Y0171351D01*
X0663943Y0172950D02*
X0617867Y0172950D01*
X0616811Y0174548D02*
X0664999Y0174548D01*
X0665731Y0176147D02*
X0616078Y0176147D01*
X0615612Y0177745D02*
X0666198Y0177745D01*
X0666431Y0179344D02*
X0615378Y0179344D01*
X0615365Y0180942D02*
X0666445Y0180942D01*
X0666240Y0182541D02*
X0615569Y0182541D01*
X0616006Y0184139D02*
X0665804Y0184139D01*
X0665105Y0185738D02*
X0616704Y0185738D01*
X0617721Y0187336D02*
X0664089Y0187336D01*
X0662651Y0188935D02*
X0619159Y0188935D01*
X0621394Y0190533D02*
X0660416Y0190533D01*
X0656365Y0239809D02*
X0658012Y0240167D01*
X0659591Y0240756D01*
X0661070Y0241564D01*
X0662419Y0242574D01*
X0663611Y0243765D01*
X0664621Y0245114D01*
X0665428Y0246594D01*
X0666017Y0248172D01*
X0666375Y0249819D01*
X0666495Y0251500D01*
X0666375Y0253181D01*
X0666017Y0254828D01*
X0665428Y0256406D01*
X0664621Y0257886D01*
X0663611Y0259235D01*
X0662419Y0260426D01*
X0661070Y0261436D01*
X0659591Y0262244D01*
X0658012Y0262833D01*
X0656365Y0263191D01*
X0654684Y0263311D01*
X0627125Y0263311D01*
X0625445Y0263191D01*
X0623798Y0262833D01*
X0622219Y0262244D01*
X0620740Y0261436D01*
X0619391Y0260426D01*
X0618199Y0259235D01*
X0617189Y0257886D01*
X0616382Y0256406D01*
X0615793Y0254828D01*
X0615435Y0253181D01*
X0615314Y0251500D01*
X0615435Y0249819D01*
X0615793Y0248172D01*
X0616382Y0246594D01*
X0617189Y0245114D01*
X0618199Y0243765D01*
X0619391Y0242574D01*
X0620740Y0241564D01*
X0622219Y0240756D01*
X0623798Y0240167D01*
X0625445Y0239809D01*
X0627125Y0239689D01*
X0654684Y0239689D01*
X0656365Y0239809D01*
X0657643Y0240087D02*
X0624167Y0240087D01*
X0620577Y0241686D02*
X0661233Y0241686D01*
X0663129Y0243284D02*
X0618680Y0243284D01*
X0617363Y0244883D02*
X0664447Y0244883D01*
X0665367Y0246481D02*
X0616443Y0246481D01*
X0615827Y0248080D02*
X0665982Y0248080D01*
X0666345Y0249678D02*
X0615465Y0249678D01*
X0615330Y0251277D02*
X0666479Y0251277D01*
X0666397Y0252875D02*
X0615413Y0252875D01*
X0615716Y0254474D02*
X0666094Y0254474D01*
X0665553Y0256072D02*
X0616257Y0256072D01*
X0617072Y0257671D02*
X0664738Y0257671D01*
X0663576Y0259269D02*
X0618234Y0259269D01*
X0619981Y0260868D02*
X0661829Y0260868D01*
X0658994Y0262466D02*
X0622816Y0262466D01*
X0625445Y0279179D02*
X0627125Y0279059D01*
X0654684Y0279059D01*
X0656365Y0279179D01*
X0658012Y0279537D01*
X0659591Y0280126D01*
X0661070Y0280934D01*
X0662419Y0281944D01*
X0663611Y0283136D01*
X0664621Y0284485D01*
X0665428Y0285964D01*
X0666017Y0287543D01*
X0666375Y0289189D01*
X0666495Y0290870D01*
X0666375Y0292551D01*
X0666017Y0294198D01*
X0665428Y0295777D01*
X0664621Y0297256D01*
X0663611Y0298605D01*
X0662419Y0299796D01*
X0661070Y0300806D01*
X0659591Y0301614D01*
X0658012Y0302203D01*
X0656365Y0302561D01*
X0654684Y0302681D01*
X0627125Y0302681D01*
X0625445Y0302561D01*
X0623798Y0302203D01*
X0622219Y0301614D01*
X0620740Y0300806D01*
X0619391Y0299796D01*
X0618199Y0298605D01*
X0617189Y0297256D01*
X0616382Y0295777D01*
X0615793Y0294198D01*
X0615435Y0292551D01*
X0615314Y0290870D01*
X0615435Y0289189D01*
X0615793Y0287543D01*
X0616382Y0285964D01*
X0617189Y0284485D01*
X0618199Y0283136D01*
X0619391Y0281944D01*
X0620740Y0280934D01*
X0622219Y0280126D01*
X0623798Y0279537D01*
X0625445Y0279179D01*
X0622424Y0280050D02*
X0659386Y0280050D01*
X0662024Y0281648D02*
X0619786Y0281648D01*
X0618116Y0283247D02*
X0663694Y0283247D01*
X0664818Y0284845D02*
X0616992Y0284845D01*
X0616203Y0286444D02*
X0665607Y0286444D01*
X0666126Y0288042D02*
X0615684Y0288042D01*
X0615402Y0289641D02*
X0666408Y0289641D01*
X0666469Y0291239D02*
X0615341Y0291239D01*
X0615497Y0292838D02*
X0666313Y0292838D01*
X0665928Y0294437D02*
X0615882Y0294437D01*
X0616523Y0296035D02*
X0665287Y0296035D01*
X0664338Y0297634D02*
X0617472Y0297634D01*
X0618827Y0299232D02*
X0662983Y0299232D01*
X0661025Y0300831D02*
X0620785Y0300831D01*
X0624839Y0302429D02*
X0656971Y0302429D01*
X0660817Y0091426D02*
X0620993Y0091426D01*
X0625362Y0089827D02*
X0656447Y0089827D01*
D15*
X0488247Y0263480D03*
X0488247Y0271000D03*
X0488247Y0278520D03*
D16*
X0565019Y0282811D03*
X0566988Y0276906D03*
X0578799Y0276906D03*
X0580767Y0282811D03*
X0580767Y0290685D03*
X0565019Y0290685D03*
X0565019Y0298559D03*
X0580767Y0298559D03*
X0578799Y0265094D03*
X0580767Y0259189D03*
X0566988Y0265094D03*
X0565019Y0259189D03*
X0565019Y0251315D03*
X0580767Y0251315D03*
X0580767Y0243441D03*
X0565019Y0243441D03*
D17*
X0560901Y0241729D02*
X0584098Y0241729D01*
X0583959Y0241357D02*
X0583098Y0239779D01*
X0582021Y0238340D01*
X0580750Y0237069D01*
X0579311Y0235992D01*
X0577733Y0235131D01*
X0576049Y0234502D01*
X0574292Y0234120D01*
X0572499Y0233992D01*
X0570706Y0234120D01*
X0568950Y0234502D01*
X0567266Y0235131D01*
X0565688Y0235992D01*
X0564249Y0237069D01*
X0562978Y0238340D01*
X0561901Y0239779D01*
X0561039Y0241357D01*
X0560411Y0243041D01*
X0560029Y0244798D01*
X0559901Y0246591D01*
X0559901Y0262339D01*
X0559950Y0263357D01*
X0560158Y0264356D01*
X0560520Y0265309D01*
X0561026Y0266194D01*
X0561664Y0266990D01*
X0562420Y0267675D01*
X0563273Y0268234D01*
X0564202Y0268653D01*
X0565186Y0268921D01*
X0566200Y0269031D01*
X0578011Y0269031D01*
X0579091Y0268977D01*
X0580150Y0268755D01*
X0581161Y0268370D01*
X0582099Y0267831D01*
X0582941Y0267153D01*
X0583666Y0266351D01*
X0584258Y0265445D01*
X0584700Y0264458D01*
X0584982Y0263414D01*
X0585098Y0262339D01*
X0585098Y0246591D01*
X0584970Y0244798D01*
X0584588Y0243041D01*
X0583959Y0241357D01*
X0583948Y0241336D02*
X0561051Y0241336D01*
X0561265Y0240944D02*
X0583734Y0240944D01*
X0583520Y0240552D02*
X0561479Y0240552D01*
X0561693Y0240160D02*
X0583306Y0240160D01*
X0583089Y0239767D02*
X0561910Y0239767D01*
X0562203Y0239375D02*
X0582795Y0239375D01*
X0582502Y0238983D02*
X0562497Y0238983D01*
X0562791Y0238591D02*
X0582208Y0238591D01*
X0581879Y0238199D02*
X0563120Y0238199D01*
X0563512Y0237806D02*
X0581487Y0237806D01*
X0581095Y0237414D02*
X0563904Y0237414D01*
X0564312Y0237022D02*
X0580686Y0237022D01*
X0580162Y0236630D02*
X0564836Y0236630D01*
X0565360Y0236238D02*
X0579639Y0236238D01*
X0579042Y0235845D02*
X0565957Y0235845D01*
X0566675Y0235453D02*
X0578324Y0235453D01*
X0577546Y0235061D02*
X0567453Y0235061D01*
X0568504Y0234669D02*
X0576495Y0234669D01*
X0575010Y0234276D02*
X0569989Y0234276D01*
X0560755Y0242121D02*
X0584244Y0242121D01*
X0584390Y0242513D02*
X0560608Y0242513D01*
X0560462Y0242905D02*
X0584537Y0242905D01*
X0584643Y0243297D02*
X0560356Y0243297D01*
X0560270Y0243690D02*
X0584729Y0243690D01*
X0584814Y0244082D02*
X0560185Y0244082D01*
X0560100Y0244474D02*
X0584899Y0244474D01*
X0584975Y0244866D02*
X0560024Y0244866D01*
X0559996Y0245258D02*
X0585003Y0245258D01*
X0585031Y0245651D02*
X0559968Y0245651D01*
X0559940Y0246043D02*
X0585059Y0246043D01*
X0585087Y0246435D02*
X0559912Y0246435D01*
X0559901Y0246827D02*
X0585098Y0246827D01*
X0585098Y0247219D02*
X0559901Y0247219D01*
X0559901Y0247612D02*
X0585098Y0247612D01*
X0585098Y0248004D02*
X0559901Y0248004D01*
X0559901Y0248396D02*
X0585098Y0248396D01*
X0585098Y0248788D02*
X0559901Y0248788D01*
X0559901Y0249181D02*
X0585098Y0249181D01*
X0585098Y0249573D02*
X0559901Y0249573D01*
X0559901Y0249965D02*
X0585098Y0249965D01*
X0585098Y0250357D02*
X0559901Y0250357D01*
X0559901Y0250749D02*
X0585098Y0250749D01*
X0585098Y0251142D02*
X0559901Y0251142D01*
X0559901Y0251534D02*
X0585098Y0251534D01*
X0585098Y0251926D02*
X0559901Y0251926D01*
X0559901Y0252318D02*
X0585098Y0252318D01*
X0585098Y0252710D02*
X0559901Y0252710D01*
X0559901Y0253103D02*
X0585098Y0253103D01*
X0585098Y0253495D02*
X0559901Y0253495D01*
X0559901Y0253887D02*
X0585098Y0253887D01*
X0585098Y0254279D02*
X0559901Y0254279D01*
X0559901Y0254672D02*
X0585098Y0254672D01*
X0585098Y0255064D02*
X0559901Y0255064D01*
X0559901Y0255456D02*
X0585098Y0255456D01*
X0585098Y0255848D02*
X0559901Y0255848D01*
X0559901Y0256240D02*
X0585098Y0256240D01*
X0585098Y0256633D02*
X0559901Y0256633D01*
X0559901Y0257025D02*
X0585098Y0257025D01*
X0585098Y0257417D02*
X0559901Y0257417D01*
X0559901Y0257809D02*
X0585098Y0257809D01*
X0585098Y0258201D02*
X0559901Y0258201D01*
X0559901Y0258594D02*
X0585098Y0258594D01*
X0585098Y0258986D02*
X0559901Y0258986D01*
X0559901Y0259378D02*
X0585098Y0259378D01*
X0585098Y0259770D02*
X0559901Y0259770D01*
X0559901Y0260162D02*
X0585098Y0260162D01*
X0585098Y0260555D02*
X0559901Y0260555D01*
X0559901Y0260947D02*
X0585098Y0260947D01*
X0585098Y0261339D02*
X0559901Y0261339D01*
X0559901Y0261731D02*
X0585098Y0261731D01*
X0585098Y0262124D02*
X0559901Y0262124D01*
X0559910Y0262516D02*
X0585079Y0262516D01*
X0585037Y0262908D02*
X0559928Y0262908D01*
X0559947Y0263300D02*
X0584994Y0263300D01*
X0584907Y0263692D02*
X0560020Y0263692D01*
X0560102Y0264085D02*
X0584801Y0264085D01*
X0584691Y0264477D02*
X0560204Y0264477D01*
X0560353Y0264869D02*
X0584516Y0264869D01*
X0584340Y0265261D02*
X0560501Y0265261D01*
X0560717Y0265653D02*
X0584121Y0265653D01*
X0583865Y0266046D02*
X0560941Y0266046D01*
X0561221Y0266438D02*
X0583587Y0266438D01*
X0583233Y0266830D02*
X0561536Y0266830D01*
X0561921Y0267222D02*
X0582854Y0267222D01*
X0582368Y0267615D02*
X0562353Y0267615D01*
X0562925Y0268007D02*
X0581793Y0268007D01*
X0581084Y0268399D02*
X0563639Y0268399D01*
X0564711Y0268791D02*
X0579978Y0268791D01*
X0579091Y0273023D02*
X0580150Y0273245D01*
X0581161Y0273630D01*
X0582099Y0274169D01*
X0582941Y0274847D01*
X0583666Y0275649D01*
X0584258Y0276555D01*
X0584700Y0277542D01*
X0584982Y0278586D01*
X0585098Y0279661D01*
X0585098Y0295409D01*
X0584970Y0297202D01*
X0584588Y0298959D01*
X0583959Y0300643D01*
X0583098Y0302221D01*
X0582021Y0303660D01*
X0580750Y0304931D01*
X0579311Y0306008D01*
X0577733Y0306869D01*
X0576049Y0307498D01*
X0574292Y0307880D01*
X0572499Y0308008D01*
X0570706Y0307880D01*
X0568950Y0307498D01*
X0567266Y0306869D01*
X0565688Y0306008D01*
X0564249Y0304931D01*
X0562978Y0303660D01*
X0561901Y0302221D01*
X0561039Y0300643D01*
X0560411Y0298959D01*
X0560029Y0297202D01*
X0559901Y0295409D01*
X0559901Y0279661D01*
X0559950Y0278643D01*
X0560158Y0277644D01*
X0560520Y0276691D01*
X0561026Y0275806D01*
X0561664Y0275010D01*
X0562420Y0274325D01*
X0563273Y0273766D01*
X0564202Y0273347D01*
X0565186Y0273079D01*
X0566200Y0272969D01*
X0578011Y0272969D01*
X0579091Y0273023D01*
X0579486Y0273105D02*
X0565090Y0273105D01*
X0563868Y0273498D02*
X0580813Y0273498D01*
X0581613Y0273890D02*
X0563083Y0273890D01*
X0562485Y0274282D02*
X0582239Y0274282D01*
X0582726Y0274674D02*
X0562035Y0274674D01*
X0561619Y0275067D02*
X0583139Y0275067D01*
X0583494Y0275459D02*
X0561304Y0275459D01*
X0561000Y0275851D02*
X0583798Y0275851D01*
X0584054Y0276243D02*
X0560776Y0276243D01*
X0560551Y0276635D02*
X0584294Y0276635D01*
X0584469Y0277028D02*
X0560392Y0277028D01*
X0560243Y0277420D02*
X0584645Y0277420D01*
X0584773Y0277812D02*
X0560123Y0277812D01*
X0560041Y0278204D02*
X0584879Y0278204D01*
X0584983Y0278596D02*
X0559960Y0278596D01*
X0559933Y0278989D02*
X0585026Y0278989D01*
X0585068Y0279381D02*
X0559915Y0279381D01*
X0559901Y0279773D02*
X0585098Y0279773D01*
X0585098Y0280165D02*
X0559901Y0280165D01*
X0559901Y0280558D02*
X0585098Y0280558D01*
X0585098Y0280950D02*
X0559901Y0280950D01*
X0559901Y0281342D02*
X0585098Y0281342D01*
X0585098Y0281734D02*
X0559901Y0281734D01*
X0559901Y0282126D02*
X0585098Y0282126D01*
X0585098Y0282519D02*
X0559901Y0282519D01*
X0559901Y0282911D02*
X0585098Y0282911D01*
X0585098Y0283303D02*
X0559901Y0283303D01*
X0559901Y0283695D02*
X0585098Y0283695D01*
X0585098Y0284087D02*
X0559901Y0284087D01*
X0559901Y0284480D02*
X0585098Y0284480D01*
X0585098Y0284872D02*
X0559901Y0284872D01*
X0559901Y0285264D02*
X0585098Y0285264D01*
X0585098Y0285656D02*
X0559901Y0285656D01*
X0559901Y0286048D02*
X0585098Y0286048D01*
X0585098Y0286441D02*
X0559901Y0286441D01*
X0559901Y0286833D02*
X0585098Y0286833D01*
X0585098Y0287225D02*
X0559901Y0287225D01*
X0559901Y0287617D02*
X0585098Y0287617D01*
X0585098Y0288010D02*
X0559901Y0288010D01*
X0559901Y0288402D02*
X0585098Y0288402D01*
X0585098Y0288794D02*
X0559901Y0288794D01*
X0559901Y0289186D02*
X0585098Y0289186D01*
X0585098Y0289578D02*
X0559901Y0289578D01*
X0559901Y0289971D02*
X0585098Y0289971D01*
X0585098Y0290363D02*
X0559901Y0290363D01*
X0559901Y0290755D02*
X0585098Y0290755D01*
X0585098Y0291147D02*
X0559901Y0291147D01*
X0559901Y0291539D02*
X0585098Y0291539D01*
X0585098Y0291932D02*
X0559901Y0291932D01*
X0559901Y0292324D02*
X0585098Y0292324D01*
X0585098Y0292716D02*
X0559901Y0292716D01*
X0559901Y0293108D02*
X0585098Y0293108D01*
X0585098Y0293501D02*
X0559901Y0293501D01*
X0559901Y0293893D02*
X0585098Y0293893D01*
X0585098Y0294285D02*
X0559901Y0294285D01*
X0559901Y0294677D02*
X0585098Y0294677D01*
X0585098Y0295069D02*
X0559901Y0295069D01*
X0559905Y0295462D02*
X0585094Y0295462D01*
X0585066Y0295854D02*
X0559933Y0295854D01*
X0559961Y0296246D02*
X0585038Y0296246D01*
X0585010Y0296638D02*
X0559989Y0296638D01*
X0560017Y0297030D02*
X0584982Y0297030D01*
X0584922Y0297423D02*
X0560077Y0297423D01*
X0560162Y0297815D02*
X0584836Y0297815D01*
X0584751Y0298207D02*
X0560248Y0298207D01*
X0560333Y0298599D02*
X0584666Y0298599D01*
X0584575Y0298991D02*
X0560423Y0298991D01*
X0560570Y0299384D02*
X0584429Y0299384D01*
X0584283Y0299776D02*
X0560716Y0299776D01*
X0560862Y0300168D02*
X0584136Y0300168D01*
X0583990Y0300560D02*
X0561009Y0300560D01*
X0561208Y0300953D02*
X0583790Y0300953D01*
X0583576Y0301345D02*
X0561423Y0301345D01*
X0561637Y0301737D02*
X0583362Y0301737D01*
X0583148Y0302129D02*
X0561851Y0302129D01*
X0562126Y0302521D02*
X0582873Y0302521D01*
X0582579Y0302914D02*
X0562420Y0302914D01*
X0562713Y0303306D02*
X0582286Y0303306D01*
X0581982Y0303698D02*
X0563017Y0303698D01*
X0563409Y0304090D02*
X0581590Y0304090D01*
X0581198Y0304482D02*
X0563801Y0304482D01*
X0564193Y0304875D02*
X0580806Y0304875D01*
X0580301Y0305267D02*
X0564698Y0305267D01*
X0565222Y0305659D02*
X0579777Y0305659D01*
X0579231Y0306051D02*
X0565768Y0306051D01*
X0566486Y0306444D02*
X0578513Y0306444D01*
X0577795Y0306836D02*
X0567204Y0306836D01*
X0568227Y0307228D02*
X0576772Y0307228D01*
X0575485Y0307620D02*
X0569514Y0307620D01*
D18*
X0220747Y0036500D03*
X0560747Y0036500D03*
X0560747Y0351500D03*
X0085747Y0351500D03*
D19*
X0536547Y0189500D02*
X0542947Y0189500D01*
X0571047Y0189500D02*
X0577447Y0189500D01*
X0577447Y0169500D02*
X0571047Y0169500D01*
X0542947Y0169500D02*
X0536547Y0169500D01*
X0536547Y0143500D02*
X0542947Y0143500D01*
X0571047Y0143500D02*
X0577447Y0143500D01*
X0577447Y0123500D02*
X0571047Y0123500D01*
X0542947Y0123500D02*
X0536547Y0123500D01*
X0536547Y0099000D02*
X0542947Y0099000D01*
X0571047Y0099000D02*
X0577447Y0099000D01*
X0577447Y0079000D02*
X0571047Y0079000D01*
X0542947Y0079000D02*
X0536547Y0079000D01*
D20*
X0153747Y0370500D03*
X0143747Y0370500D03*
X0133747Y0370500D03*
X0123747Y0370500D03*
X0113747Y0370500D03*
X0103747Y0370500D03*
M02*
