G75*
%MOIN*%
%OFA0B0*%
%FSLAX25Y25*%
%IPPOS*%
%LPD*%
%AMOC8*
5,1,8,0,0,1.08239X$1,22.5*
%
%ADD10C,0.01500*%
%ADD11C,0.10630*%
%ADD12C,0.15024*%
%ADD13C,0.15811*%
%ADD14C,0.05150*%
%ADD15C,0.03969*%
%ADD16C,0.16598*%
%ADD17C,0.06000*%
%ADD18C,0.03869*%
%ADD19C,0.03800*%
%ADD20C,0.03700*%
%ADD21C,0.04000*%
%ADD22C,0.01200*%
%ADD23C,0.04362*%
%ADD24C,0.03500*%
D10*
X0081497Y0372250D02*
X0087169Y0377922D01*
X0087169Y0379339D01*
X0085751Y0380757D01*
X0082915Y0380757D01*
X0081497Y0379339D01*
X0081497Y0372250D02*
X0087169Y0372250D01*
D11*
X0664094Y0369571D03*
X0685747Y0369571D03*
X0685747Y0353035D03*
X0664094Y0353035D03*
X0664094Y0336500D03*
X0685747Y0336500D03*
X0685747Y0054571D03*
X0664094Y0054571D03*
X0664094Y0038035D03*
X0685747Y0038035D03*
X0685747Y0021500D03*
X0664094Y0021500D03*
D12*
X0650747Y0101500D03*
X0631062Y0101500D03*
X0631062Y0140870D03*
X0650747Y0140870D03*
X0650747Y0180240D03*
X0631062Y0180240D03*
X0631062Y0251500D03*
X0650747Y0251500D03*
X0650747Y0290870D03*
X0631062Y0290870D03*
D13*
X0686181Y0313429D03*
X0686181Y0228980D03*
X0686181Y0202799D03*
X0686181Y0078980D03*
D14*
X0488247Y0263480D03*
X0488247Y0271000D03*
X0488247Y0278520D03*
D15*
X0492247Y0296000D03*
X0565019Y0298559D03*
X0580767Y0298559D03*
X0580767Y0290685D03*
X0565019Y0290685D03*
X0565019Y0282811D03*
X0566988Y0276906D03*
X0578799Y0276906D03*
X0580767Y0282811D03*
X0578799Y0265094D03*
X0580767Y0259189D03*
X0566988Y0265094D03*
X0565019Y0259189D03*
X0565019Y0251315D03*
X0580767Y0251315D03*
X0580767Y0243441D03*
X0565019Y0243441D03*
X0399247Y0305500D03*
X0392747Y0299000D03*
X0347247Y0296000D03*
X0312247Y0295000D03*
X0302247Y0311000D03*
X0344747Y0331000D03*
X0352247Y0318500D03*
X0389747Y0266000D03*
X0295747Y0202500D03*
X0236247Y0209500D03*
X0229247Y0209500D03*
X0229247Y0217000D03*
X0236247Y0217000D03*
X0230247Y0226500D03*
X0230247Y0232500D03*
X0242747Y0239000D03*
X0242747Y0244500D03*
X0242747Y0250000D03*
X0242747Y0255500D03*
X0216747Y0224000D03*
X0208747Y0222000D03*
X0208747Y0216000D03*
X0226247Y0143500D03*
X0234247Y0143500D03*
X0230247Y0133500D03*
X0216247Y0130000D03*
X0208747Y0134000D03*
D16*
X0220747Y0036500D03*
X0560747Y0036500D03*
X0560747Y0351500D03*
X0085747Y0351500D03*
D17*
X0103747Y0370500D03*
X0113747Y0370500D03*
X0123747Y0370500D03*
X0133747Y0370500D03*
X0143747Y0370500D03*
X0153747Y0370500D03*
X0539747Y0189500D03*
X0539747Y0169500D03*
X0574247Y0169500D03*
X0574247Y0189500D03*
X0574247Y0143500D03*
X0574247Y0123500D03*
X0539747Y0123500D03*
X0539747Y0143500D03*
X0539747Y0099000D03*
X0574247Y0099000D03*
X0574247Y0079000D03*
X0539747Y0079000D03*
D18*
X0274747Y0192500D03*
X0269247Y0192500D03*
X0269247Y0198500D03*
X0274747Y0198500D03*
X0332247Y0278500D03*
X0412247Y0288500D03*
X0399747Y0326000D03*
X0367247Y0341000D03*
D19*
X0355747Y0344000D03*
X0355747Y0351500D03*
X0363247Y0359000D03*
X0279247Y0354000D03*
X0279247Y0366500D03*
X0249247Y0361500D03*
X0221747Y0361500D03*
X0249247Y0346000D03*
X0221747Y0341500D03*
X0178247Y0344000D03*
X0173247Y0351500D03*
X0165747Y0359000D03*
X0269247Y0323000D03*
X0279247Y0339000D03*
X0150747Y0281500D03*
X0158247Y0276500D03*
X0148247Y0266500D03*
X0120747Y0246500D03*
X0095747Y0244000D03*
X0100747Y0226500D03*
X0155247Y0192000D03*
X0180747Y0193500D03*
X0186747Y0201000D03*
X0186247Y0231000D03*
X0203247Y0264000D03*
X0253747Y0276500D03*
X0299247Y0264000D03*
X0329247Y0262500D03*
X0329247Y0270000D03*
X0336747Y0270000D03*
X0336747Y0262500D03*
X0493247Y0339000D03*
X0480747Y0359000D03*
X0176747Y0165000D03*
X0171747Y0162000D03*
X0180747Y0157500D03*
X0171747Y0144000D03*
X0245747Y0116500D03*
X0260747Y0122500D03*
X0245747Y0101500D03*
X0213247Y0096500D03*
X0200747Y0106500D03*
X0208247Y0111500D03*
X0280747Y0086500D03*
X0213247Y0064000D03*
X0186747Y0070500D03*
X0180747Y0064000D03*
X0148247Y0064000D03*
X0110747Y0056500D03*
X0103247Y0049000D03*
X0095747Y0041500D03*
X0120747Y0036500D03*
X0280747Y0041500D03*
X0110747Y0106500D03*
X0628247Y0026500D03*
X0640747Y0030500D03*
X0643247Y0049000D03*
D20*
X0314747Y0101500D03*
X0293747Y0135500D03*
X0296747Y0151500D03*
X0314747Y0148500D03*
X0296747Y0162500D03*
X0296747Y0173500D03*
X0292247Y0193000D03*
X0312247Y0194000D03*
X0314747Y0219000D03*
D21*
X0345747Y0231500D03*
X0359747Y0243500D03*
X0372747Y0243500D03*
X0348247Y0251500D03*
X0332947Y0245300D03*
X0300747Y0256500D03*
X0297447Y0250300D03*
X0272747Y0282000D03*
X0287447Y0285200D03*
X0253247Y0301500D03*
X0215747Y0316500D03*
X0189747Y0323500D03*
X0212247Y0334000D03*
X0203247Y0353000D03*
X0240747Y0355500D03*
X0145747Y0346500D03*
X0140747Y0356500D03*
X0118247Y0356500D03*
X0113747Y0343500D03*
X0099247Y0333000D03*
X0129247Y0330000D03*
X0128747Y0306500D03*
X0135747Y0301500D03*
X0142247Y0306000D03*
X0113247Y0307000D03*
X0078247Y0314000D03*
X0078247Y0297500D03*
X0102247Y0279000D03*
X0120747Y0261500D03*
X0185247Y0259500D03*
X0192247Y0250500D03*
X0215747Y0254000D03*
X0203247Y0270300D03*
X0208247Y0279000D03*
X0198247Y0288500D03*
X0192747Y0295500D03*
X0192747Y0304000D03*
X0160747Y0231500D03*
X0190747Y0207000D03*
X0229247Y0199500D03*
X0238247Y0199500D03*
X0238247Y0193000D03*
X0229247Y0193000D03*
X0229247Y0160500D03*
X0229247Y0153500D03*
X0238247Y0153500D03*
X0238247Y0160500D03*
X0144747Y0139500D03*
X0128247Y0153000D03*
X0125747Y0166500D03*
X0140747Y0186500D03*
X0345747Y0191500D03*
X0375747Y0191500D03*
X0405747Y0191500D03*
X0445747Y0196500D03*
X0453247Y0196500D03*
X0453247Y0189000D03*
X0460747Y0189000D03*
X0468247Y0189000D03*
X0475747Y0189000D03*
X0483247Y0189000D03*
X0483247Y0196500D03*
X0490747Y0196500D03*
X0490747Y0204000D03*
X0483247Y0204000D03*
X0483247Y0211500D03*
X0490747Y0211500D03*
X0490747Y0224000D03*
X0483247Y0224000D03*
X0483247Y0231500D03*
X0490747Y0231500D03*
X0490747Y0239000D03*
X0483247Y0239000D03*
X0475747Y0239000D03*
X0468247Y0239000D03*
X0460747Y0239000D03*
X0453247Y0239000D03*
X0445747Y0239000D03*
X0445747Y0231500D03*
X0445747Y0224000D03*
X0453247Y0224000D03*
X0453247Y0231500D03*
X0460747Y0246500D03*
X0468247Y0246500D03*
X0475747Y0246500D03*
X0453247Y0211500D03*
X0445747Y0211500D03*
X0445747Y0204000D03*
X0453247Y0204000D03*
X0460747Y0181500D03*
X0468247Y0181500D03*
X0475747Y0181500D03*
X0405747Y0161500D03*
X0375747Y0161500D03*
X0345747Y0161500D03*
X0345747Y0131500D03*
X0375747Y0131500D03*
X0405747Y0131500D03*
X0435747Y0131500D03*
X0435747Y0101500D03*
X0413247Y0087000D03*
X0418247Y0082000D03*
X0416997Y0075250D03*
X0405997Y0071750D03*
X0360747Y0064000D03*
X0345747Y0071500D03*
X0334747Y0077500D03*
X0345747Y0101500D03*
X0375747Y0101500D03*
X0405747Y0101500D03*
X0258247Y0044000D03*
X0239747Y0050500D03*
X0258247Y0032500D03*
X0140747Y0076500D03*
X0115747Y0096500D03*
X0078247Y0074500D03*
X0078247Y0058000D03*
X0375747Y0231500D03*
X0405747Y0231500D03*
X0510747Y0366500D03*
X0605747Y0047000D03*
X0628247Y0019000D03*
D22*
X0073247Y0006500D02*
X0065747Y0014000D01*
X0065747Y0379000D01*
X0073247Y0386500D01*
X0728247Y0386500D01*
X0735747Y0379000D01*
X0735747Y0014000D01*
X0728247Y0006500D01*
X0073247Y0006500D01*
X0073041Y0006706D02*
X0728453Y0006706D01*
X0729652Y0007904D02*
X0071843Y0007904D01*
X0070644Y0009103D02*
X0730850Y0009103D01*
X0732049Y0010301D02*
X0069446Y0010301D01*
X0068247Y0011500D02*
X0733247Y0011500D01*
X0734446Y0012699D02*
X0716771Y0012699D01*
X0716279Y0012494D02*
X0719589Y0013865D01*
X0722122Y0016399D01*
X0723493Y0019709D01*
X0723493Y0023291D01*
X0722122Y0026601D01*
X0719589Y0029134D01*
X0716279Y0030505D01*
X0712696Y0030505D01*
X0709386Y0029134D01*
X0706853Y0026601D01*
X0705482Y0023291D01*
X0705482Y0019709D01*
X0706853Y0016399D01*
X0709386Y0013865D01*
X0712696Y0012494D01*
X0716279Y0012494D01*
X0719620Y0013897D02*
X0735644Y0013897D01*
X0735747Y0015096D02*
X0720819Y0015096D01*
X0722017Y0016294D02*
X0735747Y0016294D01*
X0735747Y0017493D02*
X0722575Y0017493D01*
X0723072Y0018691D02*
X0735747Y0018691D01*
X0735747Y0019890D02*
X0723493Y0019890D01*
X0723493Y0021088D02*
X0735747Y0021088D01*
X0735747Y0022287D02*
X0723493Y0022287D01*
X0723413Y0023485D02*
X0735747Y0023485D01*
X0735747Y0024684D02*
X0722916Y0024684D01*
X0722420Y0025882D02*
X0735747Y0025882D01*
X0735747Y0027081D02*
X0721643Y0027081D01*
X0720444Y0028279D02*
X0735747Y0028279D01*
X0735747Y0029478D02*
X0718760Y0029478D01*
X0710215Y0029478D02*
X0688477Y0029478D01*
X0687777Y0029768D02*
X0690514Y0028634D01*
X0692881Y0026267D01*
X0694162Y0023174D01*
X0694162Y0019826D01*
X0692881Y0016733D01*
X0690514Y0014366D01*
X0687421Y0013085D01*
X0684074Y0013085D01*
X0680981Y0014366D01*
X0678614Y0016733D01*
X0677332Y0019826D01*
X0677332Y0023174D01*
X0678614Y0026267D01*
X0680981Y0028634D01*
X0683718Y0029768D01*
X0680981Y0030902D01*
X0678614Y0033269D01*
X0677332Y0036362D01*
X0677332Y0039709D01*
X0678614Y0042802D01*
X0680981Y0045169D01*
X0683718Y0046303D01*
X0680981Y0047437D01*
X0678614Y0049804D01*
X0677332Y0052897D01*
X0677332Y0056245D01*
X0678614Y0059338D01*
X0680981Y0061705D01*
X0684074Y0062986D01*
X0687421Y0062986D01*
X0690514Y0061705D01*
X0692881Y0059338D01*
X0694162Y0056245D01*
X0694162Y0052897D01*
X0692881Y0049804D01*
X0690514Y0047437D01*
X0687777Y0046303D01*
X0690514Y0045169D01*
X0692881Y0042802D01*
X0694162Y0039709D01*
X0694162Y0036362D01*
X0692881Y0033269D01*
X0690514Y0030902D01*
X0687777Y0029768D01*
X0689970Y0030676D02*
X0735747Y0030676D01*
X0735747Y0031875D02*
X0691487Y0031875D01*
X0692686Y0033073D02*
X0735747Y0033073D01*
X0735747Y0034272D02*
X0693297Y0034272D01*
X0693793Y0035470D02*
X0735747Y0035470D01*
X0735747Y0036669D02*
X0694162Y0036669D01*
X0694162Y0037867D02*
X0735747Y0037867D01*
X0735747Y0039066D02*
X0694162Y0039066D01*
X0693933Y0040264D02*
X0735747Y0040264D01*
X0735747Y0041463D02*
X0693436Y0041463D01*
X0692940Y0042661D02*
X0735747Y0042661D01*
X0735747Y0043860D02*
X0691824Y0043860D01*
X0690625Y0045058D02*
X0735747Y0045058D01*
X0735747Y0046257D02*
X0717948Y0046257D01*
X0719589Y0046936D02*
X0716279Y0045565D01*
X0712696Y0045565D01*
X0709386Y0046936D01*
X0706853Y0049470D01*
X0705482Y0052780D01*
X0705482Y0056362D01*
X0706853Y0059672D01*
X0709386Y0062205D01*
X0712696Y0063576D01*
X0716279Y0063576D01*
X0719589Y0062205D01*
X0722122Y0059672D01*
X0723493Y0056362D01*
X0723493Y0052780D01*
X0722122Y0049470D01*
X0719589Y0046936D01*
X0720108Y0047455D02*
X0735747Y0047455D01*
X0735747Y0048654D02*
X0721306Y0048654D01*
X0722281Y0049852D02*
X0735747Y0049852D01*
X0735747Y0051051D02*
X0722777Y0051051D01*
X0723273Y0052249D02*
X0735747Y0052249D01*
X0735747Y0053448D02*
X0723493Y0053448D01*
X0723493Y0054646D02*
X0735747Y0054646D01*
X0735747Y0055845D02*
X0723493Y0055845D01*
X0723211Y0057043D02*
X0735747Y0057043D01*
X0735747Y0058242D02*
X0722714Y0058242D01*
X0722218Y0059440D02*
X0735747Y0059440D01*
X0735747Y0060639D02*
X0721155Y0060639D01*
X0719957Y0061837D02*
X0735747Y0061837D01*
X0735747Y0063036D02*
X0717584Y0063036D01*
X0711392Y0063036D02*
X0630016Y0063036D01*
X0628884Y0061904D02*
X0634780Y0067800D01*
X0658983Y0067800D01*
X0660343Y0068363D01*
X0661384Y0069404D01*
X0676904Y0084924D01*
X0675925Y0083228D01*
X0675175Y0080429D01*
X0675175Y0077531D01*
X0675925Y0074732D01*
X0677374Y0072223D01*
X0679423Y0070174D01*
X0681933Y0068725D01*
X0684732Y0067975D01*
X0687629Y0067975D01*
X0690428Y0068725D01*
X0692938Y0070174D01*
X0694987Y0072223D01*
X0696436Y0074732D01*
X0697186Y0077531D01*
X0697186Y0080429D01*
X0696436Y0083228D01*
X0694987Y0085738D01*
X0692938Y0087787D01*
X0690428Y0089236D01*
X0687629Y0089986D01*
X0684732Y0089986D01*
X0681933Y0089236D01*
X0679423Y0087787D01*
X0679127Y0087491D01*
X0679447Y0088264D01*
X0679447Y0112236D01*
X0678884Y0113596D01*
X0677843Y0114637D01*
X0673480Y0119000D01*
X0673884Y0119404D01*
X0678884Y0124404D01*
X0679447Y0125764D01*
X0679447Y0152236D01*
X0678884Y0153596D01*
X0677843Y0154637D01*
X0670343Y0162137D01*
X0669476Y0162496D01*
X0677843Y0170863D01*
X0678884Y0171904D01*
X0679447Y0173264D01*
X0679447Y0189736D01*
X0678884Y0191096D01*
X0677843Y0192137D01*
X0661384Y0208596D01*
X0660343Y0209637D01*
X0658983Y0210200D01*
X0512511Y0210200D01*
X0511152Y0209637D01*
X0479215Y0177700D01*
X0462511Y0177700D01*
X0461152Y0177137D01*
X0456152Y0172137D01*
X0456152Y0172137D01*
X0455111Y0171096D01*
X0454547Y0169736D01*
X0454547Y0145764D01*
X0455111Y0144404D01*
X0455515Y0144000D01*
X0455111Y0143596D01*
X0454547Y0142236D01*
X0454547Y0120764D01*
X0455111Y0119404D01*
X0455515Y0119000D01*
X0455111Y0118596D01*
X0454547Y0117236D01*
X0454547Y0080764D01*
X0455111Y0079404D01*
X0456152Y0078363D01*
X0473652Y0060863D01*
X0475011Y0060300D01*
X0626483Y0060300D01*
X0627843Y0060863D01*
X0628884Y0061904D01*
X0628818Y0061837D02*
X0659648Y0061837D01*
X0659327Y0061705D02*
X0656960Y0059338D01*
X0655679Y0056245D01*
X0655679Y0052897D01*
X0656960Y0049804D01*
X0659327Y0047437D01*
X0662420Y0046156D01*
X0665768Y0046156D01*
X0668861Y0047437D01*
X0671228Y0049804D01*
X0672509Y0052897D01*
X0672509Y0056245D01*
X0671228Y0059338D01*
X0668861Y0061705D01*
X0665768Y0062986D01*
X0662420Y0062986D01*
X0659327Y0061705D01*
X0658261Y0060639D02*
X0627302Y0060639D01*
X0625747Y0064000D02*
X0475747Y0064000D01*
X0458247Y0081500D01*
X0458247Y0116500D01*
X0485747Y0116500D01*
X0493247Y0109000D01*
X0608247Y0109000D01*
X0615747Y0116500D01*
X0670747Y0116500D01*
X0675747Y0111500D01*
X0675747Y0089000D01*
X0658247Y0071500D01*
X0633247Y0071500D01*
X0625747Y0064000D01*
X0625982Y0064234D02*
X0475513Y0064234D01*
X0474314Y0065433D02*
X0627180Y0065433D01*
X0628379Y0066632D02*
X0473116Y0066632D01*
X0471917Y0067830D02*
X0629577Y0067830D01*
X0630776Y0069029D02*
X0470719Y0069029D01*
X0469520Y0070227D02*
X0631974Y0070227D01*
X0633173Y0071426D02*
X0468322Y0071426D01*
X0467123Y0072624D02*
X0659372Y0072624D01*
X0660570Y0073823D02*
X0465925Y0073823D01*
X0464726Y0075021D02*
X0661769Y0075021D01*
X0662967Y0076220D02*
X0463528Y0076220D01*
X0462329Y0077418D02*
X0664166Y0077418D01*
X0665364Y0078617D02*
X0461131Y0078617D01*
X0459932Y0079815D02*
X0666563Y0079815D01*
X0667761Y0081014D02*
X0458734Y0081014D01*
X0458247Y0082212D02*
X0668960Y0082212D01*
X0670158Y0083411D02*
X0458247Y0083411D01*
X0458247Y0084609D02*
X0671357Y0084609D01*
X0672555Y0085808D02*
X0458247Y0085808D01*
X0458247Y0087006D02*
X0673754Y0087006D01*
X0674952Y0088205D02*
X0458247Y0088205D01*
X0458247Y0089403D02*
X0675747Y0089403D01*
X0675747Y0090602D02*
X0458247Y0090602D01*
X0458247Y0091800D02*
X0675747Y0091800D01*
X0675747Y0092999D02*
X0575699Y0092999D01*
X0575461Y0092900D02*
X0577703Y0093829D01*
X0579419Y0095545D01*
X0580347Y0097787D01*
X0580347Y0100213D01*
X0579419Y0102455D01*
X0577703Y0104171D01*
X0575461Y0105100D01*
X0573034Y0105100D01*
X0570792Y0104171D01*
X0569076Y0102455D01*
X0568147Y0100213D01*
X0568147Y0097787D01*
X0569076Y0095545D01*
X0570792Y0093829D01*
X0573034Y0092900D01*
X0575461Y0092900D01*
X0572796Y0092999D02*
X0541199Y0092999D01*
X0540961Y0092900D02*
X0543203Y0093829D01*
X0544919Y0095545D01*
X0545847Y0097787D01*
X0545847Y0100213D01*
X0544919Y0102455D01*
X0543203Y0104171D01*
X0540961Y0105100D01*
X0538534Y0105100D01*
X0536292Y0104171D01*
X0534576Y0102455D01*
X0533647Y0100213D01*
X0533647Y0097787D01*
X0534576Y0095545D01*
X0536292Y0093829D01*
X0538534Y0092900D01*
X0540961Y0092900D01*
X0538296Y0092999D02*
X0458247Y0092999D01*
X0458247Y0094197D02*
X0535923Y0094197D01*
X0534725Y0095396D02*
X0458247Y0095396D01*
X0458247Y0096594D02*
X0534141Y0096594D01*
X0533647Y0097793D02*
X0458247Y0097793D01*
X0458247Y0098991D02*
X0533647Y0098991D01*
X0533647Y0100190D02*
X0458247Y0100190D01*
X0458247Y0101388D02*
X0534134Y0101388D01*
X0534708Y0102587D02*
X0458247Y0102587D01*
X0458247Y0103785D02*
X0535906Y0103785D01*
X0538254Y0104984D02*
X0458247Y0104984D01*
X0458247Y0106182D02*
X0675747Y0106182D01*
X0675747Y0104984D02*
X0575741Y0104984D01*
X0578089Y0103785D02*
X0675747Y0103785D01*
X0675747Y0102587D02*
X0579287Y0102587D01*
X0579861Y0101388D02*
X0675747Y0101388D01*
X0675747Y0100190D02*
X0580347Y0100190D01*
X0580347Y0098991D02*
X0675747Y0098991D01*
X0675747Y0097793D02*
X0580347Y0097793D01*
X0579854Y0096594D02*
X0675747Y0096594D01*
X0675747Y0095396D02*
X0579270Y0095396D01*
X0578071Y0094197D02*
X0675747Y0094197D01*
X0679447Y0094197D02*
X0735747Y0094197D01*
X0735747Y0092999D02*
X0679447Y0092999D01*
X0679447Y0091800D02*
X0735747Y0091800D01*
X0735747Y0090602D02*
X0679447Y0090602D01*
X0679447Y0089403D02*
X0682557Y0089403D01*
X0680147Y0088205D02*
X0679423Y0088205D01*
X0676722Y0084609D02*
X0676589Y0084609D01*
X0676030Y0083411D02*
X0675391Y0083411D01*
X0675653Y0082212D02*
X0674192Y0082212D01*
X0675332Y0081014D02*
X0672994Y0081014D01*
X0671795Y0079815D02*
X0675175Y0079815D01*
X0675175Y0078617D02*
X0670597Y0078617D01*
X0669398Y0077418D02*
X0675205Y0077418D01*
X0675526Y0076220D02*
X0668200Y0076220D01*
X0667001Y0075021D02*
X0675848Y0075021D01*
X0676450Y0073823D02*
X0665803Y0073823D01*
X0664604Y0072624D02*
X0677142Y0072624D01*
X0678171Y0071426D02*
X0663406Y0071426D01*
X0662207Y0070227D02*
X0679370Y0070227D01*
X0681406Y0069029D02*
X0661009Y0069029D01*
X0659056Y0067830D02*
X0735747Y0067830D01*
X0735747Y0066632D02*
X0633612Y0066632D01*
X0632413Y0065433D02*
X0735747Y0065433D01*
X0735747Y0064234D02*
X0631215Y0064234D01*
X0640415Y0053239D02*
X0639009Y0051832D01*
X0638247Y0049995D01*
X0638247Y0048005D01*
X0639009Y0046168D01*
X0640415Y0044761D01*
X0642253Y0044000D01*
X0644242Y0044000D01*
X0646080Y0044761D01*
X0647486Y0046168D01*
X0648247Y0048005D01*
X0648247Y0049995D01*
X0647486Y0051832D01*
X0646080Y0053239D01*
X0644242Y0054000D01*
X0642253Y0054000D01*
X0640415Y0053239D01*
X0640920Y0053448D02*
X0114766Y0053448D01*
X0114986Y0053668D02*
X0115747Y0055505D01*
X0115747Y0057495D01*
X0114986Y0059332D01*
X0113580Y0060739D01*
X0111742Y0061500D01*
X0109753Y0061500D01*
X0107915Y0060739D01*
X0106509Y0059332D01*
X0105747Y0057495D01*
X0105747Y0055505D01*
X0106509Y0053668D01*
X0107915Y0052261D01*
X0109753Y0051500D01*
X0111742Y0051500D01*
X0113580Y0052261D01*
X0114986Y0053668D01*
X0115392Y0054646D02*
X0655679Y0054646D01*
X0655679Y0053448D02*
X0645575Y0053448D01*
X0647069Y0052249D02*
X0655947Y0052249D01*
X0656444Y0051051D02*
X0647810Y0051051D01*
X0648247Y0049852D02*
X0656940Y0049852D01*
X0658110Y0048654D02*
X0648247Y0048654D01*
X0648020Y0047455D02*
X0659309Y0047455D01*
X0662176Y0046257D02*
X0647523Y0046257D01*
X0646377Y0045058D02*
X0680870Y0045058D01*
X0679671Y0043860D02*
X0667836Y0043860D01*
X0667944Y0043797D02*
X0667159Y0044251D01*
X0666321Y0044597D01*
X0665446Y0044832D01*
X0664694Y0044931D01*
X0664694Y0038635D01*
X0670990Y0038635D01*
X0670891Y0039387D01*
X0670656Y0040263D01*
X0670309Y0041100D01*
X0669856Y0041885D01*
X0669304Y0042605D01*
X0668663Y0043246D01*
X0667944Y0043797D01*
X0669247Y0042661D02*
X0678555Y0042661D01*
X0678059Y0041463D02*
X0670100Y0041463D01*
X0670655Y0040264D02*
X0677562Y0040264D01*
X0677332Y0039066D02*
X0670933Y0039066D01*
X0670990Y0037435D02*
X0664694Y0037435D01*
X0664694Y0031140D01*
X0665446Y0031239D01*
X0666321Y0031473D01*
X0667159Y0031820D01*
X0667944Y0032274D01*
X0668663Y0032825D01*
X0669304Y0033466D01*
X0669856Y0034185D01*
X0670309Y0034970D01*
X0670656Y0035808D01*
X0670891Y0036683D01*
X0670990Y0037435D01*
X0670887Y0036669D02*
X0677332Y0036669D01*
X0677332Y0037867D02*
X0664694Y0037867D01*
X0664694Y0037435D02*
X0664694Y0038635D01*
X0663494Y0038635D01*
X0663494Y0037435D01*
X0664694Y0037435D01*
X0664694Y0036669D02*
X0663494Y0036669D01*
X0663494Y0037435D02*
X0663494Y0031140D01*
X0662742Y0031239D01*
X0661866Y0031473D01*
X0661029Y0031820D01*
X0660244Y0032274D01*
X0659525Y0032825D01*
X0658884Y0033466D01*
X0658332Y0034185D01*
X0657879Y0034970D01*
X0657532Y0035808D01*
X0657297Y0036683D01*
X0657198Y0037435D01*
X0663494Y0037435D01*
X0663494Y0037867D02*
X0572147Y0037867D01*
X0572147Y0038001D02*
X0571370Y0040900D01*
X0569869Y0043499D01*
X0567747Y0045622D01*
X0565147Y0047122D01*
X0562248Y0047899D01*
X0559247Y0047899D01*
X0556348Y0047122D01*
X0553748Y0045622D01*
X0551626Y0043499D01*
X0550125Y0040900D01*
X0549348Y0038001D01*
X0549348Y0034999D01*
X0550125Y0032100D01*
X0551626Y0029501D01*
X0553748Y0027378D01*
X0556348Y0025878D01*
X0559247Y0025101D01*
X0562248Y0025101D01*
X0565147Y0025878D01*
X0567747Y0027378D01*
X0569869Y0029501D01*
X0571370Y0032100D01*
X0572147Y0034999D01*
X0572147Y0038001D01*
X0571861Y0039066D02*
X0657255Y0039066D01*
X0657297Y0039387D02*
X0657198Y0038635D01*
X0663494Y0038635D01*
X0663494Y0044931D01*
X0662742Y0044832D01*
X0661866Y0044597D01*
X0661029Y0044251D01*
X0660244Y0043797D01*
X0659525Y0043246D01*
X0658884Y0042605D01*
X0658332Y0041885D01*
X0657879Y0041100D01*
X0657532Y0040263D01*
X0657297Y0039387D01*
X0657532Y0040264D02*
X0571540Y0040264D01*
X0571045Y0041463D02*
X0658088Y0041463D01*
X0658941Y0042661D02*
X0570353Y0042661D01*
X0569509Y0043860D02*
X0660352Y0043860D01*
X0663494Y0043860D02*
X0664694Y0043860D01*
X0664694Y0042661D02*
X0663494Y0042661D01*
X0663494Y0041463D02*
X0664694Y0041463D01*
X0664694Y0040264D02*
X0663494Y0040264D01*
X0663494Y0039066D02*
X0664694Y0039066D01*
X0664694Y0035470D02*
X0663494Y0035470D01*
X0663494Y0034272D02*
X0664694Y0034272D01*
X0664694Y0033073D02*
X0663494Y0033073D01*
X0663494Y0031875D02*
X0664694Y0031875D01*
X0665768Y0029915D02*
X0662420Y0029915D01*
X0659327Y0028634D01*
X0656960Y0026267D01*
X0655679Y0023174D01*
X0655679Y0019826D01*
X0656960Y0016733D01*
X0659327Y0014366D01*
X0662420Y0013085D01*
X0665768Y0013085D01*
X0668861Y0014366D01*
X0671228Y0016733D01*
X0672509Y0019826D01*
X0672509Y0023174D01*
X0671228Y0026267D01*
X0668861Y0028634D01*
X0665768Y0029915D01*
X0666823Y0029478D02*
X0683018Y0029478D01*
X0681525Y0030676D02*
X0645747Y0030676D01*
X0645747Y0031495D02*
X0644986Y0033332D01*
X0643580Y0034739D01*
X0641742Y0035500D01*
X0639753Y0035500D01*
X0637915Y0034739D01*
X0636509Y0033332D01*
X0635747Y0031495D01*
X0635747Y0029505D01*
X0636509Y0027668D01*
X0637915Y0026261D01*
X0639753Y0025500D01*
X0641742Y0025500D01*
X0643580Y0026261D01*
X0644986Y0027668D01*
X0645747Y0029505D01*
X0645747Y0031495D01*
X0645590Y0031875D02*
X0660935Y0031875D01*
X0659277Y0033073D02*
X0645094Y0033073D01*
X0644047Y0034272D02*
X0658282Y0034272D01*
X0657672Y0035470D02*
X0641814Y0035470D01*
X0639681Y0035470D02*
X0572147Y0035470D01*
X0572147Y0036669D02*
X0657301Y0036669D01*
X0667253Y0031875D02*
X0680008Y0031875D01*
X0678809Y0033073D02*
X0668911Y0033073D01*
X0669906Y0034272D02*
X0678198Y0034272D01*
X0677702Y0035470D02*
X0670516Y0035470D01*
X0669215Y0028279D02*
X0680626Y0028279D01*
X0679428Y0027081D02*
X0670414Y0027081D01*
X0671387Y0025882D02*
X0678454Y0025882D01*
X0677958Y0024684D02*
X0671883Y0024684D01*
X0672380Y0023485D02*
X0677461Y0023485D01*
X0677332Y0022287D02*
X0672509Y0022287D01*
X0672509Y0021088D02*
X0677332Y0021088D01*
X0677332Y0019890D02*
X0672509Y0019890D01*
X0672039Y0018691D02*
X0677803Y0018691D01*
X0678299Y0017493D02*
X0671542Y0017493D01*
X0670788Y0016294D02*
X0679053Y0016294D01*
X0680251Y0015096D02*
X0669590Y0015096D01*
X0667728Y0013897D02*
X0682113Y0013897D01*
X0689382Y0013897D02*
X0709355Y0013897D01*
X0708156Y0015096D02*
X0691244Y0015096D01*
X0692442Y0016294D02*
X0706958Y0016294D01*
X0706400Y0017493D02*
X0693196Y0017493D01*
X0693692Y0018691D02*
X0705904Y0018691D01*
X0705482Y0019890D02*
X0694162Y0019890D01*
X0694162Y0021088D02*
X0705482Y0021088D01*
X0705482Y0022287D02*
X0694162Y0022287D01*
X0694033Y0023485D02*
X0705562Y0023485D01*
X0706059Y0024684D02*
X0693537Y0024684D01*
X0693041Y0025882D02*
X0706555Y0025882D01*
X0707333Y0027081D02*
X0692067Y0027081D01*
X0690869Y0028279D02*
X0708531Y0028279D01*
X0712204Y0012699D02*
X0067049Y0012699D01*
X0065850Y0013897D02*
X0660460Y0013897D01*
X0658598Y0015096D02*
X0065747Y0015096D01*
X0065747Y0016294D02*
X0657399Y0016294D01*
X0656646Y0017493D02*
X0065747Y0017493D01*
X0065747Y0018691D02*
X0656149Y0018691D01*
X0655679Y0019890D02*
X0065747Y0019890D01*
X0065747Y0021088D02*
X0655679Y0021088D01*
X0655679Y0022287D02*
X0631105Y0022287D01*
X0631080Y0022261D02*
X0632486Y0023668D01*
X0633247Y0025505D01*
X0633247Y0027495D01*
X0632486Y0029332D01*
X0631080Y0030739D01*
X0629242Y0031500D01*
X0627253Y0031500D01*
X0625415Y0030739D01*
X0624009Y0029332D01*
X0623247Y0027495D01*
X0623247Y0025505D01*
X0624009Y0023668D01*
X0625415Y0022261D01*
X0627253Y0021500D01*
X0629242Y0021500D01*
X0631080Y0022261D01*
X0632304Y0023485D02*
X0655808Y0023485D01*
X0656304Y0024684D02*
X0632907Y0024684D01*
X0633247Y0025882D02*
X0638830Y0025882D01*
X0637096Y0027081D02*
X0633247Y0027081D01*
X0632922Y0028279D02*
X0636255Y0028279D01*
X0635759Y0029478D02*
X0632341Y0029478D01*
X0631142Y0030676D02*
X0635747Y0030676D01*
X0635905Y0031875D02*
X0571240Y0031875D01*
X0571631Y0033073D02*
X0636401Y0033073D01*
X0637448Y0034272D02*
X0571952Y0034272D01*
X0570548Y0030676D02*
X0625353Y0030676D01*
X0624154Y0029478D02*
X0569846Y0029478D01*
X0568648Y0028279D02*
X0623572Y0028279D01*
X0623247Y0027081D02*
X0567231Y0027081D01*
X0565155Y0025882D02*
X0623247Y0025882D01*
X0623588Y0024684D02*
X0065747Y0024684D01*
X0065747Y0025882D02*
X0216340Y0025882D01*
X0216348Y0025878D02*
X0219247Y0025101D01*
X0222248Y0025101D01*
X0225147Y0025878D01*
X0227747Y0027378D01*
X0229869Y0029501D01*
X0231370Y0032100D01*
X0232147Y0034999D01*
X0232147Y0038001D01*
X0231370Y0040900D01*
X0229869Y0043499D01*
X0227747Y0045622D01*
X0225147Y0047122D01*
X0222248Y0047899D01*
X0219247Y0047899D01*
X0216348Y0047122D01*
X0213748Y0045622D01*
X0211626Y0043499D01*
X0210125Y0040900D01*
X0209348Y0038001D01*
X0209348Y0034999D01*
X0210125Y0032100D01*
X0211626Y0029501D01*
X0213748Y0027378D01*
X0216348Y0025878D01*
X0214264Y0027081D02*
X0065747Y0027081D01*
X0065747Y0028279D02*
X0212847Y0028279D01*
X0211649Y0029478D02*
X0065747Y0029478D01*
X0065747Y0030676D02*
X0210947Y0030676D01*
X0210255Y0031875D02*
X0122647Y0031875D01*
X0121742Y0031500D02*
X0123580Y0032261D01*
X0124986Y0033668D01*
X0125747Y0035505D01*
X0125747Y0037495D01*
X0124986Y0039332D01*
X0123580Y0040739D01*
X0121742Y0041500D01*
X0119753Y0041500D01*
X0117915Y0040739D01*
X0116509Y0039332D01*
X0115747Y0037495D01*
X0115747Y0035505D01*
X0116509Y0033668D01*
X0117915Y0032261D01*
X0119753Y0031500D01*
X0121742Y0031500D01*
X0118848Y0031875D02*
X0065747Y0031875D01*
X0065747Y0033073D02*
X0117103Y0033073D01*
X0116258Y0034272D02*
X0065747Y0034272D01*
X0065747Y0035470D02*
X0115762Y0035470D01*
X0115747Y0036669D02*
X0097149Y0036669D01*
X0096742Y0036500D02*
X0098580Y0037261D01*
X0099986Y0038668D01*
X0100747Y0040505D01*
X0100747Y0042495D01*
X0099986Y0044332D01*
X0098580Y0045739D01*
X0096742Y0046500D01*
X0094753Y0046500D01*
X0092915Y0045739D01*
X0091509Y0044332D01*
X0090747Y0042495D01*
X0090747Y0040505D01*
X0091509Y0038668D01*
X0092915Y0037261D01*
X0094753Y0036500D01*
X0096742Y0036500D01*
X0094345Y0036669D02*
X0065747Y0036669D01*
X0065747Y0037867D02*
X0092309Y0037867D01*
X0091344Y0039066D02*
X0065747Y0039066D01*
X0065747Y0040264D02*
X0090847Y0040264D01*
X0090747Y0041463D02*
X0065747Y0041463D01*
X0065747Y0042661D02*
X0090817Y0042661D01*
X0091313Y0043860D02*
X0065747Y0043860D01*
X0065747Y0045058D02*
X0092235Y0045058D01*
X0094166Y0046257D02*
X0065747Y0046257D01*
X0065747Y0047455D02*
X0098475Y0047455D01*
X0098247Y0048005D02*
X0099009Y0046168D01*
X0100415Y0044761D01*
X0102253Y0044000D01*
X0104242Y0044000D01*
X0106080Y0044761D01*
X0107486Y0046168D01*
X0108247Y0048005D01*
X0108247Y0049995D01*
X0107486Y0051832D01*
X0106080Y0053239D01*
X0104242Y0054000D01*
X0102253Y0054000D01*
X0100415Y0053239D01*
X0099009Y0051832D01*
X0098247Y0049995D01*
X0098247Y0048005D01*
X0098247Y0048654D02*
X0065747Y0048654D01*
X0065747Y0049852D02*
X0098247Y0049852D01*
X0098685Y0051051D02*
X0065747Y0051051D01*
X0065747Y0052249D02*
X0099426Y0052249D01*
X0100920Y0053448D02*
X0065747Y0053448D01*
X0065747Y0054646D02*
X0106103Y0054646D01*
X0105747Y0055845D02*
X0065747Y0055845D01*
X0065747Y0057043D02*
X0105747Y0057043D01*
X0106057Y0058242D02*
X0065747Y0058242D01*
X0065747Y0059440D02*
X0106617Y0059440D01*
X0107815Y0060639D02*
X0065747Y0060639D01*
X0065747Y0061837D02*
X0143731Y0061837D01*
X0144009Y0061168D02*
X0145415Y0059761D01*
X0147253Y0059000D01*
X0149242Y0059000D01*
X0151080Y0059761D01*
X0152486Y0061168D01*
X0153247Y0063005D01*
X0153247Y0064995D01*
X0152486Y0066832D01*
X0151080Y0068239D01*
X0149242Y0069000D01*
X0147253Y0069000D01*
X0145415Y0068239D01*
X0144009Y0066832D01*
X0143247Y0064995D01*
X0143247Y0063005D01*
X0144009Y0061168D01*
X0144537Y0060639D02*
X0113680Y0060639D01*
X0114878Y0059440D02*
X0146190Y0059440D01*
X0150305Y0059440D02*
X0178690Y0059440D01*
X0177915Y0059761D02*
X0179753Y0059000D01*
X0181742Y0059000D01*
X0183580Y0059761D01*
X0184986Y0061168D01*
X0185747Y0063005D01*
X0185747Y0064995D01*
X0185494Y0065607D01*
X0185753Y0065500D01*
X0187742Y0065500D01*
X0189580Y0066261D01*
X0190986Y0067668D01*
X0191747Y0069505D01*
X0191747Y0071495D01*
X0190986Y0073332D01*
X0189580Y0074739D01*
X0187742Y0075500D01*
X0185753Y0075500D01*
X0183915Y0074739D01*
X0182509Y0073332D01*
X0181747Y0071495D01*
X0181747Y0069505D01*
X0182001Y0068893D01*
X0181742Y0069000D01*
X0179753Y0069000D01*
X0177915Y0068239D01*
X0176509Y0066832D01*
X0175747Y0064995D01*
X0175747Y0063005D01*
X0176509Y0061168D01*
X0177915Y0059761D01*
X0177037Y0060639D02*
X0151957Y0060639D01*
X0152764Y0061837D02*
X0176231Y0061837D01*
X0175747Y0063036D02*
X0153247Y0063036D01*
X0153247Y0064234D02*
X0175747Y0064234D01*
X0175929Y0065433D02*
X0153066Y0065433D01*
X0152569Y0066632D02*
X0176426Y0066632D01*
X0177506Y0067830D02*
X0151488Y0067830D01*
X0145006Y0067830D02*
X0065747Y0067830D01*
X0065747Y0066632D02*
X0143926Y0066632D01*
X0143429Y0065433D02*
X0065747Y0065433D01*
X0065747Y0064234D02*
X0143247Y0064234D01*
X0143247Y0063036D02*
X0065747Y0063036D01*
X0065747Y0069029D02*
X0181945Y0069029D01*
X0181747Y0070227D02*
X0065747Y0070227D01*
X0065747Y0071426D02*
X0139671Y0071426D01*
X0139733Y0071400D02*
X0141762Y0071400D01*
X0143636Y0072176D01*
X0145071Y0073611D01*
X0145847Y0075486D01*
X0145847Y0077514D01*
X0145071Y0079389D01*
X0143636Y0080824D01*
X0141762Y0081600D01*
X0139733Y0081600D01*
X0137859Y0080824D01*
X0136424Y0079389D01*
X0135647Y0077514D01*
X0135647Y0075486D01*
X0136424Y0073611D01*
X0137859Y0072176D01*
X0139733Y0071400D01*
X0141824Y0071426D02*
X0181747Y0071426D01*
X0182215Y0072624D02*
X0144084Y0072624D01*
X0145159Y0073823D02*
X0182999Y0073823D01*
X0184597Y0075021D02*
X0145655Y0075021D01*
X0145847Y0076220D02*
X0329758Y0076220D01*
X0329647Y0076486D02*
X0330424Y0074611D01*
X0331859Y0073176D01*
X0333733Y0072400D01*
X0335762Y0072400D01*
X0337636Y0073176D01*
X0339071Y0074611D01*
X0339847Y0076486D01*
X0339847Y0078514D01*
X0339071Y0080389D01*
X0337636Y0081824D01*
X0335762Y0082600D01*
X0333733Y0082600D01*
X0331859Y0081824D01*
X0330424Y0080389D01*
X0329647Y0078514D01*
X0329647Y0076486D01*
X0329647Y0077418D02*
X0145847Y0077418D01*
X0145391Y0078617D02*
X0329690Y0078617D01*
X0330186Y0079815D02*
X0144645Y0079815D01*
X0143177Y0081014D02*
X0331049Y0081014D01*
X0332797Y0082212D02*
X0283461Y0082212D01*
X0283580Y0082261D02*
X0284986Y0083668D01*
X0285747Y0085505D01*
X0285747Y0087495D01*
X0284986Y0089332D01*
X0283580Y0090739D01*
X0281742Y0091500D01*
X0279753Y0091500D01*
X0277915Y0090739D01*
X0276509Y0089332D01*
X0275747Y0087495D01*
X0275747Y0085505D01*
X0276509Y0083668D01*
X0277915Y0082261D01*
X0279753Y0081500D01*
X0281742Y0081500D01*
X0283580Y0082261D01*
X0284729Y0083411D02*
X0409624Y0083411D01*
X0408924Y0084111D02*
X0410359Y0082676D01*
X0412233Y0081900D01*
X0414262Y0081900D01*
X0416136Y0082676D01*
X0417571Y0084111D01*
X0418347Y0085986D01*
X0418347Y0088014D01*
X0417571Y0089889D01*
X0416136Y0091324D01*
X0414262Y0092100D01*
X0412233Y0092100D01*
X0410359Y0091324D01*
X0408924Y0089889D01*
X0408147Y0088014D01*
X0408147Y0085986D01*
X0408924Y0084111D01*
X0408718Y0084609D02*
X0285376Y0084609D01*
X0285747Y0085808D02*
X0408221Y0085808D01*
X0408147Y0087006D02*
X0285747Y0087006D01*
X0285453Y0088205D02*
X0408226Y0088205D01*
X0408723Y0089403D02*
X0284915Y0089403D01*
X0283717Y0090602D02*
X0409637Y0090602D01*
X0411509Y0091800D02*
X0214967Y0091800D01*
X0214242Y0091500D02*
X0216080Y0092261D01*
X0217486Y0093668D01*
X0218247Y0095505D01*
X0218247Y0097495D01*
X0217486Y0099332D01*
X0216080Y0100739D01*
X0214242Y0101500D01*
X0212253Y0101500D01*
X0210415Y0100739D01*
X0209009Y0099332D01*
X0208247Y0097495D01*
X0208247Y0095505D01*
X0209009Y0093668D01*
X0210415Y0092261D01*
X0212253Y0091500D01*
X0214242Y0091500D01*
X0211528Y0091800D02*
X0117728Y0091800D01*
X0118636Y0092176D02*
X0120071Y0093611D01*
X0120847Y0095486D01*
X0120847Y0097514D01*
X0120071Y0099389D01*
X0118636Y0100824D01*
X0116762Y0101600D01*
X0114733Y0101600D01*
X0112859Y0100824D01*
X0111424Y0099389D01*
X0110647Y0097514D01*
X0110647Y0095486D01*
X0111424Y0093611D01*
X0112859Y0092176D01*
X0114733Y0091400D01*
X0116762Y0091400D01*
X0118636Y0092176D01*
X0119459Y0092999D02*
X0209678Y0092999D01*
X0208789Y0094197D02*
X0120314Y0094197D01*
X0120810Y0095396D02*
X0208293Y0095396D01*
X0208247Y0096594D02*
X0120847Y0096594D01*
X0120732Y0097793D02*
X0208371Y0097793D01*
X0208867Y0098991D02*
X0120236Y0098991D01*
X0119270Y0100190D02*
X0209866Y0100190D01*
X0211983Y0101388D02*
X0117273Y0101388D01*
X0114222Y0101388D02*
X0065747Y0101388D01*
X0065747Y0100190D02*
X0112225Y0100190D01*
X0111742Y0101500D02*
X0113580Y0102261D01*
X0114986Y0103668D01*
X0115747Y0105505D01*
X0115747Y0107495D01*
X0114986Y0109332D01*
X0113580Y0110739D01*
X0111742Y0111500D01*
X0109753Y0111500D01*
X0107915Y0110739D01*
X0106509Y0109332D01*
X0105747Y0107495D01*
X0105747Y0105505D01*
X0106509Y0103668D01*
X0107915Y0102261D01*
X0109753Y0101500D01*
X0111742Y0101500D01*
X0113905Y0102587D02*
X0197590Y0102587D01*
X0197915Y0102261D02*
X0199753Y0101500D01*
X0201742Y0101500D01*
X0203580Y0102261D01*
X0204986Y0103668D01*
X0205747Y0105505D01*
X0205747Y0107124D01*
X0207253Y0106500D01*
X0209242Y0106500D01*
X0211080Y0107261D01*
X0212486Y0108668D01*
X0213247Y0110505D01*
X0213247Y0112495D01*
X0212486Y0114332D01*
X0211080Y0115739D01*
X0209242Y0116500D01*
X0207253Y0116500D01*
X0205415Y0115739D01*
X0204009Y0114332D01*
X0203247Y0112495D01*
X0203247Y0110876D01*
X0201742Y0111500D01*
X0199753Y0111500D01*
X0197915Y0110739D01*
X0196509Y0109332D01*
X0195747Y0107495D01*
X0195747Y0105505D01*
X0196509Y0103668D01*
X0197915Y0102261D01*
X0196460Y0103785D02*
X0115035Y0103785D01*
X0115531Y0104984D02*
X0195963Y0104984D01*
X0195747Y0106182D02*
X0115747Y0106182D01*
X0115747Y0107381D02*
X0195747Y0107381D01*
X0196197Y0108579D02*
X0115298Y0108579D01*
X0114541Y0109778D02*
X0196954Y0109778D01*
X0198489Y0110976D02*
X0113006Y0110976D01*
X0108489Y0110976D02*
X0065747Y0110976D01*
X0065747Y0109778D02*
X0106954Y0109778D01*
X0106197Y0108579D02*
X0065747Y0108579D01*
X0065747Y0107381D02*
X0105747Y0107381D01*
X0105747Y0106182D02*
X0065747Y0106182D01*
X0065747Y0104984D02*
X0105963Y0104984D01*
X0106460Y0103785D02*
X0065747Y0103785D01*
X0065747Y0102587D02*
X0107590Y0102587D01*
X0111259Y0098991D02*
X0065747Y0098991D01*
X0065747Y0097793D02*
X0110763Y0097793D01*
X0110647Y0096594D02*
X0065747Y0096594D01*
X0065747Y0095396D02*
X0110685Y0095396D01*
X0111181Y0094197D02*
X0065747Y0094197D01*
X0065747Y0092999D02*
X0112036Y0092999D01*
X0113767Y0091800D02*
X0065747Y0091800D01*
X0065747Y0090602D02*
X0277778Y0090602D01*
X0276580Y0089403D02*
X0065747Y0089403D01*
X0065747Y0088205D02*
X0276042Y0088205D01*
X0275747Y0087006D02*
X0065747Y0087006D01*
X0065747Y0085808D02*
X0275747Y0085808D01*
X0276119Y0084609D02*
X0065747Y0084609D01*
X0065747Y0083411D02*
X0276766Y0083411D01*
X0278034Y0082212D02*
X0065747Y0082212D01*
X0065747Y0081014D02*
X0138317Y0081014D01*
X0136850Y0079815D02*
X0065747Y0079815D01*
X0065747Y0078617D02*
X0136104Y0078617D01*
X0135647Y0077418D02*
X0065747Y0077418D01*
X0065747Y0076220D02*
X0135647Y0076220D01*
X0135840Y0075021D02*
X0065747Y0075021D01*
X0065747Y0073823D02*
X0136336Y0073823D01*
X0137411Y0072624D02*
X0065747Y0072624D01*
X0105575Y0053448D02*
X0106728Y0053448D01*
X0107069Y0052249D02*
X0107944Y0052249D01*
X0107810Y0051051D02*
X0638685Y0051051D01*
X0638247Y0049852D02*
X0108247Y0049852D01*
X0108247Y0048654D02*
X0638247Y0048654D01*
X0638475Y0047455D02*
X0563905Y0047455D01*
X0566647Y0046257D02*
X0638972Y0046257D01*
X0640118Y0045058D02*
X0568310Y0045058D01*
X0557590Y0047455D02*
X0223905Y0047455D01*
X0226647Y0046257D02*
X0279166Y0046257D01*
X0279753Y0046500D02*
X0277915Y0045739D01*
X0276509Y0044332D01*
X0275747Y0042495D01*
X0275747Y0040505D01*
X0276509Y0038668D01*
X0277915Y0037261D01*
X0279753Y0036500D01*
X0281742Y0036500D01*
X0283580Y0037261D01*
X0284986Y0038668D01*
X0285747Y0040505D01*
X0285747Y0042495D01*
X0284986Y0044332D01*
X0283580Y0045739D01*
X0281742Y0046500D01*
X0279753Y0046500D01*
X0282329Y0046257D02*
X0554848Y0046257D01*
X0553185Y0045058D02*
X0284260Y0045058D01*
X0285182Y0043860D02*
X0551986Y0043860D01*
X0551142Y0042661D02*
X0285678Y0042661D01*
X0285747Y0041463D02*
X0550450Y0041463D01*
X0549955Y0040264D02*
X0285648Y0040264D01*
X0285151Y0039066D02*
X0549634Y0039066D01*
X0549348Y0037867D02*
X0284186Y0037867D01*
X0282149Y0036669D02*
X0549348Y0036669D01*
X0549348Y0035470D02*
X0232147Y0035470D01*
X0232147Y0036669D02*
X0279345Y0036669D01*
X0277309Y0037867D02*
X0232147Y0037867D01*
X0231861Y0039066D02*
X0276344Y0039066D01*
X0275847Y0040264D02*
X0231540Y0040264D01*
X0231045Y0041463D02*
X0275747Y0041463D01*
X0275817Y0042661D02*
X0230353Y0042661D01*
X0229509Y0043860D02*
X0276313Y0043860D01*
X0277235Y0045058D02*
X0228310Y0045058D01*
X0217590Y0047455D02*
X0108020Y0047455D01*
X0107523Y0046257D02*
X0214848Y0046257D01*
X0213185Y0045058D02*
X0106377Y0045058D01*
X0100678Y0042661D02*
X0211142Y0042661D01*
X0210450Y0041463D02*
X0121832Y0041463D01*
X0119663Y0041463D02*
X0100747Y0041463D01*
X0100648Y0040264D02*
X0117441Y0040264D01*
X0116398Y0039066D02*
X0100151Y0039066D01*
X0099186Y0037867D02*
X0115902Y0037867D01*
X0124054Y0040264D02*
X0209955Y0040264D01*
X0209634Y0039066D02*
X0125097Y0039066D01*
X0125593Y0037867D02*
X0209348Y0037867D01*
X0209348Y0036669D02*
X0125747Y0036669D01*
X0125733Y0035470D02*
X0209348Y0035470D01*
X0209543Y0034272D02*
X0125236Y0034272D01*
X0124392Y0033073D02*
X0209864Y0033073D01*
X0225155Y0025882D02*
X0556340Y0025882D01*
X0554264Y0027081D02*
X0227231Y0027081D01*
X0228648Y0028279D02*
X0552847Y0028279D01*
X0551649Y0029478D02*
X0229846Y0029478D01*
X0230548Y0030676D02*
X0550947Y0030676D01*
X0550255Y0031875D02*
X0231240Y0031875D01*
X0231631Y0033073D02*
X0549864Y0033073D01*
X0549543Y0034272D02*
X0231952Y0034272D01*
X0211986Y0043860D02*
X0100182Y0043860D01*
X0100118Y0045058D02*
X0099260Y0045058D01*
X0098972Y0046257D02*
X0097329Y0046257D01*
X0113551Y0052249D02*
X0639426Y0052249D01*
X0655679Y0055845D02*
X0115747Y0055845D01*
X0115747Y0057043D02*
X0656010Y0057043D01*
X0656506Y0058242D02*
X0115438Y0058242D01*
X0182805Y0059440D02*
X0211190Y0059440D01*
X0210415Y0059761D02*
X0212253Y0059000D01*
X0214242Y0059000D01*
X0216080Y0059761D01*
X0217486Y0061168D01*
X0218247Y0063005D01*
X0218247Y0064995D01*
X0217486Y0066832D01*
X0216080Y0068239D01*
X0214242Y0069000D01*
X0212253Y0069000D01*
X0210415Y0068239D01*
X0209009Y0066832D01*
X0208247Y0064995D01*
X0208247Y0063005D01*
X0209009Y0061168D01*
X0210415Y0059761D01*
X0209537Y0060639D02*
X0184457Y0060639D01*
X0185264Y0061837D02*
X0208731Y0061837D01*
X0208247Y0063036D02*
X0185747Y0063036D01*
X0185747Y0064234D02*
X0208247Y0064234D01*
X0208429Y0065433D02*
X0185566Y0065433D01*
X0189950Y0066632D02*
X0208926Y0066632D01*
X0210006Y0067830D02*
X0191053Y0067830D01*
X0191550Y0069029D02*
X0341251Y0069029D01*
X0341424Y0068611D02*
X0342859Y0067176D01*
X0344733Y0066400D01*
X0346762Y0066400D01*
X0348636Y0067176D01*
X0350071Y0068611D01*
X0350847Y0070486D01*
X0350847Y0072514D01*
X0350071Y0074389D01*
X0348636Y0075824D01*
X0346762Y0076600D01*
X0344733Y0076600D01*
X0342859Y0075824D01*
X0341424Y0074389D01*
X0340647Y0072514D01*
X0340647Y0070486D01*
X0341424Y0068611D01*
X0342205Y0067830D02*
X0216488Y0067830D01*
X0217569Y0066632D02*
X0344174Y0066632D01*
X0347321Y0066632D02*
X0356317Y0066632D01*
X0356424Y0066889D02*
X0355647Y0065014D01*
X0355647Y0062986D01*
X0356424Y0061111D01*
X0357859Y0059676D01*
X0359733Y0058900D01*
X0361762Y0058900D01*
X0363636Y0059676D01*
X0365071Y0061111D01*
X0365847Y0062986D01*
X0365847Y0065014D01*
X0365071Y0066889D01*
X0363636Y0068324D01*
X0361762Y0069100D01*
X0359733Y0069100D01*
X0357859Y0068324D01*
X0356424Y0066889D01*
X0357365Y0067830D02*
X0349290Y0067830D01*
X0350244Y0069029D02*
X0359560Y0069029D01*
X0361934Y0069029D02*
X0401604Y0069029D01*
X0401674Y0068861D02*
X0403109Y0067426D01*
X0404983Y0066650D01*
X0407012Y0066650D01*
X0408886Y0067426D01*
X0410321Y0068861D01*
X0411097Y0070736D01*
X0411097Y0072764D01*
X0410321Y0074639D01*
X0408886Y0076074D01*
X0407012Y0076850D01*
X0404983Y0076850D01*
X0403109Y0076074D01*
X0401674Y0074639D01*
X0400897Y0072764D01*
X0400897Y0070736D01*
X0401674Y0068861D01*
X0402705Y0067830D02*
X0364130Y0067830D01*
X0365178Y0066632D02*
X0467883Y0066632D01*
X0466685Y0067830D02*
X0409290Y0067830D01*
X0410390Y0069029D02*
X0465486Y0069029D01*
X0464288Y0070227D02*
X0418198Y0070227D01*
X0418012Y0070150D02*
X0419886Y0070926D01*
X0421321Y0072361D01*
X0422097Y0074236D01*
X0422097Y0076264D01*
X0421321Y0078139D01*
X0419886Y0079574D01*
X0418012Y0080350D01*
X0415983Y0080350D01*
X0414109Y0079574D01*
X0412674Y0078139D01*
X0411897Y0076264D01*
X0411897Y0074236D01*
X0412674Y0072361D01*
X0414109Y0070926D01*
X0415983Y0070150D01*
X0418012Y0070150D01*
X0415797Y0070227D02*
X0410887Y0070227D01*
X0411097Y0071426D02*
X0413609Y0071426D01*
X0412565Y0072624D02*
X0411097Y0072624D01*
X0410659Y0073823D02*
X0412068Y0073823D01*
X0411897Y0075021D02*
X0409939Y0075021D01*
X0408534Y0076220D02*
X0411897Y0076220D01*
X0412375Y0077418D02*
X0339847Y0077418D01*
X0339805Y0078617D02*
X0413152Y0078617D01*
X0414692Y0079815D02*
X0339309Y0079815D01*
X0338446Y0081014D02*
X0454547Y0081014D01*
X0454547Y0082212D02*
X0415016Y0082212D01*
X0416871Y0083411D02*
X0454547Y0083411D01*
X0454547Y0084609D02*
X0417777Y0084609D01*
X0418274Y0085808D02*
X0454547Y0085808D01*
X0454547Y0087006D02*
X0418347Y0087006D01*
X0418269Y0088205D02*
X0454547Y0088205D01*
X0454547Y0089403D02*
X0417772Y0089403D01*
X0416858Y0090602D02*
X0454547Y0090602D01*
X0454547Y0091800D02*
X0414986Y0091800D01*
X0411479Y0082212D02*
X0336698Y0082212D01*
X0339737Y0076220D02*
X0343815Y0076220D01*
X0342056Y0075021D02*
X0339241Y0075021D01*
X0338283Y0073823D02*
X0341189Y0073823D01*
X0340693Y0072624D02*
X0336303Y0072624D01*
X0333192Y0072624D02*
X0191280Y0072624D01*
X0191747Y0071426D02*
X0340647Y0071426D01*
X0340755Y0070227D02*
X0191747Y0070227D01*
X0190496Y0073823D02*
X0331212Y0073823D01*
X0330254Y0075021D02*
X0188898Y0075021D01*
X0215305Y0059440D02*
X0358428Y0059440D01*
X0356896Y0060639D02*
X0216957Y0060639D01*
X0217764Y0061837D02*
X0356123Y0061837D01*
X0355647Y0063036D02*
X0218247Y0063036D01*
X0218247Y0064234D02*
X0355647Y0064234D01*
X0355821Y0065433D02*
X0218066Y0065433D01*
X0216817Y0092999D02*
X0454547Y0092999D01*
X0454547Y0094197D02*
X0217706Y0094197D01*
X0218202Y0095396D02*
X0454547Y0095396D01*
X0454547Y0096594D02*
X0246970Y0096594D01*
X0246742Y0096500D02*
X0248580Y0097261D01*
X0249986Y0098668D01*
X0250747Y0100505D01*
X0250747Y0102495D01*
X0249986Y0104332D01*
X0248580Y0105739D01*
X0246742Y0106500D01*
X0244753Y0106500D01*
X0242915Y0105739D01*
X0241509Y0104332D01*
X0240747Y0102495D01*
X0240747Y0100505D01*
X0241509Y0098668D01*
X0242915Y0097261D01*
X0244753Y0096500D01*
X0246742Y0096500D01*
X0244525Y0096594D02*
X0218247Y0096594D01*
X0218124Y0097793D02*
X0242384Y0097793D01*
X0241375Y0098991D02*
X0217627Y0098991D01*
X0216629Y0100190D02*
X0240878Y0100190D01*
X0240747Y0101388D02*
X0214512Y0101388D01*
X0205531Y0104984D02*
X0242160Y0104984D01*
X0241282Y0103785D02*
X0205035Y0103785D01*
X0203905Y0102587D02*
X0240786Y0102587D01*
X0243986Y0106182D02*
X0205747Y0106182D01*
X0203247Y0110976D02*
X0203006Y0110976D01*
X0203247Y0112175D02*
X0065747Y0112175D01*
X0065747Y0113373D02*
X0203612Y0113373D01*
X0204248Y0114572D02*
X0065747Y0114572D01*
X0065747Y0115770D02*
X0205492Y0115770D01*
X0211003Y0115770D02*
X0240747Y0115770D01*
X0240747Y0115505D02*
X0241509Y0113668D01*
X0242915Y0112261D01*
X0244753Y0111500D01*
X0246742Y0111500D01*
X0248580Y0112261D01*
X0249986Y0113668D01*
X0250747Y0115505D01*
X0250747Y0117495D01*
X0249986Y0119332D01*
X0248580Y0120739D01*
X0246742Y0121500D01*
X0244753Y0121500D01*
X0242915Y0120739D01*
X0241509Y0119332D01*
X0240747Y0117495D01*
X0240747Y0115505D01*
X0241134Y0114572D02*
X0212247Y0114572D01*
X0212883Y0113373D02*
X0241803Y0113373D01*
X0243123Y0112175D02*
X0213247Y0112175D01*
X0213247Y0110976D02*
X0454547Y0110976D01*
X0454547Y0109778D02*
X0212946Y0109778D01*
X0212398Y0108579D02*
X0454547Y0108579D01*
X0454547Y0107381D02*
X0211199Y0107381D01*
X0240747Y0116969D02*
X0065747Y0116969D01*
X0065747Y0118168D02*
X0241026Y0118168D01*
X0241542Y0119366D02*
X0065747Y0119366D01*
X0065747Y0120565D02*
X0242741Y0120565D01*
X0248754Y0120565D02*
X0256137Y0120565D01*
X0256509Y0119668D02*
X0257915Y0118261D01*
X0259753Y0117500D01*
X0261742Y0117500D01*
X0263580Y0118261D01*
X0264986Y0119668D01*
X0265747Y0121505D01*
X0265747Y0123495D01*
X0264986Y0125332D01*
X0263580Y0126739D01*
X0261742Y0127500D01*
X0259753Y0127500D01*
X0257915Y0126739D01*
X0256509Y0125332D01*
X0255747Y0123495D01*
X0255747Y0121505D01*
X0256509Y0119668D01*
X0256810Y0119366D02*
X0249952Y0119366D01*
X0250469Y0118168D02*
X0258141Y0118168D01*
X0255747Y0121763D02*
X0065747Y0121763D01*
X0065747Y0122962D02*
X0255747Y0122962D01*
X0256023Y0124160D02*
X0065747Y0124160D01*
X0065747Y0125359D02*
X0256535Y0125359D01*
X0257733Y0126557D02*
X0065747Y0126557D01*
X0065747Y0127756D02*
X0454547Y0127756D01*
X0454547Y0128954D02*
X0065747Y0128954D01*
X0065747Y0130153D02*
X0252626Y0130153D01*
X0252756Y0130023D02*
X0254697Y0129219D01*
X0256798Y0129219D01*
X0258739Y0130023D01*
X0260225Y0131508D01*
X0261029Y0133450D01*
X0261029Y0135550D01*
X0260225Y0137491D01*
X0259216Y0138500D01*
X0260225Y0139508D01*
X0261029Y0141450D01*
X0261029Y0143550D01*
X0260225Y0145491D01*
X0258739Y0146977D01*
X0256798Y0147781D01*
X0254697Y0147781D01*
X0252756Y0146977D01*
X0251270Y0145491D01*
X0250466Y0143550D01*
X0250466Y0141450D01*
X0251270Y0139508D01*
X0252279Y0138500D01*
X0251270Y0137491D01*
X0250466Y0135550D01*
X0250466Y0133450D01*
X0251270Y0131508D01*
X0252756Y0130023D01*
X0251428Y0131351D02*
X0065747Y0131351D01*
X0065747Y0132550D02*
X0250839Y0132550D01*
X0250466Y0133748D02*
X0065747Y0133748D01*
X0065747Y0134947D02*
X0250466Y0134947D01*
X0250713Y0136145D02*
X0065747Y0136145D01*
X0065747Y0137344D02*
X0251209Y0137344D01*
X0252237Y0138542D02*
X0065747Y0138542D01*
X0065747Y0139741D02*
X0168965Y0139741D01*
X0168915Y0139761D02*
X0170753Y0139000D01*
X0172742Y0139000D01*
X0174580Y0139761D01*
X0175986Y0141168D01*
X0176747Y0143005D01*
X0176747Y0144995D01*
X0175986Y0146832D01*
X0174580Y0148239D01*
X0172742Y0149000D01*
X0170753Y0149000D01*
X0168915Y0148239D01*
X0167509Y0146832D01*
X0166747Y0144995D01*
X0166747Y0143005D01*
X0167509Y0141168D01*
X0168915Y0139761D01*
X0167737Y0140939D02*
X0065747Y0140939D01*
X0065747Y0142138D02*
X0167107Y0142138D01*
X0166747Y0143336D02*
X0065747Y0143336D01*
X0065747Y0144535D02*
X0166747Y0144535D01*
X0167053Y0145733D02*
X0065747Y0145733D01*
X0065747Y0146932D02*
X0167608Y0146932D01*
X0168807Y0148130D02*
X0065747Y0148130D01*
X0065747Y0149329D02*
X0292289Y0149329D01*
X0292551Y0148696D02*
X0293943Y0147304D01*
X0295763Y0146550D01*
X0297732Y0146550D01*
X0299551Y0147304D01*
X0300944Y0148696D01*
X0301697Y0150515D01*
X0301697Y0152485D01*
X0300944Y0154304D01*
X0299551Y0155696D01*
X0297732Y0156450D01*
X0295763Y0156450D01*
X0293943Y0155696D01*
X0292551Y0154304D01*
X0291797Y0152485D01*
X0291797Y0150515D01*
X0292551Y0148696D01*
X0293117Y0148130D02*
X0174688Y0148130D01*
X0175887Y0146932D02*
X0252711Y0146932D01*
X0251512Y0145733D02*
X0176441Y0145733D01*
X0176747Y0144535D02*
X0250874Y0144535D01*
X0250466Y0143336D02*
X0176747Y0143336D01*
X0176388Y0142138D02*
X0250466Y0142138D01*
X0250678Y0140939D02*
X0175758Y0140939D01*
X0174530Y0139741D02*
X0251174Y0139741D01*
X0259258Y0138542D02*
X0289789Y0138542D01*
X0289551Y0138304D02*
X0288797Y0136485D01*
X0288797Y0134515D01*
X0289551Y0132696D01*
X0290943Y0131304D01*
X0292763Y0130550D01*
X0294732Y0130550D01*
X0296551Y0131304D01*
X0297944Y0132696D01*
X0298697Y0134515D01*
X0298697Y0136485D01*
X0297944Y0138304D01*
X0296551Y0139696D01*
X0294732Y0140450D01*
X0292763Y0140450D01*
X0290943Y0139696D01*
X0289551Y0138304D01*
X0289153Y0137344D02*
X0260286Y0137344D01*
X0260782Y0136145D02*
X0288797Y0136145D01*
X0288797Y0134947D02*
X0261029Y0134947D01*
X0261029Y0133748D02*
X0289115Y0133748D01*
X0289697Y0132550D02*
X0260656Y0132550D01*
X0260067Y0131351D02*
X0290896Y0131351D01*
X0296599Y0131351D02*
X0454547Y0131351D01*
X0454547Y0130153D02*
X0258869Y0130153D01*
X0263761Y0126557D02*
X0454547Y0126557D01*
X0454547Y0125359D02*
X0264960Y0125359D01*
X0265472Y0124160D02*
X0454547Y0124160D01*
X0454547Y0122962D02*
X0265747Y0122962D01*
X0265747Y0121763D02*
X0454547Y0121763D01*
X0454630Y0120565D02*
X0265358Y0120565D01*
X0264685Y0119366D02*
X0455149Y0119366D01*
X0454933Y0118168D02*
X0263353Y0118168D01*
X0250747Y0116969D02*
X0454547Y0116969D01*
X0454547Y0115770D02*
X0250747Y0115770D01*
X0250361Y0114572D02*
X0454547Y0114572D01*
X0454547Y0113373D02*
X0249692Y0113373D01*
X0248371Y0112175D02*
X0454547Y0112175D01*
X0458247Y0112175D02*
X0490072Y0112175D01*
X0488874Y0113373D02*
X0458247Y0113373D01*
X0458247Y0114572D02*
X0487675Y0114572D01*
X0486477Y0115770D02*
X0458247Y0115770D01*
X0458247Y0110976D02*
X0491271Y0110976D01*
X0492470Y0109778D02*
X0458247Y0109778D01*
X0458247Y0108579D02*
X0675747Y0108579D01*
X0675747Y0107381D02*
X0458247Y0107381D01*
X0454547Y0106182D02*
X0247509Y0106182D01*
X0249335Y0104984D02*
X0454547Y0104984D01*
X0454547Y0103785D02*
X0250213Y0103785D01*
X0250709Y0102587D02*
X0454547Y0102587D01*
X0454547Y0101388D02*
X0250747Y0101388D01*
X0250617Y0100190D02*
X0454547Y0100190D01*
X0454547Y0098991D02*
X0250120Y0098991D01*
X0249111Y0097793D02*
X0454547Y0097793D01*
X0491580Y0118168D02*
X0607415Y0118168D01*
X0608613Y0119366D02*
X0490381Y0119366D01*
X0489183Y0120565D02*
X0609812Y0120565D01*
X0610747Y0121500D02*
X0603247Y0114000D01*
X0495747Y0114000D01*
X0488247Y0121500D01*
X0458247Y0121500D01*
X0458247Y0141500D01*
X0520747Y0141500D01*
X0530747Y0151500D01*
X0605747Y0151500D01*
X0613247Y0159000D01*
X0668247Y0159000D01*
X0675747Y0151500D01*
X0675747Y0126500D01*
X0670747Y0121500D01*
X0610747Y0121500D01*
X0606216Y0116969D02*
X0492778Y0116969D01*
X0493977Y0115770D02*
X0605018Y0115770D01*
X0603819Y0114572D02*
X0495175Y0114572D01*
X0458247Y0121763D02*
X0671010Y0121763D01*
X0672209Y0122962D02*
X0458247Y0122962D01*
X0458247Y0124160D02*
X0673408Y0124160D01*
X0674606Y0125359D02*
X0458247Y0125359D01*
X0458247Y0126557D02*
X0675747Y0126557D01*
X0675747Y0127756D02*
X0458247Y0127756D01*
X0458247Y0128954D02*
X0675747Y0128954D01*
X0675747Y0130153D02*
X0458247Y0130153D01*
X0458247Y0131351D02*
X0675747Y0131351D01*
X0675747Y0132550D02*
X0458247Y0132550D01*
X0458247Y0133748D02*
X0675747Y0133748D01*
X0675747Y0134947D02*
X0458247Y0134947D01*
X0458247Y0136145D02*
X0675747Y0136145D01*
X0675747Y0137344D02*
X0458247Y0137344D01*
X0458247Y0138542D02*
X0536079Y0138542D01*
X0536292Y0138329D02*
X0538534Y0137400D01*
X0540961Y0137400D01*
X0543203Y0138329D01*
X0544919Y0140045D01*
X0545847Y0142287D01*
X0545847Y0144713D01*
X0544919Y0146955D01*
X0543203Y0148671D01*
X0540961Y0149600D01*
X0538534Y0149600D01*
X0536292Y0148671D01*
X0534576Y0146955D01*
X0533647Y0144713D01*
X0533647Y0142287D01*
X0534576Y0140045D01*
X0536292Y0138329D01*
X0534880Y0139741D02*
X0458247Y0139741D01*
X0458247Y0140939D02*
X0534206Y0140939D01*
X0533709Y0142138D02*
X0521385Y0142138D01*
X0522584Y0143336D02*
X0533647Y0143336D01*
X0533647Y0144535D02*
X0523782Y0144535D01*
X0524981Y0145733D02*
X0534070Y0145733D01*
X0534566Y0146932D02*
X0526179Y0146932D01*
X0527378Y0148130D02*
X0535751Y0148130D01*
X0537879Y0149329D02*
X0528576Y0149329D01*
X0529775Y0150527D02*
X0675747Y0150527D01*
X0675747Y0149329D02*
X0576116Y0149329D01*
X0575461Y0149600D02*
X0573034Y0149600D01*
X0570792Y0148671D01*
X0569076Y0146955D01*
X0568147Y0144713D01*
X0568147Y0142287D01*
X0569076Y0140045D01*
X0570792Y0138329D01*
X0573034Y0137400D01*
X0575461Y0137400D01*
X0577703Y0138329D01*
X0579419Y0140045D01*
X0580347Y0142287D01*
X0580347Y0144713D01*
X0579419Y0146955D01*
X0577703Y0148671D01*
X0575461Y0149600D01*
X0572379Y0149329D02*
X0541616Y0149329D01*
X0543744Y0148130D02*
X0570251Y0148130D01*
X0569066Y0146932D02*
X0544929Y0146932D01*
X0545425Y0145733D02*
X0568570Y0145733D01*
X0568147Y0144535D02*
X0545847Y0144535D01*
X0545847Y0143336D02*
X0568147Y0143336D01*
X0568209Y0142138D02*
X0545786Y0142138D01*
X0545289Y0140939D02*
X0568706Y0140939D01*
X0569380Y0139741D02*
X0544615Y0139741D01*
X0543416Y0138542D02*
X0570579Y0138542D01*
X0577916Y0138542D02*
X0675747Y0138542D01*
X0675747Y0139741D02*
X0579115Y0139741D01*
X0579789Y0140939D02*
X0675747Y0140939D01*
X0675747Y0142138D02*
X0580286Y0142138D01*
X0580347Y0143336D02*
X0675747Y0143336D01*
X0675747Y0144535D02*
X0580347Y0144535D01*
X0579925Y0145733D02*
X0675747Y0145733D01*
X0675747Y0146932D02*
X0579429Y0146932D01*
X0578244Y0148130D02*
X0675747Y0148130D01*
X0675522Y0151726D02*
X0605973Y0151726D01*
X0607172Y0152924D02*
X0674323Y0152924D01*
X0673125Y0154123D02*
X0608370Y0154123D01*
X0609569Y0155321D02*
X0671926Y0155321D01*
X0670728Y0156520D02*
X0610767Y0156520D01*
X0611966Y0157718D02*
X0669529Y0157718D01*
X0668331Y0158917D02*
X0613164Y0158917D01*
X0609260Y0162512D02*
X0458247Y0162512D01*
X0458247Y0161314D02*
X0608061Y0161314D01*
X0606863Y0160115D02*
X0458247Y0160115D01*
X0458247Y0158917D02*
X0605664Y0158917D01*
X0604466Y0157718D02*
X0458247Y0157718D01*
X0458247Y0156520D02*
X0603267Y0156520D01*
X0603247Y0156500D02*
X0528247Y0156500D01*
X0518247Y0146500D01*
X0458247Y0146500D01*
X0458247Y0169000D01*
X0463247Y0174000D01*
X0480747Y0174000D01*
X0513247Y0206500D01*
X0658247Y0206500D01*
X0675747Y0189000D01*
X0675747Y0174000D01*
X0665747Y0164000D01*
X0610747Y0164000D01*
X0603247Y0156500D01*
X0610458Y0163711D02*
X0458247Y0163711D01*
X0458247Y0164909D02*
X0666657Y0164909D01*
X0667855Y0166108D02*
X0458247Y0166108D01*
X0458247Y0167306D02*
X0669054Y0167306D01*
X0670252Y0168505D02*
X0458247Y0168505D01*
X0458951Y0169703D02*
X0671451Y0169703D01*
X0672649Y0170902D02*
X0460149Y0170902D01*
X0461348Y0172101D02*
X0673848Y0172101D01*
X0675046Y0173299D02*
X0462546Y0173299D01*
X0459711Y0175696D02*
X0301196Y0175696D01*
X0300944Y0176304D02*
X0299551Y0177696D01*
X0297732Y0178450D01*
X0295763Y0178450D01*
X0293943Y0177696D01*
X0292551Y0176304D01*
X0291797Y0174485D01*
X0291797Y0172515D01*
X0292551Y0170696D01*
X0293943Y0169304D01*
X0295763Y0168550D01*
X0297732Y0168550D01*
X0299551Y0169304D01*
X0300944Y0170696D01*
X0301697Y0172515D01*
X0301697Y0174485D01*
X0300944Y0176304D01*
X0300353Y0176895D02*
X0460909Y0176895D01*
X0458512Y0174498D02*
X0301692Y0174498D01*
X0301697Y0173299D02*
X0457314Y0173299D01*
X0456115Y0172101D02*
X0301526Y0172101D01*
X0301029Y0170902D02*
X0455030Y0170902D01*
X0454547Y0169703D02*
X0299951Y0169703D01*
X0299551Y0166696D02*
X0297732Y0167450D01*
X0295763Y0167450D01*
X0293943Y0166696D01*
X0292551Y0165304D01*
X0291797Y0163485D01*
X0291797Y0161515D01*
X0292551Y0159696D01*
X0293943Y0158304D01*
X0295763Y0157550D01*
X0297732Y0157550D01*
X0299551Y0158304D01*
X0300944Y0159696D01*
X0301697Y0161515D01*
X0301697Y0163485D01*
X0300944Y0165304D01*
X0299551Y0166696D01*
X0300140Y0166108D02*
X0454547Y0166108D01*
X0454547Y0167306D02*
X0298079Y0167306D01*
X0295416Y0167306D02*
X0130847Y0167306D01*
X0130847Y0167514D02*
X0130071Y0169389D01*
X0128636Y0170824D01*
X0126762Y0171600D01*
X0124733Y0171600D01*
X0122859Y0170824D01*
X0121424Y0169389D01*
X0120647Y0167514D01*
X0120647Y0165486D01*
X0121424Y0163611D01*
X0122859Y0162176D01*
X0124733Y0161400D01*
X0126762Y0161400D01*
X0128636Y0162176D01*
X0130071Y0163611D01*
X0130847Y0165486D01*
X0130847Y0167514D01*
X0130437Y0168505D02*
X0454547Y0168505D01*
X0454547Y0164909D02*
X0301107Y0164909D01*
X0301604Y0163711D02*
X0454547Y0163711D01*
X0454547Y0162512D02*
X0301697Y0162512D01*
X0301614Y0161314D02*
X0454547Y0161314D01*
X0454547Y0160115D02*
X0301118Y0160115D01*
X0300165Y0158917D02*
X0454547Y0158917D01*
X0454547Y0157718D02*
X0298139Y0157718D01*
X0295356Y0157718D02*
X0185747Y0157718D01*
X0185747Y0158495D02*
X0184986Y0160332D01*
X0183580Y0161739D01*
X0181742Y0162500D01*
X0179753Y0162500D01*
X0177915Y0161739D01*
X0176509Y0160332D01*
X0175747Y0158495D01*
X0175747Y0156505D01*
X0176509Y0154668D01*
X0177915Y0153261D01*
X0179753Y0152500D01*
X0181742Y0152500D01*
X0183580Y0153261D01*
X0184986Y0154668D01*
X0185747Y0156505D01*
X0185747Y0158495D01*
X0185573Y0158917D02*
X0293330Y0158917D01*
X0292377Y0160115D02*
X0185076Y0160115D01*
X0184005Y0161314D02*
X0291881Y0161314D01*
X0291797Y0162512D02*
X0176747Y0162512D01*
X0176747Y0162995D02*
X0175986Y0164832D01*
X0174580Y0166239D01*
X0172742Y0167000D01*
X0170753Y0167000D01*
X0168915Y0166239D01*
X0167509Y0164832D01*
X0166747Y0162995D01*
X0166747Y0161005D01*
X0167509Y0159168D01*
X0168915Y0157761D01*
X0170753Y0157000D01*
X0172742Y0157000D01*
X0174580Y0157761D01*
X0175986Y0159168D01*
X0176747Y0161005D01*
X0176747Y0162995D01*
X0176451Y0163711D02*
X0291891Y0163711D01*
X0292388Y0164909D02*
X0175909Y0164909D01*
X0174711Y0166108D02*
X0293355Y0166108D01*
X0293544Y0169703D02*
X0129756Y0169703D01*
X0128447Y0170902D02*
X0292466Y0170902D01*
X0291969Y0172101D02*
X0065747Y0172101D01*
X0065747Y0173299D02*
X0291797Y0173299D01*
X0291803Y0174498D02*
X0065747Y0174498D01*
X0065747Y0175696D02*
X0292299Y0175696D01*
X0293142Y0176895D02*
X0065747Y0176895D01*
X0065747Y0178093D02*
X0294901Y0178093D01*
X0298594Y0178093D02*
X0479608Y0178093D01*
X0480806Y0179292D02*
X0065747Y0179292D01*
X0065747Y0180490D02*
X0482005Y0180490D01*
X0483203Y0181689D02*
X0142459Y0181689D01*
X0141762Y0181400D02*
X0143636Y0182176D01*
X0145071Y0183611D01*
X0145847Y0185486D01*
X0145847Y0187514D01*
X0145071Y0189389D01*
X0143636Y0190824D01*
X0141762Y0191600D01*
X0139733Y0191600D01*
X0137859Y0190824D01*
X0136424Y0189389D01*
X0135647Y0187514D01*
X0135647Y0185486D01*
X0136424Y0183611D01*
X0137859Y0182176D01*
X0139733Y0181400D01*
X0141762Y0181400D01*
X0139036Y0181689D02*
X0065747Y0181689D01*
X0065747Y0182887D02*
X0137148Y0182887D01*
X0136227Y0184086D02*
X0065747Y0184086D01*
X0065747Y0185284D02*
X0135731Y0185284D01*
X0135647Y0186483D02*
X0065747Y0186483D01*
X0065747Y0187681D02*
X0135716Y0187681D01*
X0136213Y0188880D02*
X0065747Y0188880D01*
X0065747Y0190078D02*
X0137113Y0190078D01*
X0138952Y0191277D02*
X0065747Y0191277D01*
X0065747Y0192475D02*
X0150247Y0192475D01*
X0150247Y0192995D02*
X0150247Y0191005D01*
X0151009Y0189168D01*
X0152415Y0187761D01*
X0154253Y0187000D01*
X0156242Y0187000D01*
X0158080Y0187761D01*
X0159486Y0189168D01*
X0160247Y0191005D01*
X0160247Y0192995D01*
X0159486Y0194832D01*
X0158080Y0196239D01*
X0156242Y0197000D01*
X0154253Y0197000D01*
X0152415Y0196239D01*
X0151009Y0194832D01*
X0150247Y0192995D01*
X0150529Y0193674D02*
X0065747Y0193674D01*
X0065747Y0194872D02*
X0151049Y0194872D01*
X0152247Y0196071D02*
X0065747Y0196071D01*
X0065747Y0197269D02*
X0177446Y0197269D01*
X0177915Y0197739D02*
X0176509Y0196332D01*
X0175747Y0194495D01*
X0175747Y0192505D01*
X0176509Y0190668D01*
X0177915Y0189261D01*
X0179753Y0188500D01*
X0181742Y0188500D01*
X0183580Y0189261D01*
X0184986Y0190668D01*
X0185747Y0192505D01*
X0185747Y0194495D01*
X0184994Y0196315D01*
X0185753Y0196000D01*
X0187742Y0196000D01*
X0189580Y0196761D01*
X0190986Y0198168D01*
X0191747Y0200005D01*
X0191747Y0201900D01*
X0191762Y0201900D01*
X0193636Y0202676D01*
X0195071Y0204111D01*
X0195847Y0205986D01*
X0195847Y0208014D01*
X0195071Y0209889D01*
X0193636Y0211324D01*
X0191762Y0212100D01*
X0189733Y0212100D01*
X0187859Y0211324D01*
X0186424Y0209889D01*
X0185647Y0208014D01*
X0185647Y0205986D01*
X0185658Y0205961D01*
X0183915Y0205239D01*
X0182509Y0203832D01*
X0181747Y0201995D01*
X0181747Y0200005D01*
X0182501Y0198185D01*
X0181742Y0198500D01*
X0179753Y0198500D01*
X0177915Y0197739D01*
X0179675Y0198468D02*
X0065747Y0198468D01*
X0065747Y0199666D02*
X0181888Y0199666D01*
X0181820Y0198468D02*
X0182384Y0198468D01*
X0181747Y0200865D02*
X0065747Y0200865D01*
X0065747Y0202063D02*
X0181776Y0202063D01*
X0182272Y0203262D02*
X0065747Y0203262D01*
X0065747Y0204460D02*
X0183137Y0204460D01*
X0184929Y0205659D02*
X0065747Y0205659D01*
X0065747Y0206857D02*
X0185647Y0206857D01*
X0185665Y0208056D02*
X0065747Y0208056D01*
X0065747Y0209254D02*
X0186161Y0209254D01*
X0186988Y0210453D02*
X0065747Y0210453D01*
X0065747Y0211651D02*
X0188650Y0211651D01*
X0192845Y0211651D02*
X0278466Y0211651D01*
X0278466Y0211814D02*
X0278466Y0209950D01*
X0279270Y0208008D01*
X0280756Y0206523D01*
X0282697Y0205719D01*
X0284798Y0205719D01*
X0286739Y0206523D01*
X0288225Y0208008D01*
X0289029Y0209950D01*
X0289029Y0212022D01*
X0290239Y0212523D01*
X0291725Y0214008D01*
X0292529Y0215950D01*
X0292529Y0218050D01*
X0291725Y0219991D01*
X0290239Y0221477D01*
X0288298Y0222281D01*
X0286197Y0222281D01*
X0284256Y0221477D01*
X0283497Y0220719D01*
X0282739Y0221477D01*
X0280798Y0222281D01*
X0278697Y0222281D01*
X0276756Y0221477D01*
X0275270Y0219991D01*
X0274466Y0218050D01*
X0274466Y0215950D01*
X0275270Y0214008D01*
X0276756Y0212523D01*
X0278466Y0211814D01*
X0278466Y0210453D02*
X0256653Y0210453D01*
X0256495Y0210612D02*
X0254712Y0211350D01*
X0252783Y0211350D01*
X0251000Y0210612D01*
X0249636Y0209247D01*
X0248897Y0207465D01*
X0248897Y0205535D01*
X0249636Y0203753D01*
X0251000Y0202388D01*
X0252783Y0201650D01*
X0254712Y0201650D01*
X0256495Y0202388D01*
X0257859Y0203753D01*
X0258597Y0205535D01*
X0258597Y0207465D01*
X0257859Y0209247D01*
X0256495Y0210612D01*
X0257852Y0209254D02*
X0278754Y0209254D01*
X0279251Y0208056D02*
X0258353Y0208056D01*
X0258597Y0206857D02*
X0280421Y0206857D01*
X0277599Y0202768D02*
X0275749Y0203534D01*
X0273746Y0203534D01*
X0271997Y0202810D01*
X0270249Y0203534D01*
X0268246Y0203534D01*
X0266396Y0202768D01*
X0264980Y0201352D01*
X0264213Y0199501D01*
X0264213Y0197499D01*
X0264980Y0195648D01*
X0265128Y0195500D01*
X0264980Y0195352D01*
X0264213Y0193501D01*
X0264213Y0191499D01*
X0264980Y0189648D01*
X0266396Y0188232D01*
X0268246Y0187466D01*
X0270249Y0187466D01*
X0271997Y0188190D01*
X0273746Y0187466D01*
X0275749Y0187466D01*
X0277599Y0188232D01*
X0279015Y0189648D01*
X0279782Y0191499D01*
X0279782Y0193501D01*
X0279015Y0195352D01*
X0278867Y0195500D01*
X0279015Y0195648D01*
X0279782Y0197499D01*
X0279782Y0199501D01*
X0279015Y0201352D01*
X0277599Y0202768D01*
X0278304Y0202063D02*
X0503578Y0202063D01*
X0502380Y0200865D02*
X0279217Y0200865D01*
X0279713Y0199666D02*
X0501181Y0199666D01*
X0499983Y0198468D02*
X0279782Y0198468D01*
X0279687Y0197269D02*
X0289619Y0197269D01*
X0289443Y0197196D02*
X0288051Y0195804D01*
X0287297Y0193985D01*
X0287297Y0192015D01*
X0288051Y0190196D01*
X0289443Y0188804D01*
X0291263Y0188050D01*
X0293232Y0188050D01*
X0295051Y0188804D01*
X0296444Y0190196D01*
X0297197Y0192015D01*
X0297197Y0193985D01*
X0296444Y0195804D01*
X0295051Y0197196D01*
X0293232Y0197950D01*
X0291263Y0197950D01*
X0289443Y0197196D01*
X0288318Y0196071D02*
X0279190Y0196071D01*
X0279214Y0194872D02*
X0287665Y0194872D01*
X0287297Y0193674D02*
X0279710Y0193674D01*
X0279782Y0192475D02*
X0287297Y0192475D01*
X0287603Y0191277D02*
X0279690Y0191277D01*
X0279193Y0190078D02*
X0288169Y0190078D01*
X0289367Y0188880D02*
X0278247Y0188880D01*
X0276269Y0187681D02*
X0489196Y0187681D01*
X0487998Y0186483D02*
X0145847Y0186483D01*
X0145778Y0187681D02*
X0152608Y0187681D01*
X0151297Y0188880D02*
X0145282Y0188880D01*
X0144382Y0190078D02*
X0150632Y0190078D01*
X0150247Y0191277D02*
X0142542Y0191277D01*
X0157886Y0187681D02*
X0267726Y0187681D01*
X0265748Y0188880D02*
X0182659Y0188880D01*
X0184397Y0190078D02*
X0264802Y0190078D01*
X0264305Y0191277D02*
X0185238Y0191277D01*
X0185735Y0192475D02*
X0264213Y0192475D01*
X0264285Y0193674D02*
X0185747Y0193674D01*
X0185591Y0194872D02*
X0264781Y0194872D01*
X0264805Y0196071D02*
X0187913Y0196071D01*
X0185582Y0196071D02*
X0185095Y0196071D01*
X0190088Y0197269D02*
X0264308Y0197269D01*
X0264213Y0198468D02*
X0191110Y0198468D01*
X0191607Y0199666D02*
X0264281Y0199666D01*
X0264778Y0200865D02*
X0191747Y0200865D01*
X0192156Y0202063D02*
X0251785Y0202063D01*
X0250127Y0203262D02*
X0194222Y0203262D01*
X0195216Y0204460D02*
X0249343Y0204460D01*
X0248897Y0205659D02*
X0195712Y0205659D01*
X0195847Y0206857D02*
X0248897Y0206857D01*
X0249142Y0208056D02*
X0195830Y0208056D01*
X0195334Y0209254D02*
X0249643Y0209254D01*
X0250841Y0210453D02*
X0194507Y0210453D01*
X0176400Y0196071D02*
X0158248Y0196071D01*
X0159446Y0194872D02*
X0175904Y0194872D01*
X0175747Y0193674D02*
X0159966Y0193674D01*
X0160247Y0192475D02*
X0175760Y0192475D01*
X0176256Y0191277D02*
X0160247Y0191277D01*
X0159863Y0190078D02*
X0177098Y0190078D01*
X0178836Y0188880D02*
X0159198Y0188880D01*
X0145764Y0185284D02*
X0486799Y0185284D01*
X0485600Y0184086D02*
X0145268Y0184086D01*
X0144347Y0182887D02*
X0484402Y0182887D01*
X0487238Y0180490D02*
X0675747Y0180490D01*
X0675747Y0179292D02*
X0486039Y0179292D01*
X0484841Y0178093D02*
X0675747Y0178093D01*
X0675747Y0176895D02*
X0483642Y0176895D01*
X0482443Y0175696D02*
X0675747Y0175696D01*
X0675747Y0174498D02*
X0481245Y0174498D01*
X0488436Y0181689D02*
X0675747Y0181689D01*
X0675747Y0182887D02*
X0489635Y0182887D01*
X0490833Y0184086D02*
X0536879Y0184086D01*
X0536292Y0184329D02*
X0538534Y0183400D01*
X0540961Y0183400D01*
X0543203Y0184329D01*
X0544919Y0186045D01*
X0545847Y0188287D01*
X0545847Y0190713D01*
X0544919Y0192955D01*
X0543203Y0194671D01*
X0540961Y0195600D01*
X0538534Y0195600D01*
X0536292Y0194671D01*
X0534576Y0192955D01*
X0533647Y0190713D01*
X0533647Y0188287D01*
X0534576Y0186045D01*
X0536292Y0184329D01*
X0535337Y0185284D02*
X0492032Y0185284D01*
X0493230Y0186483D02*
X0534395Y0186483D01*
X0533898Y0187681D02*
X0494429Y0187681D01*
X0495627Y0188880D02*
X0533647Y0188880D01*
X0533647Y0190078D02*
X0496826Y0190078D01*
X0498024Y0191277D02*
X0533881Y0191277D01*
X0534377Y0192475D02*
X0499223Y0192475D01*
X0500421Y0193674D02*
X0535294Y0193674D01*
X0536777Y0194872D02*
X0501620Y0194872D01*
X0502818Y0196071D02*
X0668677Y0196071D01*
X0669875Y0194872D02*
X0577218Y0194872D01*
X0577703Y0194671D02*
X0575461Y0195600D01*
X0573034Y0195600D01*
X0570792Y0194671D01*
X0569076Y0192955D01*
X0568147Y0190713D01*
X0568147Y0188287D01*
X0569076Y0186045D01*
X0570792Y0184329D01*
X0573034Y0183400D01*
X0575461Y0183400D01*
X0577703Y0184329D01*
X0579419Y0186045D01*
X0580347Y0188287D01*
X0580347Y0190713D01*
X0579419Y0192955D01*
X0577703Y0194671D01*
X0578700Y0193674D02*
X0671074Y0193674D01*
X0672272Y0192475D02*
X0579618Y0192475D01*
X0580114Y0191277D02*
X0673471Y0191277D01*
X0674669Y0190078D02*
X0580347Y0190078D01*
X0580347Y0188880D02*
X0675747Y0188880D01*
X0675747Y0187681D02*
X0580097Y0187681D01*
X0579600Y0186483D02*
X0675747Y0186483D01*
X0675747Y0185284D02*
X0578658Y0185284D01*
X0577116Y0184086D02*
X0675747Y0184086D01*
X0679447Y0184086D02*
X0735747Y0184086D01*
X0735747Y0185284D02*
X0679447Y0185284D01*
X0679447Y0186483D02*
X0735747Y0186483D01*
X0735747Y0187681D02*
X0679447Y0187681D01*
X0679447Y0188880D02*
X0735747Y0188880D01*
X0735747Y0190078D02*
X0679306Y0190078D01*
X0678703Y0191277D02*
X0735747Y0191277D01*
X0735747Y0192475D02*
X0690173Y0192475D01*
X0690428Y0192544D02*
X0692938Y0193993D01*
X0694987Y0196042D01*
X0696436Y0198551D01*
X0697186Y0201350D01*
X0697186Y0204248D01*
X0696436Y0207047D01*
X0694987Y0209557D01*
X0692938Y0211606D01*
X0690428Y0213055D01*
X0687629Y0213805D01*
X0684732Y0213805D01*
X0681933Y0213055D01*
X0679423Y0211606D01*
X0677374Y0209557D01*
X0675925Y0207047D01*
X0675175Y0204248D01*
X0675175Y0201350D01*
X0675925Y0198551D01*
X0677374Y0196042D01*
X0679423Y0193993D01*
X0681933Y0192544D01*
X0684732Y0191794D01*
X0687629Y0191794D01*
X0690428Y0192544D01*
X0692386Y0193674D02*
X0735747Y0193674D01*
X0735747Y0194872D02*
X0693818Y0194872D01*
X0695004Y0196071D02*
X0735747Y0196071D01*
X0735747Y0197269D02*
X0695696Y0197269D01*
X0696388Y0198468D02*
X0735747Y0198468D01*
X0735747Y0199666D02*
X0696735Y0199666D01*
X0697056Y0200865D02*
X0735747Y0200865D01*
X0735747Y0202063D02*
X0697186Y0202063D01*
X0697186Y0203262D02*
X0735747Y0203262D01*
X0735747Y0204460D02*
X0697129Y0204460D01*
X0696808Y0205659D02*
X0735747Y0205659D01*
X0735747Y0206857D02*
X0696487Y0206857D01*
X0695854Y0208056D02*
X0735747Y0208056D01*
X0735747Y0209254D02*
X0695162Y0209254D01*
X0694091Y0210453D02*
X0735747Y0210453D01*
X0735747Y0211651D02*
X0692859Y0211651D01*
X0690783Y0212850D02*
X0735747Y0212850D01*
X0735747Y0214048D02*
X0493528Y0214048D01*
X0493884Y0214404D02*
X0507280Y0227800D01*
X0581483Y0227800D01*
X0582843Y0228363D01*
X0583884Y0229404D01*
X0598884Y0244404D01*
X0599447Y0245764D01*
X0599447Y0267236D01*
X0599214Y0267800D01*
X0676483Y0267800D01*
X0677843Y0268363D01*
X0682843Y0273363D01*
X0683884Y0274404D01*
X0684447Y0275764D01*
X0684447Y0297236D01*
X0683884Y0298596D01*
X0663884Y0318596D01*
X0662843Y0319637D01*
X0661483Y0320200D01*
X0540011Y0320200D01*
X0538652Y0319637D01*
X0533652Y0314637D01*
X0532611Y0313596D01*
X0532047Y0312236D01*
X0532047Y0275764D01*
X0532281Y0275200D01*
X0510011Y0275200D01*
X0508652Y0274637D01*
X0507611Y0273596D01*
X0502611Y0268596D01*
X0494215Y0260200D01*
X0492992Y0260200D01*
X0493058Y0260266D01*
X0493922Y0262352D01*
X0493922Y0264609D01*
X0493058Y0266695D01*
X0491462Y0268291D01*
X0491445Y0268298D01*
X0491818Y0268812D01*
X0492116Y0269397D01*
X0492319Y0270022D01*
X0492422Y0270671D01*
X0492422Y0270813D01*
X0488435Y0270813D01*
X0488435Y0271187D01*
X0492422Y0271187D01*
X0492422Y0271329D01*
X0492319Y0271978D01*
X0492116Y0272603D01*
X0491818Y0273188D01*
X0491445Y0273702D01*
X0491462Y0273709D01*
X0493058Y0275305D01*
X0493922Y0277391D01*
X0493922Y0279648D01*
X0493058Y0281734D01*
X0491462Y0283331D01*
X0489376Y0284194D01*
X0487119Y0284194D01*
X0485033Y0283331D01*
X0483437Y0281734D01*
X0482573Y0279648D01*
X0482573Y0277391D01*
X0483437Y0275305D01*
X0485033Y0273709D01*
X0485050Y0273702D01*
X0484677Y0273188D01*
X0484378Y0272603D01*
X0484175Y0271978D01*
X0484073Y0271329D01*
X0484073Y0271187D01*
X0488060Y0271187D01*
X0488060Y0270813D01*
X0484073Y0270813D01*
X0484073Y0270671D01*
X0484175Y0270022D01*
X0484378Y0269397D01*
X0484677Y0268812D01*
X0485050Y0268298D01*
X0485033Y0268291D01*
X0483437Y0266695D01*
X0482573Y0264609D01*
X0482573Y0262352D01*
X0483437Y0260266D01*
X0483502Y0260200D01*
X0477280Y0260200D01*
X0472843Y0264637D01*
X0471483Y0265200D01*
X0440011Y0265200D01*
X0438652Y0264637D01*
X0437611Y0263596D01*
X0437047Y0262236D01*
X0437047Y0220764D01*
X0437611Y0219404D01*
X0438652Y0218363D01*
X0443652Y0213363D01*
X0445011Y0212800D01*
X0491483Y0212800D01*
X0492843Y0213363D01*
X0493884Y0214404D01*
X0494727Y0215247D02*
X0735747Y0215247D01*
X0735747Y0216445D02*
X0495925Y0216445D01*
X0497124Y0217644D02*
X0735747Y0217644D01*
X0735747Y0218842D02*
X0690632Y0218842D01*
X0690428Y0218725D02*
X0692938Y0220174D01*
X0694987Y0222223D01*
X0696436Y0224732D01*
X0697186Y0227531D01*
X0697186Y0230429D01*
X0696436Y0233228D01*
X0694987Y0235738D01*
X0692938Y0237787D01*
X0690428Y0239236D01*
X0687629Y0239986D01*
X0684732Y0239986D01*
X0681933Y0239236D01*
X0679423Y0237787D01*
X0677374Y0235738D01*
X0675925Y0233228D01*
X0675175Y0230429D01*
X0675175Y0227531D01*
X0675925Y0224732D01*
X0677374Y0222223D01*
X0679423Y0220174D01*
X0681933Y0218725D01*
X0684732Y0217975D01*
X0687629Y0217975D01*
X0690428Y0218725D01*
X0692708Y0220041D02*
X0735747Y0220041D01*
X0735747Y0221239D02*
X0694004Y0221239D01*
X0695111Y0222438D02*
X0735747Y0222438D01*
X0735747Y0223637D02*
X0695803Y0223637D01*
X0696464Y0224835D02*
X0735747Y0224835D01*
X0735747Y0226034D02*
X0696785Y0226034D01*
X0697106Y0227232D02*
X0735747Y0227232D01*
X0735747Y0228431D02*
X0697186Y0228431D01*
X0697186Y0229629D02*
X0735747Y0229629D01*
X0735747Y0230828D02*
X0697079Y0230828D01*
X0696758Y0232026D02*
X0735747Y0232026D01*
X0735747Y0233225D02*
X0696437Y0233225D01*
X0695746Y0234423D02*
X0735747Y0234423D01*
X0735747Y0235622D02*
X0695054Y0235622D01*
X0693905Y0236820D02*
X0735747Y0236820D01*
X0735747Y0238019D02*
X0692537Y0238019D01*
X0690461Y0239217D02*
X0735747Y0239217D01*
X0735747Y0240416D02*
X0594896Y0240416D01*
X0596094Y0241614D02*
X0735747Y0241614D01*
X0735747Y0242813D02*
X0653531Y0242813D01*
X0653683Y0242853D02*
X0654786Y0243310D01*
X0655821Y0243908D01*
X0656768Y0244635D01*
X0657613Y0245479D01*
X0658340Y0246427D01*
X0658937Y0247461D01*
X0659394Y0248565D01*
X0659703Y0249719D01*
X0659859Y0250900D01*
X0651347Y0250900D01*
X0651347Y0242389D01*
X0652529Y0242544D01*
X0653683Y0242853D01*
X0651347Y0242813D02*
X0650147Y0242813D01*
X0650147Y0242389D02*
X0650147Y0250900D01*
X0641636Y0250900D01*
X0641792Y0249719D01*
X0642101Y0248565D01*
X0642558Y0247461D01*
X0643155Y0246427D01*
X0643882Y0245479D01*
X0644727Y0244635D01*
X0645674Y0243908D01*
X0646709Y0243310D01*
X0647812Y0242853D01*
X0648966Y0242544D01*
X0650147Y0242389D01*
X0650147Y0244011D02*
X0651347Y0244011D01*
X0651347Y0245210D02*
X0650147Y0245210D01*
X0650147Y0246408D02*
X0651347Y0246408D01*
X0651347Y0247607D02*
X0650147Y0247607D01*
X0650147Y0248805D02*
X0651347Y0248805D01*
X0651347Y0250004D02*
X0650147Y0250004D01*
X0650147Y0250900D02*
X0651347Y0250900D01*
X0651347Y0252100D01*
X0650147Y0252100D01*
X0650147Y0250900D01*
X0650147Y0251202D02*
X0631662Y0251202D01*
X0631662Y0250900D02*
X0631662Y0252100D01*
X0630462Y0252100D01*
X0630462Y0250900D01*
X0621951Y0250900D01*
X0622106Y0249719D01*
X0622416Y0248565D01*
X0622873Y0247461D01*
X0623470Y0246427D01*
X0624197Y0245479D01*
X0625042Y0244635D01*
X0625989Y0243908D01*
X0627024Y0243310D01*
X0628127Y0242853D01*
X0629281Y0242544D01*
X0630462Y0242389D01*
X0630462Y0250900D01*
X0631662Y0250900D01*
X0631662Y0242389D01*
X0632844Y0242544D01*
X0633998Y0242853D01*
X0635101Y0243310D01*
X0636136Y0243908D01*
X0637083Y0244635D01*
X0637928Y0245479D01*
X0638655Y0246427D01*
X0639252Y0247461D01*
X0639709Y0248565D01*
X0640018Y0249719D01*
X0640174Y0250900D01*
X0631662Y0250900D01*
X0631662Y0250004D02*
X0630462Y0250004D01*
X0630462Y0251202D02*
X0599447Y0251202D01*
X0599447Y0250004D02*
X0622069Y0250004D01*
X0622351Y0248805D02*
X0599447Y0248805D01*
X0599447Y0247607D02*
X0622812Y0247607D01*
X0623484Y0246408D02*
X0599447Y0246408D01*
X0599218Y0245210D02*
X0624467Y0245210D01*
X0625854Y0244011D02*
X0598491Y0244011D01*
X0597293Y0242813D02*
X0628279Y0242813D01*
X0630462Y0242813D02*
X0631662Y0242813D01*
X0631662Y0244011D02*
X0630462Y0244011D01*
X0630462Y0245210D02*
X0631662Y0245210D01*
X0631662Y0246408D02*
X0630462Y0246408D01*
X0630462Y0247607D02*
X0631662Y0247607D01*
X0631662Y0248805D02*
X0630462Y0248805D01*
X0630462Y0252100D02*
X0621951Y0252100D01*
X0622106Y0253281D01*
X0622416Y0254435D01*
X0622873Y0255539D01*
X0623470Y0256573D01*
X0624197Y0257521D01*
X0625042Y0258365D01*
X0625989Y0259092D01*
X0627024Y0259690D01*
X0628127Y0260147D01*
X0629281Y0260456D01*
X0630462Y0260611D01*
X0630462Y0252100D01*
X0630462Y0252401D02*
X0631662Y0252401D01*
X0631662Y0252100D02*
X0631662Y0260611D01*
X0632844Y0260456D01*
X0633998Y0260147D01*
X0635101Y0259690D01*
X0636136Y0259092D01*
X0637083Y0258365D01*
X0637928Y0257521D01*
X0638655Y0256573D01*
X0639252Y0255539D01*
X0639709Y0254435D01*
X0640018Y0253281D01*
X0640174Y0252100D01*
X0631662Y0252100D01*
X0631662Y0253599D02*
X0630462Y0253599D01*
X0630462Y0254798D02*
X0631662Y0254798D01*
X0631662Y0255996D02*
X0630462Y0255996D01*
X0630462Y0257195D02*
X0631662Y0257195D01*
X0631662Y0258393D02*
X0630462Y0258393D01*
X0630462Y0259592D02*
X0631662Y0259592D01*
X0635271Y0259592D02*
X0646539Y0259592D01*
X0646709Y0259690D02*
X0645674Y0259092D01*
X0644727Y0258365D01*
X0643882Y0257521D01*
X0643155Y0256573D01*
X0642558Y0255539D01*
X0642101Y0254435D01*
X0641792Y0253281D01*
X0641636Y0252100D01*
X0650147Y0252100D01*
X0650147Y0260611D01*
X0648966Y0260456D01*
X0647812Y0260147D01*
X0646709Y0259690D01*
X0644763Y0258393D02*
X0637047Y0258393D01*
X0638178Y0257195D02*
X0643632Y0257195D01*
X0642822Y0255996D02*
X0638988Y0255996D01*
X0639559Y0254798D02*
X0642251Y0254798D01*
X0641877Y0253599D02*
X0639933Y0253599D01*
X0640134Y0252401D02*
X0641676Y0252401D01*
X0641754Y0250004D02*
X0640056Y0250004D01*
X0639774Y0248805D02*
X0642036Y0248805D01*
X0642498Y0247607D02*
X0639312Y0247607D01*
X0638641Y0246408D02*
X0643169Y0246408D01*
X0644152Y0245210D02*
X0637658Y0245210D01*
X0636271Y0244011D02*
X0645539Y0244011D01*
X0647964Y0242813D02*
X0633846Y0242813D01*
X0621991Y0252401D02*
X0599447Y0252401D01*
X0599447Y0253599D02*
X0622192Y0253599D01*
X0622566Y0254798D02*
X0599447Y0254798D01*
X0599447Y0255996D02*
X0623137Y0255996D01*
X0623947Y0257195D02*
X0599447Y0257195D01*
X0599447Y0258393D02*
X0625078Y0258393D01*
X0626854Y0259592D02*
X0599447Y0259592D01*
X0599447Y0260790D02*
X0735747Y0260790D01*
X0735747Y0259592D02*
X0654956Y0259592D01*
X0654786Y0259690D02*
X0653683Y0260147D01*
X0652529Y0260456D01*
X0651347Y0260611D01*
X0651347Y0252100D01*
X0659859Y0252100D01*
X0659703Y0253281D01*
X0659394Y0254435D01*
X0658937Y0255539D01*
X0658340Y0256573D01*
X0657613Y0257521D01*
X0656768Y0258365D01*
X0655821Y0259092D01*
X0654786Y0259690D01*
X0656732Y0258393D02*
X0735747Y0258393D01*
X0735747Y0257195D02*
X0657863Y0257195D01*
X0658673Y0255996D02*
X0735747Y0255996D01*
X0735747Y0254798D02*
X0659244Y0254798D01*
X0659618Y0253599D02*
X0735747Y0253599D01*
X0735747Y0252401D02*
X0659819Y0252401D01*
X0659741Y0250004D02*
X0735747Y0250004D01*
X0735747Y0251202D02*
X0651347Y0251202D01*
X0651347Y0252401D02*
X0650147Y0252401D01*
X0650147Y0253599D02*
X0651347Y0253599D01*
X0651347Y0254798D02*
X0650147Y0254798D01*
X0650147Y0255996D02*
X0651347Y0255996D01*
X0651347Y0257195D02*
X0650147Y0257195D01*
X0650147Y0258393D02*
X0651347Y0258393D01*
X0651347Y0259592D02*
X0650147Y0259592D01*
X0659459Y0248805D02*
X0735747Y0248805D01*
X0735747Y0247607D02*
X0658997Y0247607D01*
X0658326Y0246408D02*
X0735747Y0246408D01*
X0735747Y0245210D02*
X0657343Y0245210D01*
X0655956Y0244011D02*
X0735747Y0244011D01*
X0735747Y0261989D02*
X0599447Y0261989D01*
X0599447Y0263187D02*
X0735747Y0263187D01*
X0735747Y0264386D02*
X0599447Y0264386D01*
X0599447Y0265584D02*
X0735747Y0265584D01*
X0735747Y0266783D02*
X0599447Y0266783D01*
X0595747Y0266500D02*
X0593947Y0268300D01*
X0540111Y0268300D01*
X0538935Y0268787D01*
X0538035Y0269687D01*
X0536222Y0271500D01*
X0510747Y0271500D01*
X0495747Y0256500D01*
X0475747Y0256500D01*
X0470747Y0261500D01*
X0440747Y0261500D01*
X0440747Y0221500D01*
X0445747Y0216500D01*
X0490747Y0216500D01*
X0505747Y0231500D01*
X0580747Y0231500D01*
X0595747Y0246500D01*
X0595747Y0266500D01*
X0595465Y0266783D02*
X0506030Y0266783D01*
X0504832Y0265584D02*
X0595747Y0265584D01*
X0595747Y0264386D02*
X0503633Y0264386D01*
X0502435Y0263187D02*
X0595747Y0263187D01*
X0595747Y0261989D02*
X0501236Y0261989D01*
X0500038Y0260790D02*
X0595747Y0260790D01*
X0595747Y0259592D02*
X0498839Y0259592D01*
X0497641Y0258393D02*
X0595747Y0258393D01*
X0595747Y0257195D02*
X0496442Y0257195D01*
X0494805Y0260790D02*
X0493276Y0260790D01*
X0493772Y0261989D02*
X0496004Y0261989D01*
X0497202Y0263187D02*
X0493922Y0263187D01*
X0493922Y0264386D02*
X0498401Y0264386D01*
X0499599Y0265584D02*
X0493518Y0265584D01*
X0492970Y0266783D02*
X0500798Y0266783D01*
X0501996Y0267981D02*
X0491772Y0267981D01*
X0492006Y0269180D02*
X0503195Y0269180D01*
X0504393Y0270378D02*
X0492376Y0270378D01*
X0492383Y0271577D02*
X0505592Y0271577D01*
X0506790Y0272775D02*
X0492028Y0272775D01*
X0491727Y0273974D02*
X0507989Y0273974D01*
X0509945Y0275172D02*
X0492926Y0275172D01*
X0493500Y0276371D02*
X0532047Y0276371D01*
X0532047Y0277570D02*
X0493922Y0277570D01*
X0493922Y0278768D02*
X0532047Y0278768D01*
X0532047Y0279967D02*
X0493790Y0279967D01*
X0493294Y0281165D02*
X0532047Y0281165D01*
X0532047Y0282364D02*
X0492429Y0282364D01*
X0490903Y0283562D02*
X0532047Y0283562D01*
X0532047Y0284761D02*
X0277124Y0284761D01*
X0277071Y0284889D02*
X0277847Y0283014D01*
X0277847Y0280986D01*
X0277071Y0279111D01*
X0275636Y0277676D01*
X0273762Y0276900D01*
X0271733Y0276900D01*
X0269859Y0277676D01*
X0268424Y0279111D01*
X0267647Y0280986D01*
X0267647Y0283014D01*
X0268424Y0284889D01*
X0269859Y0286324D01*
X0271733Y0287100D01*
X0273762Y0287100D01*
X0275636Y0286324D01*
X0277071Y0284889D01*
X0277621Y0283562D02*
X0485592Y0283562D01*
X0484066Y0282364D02*
X0277847Y0282364D01*
X0277847Y0281165D02*
X0483201Y0281165D01*
X0482704Y0279967D02*
X0277425Y0279967D01*
X0276728Y0278768D02*
X0482573Y0278768D01*
X0482573Y0277570D02*
X0275378Y0277570D01*
X0270117Y0277570D02*
X0258716Y0277570D01*
X0258747Y0277495D02*
X0257986Y0279332D01*
X0256580Y0280739D01*
X0254742Y0281500D01*
X0252753Y0281500D01*
X0250915Y0280739D01*
X0249509Y0279332D01*
X0248747Y0277495D01*
X0248747Y0275505D01*
X0249509Y0273668D01*
X0250915Y0272261D01*
X0252753Y0271500D01*
X0254742Y0271500D01*
X0256580Y0272261D01*
X0257986Y0273668D01*
X0258747Y0275505D01*
X0258747Y0277495D01*
X0258747Y0276371D02*
X0482995Y0276371D01*
X0483569Y0275172D02*
X0258610Y0275172D01*
X0258113Y0273974D02*
X0326150Y0273974D01*
X0326415Y0274239D02*
X0325009Y0272832D01*
X0324247Y0270995D01*
X0324247Y0269005D01*
X0325009Y0267168D01*
X0325926Y0266250D01*
X0325009Y0265332D01*
X0324247Y0263495D01*
X0324247Y0261505D01*
X0325009Y0259668D01*
X0326415Y0258261D01*
X0328253Y0257500D01*
X0330242Y0257500D01*
X0332080Y0258261D01*
X0332997Y0259179D01*
X0333915Y0258261D01*
X0335753Y0257500D01*
X0337742Y0257500D01*
X0339580Y0258261D01*
X0340986Y0259668D01*
X0341747Y0261505D01*
X0341747Y0263495D01*
X0340986Y0265332D01*
X0340068Y0266250D01*
X0340986Y0267168D01*
X0341747Y0269005D01*
X0341747Y0270995D01*
X0340986Y0272832D01*
X0339580Y0274239D01*
X0337742Y0275000D01*
X0335753Y0275000D01*
X0333915Y0274239D01*
X0332997Y0273321D01*
X0332080Y0274239D01*
X0330242Y0275000D01*
X0328253Y0275000D01*
X0326415Y0274239D01*
X0324985Y0272775D02*
X0257094Y0272775D01*
X0254928Y0271577D02*
X0324489Y0271577D01*
X0324247Y0270378D02*
X0208347Y0270378D01*
X0208347Y0271314D02*
X0208347Y0269286D01*
X0207571Y0267411D01*
X0207239Y0267079D01*
X0207486Y0266832D01*
X0208247Y0264995D01*
X0208247Y0263005D01*
X0207486Y0261168D01*
X0206080Y0259761D01*
X0204242Y0259000D01*
X0202253Y0259000D01*
X0200415Y0259761D01*
X0199009Y0261168D01*
X0198247Y0263005D01*
X0198247Y0264995D01*
X0199009Y0266832D01*
X0199256Y0267079D01*
X0198924Y0267411D01*
X0198147Y0269286D01*
X0198147Y0271314D01*
X0198924Y0273189D01*
X0200359Y0274624D01*
X0202233Y0275400D01*
X0204262Y0275400D01*
X0204899Y0275136D01*
X0203924Y0276111D01*
X0203147Y0277986D01*
X0203147Y0280014D01*
X0203924Y0281889D01*
X0205359Y0283324D01*
X0207233Y0284100D01*
X0209262Y0284100D01*
X0211136Y0283324D01*
X0212571Y0281889D01*
X0213347Y0280014D01*
X0213347Y0277986D01*
X0212571Y0276111D01*
X0211136Y0274676D01*
X0209262Y0273900D01*
X0207233Y0273900D01*
X0206596Y0274164D01*
X0207571Y0273189D01*
X0208347Y0271314D01*
X0208239Y0271577D02*
X0252567Y0271577D01*
X0250401Y0272775D02*
X0207742Y0272775D01*
X0207054Y0273974D02*
X0206786Y0273974D01*
X0204862Y0275172D02*
X0204811Y0275172D01*
X0203816Y0276371D02*
X0163247Y0276371D01*
X0163247Y0275505D02*
X0163247Y0277495D01*
X0162486Y0279332D01*
X0161080Y0280739D01*
X0159242Y0281500D01*
X0157253Y0281500D01*
X0155747Y0280876D01*
X0155747Y0282495D01*
X0154986Y0284332D01*
X0153580Y0285739D01*
X0151742Y0286500D01*
X0149753Y0286500D01*
X0147915Y0285739D01*
X0146509Y0284332D01*
X0145747Y0282495D01*
X0145747Y0280505D01*
X0146509Y0278668D01*
X0147915Y0277261D01*
X0149753Y0276500D01*
X0151742Y0276500D01*
X0153247Y0277124D01*
X0153247Y0275505D01*
X0154009Y0273668D01*
X0155415Y0272261D01*
X0157253Y0271500D01*
X0159242Y0271500D01*
X0161080Y0272261D01*
X0162486Y0273668D01*
X0163247Y0275505D01*
X0163110Y0275172D02*
X0201684Y0275172D01*
X0199709Y0273974D02*
X0162613Y0273974D01*
X0161594Y0272775D02*
X0198753Y0272775D01*
X0198256Y0271577D02*
X0159428Y0271577D01*
X0157067Y0271577D02*
X0065747Y0271577D01*
X0065747Y0272775D02*
X0154901Y0272775D01*
X0153882Y0273974D02*
X0065747Y0273974D01*
X0065747Y0275172D02*
X0153385Y0275172D01*
X0153247Y0276371D02*
X0065747Y0276371D01*
X0065747Y0277570D02*
X0147607Y0277570D01*
X0146467Y0278768D02*
X0065747Y0278768D01*
X0065747Y0279967D02*
X0145971Y0279967D01*
X0145747Y0281165D02*
X0065747Y0281165D01*
X0065747Y0282364D02*
X0145747Y0282364D01*
X0146190Y0283562D02*
X0065747Y0283562D01*
X0065747Y0284761D02*
X0146937Y0284761D01*
X0148447Y0285959D02*
X0065747Y0285959D01*
X0065747Y0287158D02*
X0532047Y0287158D01*
X0532047Y0288356D02*
X0065747Y0288356D01*
X0065747Y0289555D02*
X0532047Y0289555D01*
X0532047Y0290753D02*
X0315191Y0290753D01*
X0315127Y0290690D02*
X0316558Y0292120D01*
X0317332Y0293989D01*
X0317332Y0296011D01*
X0316558Y0297880D01*
X0315127Y0299310D01*
X0313259Y0300084D01*
X0311236Y0300084D01*
X0309367Y0299310D01*
X0307937Y0297880D01*
X0307163Y0296011D01*
X0307163Y0293989D01*
X0307937Y0292120D01*
X0309367Y0290690D01*
X0311236Y0289916D01*
X0313259Y0289916D01*
X0315127Y0290690D01*
X0316389Y0291952D02*
X0344106Y0291952D01*
X0344367Y0291690D02*
X0346236Y0290916D01*
X0348259Y0290916D01*
X0350127Y0291690D01*
X0351558Y0293120D01*
X0352332Y0294989D01*
X0352332Y0297011D01*
X0351558Y0298880D01*
X0350127Y0300310D01*
X0348259Y0301084D01*
X0346236Y0301084D01*
X0344367Y0300310D01*
X0342937Y0298880D01*
X0342163Y0297011D01*
X0342163Y0294989D01*
X0342937Y0293120D01*
X0344367Y0291690D01*
X0342925Y0293150D02*
X0316984Y0293150D01*
X0317332Y0294349D02*
X0342428Y0294349D01*
X0342163Y0295547D02*
X0317332Y0295547D01*
X0317027Y0296746D02*
X0342163Y0296746D01*
X0342550Y0297944D02*
X0316493Y0297944D01*
X0315295Y0299143D02*
X0343200Y0299143D01*
X0344442Y0300341D02*
X0258288Y0300341D01*
X0258347Y0300486D02*
X0257571Y0298611D01*
X0256136Y0297176D01*
X0254262Y0296400D01*
X0252233Y0296400D01*
X0250359Y0297176D01*
X0248924Y0298611D01*
X0248147Y0300486D01*
X0248147Y0302514D01*
X0248924Y0304389D01*
X0250359Y0305824D01*
X0252233Y0306600D01*
X0254262Y0306600D01*
X0256136Y0305824D01*
X0257571Y0304389D01*
X0258347Y0302514D01*
X0258347Y0300486D01*
X0258347Y0301540D02*
X0388296Y0301540D01*
X0388437Y0301880D02*
X0387663Y0300011D01*
X0387663Y0297989D01*
X0388437Y0296120D01*
X0389867Y0294690D01*
X0391736Y0293916D01*
X0393759Y0293916D01*
X0395627Y0294690D01*
X0397058Y0296120D01*
X0397832Y0297989D01*
X0397832Y0300011D01*
X0397546Y0300702D01*
X0398236Y0300416D01*
X0400259Y0300416D01*
X0402127Y0301190D01*
X0403558Y0302620D01*
X0404332Y0304489D01*
X0404332Y0306511D01*
X0403558Y0308380D01*
X0402127Y0309810D01*
X0400259Y0310584D01*
X0398236Y0310584D01*
X0396367Y0309810D01*
X0394937Y0308380D01*
X0394163Y0306511D01*
X0394163Y0304489D01*
X0394449Y0303798D01*
X0393759Y0304084D01*
X0391736Y0304084D01*
X0389867Y0303310D01*
X0388437Y0301880D01*
X0389295Y0302738D02*
X0258255Y0302738D01*
X0257758Y0303937D02*
X0391380Y0303937D01*
X0394115Y0303937D02*
X0394392Y0303937D01*
X0394163Y0305135D02*
X0256825Y0305135D01*
X0254905Y0306334D02*
X0300227Y0306334D01*
X0299367Y0306690D02*
X0301236Y0305916D01*
X0303259Y0305916D01*
X0305127Y0306690D01*
X0306558Y0308120D01*
X0307332Y0309989D01*
X0307332Y0312011D01*
X0306558Y0313880D01*
X0305127Y0315310D01*
X0303259Y0316084D01*
X0301236Y0316084D01*
X0299367Y0315310D01*
X0297937Y0313880D01*
X0297163Y0312011D01*
X0297163Y0309989D01*
X0297937Y0308120D01*
X0299367Y0306690D01*
X0298525Y0307532D02*
X0147133Y0307532D01*
X0147347Y0307014D02*
X0146571Y0308889D01*
X0145136Y0310324D01*
X0143262Y0311100D01*
X0141233Y0311100D01*
X0139359Y0310324D01*
X0137924Y0308889D01*
X0137147Y0307014D01*
X0137147Y0306440D01*
X0136762Y0306600D01*
X0134733Y0306600D01*
X0133847Y0306233D01*
X0133847Y0307514D01*
X0133071Y0309389D01*
X0131636Y0310824D01*
X0129762Y0311600D01*
X0127733Y0311600D01*
X0125859Y0310824D01*
X0124424Y0309389D01*
X0123647Y0307514D01*
X0123647Y0305486D01*
X0124424Y0303611D01*
X0125859Y0302176D01*
X0127733Y0301400D01*
X0129762Y0301400D01*
X0130647Y0301767D01*
X0130647Y0300486D01*
X0131424Y0298611D01*
X0132859Y0297176D01*
X0134733Y0296400D01*
X0136762Y0296400D01*
X0138636Y0297176D01*
X0140071Y0298611D01*
X0140847Y0300486D01*
X0140847Y0301060D01*
X0141233Y0300900D01*
X0143262Y0300900D01*
X0145136Y0301676D01*
X0146571Y0303111D01*
X0147347Y0304986D01*
X0147347Y0307014D01*
X0147347Y0306334D02*
X0251590Y0306334D01*
X0249670Y0305135D02*
X0147347Y0305135D01*
X0146913Y0303937D02*
X0248737Y0303937D01*
X0248240Y0302738D02*
X0146198Y0302738D01*
X0144806Y0301540D02*
X0248147Y0301540D01*
X0248207Y0300341D02*
X0140788Y0300341D01*
X0140291Y0299143D02*
X0248704Y0299143D01*
X0249591Y0297944D02*
X0139404Y0297944D01*
X0137596Y0296746D02*
X0251398Y0296746D01*
X0255096Y0296746D02*
X0307467Y0296746D01*
X0307163Y0295547D02*
X0065747Y0295547D01*
X0065747Y0294349D02*
X0307163Y0294349D01*
X0307511Y0293150D02*
X0065747Y0293150D01*
X0065747Y0291952D02*
X0308106Y0291952D01*
X0309304Y0290753D02*
X0065747Y0290753D01*
X0065747Y0296746D02*
X0133898Y0296746D01*
X0132091Y0297944D02*
X0065747Y0297944D01*
X0065747Y0299143D02*
X0131204Y0299143D01*
X0130707Y0300341D02*
X0065747Y0300341D01*
X0065747Y0301540D02*
X0127396Y0301540D01*
X0125297Y0302738D02*
X0116198Y0302738D01*
X0116136Y0302676D02*
X0117571Y0304111D01*
X0118347Y0305986D01*
X0118347Y0308014D01*
X0117571Y0309889D01*
X0116136Y0311324D01*
X0114262Y0312100D01*
X0112233Y0312100D01*
X0110359Y0311324D01*
X0108924Y0309889D01*
X0108147Y0308014D01*
X0108147Y0305986D01*
X0108924Y0304111D01*
X0110359Y0302676D01*
X0112233Y0301900D01*
X0114262Y0301900D01*
X0116136Y0302676D01*
X0117397Y0303937D02*
X0124289Y0303937D01*
X0123793Y0305135D02*
X0117995Y0305135D01*
X0118347Y0306334D02*
X0123647Y0306334D01*
X0123655Y0307532D02*
X0118347Y0307532D01*
X0118051Y0308731D02*
X0124151Y0308731D01*
X0124964Y0309929D02*
X0117531Y0309929D01*
X0116332Y0311128D02*
X0126593Y0311128D01*
X0130902Y0311128D02*
X0178721Y0311128D01*
X0178770Y0311008D02*
X0180256Y0309523D01*
X0182197Y0308719D01*
X0184298Y0308719D01*
X0186239Y0309523D01*
X0187725Y0311008D01*
X0188529Y0312950D01*
X0188529Y0315050D01*
X0187725Y0316991D01*
X0186239Y0318477D01*
X0184298Y0319281D01*
X0182197Y0319281D01*
X0180256Y0318477D01*
X0178770Y0316991D01*
X0177966Y0315050D01*
X0177966Y0312950D01*
X0178770Y0311008D01*
X0178224Y0312326D02*
X0065747Y0312326D01*
X0065747Y0311128D02*
X0110163Y0311128D01*
X0108964Y0309929D02*
X0065747Y0309929D01*
X0065747Y0308731D02*
X0108444Y0308731D01*
X0108147Y0307532D02*
X0065747Y0307532D01*
X0065747Y0306334D02*
X0108147Y0306334D01*
X0108500Y0305135D02*
X0065747Y0305135D01*
X0065747Y0303937D02*
X0109098Y0303937D01*
X0110297Y0302738D02*
X0065747Y0302738D01*
X0065747Y0313525D02*
X0177966Y0313525D01*
X0177966Y0314723D02*
X0065747Y0314723D01*
X0065747Y0315922D02*
X0178327Y0315922D01*
X0178899Y0317120D02*
X0065747Y0317120D01*
X0065747Y0318319D02*
X0180098Y0318319D01*
X0186397Y0318319D02*
X0267483Y0318319D01*
X0268253Y0318000D02*
X0270242Y0318000D01*
X0272080Y0318761D01*
X0273486Y0320168D01*
X0274247Y0322005D01*
X0274247Y0323995D01*
X0273486Y0325832D01*
X0272080Y0327239D01*
X0270242Y0328000D01*
X0268253Y0328000D01*
X0266415Y0327239D01*
X0265009Y0325832D01*
X0264247Y0323995D01*
X0264247Y0322005D01*
X0265009Y0320168D01*
X0266415Y0318761D01*
X0268253Y0318000D01*
X0271012Y0318319D02*
X0347163Y0318319D01*
X0347163Y0317489D02*
X0347937Y0315620D01*
X0349367Y0314190D01*
X0351236Y0313416D01*
X0353259Y0313416D01*
X0355127Y0314190D01*
X0356558Y0315620D01*
X0357332Y0317489D01*
X0357332Y0319511D01*
X0356558Y0321380D01*
X0355127Y0322810D01*
X0353259Y0323584D01*
X0351236Y0323584D01*
X0349367Y0322810D01*
X0347937Y0321380D01*
X0347163Y0319511D01*
X0347163Y0317489D01*
X0347316Y0317120D02*
X0187596Y0317120D01*
X0188168Y0315922D02*
X0300844Y0315922D01*
X0298781Y0314723D02*
X0188529Y0314723D01*
X0188529Y0313525D02*
X0297790Y0313525D01*
X0297294Y0312326D02*
X0188270Y0312326D01*
X0187774Y0311128D02*
X0297163Y0311128D01*
X0297188Y0309929D02*
X0186645Y0309929D01*
X0184327Y0308731D02*
X0297684Y0308731D01*
X0304268Y0306334D02*
X0394163Y0306334D01*
X0394586Y0307532D02*
X0305970Y0307532D01*
X0306811Y0308731D02*
X0395288Y0308731D01*
X0396655Y0309929D02*
X0307307Y0309929D01*
X0307332Y0311128D02*
X0532047Y0311128D01*
X0532047Y0309929D02*
X0401840Y0309929D01*
X0403207Y0308731D02*
X0532047Y0308731D01*
X0532047Y0307532D02*
X0403909Y0307532D01*
X0404332Y0306334D02*
X0532047Y0306334D01*
X0532047Y0305135D02*
X0404332Y0305135D01*
X0404103Y0303937D02*
X0532047Y0303937D01*
X0532047Y0302738D02*
X0403607Y0302738D01*
X0402477Y0301540D02*
X0532047Y0301540D01*
X0532047Y0300341D02*
X0495053Y0300341D01*
X0495127Y0300310D02*
X0493259Y0301084D01*
X0491236Y0301084D01*
X0489367Y0300310D01*
X0487937Y0298880D01*
X0487163Y0297011D01*
X0487163Y0294989D01*
X0487937Y0293120D01*
X0489367Y0291690D01*
X0491236Y0290916D01*
X0493259Y0290916D01*
X0495127Y0291690D01*
X0496558Y0293120D01*
X0497332Y0294989D01*
X0497332Y0297011D01*
X0496558Y0298880D01*
X0495127Y0300310D01*
X0496295Y0299143D02*
X0532047Y0299143D01*
X0532047Y0297944D02*
X0496945Y0297944D01*
X0497332Y0296746D02*
X0532047Y0296746D01*
X0532047Y0295547D02*
X0497332Y0295547D01*
X0497067Y0294349D02*
X0532047Y0294349D01*
X0532047Y0293150D02*
X0496570Y0293150D01*
X0495389Y0291952D02*
X0532047Y0291952D01*
X0535747Y0291952D02*
X0680747Y0291952D01*
X0680747Y0293150D02*
X0535747Y0293150D01*
X0535747Y0294349D02*
X0680747Y0294349D01*
X0680747Y0295547D02*
X0535747Y0295547D01*
X0535747Y0296746D02*
X0680502Y0296746D01*
X0680747Y0296500D02*
X0680747Y0276500D01*
X0675747Y0271500D01*
X0540747Y0271500D01*
X0535747Y0276500D01*
X0535747Y0311500D01*
X0540747Y0316500D01*
X0660747Y0316500D01*
X0680747Y0296500D01*
X0679303Y0297944D02*
X0535747Y0297944D01*
X0535747Y0299143D02*
X0678105Y0299143D01*
X0676906Y0300341D02*
X0535747Y0300341D01*
X0535747Y0301540D02*
X0675708Y0301540D01*
X0674509Y0302738D02*
X0535747Y0302738D01*
X0535747Y0303937D02*
X0673311Y0303937D01*
X0672112Y0305135D02*
X0535747Y0305135D01*
X0535747Y0306334D02*
X0670914Y0306334D01*
X0669715Y0307532D02*
X0535747Y0307532D01*
X0535747Y0308731D02*
X0668517Y0308731D01*
X0667318Y0309929D02*
X0535747Y0309929D01*
X0535747Y0311128D02*
X0666120Y0311128D01*
X0664921Y0312326D02*
X0536574Y0312326D01*
X0537772Y0313525D02*
X0663723Y0313525D01*
X0662524Y0314723D02*
X0538971Y0314723D01*
X0540169Y0315922D02*
X0661326Y0315922D01*
X0664161Y0318319D02*
X0676296Y0318319D01*
X0675925Y0317677D02*
X0675175Y0314878D01*
X0675175Y0311980D01*
X0675925Y0309181D01*
X0677374Y0306672D01*
X0679423Y0304623D01*
X0681933Y0303174D01*
X0684732Y0302424D01*
X0687629Y0302424D01*
X0690428Y0303174D01*
X0692938Y0304623D01*
X0694987Y0306672D01*
X0696436Y0309181D01*
X0697186Y0311980D01*
X0697186Y0314878D01*
X0696436Y0317677D01*
X0694987Y0320187D01*
X0692938Y0322236D01*
X0690428Y0323685D01*
X0687629Y0324435D01*
X0684732Y0324435D01*
X0681933Y0323685D01*
X0679423Y0322236D01*
X0677374Y0320187D01*
X0675925Y0317677D01*
X0675776Y0317120D02*
X0665360Y0317120D01*
X0666558Y0315922D02*
X0675455Y0315922D01*
X0675175Y0314723D02*
X0667757Y0314723D01*
X0668955Y0313525D02*
X0675175Y0313525D01*
X0675175Y0312326D02*
X0670154Y0312326D01*
X0671352Y0311128D02*
X0675403Y0311128D01*
X0675725Y0309929D02*
X0672551Y0309929D01*
X0673749Y0308731D02*
X0676185Y0308731D01*
X0676877Y0307532D02*
X0674948Y0307532D01*
X0676146Y0306334D02*
X0677712Y0306334D01*
X0677345Y0305135D02*
X0678910Y0305135D01*
X0678543Y0303937D02*
X0680611Y0303937D01*
X0679742Y0302738D02*
X0683557Y0302738D01*
X0682139Y0300341D02*
X0735747Y0300341D01*
X0735747Y0299143D02*
X0683337Y0299143D01*
X0684154Y0297944D02*
X0735747Y0297944D01*
X0735747Y0296746D02*
X0684447Y0296746D01*
X0684447Y0295547D02*
X0735747Y0295547D01*
X0735747Y0294349D02*
X0684447Y0294349D01*
X0684447Y0293150D02*
X0735747Y0293150D01*
X0735747Y0291952D02*
X0684447Y0291952D01*
X0684447Y0290753D02*
X0735747Y0290753D01*
X0735747Y0289555D02*
X0684447Y0289555D01*
X0684447Y0288356D02*
X0735747Y0288356D01*
X0735747Y0287158D02*
X0684447Y0287158D01*
X0684447Y0285959D02*
X0735747Y0285959D01*
X0735747Y0284761D02*
X0684447Y0284761D01*
X0684447Y0283562D02*
X0735747Y0283562D01*
X0735747Y0282364D02*
X0684447Y0282364D01*
X0684447Y0281165D02*
X0735747Y0281165D01*
X0735747Y0279967D02*
X0684447Y0279967D01*
X0684447Y0278768D02*
X0735747Y0278768D01*
X0735747Y0277570D02*
X0684447Y0277570D01*
X0684447Y0276371D02*
X0735747Y0276371D01*
X0735747Y0275172D02*
X0684202Y0275172D01*
X0683454Y0273974D02*
X0735747Y0273974D01*
X0735747Y0272775D02*
X0682255Y0272775D01*
X0681057Y0271577D02*
X0735747Y0271577D01*
X0735747Y0270378D02*
X0679858Y0270378D01*
X0678660Y0269180D02*
X0735747Y0269180D01*
X0735747Y0267981D02*
X0676921Y0267981D01*
X0675824Y0271577D02*
X0540670Y0271577D01*
X0539472Y0272775D02*
X0677023Y0272775D01*
X0678221Y0273974D02*
X0538273Y0273974D01*
X0537075Y0275172D02*
X0679420Y0275172D01*
X0680618Y0276371D02*
X0535876Y0276371D01*
X0535747Y0277570D02*
X0680747Y0277570D01*
X0680747Y0278768D02*
X0535747Y0278768D01*
X0535747Y0279967D02*
X0680747Y0279967D01*
X0680747Y0281165D02*
X0535747Y0281165D01*
X0535747Y0282364D02*
X0680747Y0282364D01*
X0680747Y0283562D02*
X0535747Y0283562D01*
X0535747Y0284761D02*
X0680747Y0284761D01*
X0680747Y0285959D02*
X0535747Y0285959D01*
X0535747Y0287158D02*
X0680747Y0287158D01*
X0680747Y0288356D02*
X0535747Y0288356D01*
X0535747Y0289555D02*
X0680747Y0289555D01*
X0680747Y0290753D02*
X0535747Y0290753D01*
X0532047Y0285959D02*
X0276001Y0285959D01*
X0269494Y0285959D02*
X0153048Y0285959D01*
X0154558Y0284761D02*
X0268371Y0284761D01*
X0267874Y0283562D02*
X0210561Y0283562D01*
X0212096Y0282364D02*
X0267647Y0282364D01*
X0267647Y0281165D02*
X0255551Y0281165D01*
X0257352Y0279967D02*
X0268070Y0279967D01*
X0268767Y0278768D02*
X0258220Y0278768D01*
X0251944Y0281165D02*
X0212871Y0281165D01*
X0213347Y0279967D02*
X0250143Y0279967D01*
X0249275Y0278768D02*
X0213347Y0278768D01*
X0213175Y0277570D02*
X0248778Y0277570D01*
X0248747Y0276371D02*
X0212679Y0276371D01*
X0211632Y0275172D02*
X0248885Y0275172D01*
X0249382Y0273974D02*
X0209440Y0273974D01*
X0208304Y0269180D02*
X0324247Y0269180D01*
X0324672Y0267981D02*
X0302337Y0267981D01*
X0302080Y0268239D02*
X0300242Y0269000D01*
X0298253Y0269000D01*
X0296415Y0268239D01*
X0295009Y0266832D01*
X0294247Y0264995D01*
X0294247Y0263005D01*
X0295009Y0261168D01*
X0296415Y0259761D01*
X0296685Y0259650D01*
X0296424Y0259389D01*
X0295647Y0257514D01*
X0295647Y0255486D01*
X0295793Y0255135D01*
X0294559Y0254624D01*
X0293124Y0253189D01*
X0292347Y0251314D01*
X0292347Y0249286D01*
X0293124Y0247411D01*
X0294559Y0245976D01*
X0296433Y0245200D01*
X0298462Y0245200D01*
X0300336Y0245976D01*
X0301771Y0247411D01*
X0302547Y0249286D01*
X0302547Y0251314D01*
X0302402Y0251665D01*
X0303636Y0252176D01*
X0305071Y0253611D01*
X0305847Y0255486D01*
X0305847Y0257514D01*
X0305071Y0259389D01*
X0303636Y0260824D01*
X0303287Y0260968D01*
X0303486Y0261168D01*
X0304247Y0263005D01*
X0304247Y0264995D01*
X0303486Y0266832D01*
X0302080Y0268239D01*
X0303507Y0266783D02*
X0325393Y0266783D01*
X0325261Y0265584D02*
X0304003Y0265584D01*
X0304247Y0264386D02*
X0324617Y0264386D01*
X0324247Y0263187D02*
X0304247Y0263187D01*
X0303826Y0261989D02*
X0324247Y0261989D01*
X0324544Y0260790D02*
X0303670Y0260790D01*
X0304868Y0259592D02*
X0325085Y0259592D01*
X0326283Y0258393D02*
X0305483Y0258393D01*
X0305847Y0257195D02*
X0437047Y0257195D01*
X0437047Y0258393D02*
X0339712Y0258393D01*
X0340910Y0259592D02*
X0437047Y0259592D01*
X0437047Y0260790D02*
X0341451Y0260790D01*
X0341747Y0261989D02*
X0386568Y0261989D01*
X0386867Y0261690D02*
X0388736Y0260916D01*
X0390759Y0260916D01*
X0392627Y0261690D01*
X0394058Y0263120D01*
X0394832Y0264989D01*
X0394832Y0267011D01*
X0394058Y0268880D01*
X0392627Y0270310D01*
X0390759Y0271084D01*
X0388736Y0271084D01*
X0386867Y0270310D01*
X0385437Y0268880D01*
X0384663Y0267011D01*
X0384663Y0264989D01*
X0385437Y0263120D01*
X0386867Y0261690D01*
X0385409Y0263187D02*
X0341747Y0263187D01*
X0341378Y0264386D02*
X0384913Y0264386D01*
X0384663Y0265584D02*
X0340734Y0265584D01*
X0340601Y0266783D02*
X0384663Y0266783D01*
X0385065Y0267981D02*
X0341323Y0267981D01*
X0341747Y0269180D02*
X0385737Y0269180D01*
X0387032Y0270378D02*
X0341747Y0270378D01*
X0341506Y0271577D02*
X0484112Y0271577D01*
X0484119Y0270378D02*
X0392463Y0270378D01*
X0393758Y0269180D02*
X0484489Y0269180D01*
X0484723Y0267981D02*
X0394430Y0267981D01*
X0394832Y0266783D02*
X0483525Y0266783D01*
X0482977Y0265584D02*
X0394832Y0265584D01*
X0394582Y0264386D02*
X0438401Y0264386D01*
X0437442Y0263187D02*
X0394086Y0263187D01*
X0392927Y0261989D02*
X0437047Y0261989D01*
X0440747Y0260790D02*
X0471457Y0260790D01*
X0472656Y0259592D02*
X0440747Y0259592D01*
X0440747Y0258393D02*
X0473854Y0258393D01*
X0475053Y0257195D02*
X0440747Y0257195D01*
X0440747Y0255996D02*
X0595747Y0255996D01*
X0595747Y0254798D02*
X0440747Y0254798D01*
X0440747Y0253599D02*
X0595747Y0253599D01*
X0595747Y0252401D02*
X0440747Y0252401D01*
X0440747Y0251202D02*
X0595747Y0251202D01*
X0595747Y0250004D02*
X0440747Y0250004D01*
X0440747Y0248805D02*
X0595747Y0248805D01*
X0595747Y0247607D02*
X0440747Y0247607D01*
X0440747Y0246408D02*
X0595656Y0246408D01*
X0594457Y0245210D02*
X0440747Y0245210D01*
X0440747Y0244011D02*
X0593259Y0244011D01*
X0592060Y0242813D02*
X0440747Y0242813D01*
X0440747Y0241614D02*
X0590862Y0241614D01*
X0589663Y0240416D02*
X0440747Y0240416D01*
X0440747Y0239217D02*
X0588465Y0239217D01*
X0587266Y0238019D02*
X0440747Y0238019D01*
X0440747Y0236820D02*
X0586068Y0236820D01*
X0584869Y0235622D02*
X0440747Y0235622D01*
X0440747Y0234423D02*
X0583671Y0234423D01*
X0582472Y0233225D02*
X0440747Y0233225D01*
X0440747Y0232026D02*
X0581274Y0232026D01*
X0584109Y0229629D02*
X0675175Y0229629D01*
X0675175Y0228431D02*
X0582911Y0228431D01*
X0585308Y0230828D02*
X0675282Y0230828D01*
X0675603Y0232026D02*
X0586506Y0232026D01*
X0587705Y0233225D02*
X0675924Y0233225D01*
X0676615Y0234423D02*
X0588903Y0234423D01*
X0590102Y0235622D02*
X0677307Y0235622D01*
X0678456Y0236820D02*
X0591300Y0236820D01*
X0592499Y0238019D02*
X0679824Y0238019D01*
X0681900Y0239217D02*
X0593697Y0239217D01*
X0594266Y0267981D02*
X0507229Y0267981D01*
X0508427Y0269180D02*
X0538542Y0269180D01*
X0537344Y0270378D02*
X0509626Y0270378D01*
X0484768Y0273974D02*
X0339845Y0273974D01*
X0341010Y0272775D02*
X0484467Y0272775D01*
X0482573Y0264386D02*
X0473094Y0264386D01*
X0474293Y0263187D02*
X0482573Y0263187D01*
X0482723Y0261989D02*
X0475491Y0261989D01*
X0476690Y0260790D02*
X0483219Y0260790D01*
X0437047Y0255996D02*
X0350719Y0255996D01*
X0351136Y0255824D02*
X0349262Y0256600D01*
X0347233Y0256600D01*
X0345359Y0255824D01*
X0343924Y0254389D01*
X0343147Y0252514D01*
X0343147Y0250486D01*
X0343924Y0248611D01*
X0345359Y0247176D01*
X0347233Y0246400D01*
X0349262Y0246400D01*
X0351136Y0247176D01*
X0352571Y0248611D01*
X0353347Y0250486D01*
X0353347Y0252514D01*
X0352571Y0254389D01*
X0351136Y0255824D01*
X0352162Y0254798D02*
X0437047Y0254798D01*
X0437047Y0253599D02*
X0352898Y0253599D01*
X0353347Y0252401D02*
X0437047Y0252401D01*
X0437047Y0251202D02*
X0353347Y0251202D01*
X0353148Y0250004D02*
X0437047Y0250004D01*
X0437047Y0248805D02*
X0352651Y0248805D01*
X0351567Y0247607D02*
X0437047Y0247607D01*
X0437047Y0246408D02*
X0349282Y0246408D01*
X0347213Y0246408D02*
X0338009Y0246408D01*
X0338047Y0246314D02*
X0337271Y0248189D01*
X0335836Y0249624D01*
X0333962Y0250400D01*
X0331933Y0250400D01*
X0330059Y0249624D01*
X0328624Y0248189D01*
X0327847Y0246314D01*
X0327847Y0244286D01*
X0328624Y0242411D01*
X0330059Y0240976D01*
X0331933Y0240200D01*
X0333962Y0240200D01*
X0335836Y0240976D01*
X0337271Y0242411D01*
X0338047Y0244286D01*
X0338047Y0246314D01*
X0338047Y0245210D02*
X0437047Y0245210D01*
X0437047Y0244011D02*
X0337934Y0244011D01*
X0337437Y0242813D02*
X0437047Y0242813D01*
X0437047Y0241614D02*
X0336474Y0241614D01*
X0334483Y0240416D02*
X0437047Y0240416D01*
X0437047Y0239217D02*
X0097266Y0239217D01*
X0096742Y0239000D02*
X0098580Y0239761D01*
X0099986Y0241168D01*
X0100747Y0243005D01*
X0100747Y0244995D01*
X0099986Y0246832D01*
X0098580Y0248239D01*
X0096742Y0249000D01*
X0094753Y0249000D01*
X0092915Y0248239D01*
X0091509Y0246832D01*
X0090747Y0244995D01*
X0090747Y0243005D01*
X0091509Y0241168D01*
X0092915Y0239761D01*
X0094753Y0239000D01*
X0096742Y0239000D01*
X0094229Y0239217D02*
X0065747Y0239217D01*
X0065747Y0238019D02*
X0437047Y0238019D01*
X0437047Y0236820D02*
X0065747Y0236820D01*
X0065747Y0235622D02*
X0157657Y0235622D01*
X0157859Y0235824D02*
X0156424Y0234389D01*
X0155647Y0232514D01*
X0155647Y0230486D01*
X0156424Y0228611D01*
X0157859Y0227176D01*
X0159733Y0226400D01*
X0161762Y0226400D01*
X0163636Y0227176D01*
X0165071Y0228611D01*
X0165847Y0230486D01*
X0165847Y0232514D01*
X0165071Y0234389D01*
X0163636Y0235824D01*
X0161762Y0236600D01*
X0159733Y0236600D01*
X0157859Y0235824D01*
X0156458Y0234423D02*
X0065747Y0234423D01*
X0065747Y0233225D02*
X0155942Y0233225D01*
X0155647Y0232026D02*
X0065747Y0232026D01*
X0065747Y0230828D02*
X0098130Y0230828D01*
X0097915Y0230739D02*
X0096509Y0229332D01*
X0095747Y0227495D01*
X0095747Y0225505D01*
X0096509Y0223668D01*
X0097915Y0222261D01*
X0099753Y0221500D01*
X0101742Y0221500D01*
X0103580Y0222261D01*
X0104986Y0223668D01*
X0105747Y0225505D01*
X0105747Y0227495D01*
X0104986Y0229332D01*
X0103580Y0230739D01*
X0101742Y0231500D01*
X0099753Y0231500D01*
X0097915Y0230739D01*
X0096805Y0229629D02*
X0065747Y0229629D01*
X0065747Y0228431D02*
X0096135Y0228431D01*
X0095747Y0227232D02*
X0065747Y0227232D01*
X0065747Y0226034D02*
X0095747Y0226034D01*
X0096025Y0224835D02*
X0065747Y0224835D01*
X0065747Y0223637D02*
X0096540Y0223637D01*
X0097738Y0222438D02*
X0065747Y0222438D01*
X0065747Y0221239D02*
X0276518Y0221239D01*
X0275320Y0220041D02*
X0065747Y0220041D01*
X0065747Y0218842D02*
X0274794Y0218842D01*
X0274466Y0217644D02*
X0065747Y0217644D01*
X0065747Y0216445D02*
X0274466Y0216445D01*
X0274757Y0215247D02*
X0065747Y0215247D01*
X0065747Y0214048D02*
X0275254Y0214048D01*
X0276429Y0212850D02*
X0065747Y0212850D01*
X0103756Y0222438D02*
X0311185Y0222438D01*
X0310551Y0221804D02*
X0309797Y0219985D01*
X0309797Y0218015D01*
X0310551Y0216196D01*
X0311943Y0214804D01*
X0313763Y0214050D01*
X0315732Y0214050D01*
X0317551Y0214804D01*
X0318944Y0216196D01*
X0319697Y0218015D01*
X0319697Y0219985D01*
X0318944Y0221804D01*
X0317551Y0223196D01*
X0315732Y0223950D01*
X0313763Y0223950D01*
X0311943Y0223196D01*
X0310551Y0221804D01*
X0310317Y0221239D02*
X0290477Y0221239D01*
X0291675Y0220041D02*
X0309821Y0220041D01*
X0309797Y0218842D02*
X0292200Y0218842D01*
X0292529Y0217644D02*
X0309951Y0217644D01*
X0310448Y0216445D02*
X0292529Y0216445D01*
X0292238Y0215247D02*
X0311500Y0215247D01*
X0317995Y0215247D02*
X0441768Y0215247D01*
X0442966Y0214048D02*
X0291741Y0214048D01*
X0290566Y0212850D02*
X0444891Y0212850D01*
X0444603Y0217644D02*
X0491891Y0217644D01*
X0493090Y0218842D02*
X0443405Y0218842D01*
X0442206Y0220041D02*
X0494288Y0220041D01*
X0495487Y0221239D02*
X0441008Y0221239D01*
X0440747Y0222438D02*
X0496685Y0222438D01*
X0497884Y0223637D02*
X0440747Y0223637D01*
X0440747Y0224835D02*
X0499082Y0224835D01*
X0500281Y0226034D02*
X0440747Y0226034D01*
X0440747Y0227232D02*
X0501479Y0227232D01*
X0502678Y0228431D02*
X0440747Y0228431D01*
X0440747Y0229629D02*
X0503877Y0229629D01*
X0505075Y0230828D02*
X0440747Y0230828D01*
X0437047Y0230828D02*
X0191247Y0230828D01*
X0191247Y0230005D02*
X0190486Y0228168D01*
X0189080Y0226761D01*
X0187242Y0226000D01*
X0185253Y0226000D01*
X0183415Y0226761D01*
X0182009Y0228168D01*
X0181247Y0230005D01*
X0181247Y0231995D01*
X0182009Y0233832D01*
X0183415Y0235239D01*
X0185253Y0236000D01*
X0187242Y0236000D01*
X0189080Y0235239D01*
X0190486Y0233832D01*
X0191247Y0231995D01*
X0191247Y0230005D01*
X0191092Y0229629D02*
X0437047Y0229629D01*
X0437047Y0228431D02*
X0190595Y0228431D01*
X0189551Y0227232D02*
X0437047Y0227232D01*
X0437047Y0226034D02*
X0187323Y0226034D01*
X0185172Y0226034D02*
X0105747Y0226034D01*
X0105747Y0227232D02*
X0157803Y0227232D01*
X0156604Y0228431D02*
X0105360Y0228431D01*
X0104689Y0229629D02*
X0156002Y0229629D01*
X0155647Y0230828D02*
X0103365Y0230828D01*
X0105470Y0224835D02*
X0437047Y0224835D01*
X0437047Y0223637D02*
X0316489Y0223637D01*
X0318310Y0222438D02*
X0437047Y0222438D01*
X0437047Y0221239D02*
X0319178Y0221239D01*
X0319674Y0220041D02*
X0437347Y0220041D01*
X0438172Y0218842D02*
X0319697Y0218842D01*
X0319544Y0217644D02*
X0439371Y0217644D01*
X0440569Y0216445D02*
X0319047Y0216445D01*
X0313006Y0223637D02*
X0104955Y0223637D01*
X0099234Y0240416D02*
X0331412Y0240416D01*
X0329421Y0241614D02*
X0122018Y0241614D01*
X0121742Y0241500D02*
X0123580Y0242261D01*
X0124986Y0243668D01*
X0125747Y0245505D01*
X0125747Y0247495D01*
X0124986Y0249332D01*
X0123580Y0250739D01*
X0121742Y0251500D01*
X0119753Y0251500D01*
X0117915Y0250739D01*
X0116509Y0249332D01*
X0115747Y0247495D01*
X0115747Y0245505D01*
X0116509Y0243668D01*
X0117915Y0242261D01*
X0119753Y0241500D01*
X0121742Y0241500D01*
X0119477Y0241614D02*
X0100171Y0241614D01*
X0100668Y0242813D02*
X0117364Y0242813D01*
X0116366Y0244011D02*
X0100747Y0244011D01*
X0100658Y0245210D02*
X0115870Y0245210D01*
X0115747Y0246408D02*
X0100162Y0246408D01*
X0099212Y0247607D02*
X0115794Y0247607D01*
X0116290Y0248805D02*
X0097212Y0248805D01*
X0094283Y0248805D02*
X0065747Y0248805D01*
X0065747Y0247607D02*
X0092283Y0247607D01*
X0091333Y0246408D02*
X0065747Y0246408D01*
X0065747Y0245210D02*
X0090837Y0245210D01*
X0090747Y0244011D02*
X0065747Y0244011D01*
X0065747Y0242813D02*
X0090827Y0242813D01*
X0091324Y0241614D02*
X0065747Y0241614D01*
X0065747Y0240416D02*
X0092261Y0240416D01*
X0117180Y0250004D02*
X0065747Y0250004D01*
X0065747Y0251202D02*
X0119034Y0251202D01*
X0122461Y0251202D02*
X0187147Y0251202D01*
X0187147Y0251514D02*
X0187147Y0249486D01*
X0187924Y0247611D01*
X0189359Y0246176D01*
X0191233Y0245400D01*
X0193262Y0245400D01*
X0195136Y0246176D01*
X0196571Y0247611D01*
X0197347Y0249486D01*
X0197347Y0251514D01*
X0196571Y0253389D01*
X0195136Y0254824D01*
X0193262Y0255600D01*
X0191233Y0255600D01*
X0189359Y0254824D01*
X0187924Y0253389D01*
X0187147Y0251514D01*
X0187515Y0252401D02*
X0065747Y0252401D01*
X0065747Y0253599D02*
X0188134Y0253599D01*
X0187222Y0254798D02*
X0189333Y0254798D01*
X0188136Y0255176D02*
X0189571Y0256611D01*
X0190347Y0258486D01*
X0190347Y0260514D01*
X0189571Y0262389D01*
X0188136Y0263824D01*
X0186262Y0264600D01*
X0184233Y0264600D01*
X0182359Y0263824D01*
X0180924Y0262389D01*
X0180147Y0260514D01*
X0180147Y0258486D01*
X0180924Y0256611D01*
X0182359Y0255176D01*
X0184233Y0254400D01*
X0186262Y0254400D01*
X0188136Y0255176D01*
X0188956Y0255996D02*
X0295647Y0255996D01*
X0295647Y0257195D02*
X0189813Y0257195D01*
X0190309Y0258393D02*
X0296011Y0258393D01*
X0296627Y0259592D02*
X0205671Y0259592D01*
X0207109Y0260790D02*
X0295386Y0260790D01*
X0294669Y0261989D02*
X0207826Y0261989D01*
X0208247Y0263187D02*
X0294247Y0263187D01*
X0294247Y0264386D02*
X0208247Y0264386D01*
X0208003Y0265584D02*
X0294492Y0265584D01*
X0294988Y0266783D02*
X0207507Y0266783D01*
X0207807Y0267981D02*
X0296158Y0267981D01*
X0294979Y0254798D02*
X0195162Y0254798D01*
X0196361Y0253599D02*
X0293534Y0253599D01*
X0292797Y0252401D02*
X0196980Y0252401D01*
X0197347Y0251202D02*
X0292347Y0251202D01*
X0292347Y0250004D02*
X0197347Y0250004D01*
X0197066Y0248805D02*
X0292546Y0248805D01*
X0293043Y0247607D02*
X0196567Y0247607D01*
X0195368Y0246408D02*
X0294127Y0246408D01*
X0296410Y0245210D02*
X0125625Y0245210D01*
X0125747Y0246408D02*
X0189127Y0246408D01*
X0187928Y0247607D02*
X0125701Y0247607D01*
X0125205Y0248805D02*
X0187429Y0248805D01*
X0187147Y0250004D02*
X0124315Y0250004D01*
X0125128Y0244011D02*
X0327961Y0244011D01*
X0327847Y0245210D02*
X0298485Y0245210D01*
X0300768Y0246408D02*
X0327886Y0246408D01*
X0328383Y0247607D02*
X0301852Y0247607D01*
X0302348Y0248805D02*
X0329240Y0248805D01*
X0330976Y0250004D02*
X0302547Y0250004D01*
X0302547Y0251202D02*
X0343147Y0251202D01*
X0343147Y0252401D02*
X0303861Y0252401D01*
X0305059Y0253599D02*
X0343597Y0253599D01*
X0344333Y0254798D02*
X0305563Y0254798D01*
X0305847Y0255996D02*
X0345776Y0255996D01*
X0343347Y0250004D02*
X0334919Y0250004D01*
X0336655Y0248805D02*
X0343843Y0248805D01*
X0344928Y0247607D02*
X0337512Y0247607D01*
X0328458Y0242813D02*
X0124131Y0242813D01*
X0145415Y0262261D02*
X0147253Y0261500D01*
X0149242Y0261500D01*
X0151080Y0262261D01*
X0152486Y0263668D01*
X0153247Y0265505D01*
X0153247Y0267495D01*
X0152486Y0269332D01*
X0151080Y0270739D01*
X0149242Y0271500D01*
X0147253Y0271500D01*
X0145415Y0270739D01*
X0144009Y0269332D01*
X0143247Y0267495D01*
X0143247Y0265505D01*
X0144009Y0263668D01*
X0145415Y0262261D01*
X0146073Y0261989D02*
X0065747Y0261989D01*
X0065747Y0263187D02*
X0144489Y0263187D01*
X0143711Y0264386D02*
X0065747Y0264386D01*
X0065747Y0265584D02*
X0143247Y0265584D01*
X0143247Y0266783D02*
X0065747Y0266783D01*
X0065747Y0267981D02*
X0143449Y0267981D01*
X0143946Y0269180D02*
X0065747Y0269180D01*
X0065747Y0270378D02*
X0145055Y0270378D01*
X0151440Y0270378D02*
X0198147Y0270378D01*
X0198191Y0269180D02*
X0152549Y0269180D01*
X0153046Y0267981D02*
X0198688Y0267981D01*
X0198988Y0266783D02*
X0153247Y0266783D01*
X0153247Y0265584D02*
X0198492Y0265584D01*
X0198247Y0264386D02*
X0186779Y0264386D01*
X0188773Y0263187D02*
X0198247Y0263187D01*
X0198669Y0261989D02*
X0189737Y0261989D01*
X0190233Y0260790D02*
X0199386Y0260790D01*
X0200824Y0259592D02*
X0190347Y0259592D01*
X0183716Y0264386D02*
X0152784Y0264386D01*
X0152006Y0263187D02*
X0181722Y0263187D01*
X0180758Y0261989D02*
X0150422Y0261989D01*
X0163216Y0277570D02*
X0203320Y0277570D01*
X0203147Y0278768D02*
X0162720Y0278768D01*
X0161852Y0279967D02*
X0203147Y0279967D01*
X0203624Y0281165D02*
X0160051Y0281165D01*
X0156444Y0281165D02*
X0155747Y0281165D01*
X0155747Y0282364D02*
X0204399Y0282364D01*
X0205934Y0283562D02*
X0155305Y0283562D01*
X0130647Y0301540D02*
X0130099Y0301540D01*
X0133847Y0306334D02*
X0134090Y0306334D01*
X0133840Y0307532D02*
X0137362Y0307532D01*
X0137858Y0308731D02*
X0133344Y0308731D01*
X0132531Y0309929D02*
X0138964Y0309929D01*
X0145531Y0309929D02*
X0179850Y0309929D01*
X0182168Y0308731D02*
X0146637Y0308731D01*
X0132136Y0325676D02*
X0130262Y0324900D01*
X0128233Y0324900D01*
X0126359Y0325676D01*
X0124924Y0327111D01*
X0124147Y0328986D01*
X0124147Y0331014D01*
X0124924Y0332889D01*
X0126359Y0334324D01*
X0128233Y0335100D01*
X0130262Y0335100D01*
X0132136Y0334324D01*
X0133571Y0332889D01*
X0134347Y0331014D01*
X0134347Y0328986D01*
X0133571Y0327111D01*
X0132136Y0325676D01*
X0131734Y0325510D02*
X0264875Y0325510D01*
X0264379Y0324311D02*
X0065747Y0324311D01*
X0065747Y0323113D02*
X0264247Y0323113D01*
X0264285Y0321914D02*
X0065747Y0321914D01*
X0065747Y0320716D02*
X0264782Y0320716D01*
X0265659Y0319517D02*
X0065747Y0319517D01*
X0065747Y0325510D02*
X0126760Y0325510D01*
X0125326Y0326708D02*
X0065747Y0326708D01*
X0065747Y0327907D02*
X0098216Y0327907D01*
X0098233Y0327900D02*
X0100262Y0327900D01*
X0102136Y0328676D01*
X0103571Y0330111D01*
X0104347Y0331986D01*
X0104347Y0334014D01*
X0103571Y0335889D01*
X0102136Y0337324D01*
X0100262Y0338100D01*
X0098233Y0338100D01*
X0096359Y0337324D01*
X0094924Y0335889D01*
X0094147Y0334014D01*
X0094147Y0331986D01*
X0094924Y0330111D01*
X0096359Y0328676D01*
X0098233Y0327900D01*
X0100279Y0327907D02*
X0124594Y0327907D01*
X0124147Y0329105D02*
X0102565Y0329105D01*
X0103651Y0330304D02*
X0124147Y0330304D01*
X0124350Y0331503D02*
X0104147Y0331503D01*
X0104347Y0332701D02*
X0124846Y0332701D01*
X0125934Y0333900D02*
X0104347Y0333900D01*
X0103899Y0335098D02*
X0128228Y0335098D01*
X0130267Y0335098D02*
X0207182Y0335098D01*
X0207147Y0335014D02*
X0207147Y0332986D01*
X0207924Y0331111D01*
X0209359Y0329676D01*
X0211233Y0328900D01*
X0213262Y0328900D01*
X0215136Y0329676D01*
X0216571Y0331111D01*
X0217347Y0332986D01*
X0217347Y0335014D01*
X0216571Y0336889D01*
X0215136Y0338324D01*
X0213262Y0339100D01*
X0211233Y0339100D01*
X0209359Y0338324D01*
X0207924Y0336889D01*
X0207147Y0335014D01*
X0207147Y0333900D02*
X0132560Y0333900D01*
X0133649Y0332701D02*
X0207265Y0332701D01*
X0207762Y0331503D02*
X0134145Y0331503D01*
X0134347Y0330304D02*
X0208731Y0330304D01*
X0210737Y0329105D02*
X0134347Y0329105D01*
X0133901Y0327907D02*
X0268028Y0327907D01*
X0270467Y0327907D02*
X0340650Y0327907D01*
X0340437Y0328120D02*
X0341867Y0326690D01*
X0343736Y0325916D01*
X0345759Y0325916D01*
X0347627Y0326690D01*
X0349058Y0328120D01*
X0349832Y0329989D01*
X0349832Y0332011D01*
X0349058Y0333880D01*
X0347627Y0335310D01*
X0345759Y0336084D01*
X0343736Y0336084D01*
X0341867Y0335310D01*
X0340437Y0333880D01*
X0339663Y0332011D01*
X0339663Y0329989D01*
X0340437Y0328120D01*
X0340029Y0329105D02*
X0213758Y0329105D01*
X0215764Y0330304D02*
X0339663Y0330304D01*
X0339663Y0331503D02*
X0216733Y0331503D01*
X0217230Y0332701D02*
X0339949Y0332701D01*
X0340457Y0333900D02*
X0217347Y0333900D01*
X0217313Y0335098D02*
X0276078Y0335098D01*
X0276415Y0334761D02*
X0278253Y0334000D01*
X0280242Y0334000D01*
X0282080Y0334761D01*
X0283486Y0336168D01*
X0284247Y0338005D01*
X0284247Y0339995D01*
X0283486Y0341832D01*
X0282080Y0343239D01*
X0280242Y0344000D01*
X0278253Y0344000D01*
X0276415Y0343239D01*
X0275009Y0341832D01*
X0274247Y0339995D01*
X0274247Y0338005D01*
X0275009Y0336168D01*
X0276415Y0334761D01*
X0274955Y0336297D02*
X0216816Y0336297D01*
X0215965Y0337495D02*
X0218681Y0337495D01*
X0218915Y0337261D02*
X0220753Y0336500D01*
X0222742Y0336500D01*
X0224580Y0337261D01*
X0225986Y0338668D01*
X0226747Y0340505D01*
X0226747Y0342495D01*
X0225986Y0344332D01*
X0224580Y0345739D01*
X0222742Y0346500D01*
X0220753Y0346500D01*
X0218915Y0345739D01*
X0217509Y0344332D01*
X0216747Y0342495D01*
X0216747Y0340505D01*
X0217509Y0338668D01*
X0218915Y0337261D01*
X0217498Y0338694D02*
X0214243Y0338694D01*
X0217001Y0339892D02*
X0181211Y0339892D01*
X0181080Y0339761D02*
X0182486Y0341168D01*
X0183247Y0343005D01*
X0183247Y0344995D01*
X0182486Y0346832D01*
X0181080Y0348239D01*
X0179242Y0349000D01*
X0177624Y0349000D01*
X0178247Y0350505D01*
X0178247Y0352495D01*
X0177486Y0354332D01*
X0176080Y0355739D01*
X0174242Y0356500D01*
X0172253Y0356500D01*
X0170415Y0355739D01*
X0169009Y0354332D01*
X0168247Y0352495D01*
X0168247Y0350505D01*
X0169009Y0348668D01*
X0170415Y0347261D01*
X0172253Y0346500D01*
X0173871Y0346500D01*
X0173247Y0344995D01*
X0173247Y0343005D01*
X0174009Y0341168D01*
X0175415Y0339761D01*
X0177253Y0339000D01*
X0179242Y0339000D01*
X0181080Y0339761D01*
X0182409Y0341091D02*
X0216747Y0341091D01*
X0216747Y0342289D02*
X0182951Y0342289D01*
X0183247Y0343488D02*
X0217159Y0343488D01*
X0217863Y0344686D02*
X0183247Y0344686D01*
X0182879Y0345885D02*
X0219267Y0345885D01*
X0224228Y0345885D02*
X0244247Y0345885D01*
X0244247Y0345005D02*
X0245009Y0343168D01*
X0246415Y0341761D01*
X0248253Y0341000D01*
X0250242Y0341000D01*
X0252080Y0341761D01*
X0253486Y0343168D01*
X0254247Y0345005D01*
X0254247Y0346995D01*
X0253486Y0348832D01*
X0252080Y0350239D01*
X0250242Y0351000D01*
X0248253Y0351000D01*
X0246415Y0350239D01*
X0245009Y0348832D01*
X0244247Y0346995D01*
X0244247Y0345005D01*
X0244380Y0344686D02*
X0225632Y0344686D01*
X0226336Y0343488D02*
X0244876Y0343488D01*
X0245887Y0342289D02*
X0226747Y0342289D01*
X0226747Y0341091D02*
X0248034Y0341091D01*
X0250461Y0341091D02*
X0274701Y0341091D01*
X0274247Y0339892D02*
X0226493Y0339892D01*
X0225997Y0338694D02*
X0274247Y0338694D01*
X0274459Y0337495D02*
X0224814Y0337495D01*
X0210252Y0338694D02*
X0115471Y0338694D01*
X0114762Y0338400D02*
X0116636Y0339176D01*
X0118071Y0340611D01*
X0118847Y0342486D01*
X0118847Y0344514D01*
X0118071Y0346389D01*
X0116636Y0347824D01*
X0114762Y0348600D01*
X0112733Y0348600D01*
X0110859Y0347824D01*
X0109424Y0346389D01*
X0108647Y0344514D01*
X0108647Y0342486D01*
X0109424Y0340611D01*
X0110859Y0339176D01*
X0112733Y0338400D01*
X0114762Y0338400D01*
X0112024Y0338694D02*
X0065747Y0338694D01*
X0065747Y0339892D02*
X0110143Y0339892D01*
X0109225Y0341091D02*
X0090516Y0341091D01*
X0090147Y0340878D02*
X0092747Y0342378D01*
X0094869Y0344501D01*
X0096370Y0347100D01*
X0097147Y0349999D01*
X0097147Y0353001D01*
X0096370Y0355900D01*
X0094869Y0358499D01*
X0092747Y0360622D01*
X0090147Y0362122D01*
X0087248Y0362899D01*
X0084247Y0362899D01*
X0081348Y0362122D01*
X0078748Y0360622D01*
X0076626Y0358499D01*
X0075125Y0355900D01*
X0074348Y0353001D01*
X0074348Y0349999D01*
X0075125Y0347100D01*
X0076626Y0344501D01*
X0078748Y0342378D01*
X0081348Y0340878D01*
X0084247Y0340101D01*
X0087248Y0340101D01*
X0090147Y0340878D01*
X0092592Y0342289D02*
X0108729Y0342289D01*
X0108647Y0343488D02*
X0093856Y0343488D01*
X0094976Y0344686D02*
X0108719Y0344686D01*
X0109215Y0345885D02*
X0095668Y0345885D01*
X0096360Y0347083D02*
X0110118Y0347083D01*
X0111965Y0348282D02*
X0096686Y0348282D01*
X0097008Y0349480D02*
X0141515Y0349480D01*
X0141424Y0349389D02*
X0140647Y0347514D01*
X0140647Y0345486D01*
X0141424Y0343611D01*
X0142859Y0342176D01*
X0144733Y0341400D01*
X0146762Y0341400D01*
X0148636Y0342176D01*
X0150071Y0343611D01*
X0150847Y0345486D01*
X0150847Y0347514D01*
X0150071Y0349389D01*
X0148636Y0350824D01*
X0146762Y0351600D01*
X0144733Y0351600D01*
X0142859Y0350824D01*
X0141424Y0349389D01*
X0140965Y0348282D02*
X0115530Y0348282D01*
X0117377Y0347083D02*
X0140647Y0347083D01*
X0140647Y0345885D02*
X0118280Y0345885D01*
X0118776Y0344686D02*
X0140979Y0344686D01*
X0141547Y0343488D02*
X0118847Y0343488D01*
X0118766Y0342289D02*
X0142746Y0342289D01*
X0148749Y0342289D02*
X0173544Y0342289D01*
X0173247Y0343488D02*
X0149948Y0343488D01*
X0150516Y0344686D02*
X0173247Y0344686D01*
X0173616Y0345885D02*
X0150847Y0345885D01*
X0150847Y0347083D02*
X0170845Y0347083D01*
X0169395Y0348282D02*
X0150530Y0348282D01*
X0149980Y0349480D02*
X0168672Y0349480D01*
X0168247Y0350679D02*
X0148781Y0350679D01*
X0145071Y0353611D02*
X0145847Y0355486D01*
X0145847Y0357514D01*
X0145071Y0359389D01*
X0143636Y0360824D01*
X0141762Y0361600D01*
X0139733Y0361600D01*
X0137859Y0360824D01*
X0136424Y0359389D01*
X0135647Y0357514D01*
X0135647Y0355486D01*
X0136424Y0353611D01*
X0137859Y0352176D01*
X0139733Y0351400D01*
X0141762Y0351400D01*
X0143636Y0352176D01*
X0145071Y0353611D01*
X0145346Y0354274D02*
X0164091Y0354274D01*
X0164753Y0354000D02*
X0166742Y0354000D01*
X0168580Y0354761D01*
X0169986Y0356168D01*
X0170747Y0358005D01*
X0170747Y0359995D01*
X0169986Y0361832D01*
X0168580Y0363239D01*
X0166742Y0364000D01*
X0164753Y0364000D01*
X0162915Y0363239D01*
X0161509Y0361832D01*
X0160747Y0359995D01*
X0160747Y0358005D01*
X0161509Y0356168D01*
X0162915Y0354761D01*
X0164753Y0354000D01*
X0167404Y0354274D02*
X0168985Y0354274D01*
X0169291Y0355473D02*
X0170149Y0355473D01*
X0170195Y0356671D02*
X0220339Y0356671D01*
X0220753Y0356500D02*
X0222742Y0356500D01*
X0224580Y0357261D01*
X0225986Y0358668D01*
X0226747Y0360505D01*
X0226747Y0362495D01*
X0225986Y0364332D01*
X0224580Y0365739D01*
X0222742Y0366500D01*
X0220753Y0366500D01*
X0218915Y0365739D01*
X0217509Y0364332D01*
X0216747Y0362495D01*
X0216747Y0360505D01*
X0217509Y0358668D01*
X0218915Y0357261D01*
X0220753Y0356500D01*
X0223155Y0356671D02*
X0247839Y0356671D01*
X0248253Y0356500D02*
X0250242Y0356500D01*
X0252080Y0357261D01*
X0253486Y0358668D01*
X0254247Y0360505D01*
X0254247Y0362495D01*
X0253486Y0364332D01*
X0252080Y0365739D01*
X0250242Y0366500D01*
X0248253Y0366500D01*
X0246415Y0365739D01*
X0245009Y0364332D01*
X0244247Y0362495D01*
X0244247Y0360505D01*
X0245009Y0358668D01*
X0246415Y0357261D01*
X0248253Y0356500D01*
X0250655Y0356671D02*
X0274942Y0356671D01*
X0275009Y0356832D02*
X0274247Y0354995D01*
X0274247Y0353005D01*
X0275009Y0351168D01*
X0276415Y0349761D01*
X0278253Y0349000D01*
X0280242Y0349000D01*
X0282080Y0349761D01*
X0283486Y0351168D01*
X0284247Y0353005D01*
X0284247Y0354995D01*
X0283486Y0356832D01*
X0282080Y0358239D01*
X0280242Y0359000D01*
X0278253Y0359000D01*
X0276415Y0358239D01*
X0275009Y0356832D01*
X0276046Y0357870D02*
X0252688Y0357870D01*
X0253652Y0359068D02*
X0358247Y0359068D01*
X0358247Y0359995D02*
X0358247Y0358005D01*
X0359009Y0356168D01*
X0360415Y0354761D01*
X0362253Y0354000D01*
X0364242Y0354000D01*
X0366080Y0354761D01*
X0367486Y0356168D01*
X0368247Y0358005D01*
X0368247Y0359995D01*
X0367486Y0361832D01*
X0366080Y0363239D01*
X0364242Y0364000D01*
X0362253Y0364000D01*
X0360415Y0363239D01*
X0359009Y0361832D01*
X0358247Y0359995D01*
X0358360Y0360267D02*
X0254149Y0360267D01*
X0254247Y0361465D02*
X0358857Y0361465D01*
X0359840Y0362664D02*
X0282482Y0362664D01*
X0282080Y0362261D02*
X0283486Y0363668D01*
X0284247Y0365505D01*
X0284247Y0367495D01*
X0283486Y0369332D01*
X0282080Y0370739D01*
X0280242Y0371500D01*
X0278253Y0371500D01*
X0276415Y0370739D01*
X0275009Y0369332D01*
X0274247Y0367495D01*
X0274247Y0365505D01*
X0275009Y0363668D01*
X0276415Y0362261D01*
X0278253Y0361500D01*
X0280242Y0361500D01*
X0282080Y0362261D01*
X0283567Y0363862D02*
X0361921Y0363862D01*
X0364574Y0363862D02*
X0479421Y0363862D01*
X0479753Y0364000D02*
X0477915Y0363239D01*
X0476509Y0361832D01*
X0475747Y0359995D01*
X0475747Y0358005D01*
X0476509Y0356168D01*
X0477915Y0354761D01*
X0479753Y0354000D01*
X0481742Y0354000D01*
X0483580Y0354761D01*
X0484986Y0356168D01*
X0485747Y0358005D01*
X0485747Y0359995D01*
X0484986Y0361832D01*
X0483580Y0363239D01*
X0481742Y0364000D01*
X0479753Y0364000D01*
X0482074Y0363862D02*
X0506320Y0363862D01*
X0506424Y0363611D02*
X0507859Y0362176D01*
X0509733Y0361400D01*
X0511762Y0361400D01*
X0513636Y0362176D01*
X0515071Y0363611D01*
X0515847Y0365486D01*
X0515847Y0367514D01*
X0515071Y0369389D01*
X0513636Y0370824D01*
X0511762Y0371600D01*
X0509733Y0371600D01*
X0507859Y0370824D01*
X0506424Y0369389D01*
X0505647Y0367514D01*
X0505647Y0365486D01*
X0506424Y0363611D01*
X0507371Y0362664D02*
X0484155Y0362664D01*
X0485138Y0361465D02*
X0509575Y0361465D01*
X0511920Y0361465D02*
X0555209Y0361465D01*
X0556348Y0362122D02*
X0553748Y0360622D01*
X0551626Y0358499D01*
X0550125Y0355900D01*
X0549348Y0353001D01*
X0549348Y0349999D01*
X0550125Y0347100D01*
X0551626Y0344501D01*
X0553748Y0342378D01*
X0556348Y0340878D01*
X0559247Y0340101D01*
X0562248Y0340101D01*
X0565147Y0340878D01*
X0567747Y0342378D01*
X0569869Y0344501D01*
X0571370Y0347100D01*
X0572147Y0349999D01*
X0572147Y0353001D01*
X0571370Y0355900D01*
X0569869Y0358499D01*
X0567747Y0360622D01*
X0565147Y0362122D01*
X0562248Y0362899D01*
X0559247Y0362899D01*
X0556348Y0362122D01*
X0558368Y0362664D02*
X0514124Y0362664D01*
X0515175Y0363862D02*
X0660174Y0363862D01*
X0660244Y0363809D02*
X0661029Y0363356D01*
X0661866Y0363009D01*
X0662742Y0362774D01*
X0663494Y0362675D01*
X0663494Y0368971D01*
X0657198Y0368971D01*
X0657297Y0368219D01*
X0657532Y0367343D01*
X0657879Y0366506D01*
X0658332Y0365721D01*
X0658884Y0365002D01*
X0659525Y0364361D01*
X0660244Y0363809D01*
X0658838Y0365061D02*
X0515672Y0365061D01*
X0515847Y0366259D02*
X0658021Y0366259D01*
X0657501Y0367458D02*
X0515847Y0367458D01*
X0515374Y0368656D02*
X0657240Y0368656D01*
X0657198Y0370171D02*
X0663494Y0370171D01*
X0663494Y0376466D01*
X0662742Y0376367D01*
X0661866Y0376133D01*
X0661029Y0375786D01*
X0660244Y0375333D01*
X0659525Y0374781D01*
X0658884Y0374140D01*
X0658332Y0373421D01*
X0657879Y0372636D01*
X0657532Y0371798D01*
X0657297Y0370923D01*
X0657198Y0370171D01*
X0657332Y0371053D02*
X0513081Y0371053D01*
X0514605Y0369855D02*
X0663494Y0369855D01*
X0663494Y0370171D02*
X0663494Y0368971D01*
X0664694Y0368971D01*
X0664694Y0370171D01*
X0663494Y0370171D01*
X0663494Y0371053D02*
X0664694Y0371053D01*
X0664694Y0370171D02*
X0664694Y0376466D01*
X0665446Y0376367D01*
X0666321Y0376133D01*
X0667159Y0375786D01*
X0667944Y0375333D01*
X0668663Y0374781D01*
X0669304Y0374140D01*
X0669856Y0373421D01*
X0670309Y0372636D01*
X0670656Y0371798D01*
X0670891Y0370923D01*
X0670990Y0370171D01*
X0664694Y0370171D01*
X0664694Y0369855D02*
X0677332Y0369855D01*
X0677332Y0371053D02*
X0670856Y0371053D01*
X0670468Y0372252D02*
X0677750Y0372252D01*
X0677332Y0371245D02*
X0678614Y0374338D01*
X0680981Y0376705D01*
X0684074Y0377986D01*
X0687421Y0377986D01*
X0690514Y0376705D01*
X0692881Y0374338D01*
X0694162Y0371245D01*
X0694162Y0367897D01*
X0692881Y0364804D01*
X0690514Y0362437D01*
X0687777Y0361303D01*
X0690514Y0360169D01*
X0692881Y0357802D01*
X0694162Y0354709D01*
X0694162Y0351362D01*
X0692881Y0348269D01*
X0690514Y0345902D01*
X0687777Y0344768D01*
X0690514Y0343634D01*
X0692881Y0341267D01*
X0694162Y0338174D01*
X0694162Y0334826D01*
X0692881Y0331733D01*
X0690514Y0329366D01*
X0687421Y0328085D01*
X0684074Y0328085D01*
X0680981Y0329366D01*
X0678614Y0331733D01*
X0677332Y0334826D01*
X0677332Y0338174D01*
X0678614Y0341267D01*
X0680981Y0343634D01*
X0683718Y0344768D01*
X0680981Y0345902D01*
X0678614Y0348269D01*
X0677332Y0351362D01*
X0677332Y0354709D01*
X0678614Y0357802D01*
X0680981Y0360169D01*
X0683718Y0361303D01*
X0680981Y0362437D01*
X0678614Y0364804D01*
X0677332Y0367897D01*
X0677332Y0371245D01*
X0678246Y0373450D02*
X0669833Y0373450D01*
X0668795Y0374649D02*
X0678925Y0374649D01*
X0680123Y0375847D02*
X0667011Y0375847D01*
X0664694Y0375847D02*
X0663494Y0375847D01*
X0663494Y0374649D02*
X0664694Y0374649D01*
X0664694Y0373450D02*
X0663494Y0373450D01*
X0663494Y0372252D02*
X0664694Y0372252D01*
X0664694Y0368971D02*
X0670990Y0368971D01*
X0670891Y0368219D01*
X0670656Y0367343D01*
X0670309Y0366506D01*
X0669856Y0365721D01*
X0669304Y0365002D01*
X0668663Y0364361D01*
X0667944Y0363809D01*
X0667159Y0363356D01*
X0666321Y0363009D01*
X0665446Y0362774D01*
X0664694Y0362675D01*
X0664694Y0368971D01*
X0664694Y0368656D02*
X0663494Y0368656D01*
X0663494Y0367458D02*
X0664694Y0367458D01*
X0664694Y0366259D02*
X0663494Y0366259D01*
X0663494Y0365061D02*
X0664694Y0365061D01*
X0664694Y0363862D02*
X0663494Y0363862D01*
X0662420Y0361450D02*
X0659327Y0360169D01*
X0656960Y0357802D01*
X0655679Y0354709D01*
X0655679Y0351362D01*
X0656960Y0348269D01*
X0659327Y0345902D01*
X0662420Y0344620D01*
X0665768Y0344620D01*
X0668861Y0345902D01*
X0671228Y0348269D01*
X0672509Y0351362D01*
X0672509Y0354709D01*
X0671228Y0357802D01*
X0668861Y0360169D01*
X0665768Y0361450D01*
X0662420Y0361450D01*
X0659563Y0360267D02*
X0568102Y0360267D01*
X0569300Y0359068D02*
X0658226Y0359068D01*
X0657028Y0357870D02*
X0570233Y0357870D01*
X0570924Y0356671D02*
X0656492Y0356671D01*
X0655995Y0355473D02*
X0571484Y0355473D01*
X0571805Y0354274D02*
X0655679Y0354274D01*
X0655679Y0353076D02*
X0572127Y0353076D01*
X0572147Y0351877D02*
X0655679Y0351877D01*
X0655962Y0350679D02*
X0572147Y0350679D01*
X0572008Y0349480D02*
X0656458Y0349480D01*
X0656955Y0348282D02*
X0571686Y0348282D01*
X0571360Y0347083D02*
X0658146Y0347083D01*
X0659368Y0345885D02*
X0570668Y0345885D01*
X0569976Y0344686D02*
X0662261Y0344686D01*
X0662742Y0343297D02*
X0661866Y0343062D01*
X0661029Y0342715D01*
X0660244Y0342262D01*
X0659525Y0341710D01*
X0658884Y0341069D01*
X0658332Y0340350D01*
X0657879Y0339565D01*
X0657532Y0338728D01*
X0657297Y0337852D01*
X0657198Y0337100D01*
X0663494Y0337100D01*
X0663494Y0343396D01*
X0662742Y0343297D01*
X0663494Y0342289D02*
X0664694Y0342289D01*
X0664694Y0343396D02*
X0664694Y0337100D01*
X0670990Y0337100D01*
X0670891Y0337852D01*
X0670656Y0338728D01*
X0670309Y0339565D01*
X0669856Y0340350D01*
X0669304Y0341069D01*
X0668663Y0341710D01*
X0667944Y0342262D01*
X0667159Y0342715D01*
X0666321Y0343062D01*
X0665446Y0343297D01*
X0664694Y0343396D01*
X0665926Y0344686D02*
X0683521Y0344686D01*
X0681022Y0345885D02*
X0668820Y0345885D01*
X0670042Y0347083D02*
X0679799Y0347083D01*
X0678608Y0348282D02*
X0671233Y0348282D01*
X0671730Y0349480D02*
X0678112Y0349480D01*
X0677615Y0350679D02*
X0672226Y0350679D01*
X0672509Y0351877D02*
X0677332Y0351877D01*
X0677332Y0353076D02*
X0672509Y0353076D01*
X0672509Y0354274D02*
X0677332Y0354274D01*
X0677649Y0355473D02*
X0672193Y0355473D01*
X0671696Y0356671D02*
X0678145Y0356671D01*
X0678681Y0357870D02*
X0671160Y0357870D01*
X0669962Y0359068D02*
X0679880Y0359068D01*
X0681216Y0360267D02*
X0668625Y0360267D01*
X0668013Y0363862D02*
X0679555Y0363862D01*
X0678507Y0365061D02*
X0669349Y0365061D01*
X0670167Y0366259D02*
X0678011Y0366259D01*
X0677514Y0367458D02*
X0670687Y0367458D01*
X0670948Y0368656D02*
X0677332Y0368656D01*
X0691939Y0363862D02*
X0707460Y0363862D01*
X0706853Y0364470D02*
X0709386Y0361936D01*
X0712696Y0360565D01*
X0716279Y0360565D01*
X0719589Y0361936D01*
X0722122Y0364470D01*
X0723493Y0367780D01*
X0723493Y0371362D01*
X0722122Y0374672D01*
X0719589Y0377205D01*
X0716279Y0378576D01*
X0712696Y0378576D01*
X0709386Y0377205D01*
X0706853Y0374672D01*
X0705482Y0371362D01*
X0705482Y0367780D01*
X0706853Y0364470D01*
X0706608Y0365061D02*
X0692988Y0365061D01*
X0693484Y0366259D02*
X0706112Y0366259D01*
X0705615Y0367458D02*
X0693980Y0367458D01*
X0694162Y0368656D02*
X0705482Y0368656D01*
X0705482Y0369855D02*
X0694162Y0369855D01*
X0694162Y0371053D02*
X0705482Y0371053D01*
X0705851Y0372252D02*
X0693745Y0372252D01*
X0693249Y0373450D02*
X0706347Y0373450D01*
X0706844Y0374649D02*
X0692570Y0374649D01*
X0691371Y0375847D02*
X0708028Y0375847D01*
X0709227Y0377046D02*
X0689690Y0377046D01*
X0681805Y0377046D02*
X0090973Y0377046D01*
X0091019Y0377156D02*
X0091019Y0380105D01*
X0090433Y0381520D01*
X0089350Y0382603D01*
X0089015Y0382938D01*
X0089015Y0382938D01*
X0087932Y0384021D01*
X0087086Y0384371D01*
X0086517Y0384607D01*
X0082149Y0384607D01*
X0081547Y0384358D01*
X0080734Y0384021D01*
X0080715Y0384002D01*
X0079651Y0382938D01*
X0078234Y0381520D01*
X0077647Y0380105D01*
X0077647Y0378574D01*
X0078234Y0377159D01*
X0079317Y0376076D01*
X0079714Y0375911D01*
X0078234Y0374431D01*
X0077647Y0373016D01*
X0077647Y0371484D01*
X0078234Y0370069D01*
X0079317Y0368986D01*
X0080732Y0368400D01*
X0082263Y0368400D01*
X0087935Y0368400D01*
X0089350Y0368986D01*
X0090433Y0370069D01*
X0091019Y0371484D01*
X0091019Y0373016D01*
X0090433Y0374431D01*
X0089778Y0375086D01*
X0090433Y0375741D01*
X0091019Y0377156D01*
X0091019Y0378244D02*
X0711895Y0378244D01*
X0717080Y0378244D02*
X0735747Y0378244D01*
X0735747Y0377046D02*
X0719748Y0377046D01*
X0720947Y0375847D02*
X0735747Y0375847D01*
X0735747Y0374649D02*
X0722132Y0374649D01*
X0722628Y0373450D02*
X0735747Y0373450D01*
X0735747Y0372252D02*
X0723125Y0372252D01*
X0723493Y0371053D02*
X0735747Y0371053D01*
X0735747Y0369855D02*
X0723493Y0369855D01*
X0723493Y0368656D02*
X0735747Y0368656D01*
X0735747Y0367458D02*
X0723360Y0367458D01*
X0722863Y0366259D02*
X0735747Y0366259D01*
X0735747Y0365061D02*
X0722367Y0365061D01*
X0721515Y0363862D02*
X0735747Y0363862D01*
X0735747Y0362664D02*
X0720316Y0362664D01*
X0718452Y0361465D02*
X0735747Y0361465D01*
X0735747Y0360267D02*
X0690279Y0360267D01*
X0691615Y0359068D02*
X0735747Y0359068D01*
X0735747Y0357870D02*
X0692814Y0357870D01*
X0693350Y0356671D02*
X0735747Y0356671D01*
X0735747Y0355473D02*
X0693846Y0355473D01*
X0694162Y0354274D02*
X0735747Y0354274D01*
X0735747Y0353076D02*
X0694162Y0353076D01*
X0694162Y0351877D02*
X0735747Y0351877D01*
X0735747Y0350679D02*
X0693880Y0350679D01*
X0693383Y0349480D02*
X0735747Y0349480D01*
X0735747Y0348282D02*
X0692887Y0348282D01*
X0691696Y0347083D02*
X0735747Y0347083D01*
X0735747Y0345885D02*
X0690473Y0345885D01*
X0690660Y0343488D02*
X0708740Y0343488D01*
X0709386Y0344134D02*
X0706853Y0341601D01*
X0705482Y0338291D01*
X0705482Y0334709D01*
X0706853Y0331399D01*
X0709386Y0328865D01*
X0712696Y0327494D01*
X0716279Y0327494D01*
X0719589Y0328865D01*
X0722122Y0331399D01*
X0723493Y0334709D01*
X0723493Y0338291D01*
X0722122Y0341601D01*
X0719589Y0344134D01*
X0716279Y0345505D01*
X0712696Y0345505D01*
X0709386Y0344134D01*
X0710718Y0344686D02*
X0687974Y0344686D01*
X0691859Y0342289D02*
X0707541Y0342289D01*
X0706642Y0341091D02*
X0692954Y0341091D01*
X0693451Y0339892D02*
X0706145Y0339892D01*
X0705649Y0338694D02*
X0693947Y0338694D01*
X0694162Y0337495D02*
X0705482Y0337495D01*
X0705482Y0336297D02*
X0694162Y0336297D01*
X0694162Y0335098D02*
X0705482Y0335098D01*
X0705817Y0333900D02*
X0693779Y0333900D01*
X0693282Y0332701D02*
X0706314Y0332701D01*
X0706810Y0331503D02*
X0692651Y0331503D01*
X0691452Y0330304D02*
X0707948Y0330304D01*
X0709146Y0329105D02*
X0689885Y0329105D01*
X0688089Y0324311D02*
X0735747Y0324311D01*
X0735747Y0323113D02*
X0691419Y0323113D01*
X0693259Y0321914D02*
X0735747Y0321914D01*
X0735747Y0320716D02*
X0694458Y0320716D01*
X0695374Y0319517D02*
X0735747Y0319517D01*
X0735747Y0318319D02*
X0696065Y0318319D01*
X0696585Y0317120D02*
X0735747Y0317120D01*
X0735747Y0315922D02*
X0696906Y0315922D01*
X0697186Y0314723D02*
X0735747Y0314723D01*
X0735747Y0313525D02*
X0697186Y0313525D01*
X0697186Y0312326D02*
X0735747Y0312326D01*
X0735747Y0311128D02*
X0696958Y0311128D01*
X0696636Y0309929D02*
X0735747Y0309929D01*
X0735747Y0308731D02*
X0696176Y0308731D01*
X0695484Y0307532D02*
X0735747Y0307532D01*
X0735747Y0306334D02*
X0694649Y0306334D01*
X0693451Y0305135D02*
X0735747Y0305135D01*
X0735747Y0303937D02*
X0691750Y0303937D01*
X0688804Y0302738D02*
X0735747Y0302738D01*
X0735747Y0301540D02*
X0680940Y0301540D01*
X0676988Y0319517D02*
X0662963Y0319517D01*
X0677903Y0320716D02*
X0356833Y0320716D01*
X0357329Y0319517D02*
X0538532Y0319517D01*
X0537334Y0318319D02*
X0357332Y0318319D01*
X0357179Y0317120D02*
X0536135Y0317120D01*
X0534937Y0315922D02*
X0356683Y0315922D01*
X0355661Y0314723D02*
X0533738Y0314723D01*
X0532581Y0313525D02*
X0353522Y0313525D01*
X0350973Y0313525D02*
X0306705Y0313525D01*
X0307201Y0312326D02*
X0532085Y0312326D01*
X0489442Y0300341D02*
X0397695Y0300341D01*
X0397832Y0299143D02*
X0488200Y0299143D01*
X0487550Y0297944D02*
X0397813Y0297944D01*
X0397317Y0296746D02*
X0487163Y0296746D01*
X0487163Y0295547D02*
X0396485Y0295547D01*
X0394804Y0294349D02*
X0487428Y0294349D01*
X0487925Y0293150D02*
X0351570Y0293150D01*
X0352067Y0294349D02*
X0390691Y0294349D01*
X0389010Y0295547D02*
X0352332Y0295547D01*
X0352332Y0296746D02*
X0388178Y0296746D01*
X0387682Y0297944D02*
X0351945Y0297944D01*
X0351295Y0299143D02*
X0387663Y0299143D01*
X0387800Y0300341D02*
X0350053Y0300341D01*
X0350389Y0291952D02*
X0489106Y0291952D01*
X0404782Y0324999D02*
X0404015Y0323148D01*
X0402599Y0321732D01*
X0400749Y0320966D01*
X0398746Y0320966D01*
X0396896Y0321732D01*
X0395480Y0323148D01*
X0394713Y0324999D01*
X0394713Y0327001D01*
X0395480Y0328852D01*
X0396896Y0330268D01*
X0398746Y0331034D01*
X0400749Y0331034D01*
X0402599Y0330268D01*
X0404015Y0328852D01*
X0404782Y0327001D01*
X0404782Y0324999D01*
X0404782Y0325510D02*
X0735747Y0325510D01*
X0735747Y0326708D02*
X0404782Y0326708D01*
X0404407Y0327907D02*
X0711700Y0327907D01*
X0717275Y0327907D02*
X0735747Y0327907D01*
X0735747Y0329105D02*
X0719829Y0329105D01*
X0721027Y0330304D02*
X0735747Y0330304D01*
X0735747Y0331503D02*
X0722165Y0331503D01*
X0722662Y0332701D02*
X0735747Y0332701D01*
X0735747Y0333900D02*
X0723158Y0333900D01*
X0723493Y0335098D02*
X0735747Y0335098D01*
X0735747Y0336297D02*
X0723493Y0336297D01*
X0723493Y0337495D02*
X0735747Y0337495D01*
X0735747Y0338694D02*
X0723326Y0338694D01*
X0722830Y0339892D02*
X0735747Y0339892D01*
X0735747Y0341091D02*
X0722334Y0341091D01*
X0721434Y0342289D02*
X0735747Y0342289D01*
X0735747Y0343488D02*
X0720236Y0343488D01*
X0718257Y0344686D02*
X0735747Y0344686D01*
X0710524Y0361465D02*
X0688168Y0361465D01*
X0690741Y0362664D02*
X0708659Y0362664D01*
X0683327Y0361465D02*
X0566285Y0361465D01*
X0563127Y0362664D02*
X0680754Y0362664D01*
X0661177Y0375847D02*
X0156778Y0375847D01*
X0157203Y0375671D02*
X0154961Y0376600D01*
X0152534Y0376600D01*
X0150292Y0375671D01*
X0148747Y0374127D01*
X0147203Y0375671D01*
X0144961Y0376600D01*
X0142534Y0376600D01*
X0140292Y0375671D01*
X0138747Y0374127D01*
X0137203Y0375671D01*
X0134961Y0376600D01*
X0132534Y0376600D01*
X0130292Y0375671D01*
X0128747Y0374127D01*
X0127203Y0375671D01*
X0124961Y0376600D01*
X0122534Y0376600D01*
X0120292Y0375671D01*
X0118747Y0374127D01*
X0117203Y0375671D01*
X0114961Y0376600D01*
X0112534Y0376600D01*
X0110292Y0375671D01*
X0108576Y0373955D01*
X0107936Y0372411D01*
X0107682Y0372911D01*
X0107256Y0373497D01*
X0106744Y0374009D01*
X0106158Y0374434D01*
X0105513Y0374763D01*
X0104825Y0374987D01*
X0104147Y0375094D01*
X0104147Y0370900D01*
X0103347Y0370900D01*
X0103347Y0370100D01*
X0099153Y0370100D01*
X0099261Y0369423D01*
X0099484Y0368734D01*
X0099813Y0368089D01*
X0100239Y0367503D01*
X0100751Y0366991D01*
X0101337Y0366566D01*
X0101982Y0366237D01*
X0102670Y0366013D01*
X0103347Y0365906D01*
X0103347Y0370100D01*
X0104147Y0370100D01*
X0104147Y0365906D01*
X0104825Y0366013D01*
X0105513Y0366237D01*
X0106158Y0366566D01*
X0106744Y0366991D01*
X0107256Y0367503D01*
X0107682Y0368089D01*
X0107936Y0368589D01*
X0108576Y0367045D01*
X0110292Y0365329D01*
X0112534Y0364400D01*
X0114961Y0364400D01*
X0117203Y0365329D01*
X0118747Y0366873D01*
X0120292Y0365329D01*
X0122534Y0364400D01*
X0124961Y0364400D01*
X0127203Y0365329D01*
X0128747Y0366873D01*
X0130292Y0365329D01*
X0132534Y0364400D01*
X0134961Y0364400D01*
X0137203Y0365329D01*
X0138747Y0366873D01*
X0140292Y0365329D01*
X0142534Y0364400D01*
X0144961Y0364400D01*
X0147203Y0365329D01*
X0148747Y0366873D01*
X0150292Y0365329D01*
X0152534Y0364400D01*
X0154961Y0364400D01*
X0157203Y0365329D01*
X0158919Y0367045D01*
X0159847Y0369287D01*
X0159847Y0371713D01*
X0158919Y0373955D01*
X0157203Y0375671D01*
X0158225Y0374649D02*
X0659393Y0374649D01*
X0658355Y0373450D02*
X0159128Y0373450D01*
X0159624Y0372252D02*
X0657720Y0372252D01*
X0660291Y0342289D02*
X0567592Y0342289D01*
X0568856Y0343488D02*
X0680835Y0343488D01*
X0679636Y0342289D02*
X0667897Y0342289D01*
X0669282Y0341091D02*
X0678541Y0341091D01*
X0678044Y0339892D02*
X0670120Y0339892D01*
X0670665Y0338694D02*
X0677548Y0338694D01*
X0677332Y0337495D02*
X0670938Y0337495D01*
X0670990Y0335900D02*
X0664694Y0335900D01*
X0664694Y0337100D01*
X0663494Y0337100D01*
X0663494Y0335900D01*
X0664694Y0335900D01*
X0664694Y0329604D01*
X0665446Y0329703D01*
X0666321Y0329938D01*
X0667159Y0330285D01*
X0667944Y0330738D01*
X0668663Y0331290D01*
X0669304Y0331931D01*
X0669856Y0332650D01*
X0670309Y0333435D01*
X0670656Y0334272D01*
X0670891Y0335148D01*
X0670990Y0335900D01*
X0670877Y0335098D02*
X0677332Y0335098D01*
X0677332Y0336297D02*
X0664694Y0336297D01*
X0664694Y0337495D02*
X0663494Y0337495D01*
X0663494Y0336297D02*
X0497540Y0336297D01*
X0497486Y0336168D02*
X0498247Y0338005D01*
X0498247Y0339995D01*
X0497486Y0341832D01*
X0496080Y0343239D01*
X0494242Y0344000D01*
X0492253Y0344000D01*
X0490415Y0343239D01*
X0489009Y0341832D01*
X0488247Y0339995D01*
X0488247Y0338005D01*
X0489009Y0336168D01*
X0490415Y0334761D01*
X0492253Y0334000D01*
X0494242Y0334000D01*
X0496080Y0334761D01*
X0497486Y0336168D01*
X0498036Y0337495D02*
X0657250Y0337495D01*
X0657523Y0338694D02*
X0498247Y0338694D01*
X0498247Y0339892D02*
X0658068Y0339892D01*
X0658905Y0341091D02*
X0565516Y0341091D01*
X0555979Y0341091D02*
X0497793Y0341091D01*
X0497029Y0342289D02*
X0553903Y0342289D01*
X0552639Y0343488D02*
X0495479Y0343488D01*
X0491016Y0343488D02*
X0371666Y0343488D01*
X0371515Y0343852D02*
X0370099Y0345268D01*
X0368249Y0346034D01*
X0366246Y0346034D01*
X0364396Y0345268D01*
X0362980Y0343852D01*
X0362213Y0342001D01*
X0362213Y0339999D01*
X0362980Y0338148D01*
X0364396Y0336732D01*
X0366246Y0335966D01*
X0368249Y0335966D01*
X0370099Y0336732D01*
X0371515Y0338148D01*
X0372282Y0339999D01*
X0372282Y0342001D01*
X0371515Y0343852D01*
X0370681Y0344686D02*
X0551519Y0344686D01*
X0550827Y0345885D02*
X0368610Y0345885D01*
X0365885Y0345885D02*
X0360379Y0345885D01*
X0360747Y0344995D02*
X0359986Y0346832D01*
X0359068Y0347750D01*
X0359986Y0348668D01*
X0360747Y0350505D01*
X0360747Y0352495D01*
X0359986Y0354332D01*
X0358580Y0355739D01*
X0356742Y0356500D01*
X0354753Y0356500D01*
X0352915Y0355739D01*
X0351509Y0354332D01*
X0350747Y0352495D01*
X0350747Y0350505D01*
X0351509Y0348668D01*
X0352426Y0347750D01*
X0351509Y0346832D01*
X0350747Y0344995D01*
X0350747Y0343005D01*
X0351509Y0341168D01*
X0352915Y0339761D01*
X0354753Y0339000D01*
X0356742Y0339000D01*
X0358580Y0339761D01*
X0359986Y0341168D01*
X0360747Y0343005D01*
X0360747Y0344995D01*
X0360747Y0344686D02*
X0363814Y0344686D01*
X0362829Y0343488D02*
X0360747Y0343488D01*
X0360451Y0342289D02*
X0362332Y0342289D01*
X0362213Y0341091D02*
X0359909Y0341091D01*
X0358711Y0339892D02*
X0362257Y0339892D01*
X0362754Y0338694D02*
X0284247Y0338694D01*
X0284247Y0339892D02*
X0352784Y0339892D01*
X0351586Y0341091D02*
X0283793Y0341091D01*
X0283029Y0342289D02*
X0351044Y0342289D01*
X0350747Y0343488D02*
X0281479Y0343488D01*
X0277016Y0343488D02*
X0253619Y0343488D01*
X0254115Y0344686D02*
X0350747Y0344686D01*
X0351116Y0345885D02*
X0254247Y0345885D01*
X0254211Y0347083D02*
X0351760Y0347083D01*
X0351895Y0348282D02*
X0253714Y0348282D01*
X0252838Y0349480D02*
X0277094Y0349480D01*
X0275498Y0350679D02*
X0251018Y0350679D01*
X0247477Y0350679D02*
X0178247Y0350679D01*
X0178247Y0351877D02*
X0274715Y0351877D01*
X0274247Y0353076D02*
X0178007Y0353076D01*
X0177510Y0354274D02*
X0274247Y0354274D01*
X0274446Y0355473D02*
X0176346Y0355473D01*
X0170691Y0357870D02*
X0218307Y0357870D01*
X0217343Y0359068D02*
X0170747Y0359068D01*
X0170635Y0360267D02*
X0216846Y0360267D01*
X0216747Y0361465D02*
X0170138Y0361465D01*
X0169155Y0362664D02*
X0216818Y0362664D01*
X0217314Y0363862D02*
X0167074Y0363862D01*
X0164421Y0363862D02*
X0065747Y0363862D01*
X0065747Y0362664D02*
X0083368Y0362664D01*
X0080209Y0361465D02*
X0065747Y0361465D01*
X0065747Y0360267D02*
X0078393Y0360267D01*
X0077195Y0359068D02*
X0065747Y0359068D01*
X0065747Y0357870D02*
X0076262Y0357870D01*
X0075570Y0356671D02*
X0065747Y0356671D01*
X0065747Y0355473D02*
X0075011Y0355473D01*
X0074689Y0354274D02*
X0065747Y0354274D01*
X0065747Y0353076D02*
X0074368Y0353076D01*
X0074348Y0351877D02*
X0065747Y0351877D01*
X0065747Y0350679D02*
X0074348Y0350679D01*
X0074487Y0349480D02*
X0065747Y0349480D01*
X0065747Y0348282D02*
X0074808Y0348282D01*
X0075135Y0347083D02*
X0065747Y0347083D01*
X0065747Y0345885D02*
X0075827Y0345885D01*
X0076519Y0344686D02*
X0065747Y0344686D01*
X0065747Y0343488D02*
X0077639Y0343488D01*
X0078903Y0342289D02*
X0065747Y0342289D01*
X0065747Y0341091D02*
X0080979Y0341091D01*
X0094596Y0335098D02*
X0065747Y0335098D01*
X0065747Y0333900D02*
X0094147Y0333900D01*
X0094147Y0332701D02*
X0065747Y0332701D01*
X0065747Y0331503D02*
X0094348Y0331503D01*
X0094844Y0330304D02*
X0065747Y0330304D01*
X0065747Y0329105D02*
X0095929Y0329105D01*
X0095332Y0336297D02*
X0065747Y0336297D01*
X0065747Y0337495D02*
X0096773Y0337495D01*
X0101722Y0337495D02*
X0208530Y0337495D01*
X0207679Y0336297D02*
X0103163Y0336297D01*
X0117352Y0339892D02*
X0175284Y0339892D01*
X0174086Y0341091D02*
X0118270Y0341091D01*
X0097147Y0350679D02*
X0142714Y0350679D01*
X0142914Y0351877D02*
X0168247Y0351877D01*
X0168488Y0353076D02*
X0144536Y0353076D01*
X0145842Y0355473D02*
X0162204Y0355473D01*
X0161300Y0356671D02*
X0145847Y0356671D01*
X0145700Y0357870D02*
X0160804Y0357870D01*
X0160747Y0359068D02*
X0145204Y0359068D01*
X0144193Y0360267D02*
X0160860Y0360267D01*
X0161357Y0361465D02*
X0142087Y0361465D01*
X0139408Y0361465D02*
X0119587Y0361465D01*
X0119262Y0361600D02*
X0117233Y0361600D01*
X0115359Y0360824D01*
X0113924Y0359389D01*
X0113147Y0357514D01*
X0113147Y0355486D01*
X0113924Y0353611D01*
X0115359Y0352176D01*
X0117233Y0351400D01*
X0119262Y0351400D01*
X0121136Y0352176D01*
X0122571Y0353611D01*
X0123347Y0355486D01*
X0123347Y0357514D01*
X0122571Y0359389D01*
X0121136Y0360824D01*
X0119262Y0361600D01*
X0116908Y0361465D02*
X0091285Y0361465D01*
X0093102Y0360267D02*
X0114802Y0360267D01*
X0113791Y0359068D02*
X0094300Y0359068D01*
X0095233Y0357870D02*
X0113295Y0357870D01*
X0113147Y0356671D02*
X0095924Y0356671D01*
X0096484Y0355473D02*
X0113153Y0355473D01*
X0113649Y0354274D02*
X0096805Y0354274D01*
X0097127Y0353076D02*
X0114459Y0353076D01*
X0116081Y0351877D02*
X0097147Y0351877D01*
X0088127Y0362664D02*
X0162340Y0362664D01*
X0158133Y0366259D02*
X0220172Y0366259D01*
X0218237Y0365061D02*
X0156556Y0365061D01*
X0159090Y0367458D02*
X0274247Y0367458D01*
X0274247Y0366259D02*
X0250823Y0366259D01*
X0252758Y0365061D02*
X0274432Y0365061D01*
X0274928Y0363862D02*
X0253681Y0363862D01*
X0254177Y0362664D02*
X0276013Y0362664D01*
X0282449Y0357870D02*
X0358304Y0357870D01*
X0358800Y0356671D02*
X0283553Y0356671D01*
X0284049Y0355473D02*
X0352649Y0355473D01*
X0351485Y0354274D02*
X0284247Y0354274D01*
X0284247Y0353076D02*
X0350988Y0353076D01*
X0350747Y0351877D02*
X0283780Y0351877D01*
X0282997Y0350679D02*
X0350747Y0350679D01*
X0351172Y0349480D02*
X0281401Y0349480D01*
X0275466Y0342289D02*
X0252608Y0342289D01*
X0244284Y0347083D02*
X0182235Y0347083D01*
X0180976Y0348282D02*
X0244781Y0348282D01*
X0245657Y0349480D02*
X0177823Y0349480D01*
X0138581Y0351877D02*
X0120414Y0351877D01*
X0122036Y0353076D02*
X0136959Y0353076D01*
X0136149Y0354274D02*
X0122846Y0354274D01*
X0123342Y0355473D02*
X0135653Y0355473D01*
X0135647Y0356671D02*
X0123347Y0356671D01*
X0123200Y0357870D02*
X0135795Y0357870D01*
X0136291Y0359068D02*
X0122704Y0359068D01*
X0121693Y0360267D02*
X0137302Y0360267D01*
X0136556Y0365061D02*
X0140939Y0365061D01*
X0139361Y0366259D02*
X0138133Y0366259D01*
X0130939Y0365061D02*
X0126556Y0365061D01*
X0128133Y0366259D02*
X0129361Y0366259D01*
X0120939Y0365061D02*
X0116556Y0365061D01*
X0118133Y0366259D02*
X0119361Y0366259D01*
X0110939Y0365061D02*
X0065747Y0365061D01*
X0065747Y0366259D02*
X0101938Y0366259D01*
X0103347Y0366259D02*
X0104147Y0366259D01*
X0104147Y0367458D02*
X0103347Y0367458D01*
X0103347Y0368656D02*
X0104147Y0368656D01*
X0104147Y0369855D02*
X0103347Y0369855D01*
X0103347Y0370900D02*
X0099153Y0370900D01*
X0099261Y0371577D01*
X0099484Y0372266D01*
X0099813Y0372911D01*
X0100239Y0373497D01*
X0100751Y0374009D01*
X0101337Y0374434D01*
X0101982Y0374763D01*
X0102670Y0374987D01*
X0103347Y0375094D01*
X0103347Y0370900D01*
X0103347Y0371053D02*
X0104147Y0371053D01*
X0104147Y0372252D02*
X0103347Y0372252D01*
X0103347Y0373450D02*
X0104147Y0373450D01*
X0104147Y0374649D02*
X0103347Y0374649D01*
X0101758Y0374649D02*
X0090215Y0374649D01*
X0090477Y0375847D02*
X0110717Y0375847D01*
X0109270Y0374649D02*
X0105737Y0374649D01*
X0107290Y0373450D02*
X0108367Y0373450D01*
X0100205Y0373450D02*
X0090839Y0373450D01*
X0091019Y0372252D02*
X0099480Y0372252D01*
X0099178Y0371053D02*
X0090840Y0371053D01*
X0090219Y0369855D02*
X0099192Y0369855D01*
X0099524Y0368656D02*
X0088554Y0368656D01*
X0080113Y0368656D02*
X0065747Y0368656D01*
X0065747Y0367458D02*
X0100284Y0367458D01*
X0105557Y0366259D02*
X0109361Y0366259D01*
X0108405Y0367458D02*
X0107211Y0367458D01*
X0116778Y0375847D02*
X0120717Y0375847D01*
X0119270Y0374649D02*
X0118225Y0374649D01*
X0126778Y0375847D02*
X0130717Y0375847D01*
X0129270Y0374649D02*
X0128225Y0374649D01*
X0136778Y0375847D02*
X0140717Y0375847D01*
X0139270Y0374649D02*
X0138225Y0374649D01*
X0146778Y0375847D02*
X0150717Y0375847D01*
X0149270Y0374649D02*
X0148225Y0374649D01*
X0148133Y0366259D02*
X0149361Y0366259D01*
X0150939Y0365061D02*
X0146556Y0365061D01*
X0159586Y0368656D02*
X0274729Y0368656D01*
X0275531Y0369855D02*
X0159847Y0369855D01*
X0159847Y0371053D02*
X0277175Y0371053D01*
X0281320Y0371053D02*
X0508413Y0371053D01*
X0506890Y0369855D02*
X0282964Y0369855D01*
X0283766Y0368656D02*
X0506120Y0368656D01*
X0505647Y0367458D02*
X0284247Y0367458D01*
X0284247Y0366259D02*
X0505647Y0366259D01*
X0505823Y0365061D02*
X0284063Y0365061D01*
X0247672Y0366259D02*
X0223323Y0366259D01*
X0225258Y0365061D02*
X0245737Y0365061D01*
X0244814Y0363862D02*
X0226181Y0363862D01*
X0226677Y0362664D02*
X0244318Y0362664D01*
X0244247Y0361465D02*
X0226747Y0361465D01*
X0226649Y0360267D02*
X0244346Y0360267D01*
X0244843Y0359068D02*
X0226152Y0359068D01*
X0225188Y0357870D02*
X0245807Y0357870D01*
X0282417Y0335098D02*
X0341655Y0335098D01*
X0347840Y0335098D02*
X0490078Y0335098D01*
X0488955Y0336297D02*
X0369047Y0336297D01*
X0370862Y0337495D02*
X0488459Y0337495D01*
X0488247Y0338694D02*
X0371741Y0338694D01*
X0372238Y0339892D02*
X0488247Y0339892D01*
X0488701Y0341091D02*
X0372282Y0341091D01*
X0372162Y0342289D02*
X0489466Y0342289D01*
X0496417Y0335098D02*
X0657311Y0335098D01*
X0657297Y0335148D02*
X0657532Y0334272D01*
X0657879Y0333435D01*
X0658332Y0332650D01*
X0658884Y0331931D01*
X0659525Y0331290D01*
X0660244Y0330738D01*
X0661029Y0330285D01*
X0661866Y0329938D01*
X0662742Y0329703D01*
X0663494Y0329604D01*
X0663494Y0335900D01*
X0657198Y0335900D01*
X0657297Y0335148D01*
X0657686Y0333900D02*
X0349038Y0333900D01*
X0349546Y0332701D02*
X0658303Y0332701D01*
X0659312Y0331503D02*
X0349832Y0331503D01*
X0349832Y0330304D02*
X0396983Y0330304D01*
X0395733Y0329105D02*
X0349466Y0329105D01*
X0348845Y0327907D02*
X0395088Y0327907D01*
X0394713Y0326708D02*
X0347646Y0326708D01*
X0350098Y0323113D02*
X0274247Y0323113D01*
X0274210Y0321914D02*
X0348472Y0321914D01*
X0347662Y0320716D02*
X0273713Y0320716D01*
X0272836Y0319517D02*
X0347166Y0319517D01*
X0347812Y0315922D02*
X0303651Y0315922D01*
X0305714Y0314723D02*
X0348834Y0314723D01*
X0354397Y0323113D02*
X0395515Y0323113D01*
X0394998Y0324311D02*
X0274116Y0324311D01*
X0273620Y0325510D02*
X0394713Y0325510D01*
X0396713Y0321914D02*
X0356023Y0321914D01*
X0341849Y0326708D02*
X0272610Y0326708D01*
X0265885Y0326708D02*
X0133168Y0326708D01*
X0078448Y0369855D02*
X0065747Y0369855D01*
X0065747Y0371053D02*
X0077826Y0371053D01*
X0077647Y0372252D02*
X0065747Y0372252D01*
X0065747Y0373450D02*
X0077827Y0373450D01*
X0078452Y0374649D02*
X0065747Y0374649D01*
X0065747Y0375847D02*
X0079650Y0375847D01*
X0078346Y0377046D02*
X0065747Y0377046D01*
X0065747Y0378244D02*
X0077784Y0378244D01*
X0077647Y0379443D02*
X0066190Y0379443D01*
X0067389Y0380641D02*
X0077870Y0380641D01*
X0078553Y0381840D02*
X0068587Y0381840D01*
X0069786Y0383039D02*
X0079752Y0383039D01*
X0079651Y0382938D02*
X0079651Y0382938D01*
X0080734Y0384021D02*
X0080734Y0384021D01*
X0081256Y0384237D02*
X0070984Y0384237D01*
X0072183Y0385436D02*
X0729312Y0385436D01*
X0730510Y0384237D02*
X0087411Y0384237D01*
X0088915Y0383039D02*
X0731709Y0383039D01*
X0732907Y0381840D02*
X0090113Y0381840D01*
X0089350Y0382603D02*
X0089350Y0382603D01*
X0090797Y0380641D02*
X0734106Y0380641D01*
X0735304Y0379443D02*
X0091019Y0379443D01*
X0256904Y0297944D02*
X0308001Y0297944D01*
X0309200Y0299143D02*
X0257791Y0299143D01*
X0332345Y0273974D02*
X0333650Y0273974D01*
X0333783Y0258393D02*
X0332212Y0258393D01*
X0284018Y0221239D02*
X0282977Y0221239D01*
X0289029Y0211651D02*
X0679502Y0211651D01*
X0678270Y0210453D02*
X0289029Y0210453D01*
X0288741Y0209254D02*
X0510769Y0209254D01*
X0509571Y0208056D02*
X0288244Y0208056D01*
X0287073Y0206857D02*
X0508372Y0206857D01*
X0507174Y0205659D02*
X0258597Y0205659D01*
X0258152Y0204460D02*
X0505975Y0204460D01*
X0504777Y0203262D02*
X0276407Y0203262D01*
X0273088Y0203262D02*
X0270907Y0203262D01*
X0267588Y0203262D02*
X0257368Y0203262D01*
X0255710Y0202063D02*
X0265691Y0202063D01*
X0270769Y0187681D02*
X0273226Y0187681D01*
X0295127Y0188880D02*
X0490395Y0188880D01*
X0491593Y0190078D02*
X0296326Y0190078D01*
X0296891Y0191277D02*
X0492792Y0191277D01*
X0493990Y0192475D02*
X0297197Y0192475D01*
X0297197Y0193674D02*
X0495189Y0193674D01*
X0496387Y0194872D02*
X0296830Y0194872D01*
X0296177Y0196071D02*
X0497586Y0196071D01*
X0498784Y0197269D02*
X0294875Y0197269D01*
X0293568Y0155321D02*
X0185257Y0155321D01*
X0185747Y0156520D02*
X0454547Y0156520D01*
X0454547Y0155321D02*
X0299926Y0155321D01*
X0301019Y0154123D02*
X0454547Y0154123D01*
X0454547Y0152924D02*
X0301515Y0152924D01*
X0301697Y0151726D02*
X0454547Y0151726D01*
X0454547Y0150527D02*
X0301697Y0150527D01*
X0301206Y0149329D02*
X0454547Y0149329D01*
X0454547Y0148130D02*
X0300378Y0148130D01*
X0298654Y0146932D02*
X0454547Y0146932D01*
X0454560Y0145733D02*
X0259983Y0145733D01*
X0260621Y0144535D02*
X0455057Y0144535D01*
X0455003Y0143336D02*
X0261029Y0143336D01*
X0261029Y0142138D02*
X0454547Y0142138D01*
X0454547Y0140939D02*
X0260817Y0140939D01*
X0260321Y0139741D02*
X0291050Y0139741D01*
X0296444Y0139741D02*
X0454547Y0139741D01*
X0454547Y0138542D02*
X0297706Y0138542D01*
X0298342Y0137344D02*
X0454547Y0137344D01*
X0454547Y0136145D02*
X0298697Y0136145D01*
X0298697Y0134947D02*
X0454547Y0134947D01*
X0454547Y0133748D02*
X0298380Y0133748D01*
X0297797Y0132550D02*
X0454547Y0132550D01*
X0458247Y0146932D02*
X0518679Y0146932D01*
X0519878Y0148130D02*
X0458247Y0148130D01*
X0458247Y0149329D02*
X0521076Y0149329D01*
X0522275Y0150527D02*
X0458247Y0150527D01*
X0458247Y0151726D02*
X0523473Y0151726D01*
X0524672Y0152924D02*
X0458247Y0152924D01*
X0458247Y0154123D02*
X0525870Y0154123D01*
X0527069Y0155321D02*
X0458247Y0155321D01*
X0542616Y0184086D02*
X0571379Y0184086D01*
X0569837Y0185284D02*
X0544158Y0185284D01*
X0545100Y0186483D02*
X0568895Y0186483D01*
X0568398Y0187681D02*
X0545597Y0187681D01*
X0545847Y0188880D02*
X0568147Y0188880D01*
X0568147Y0190078D02*
X0545847Y0190078D01*
X0545614Y0191277D02*
X0568381Y0191277D01*
X0568877Y0192475D02*
X0545118Y0192475D01*
X0544200Y0193674D02*
X0569794Y0193674D01*
X0571277Y0194872D02*
X0542718Y0194872D01*
X0512406Y0205659D02*
X0659089Y0205659D01*
X0660287Y0204460D02*
X0511208Y0204460D01*
X0510009Y0203262D02*
X0661486Y0203262D01*
X0662684Y0202063D02*
X0508811Y0202063D01*
X0507612Y0200865D02*
X0663883Y0200865D01*
X0665081Y0199666D02*
X0506414Y0199666D01*
X0505215Y0198468D02*
X0666280Y0198468D01*
X0667478Y0197269D02*
X0504017Y0197269D01*
X0491604Y0212850D02*
X0681578Y0212850D01*
X0677199Y0209254D02*
X0660726Y0209254D01*
X0661384Y0208596D02*
X0661384Y0208596D01*
X0661924Y0208056D02*
X0676507Y0208056D01*
X0675874Y0206857D02*
X0663123Y0206857D01*
X0664321Y0205659D02*
X0675553Y0205659D01*
X0675232Y0204460D02*
X0665520Y0204460D01*
X0666718Y0203262D02*
X0675175Y0203262D01*
X0675175Y0202063D02*
X0667917Y0202063D01*
X0669115Y0200865D02*
X0675305Y0200865D01*
X0675626Y0199666D02*
X0670314Y0199666D01*
X0671512Y0198468D02*
X0675973Y0198468D01*
X0676665Y0197269D02*
X0672711Y0197269D01*
X0673909Y0196071D02*
X0677357Y0196071D01*
X0678543Y0194872D02*
X0675108Y0194872D01*
X0676306Y0193674D02*
X0679975Y0193674D01*
X0682188Y0192475D02*
X0677505Y0192475D01*
X0677843Y0192137D02*
X0677843Y0192137D01*
X0679447Y0182887D02*
X0735747Y0182887D01*
X0735747Y0181689D02*
X0679447Y0181689D01*
X0679447Y0180490D02*
X0735747Y0180490D01*
X0735747Y0179292D02*
X0679447Y0179292D01*
X0679447Y0178093D02*
X0735747Y0178093D01*
X0735747Y0176895D02*
X0679447Y0176895D01*
X0679447Y0175696D02*
X0735747Y0175696D01*
X0735747Y0174498D02*
X0679447Y0174498D01*
X0679447Y0173299D02*
X0735747Y0173299D01*
X0735747Y0172101D02*
X0678965Y0172101D01*
X0677882Y0170902D02*
X0735747Y0170902D01*
X0735747Y0169703D02*
X0676684Y0169703D01*
X0675485Y0168505D02*
X0735747Y0168505D01*
X0735747Y0167306D02*
X0674287Y0167306D01*
X0673088Y0166108D02*
X0735747Y0166108D01*
X0735747Y0164909D02*
X0671889Y0164909D01*
X0670691Y0163711D02*
X0735747Y0163711D01*
X0735747Y0162512D02*
X0669492Y0162512D01*
X0671166Y0161314D02*
X0735747Y0161314D01*
X0735747Y0160115D02*
X0672365Y0160115D01*
X0673563Y0158917D02*
X0735747Y0158917D01*
X0735747Y0157718D02*
X0674762Y0157718D01*
X0675960Y0156520D02*
X0735747Y0156520D01*
X0735747Y0155321D02*
X0677159Y0155321D01*
X0678357Y0154123D02*
X0735747Y0154123D01*
X0735747Y0152924D02*
X0679162Y0152924D01*
X0679447Y0151726D02*
X0735747Y0151726D01*
X0735747Y0150527D02*
X0679447Y0150527D01*
X0679447Y0149329D02*
X0735747Y0149329D01*
X0735747Y0148130D02*
X0679447Y0148130D01*
X0679447Y0146932D02*
X0735747Y0146932D01*
X0735747Y0145733D02*
X0679447Y0145733D01*
X0679447Y0144535D02*
X0735747Y0144535D01*
X0735747Y0143336D02*
X0679447Y0143336D01*
X0679447Y0142138D02*
X0735747Y0142138D01*
X0735747Y0140939D02*
X0679447Y0140939D01*
X0679447Y0139741D02*
X0735747Y0139741D01*
X0735747Y0138542D02*
X0679447Y0138542D01*
X0679447Y0137344D02*
X0735747Y0137344D01*
X0735747Y0136145D02*
X0679447Y0136145D01*
X0679447Y0134947D02*
X0735747Y0134947D01*
X0735747Y0133748D02*
X0679447Y0133748D01*
X0679447Y0132550D02*
X0735747Y0132550D01*
X0735747Y0131351D02*
X0679447Y0131351D01*
X0679447Y0130153D02*
X0735747Y0130153D01*
X0735747Y0128954D02*
X0679447Y0128954D01*
X0679447Y0127756D02*
X0735747Y0127756D01*
X0735747Y0126557D02*
X0679447Y0126557D01*
X0679279Y0125359D02*
X0735747Y0125359D01*
X0735747Y0124160D02*
X0678640Y0124160D01*
X0677442Y0122962D02*
X0735747Y0122962D01*
X0735747Y0121763D02*
X0676243Y0121763D01*
X0675045Y0120565D02*
X0735747Y0120565D01*
X0735747Y0119366D02*
X0673846Y0119366D01*
X0674313Y0118168D02*
X0735747Y0118168D01*
X0735747Y0116969D02*
X0675511Y0116969D01*
X0676710Y0115770D02*
X0735747Y0115770D01*
X0735747Y0114572D02*
X0677908Y0114572D01*
X0678976Y0113373D02*
X0735747Y0113373D01*
X0735747Y0112175D02*
X0679447Y0112175D01*
X0679447Y0110976D02*
X0735747Y0110976D01*
X0735747Y0109778D02*
X0679447Y0109778D01*
X0679447Y0108579D02*
X0735747Y0108579D01*
X0735747Y0107381D02*
X0679447Y0107381D01*
X0679447Y0106182D02*
X0735747Y0106182D01*
X0735747Y0104984D02*
X0679447Y0104984D01*
X0679447Y0103785D02*
X0735747Y0103785D01*
X0735747Y0102587D02*
X0679447Y0102587D01*
X0679447Y0101388D02*
X0735747Y0101388D01*
X0735747Y0100190D02*
X0679447Y0100190D01*
X0679447Y0098991D02*
X0735747Y0098991D01*
X0735747Y0097793D02*
X0679447Y0097793D01*
X0679447Y0096594D02*
X0735747Y0096594D01*
X0735747Y0095396D02*
X0679447Y0095396D01*
X0689804Y0089403D02*
X0735747Y0089403D01*
X0735747Y0088205D02*
X0692214Y0088205D01*
X0693719Y0087006D02*
X0735747Y0087006D01*
X0735747Y0085808D02*
X0694917Y0085808D01*
X0695639Y0084609D02*
X0735747Y0084609D01*
X0735747Y0083411D02*
X0696331Y0083411D01*
X0696708Y0082212D02*
X0735747Y0082212D01*
X0735747Y0081014D02*
X0697029Y0081014D01*
X0697186Y0079815D02*
X0735747Y0079815D01*
X0735747Y0078617D02*
X0697186Y0078617D01*
X0697156Y0077418D02*
X0735747Y0077418D01*
X0735747Y0076220D02*
X0696835Y0076220D01*
X0696513Y0075021D02*
X0735747Y0075021D01*
X0735747Y0073823D02*
X0695911Y0073823D01*
X0695219Y0072624D02*
X0735747Y0072624D01*
X0735747Y0071426D02*
X0694190Y0071426D01*
X0692991Y0070227D02*
X0735747Y0070227D01*
X0735747Y0069029D02*
X0690955Y0069029D01*
X0690194Y0061837D02*
X0709018Y0061837D01*
X0707820Y0060639D02*
X0691580Y0060639D01*
X0692778Y0059440D02*
X0706757Y0059440D01*
X0706261Y0058242D02*
X0693335Y0058242D01*
X0693832Y0057043D02*
X0705764Y0057043D01*
X0705482Y0055845D02*
X0694162Y0055845D01*
X0694162Y0054646D02*
X0705482Y0054646D01*
X0705482Y0053448D02*
X0694162Y0053448D01*
X0693894Y0052249D02*
X0705702Y0052249D01*
X0706198Y0051051D02*
X0693398Y0051051D01*
X0692901Y0049852D02*
X0706695Y0049852D01*
X0707669Y0048654D02*
X0691731Y0048654D01*
X0690532Y0047455D02*
X0708867Y0047455D01*
X0711027Y0046257D02*
X0687889Y0046257D01*
X0683606Y0046257D02*
X0666011Y0046257D01*
X0668879Y0047455D02*
X0680962Y0047455D01*
X0679764Y0048654D02*
X0670077Y0048654D01*
X0671248Y0049852D02*
X0678594Y0049852D01*
X0678097Y0051051D02*
X0671744Y0051051D01*
X0672241Y0052249D02*
X0677601Y0052249D01*
X0677332Y0053448D02*
X0672509Y0053448D01*
X0672509Y0054646D02*
X0677332Y0054646D01*
X0677332Y0055845D02*
X0672509Y0055845D01*
X0672178Y0057043D02*
X0677663Y0057043D01*
X0678160Y0058242D02*
X0671682Y0058242D01*
X0671125Y0059440D02*
X0678716Y0059440D01*
X0679915Y0060639D02*
X0669926Y0060639D01*
X0668540Y0061837D02*
X0681301Y0061837D01*
X0657063Y0059440D02*
X0363067Y0059440D01*
X0364599Y0060639D02*
X0474193Y0060639D01*
X0472677Y0061837D02*
X0365372Y0061837D01*
X0365847Y0063036D02*
X0471479Y0063036D01*
X0470280Y0064234D02*
X0365847Y0064234D01*
X0365674Y0065433D02*
X0469082Y0065433D01*
X0463089Y0071426D02*
X0420385Y0071426D01*
X0421430Y0072624D02*
X0461891Y0072624D01*
X0460692Y0073823D02*
X0421926Y0073823D01*
X0422097Y0075021D02*
X0459494Y0075021D01*
X0458295Y0076220D02*
X0422097Y0076220D01*
X0421620Y0077418D02*
X0457097Y0077418D01*
X0455898Y0078617D02*
X0420843Y0078617D01*
X0419303Y0079815D02*
X0454940Y0079815D01*
X0403461Y0076220D02*
X0347680Y0076220D01*
X0349439Y0075021D02*
X0402056Y0075021D01*
X0401336Y0073823D02*
X0350306Y0073823D01*
X0350802Y0072624D02*
X0400897Y0072624D01*
X0400897Y0071426D02*
X0350847Y0071426D01*
X0350740Y0070227D02*
X0401108Y0070227D01*
X0541241Y0104984D02*
X0572754Y0104984D01*
X0570406Y0103785D02*
X0543589Y0103785D01*
X0544787Y0102587D02*
X0569208Y0102587D01*
X0568634Y0101388D02*
X0545361Y0101388D01*
X0545847Y0100190D02*
X0568147Y0100190D01*
X0568147Y0098991D02*
X0545847Y0098991D01*
X0545847Y0097793D02*
X0568147Y0097793D01*
X0568641Y0096594D02*
X0545354Y0096594D01*
X0544770Y0095396D02*
X0569225Y0095396D01*
X0570423Y0094197D02*
X0543571Y0094197D01*
X0609025Y0109778D02*
X0675747Y0109778D01*
X0675747Y0110976D02*
X0610224Y0110976D01*
X0611422Y0112175D02*
X0675072Y0112175D01*
X0673874Y0113373D02*
X0612621Y0113373D01*
X0613819Y0114572D02*
X0672675Y0114572D01*
X0671477Y0115770D02*
X0615018Y0115770D01*
X0645736Y0029478D02*
X0661364Y0029478D01*
X0658973Y0028279D02*
X0645239Y0028279D01*
X0644399Y0027081D02*
X0657774Y0027081D01*
X0656801Y0025882D02*
X0642665Y0025882D01*
X0625390Y0022287D02*
X0065747Y0022287D01*
X0065747Y0023485D02*
X0624191Y0023485D01*
X0294841Y0146932D02*
X0258784Y0146932D01*
X0291797Y0150527D02*
X0065747Y0150527D01*
X0065747Y0151726D02*
X0291797Y0151726D01*
X0291980Y0152924D02*
X0182766Y0152924D01*
X0184441Y0154123D02*
X0292476Y0154123D01*
X0178728Y0152924D02*
X0065747Y0152924D01*
X0065747Y0154123D02*
X0177054Y0154123D01*
X0176238Y0155321D02*
X0065747Y0155321D01*
X0065747Y0156520D02*
X0175747Y0156520D01*
X0175747Y0157718D02*
X0174476Y0157718D01*
X0175735Y0158917D02*
X0175922Y0158917D01*
X0176379Y0160115D02*
X0176419Y0160115D01*
X0176747Y0161314D02*
X0177490Y0161314D01*
X0169019Y0157718D02*
X0065747Y0157718D01*
X0065747Y0158917D02*
X0167759Y0158917D01*
X0167116Y0160115D02*
X0065747Y0160115D01*
X0065747Y0161314D02*
X0166747Y0161314D01*
X0166747Y0162512D02*
X0128972Y0162512D01*
X0130112Y0163711D02*
X0167044Y0163711D01*
X0167586Y0164909D02*
X0130609Y0164909D01*
X0130847Y0166108D02*
X0168784Y0166108D01*
X0123048Y0170902D02*
X0065747Y0170902D01*
X0065747Y0169703D02*
X0121738Y0169703D01*
X0121058Y0168505D02*
X0065747Y0168505D01*
X0065747Y0167306D02*
X0120647Y0167306D01*
X0120647Y0166108D02*
X0065747Y0166108D01*
X0065747Y0164909D02*
X0120886Y0164909D01*
X0121382Y0163711D02*
X0065747Y0163711D01*
X0065747Y0162512D02*
X0122523Y0162512D01*
X0163692Y0227232D02*
X0182944Y0227232D01*
X0181900Y0228431D02*
X0164890Y0228431D01*
X0165493Y0229629D02*
X0181403Y0229629D01*
X0181247Y0230828D02*
X0165847Y0230828D01*
X0165847Y0232026D02*
X0181261Y0232026D01*
X0181757Y0233225D02*
X0165553Y0233225D01*
X0165037Y0234423D02*
X0182599Y0234423D01*
X0184339Y0235622D02*
X0163838Y0235622D01*
X0188155Y0235622D02*
X0437047Y0235622D01*
X0437047Y0234423D02*
X0189895Y0234423D01*
X0190738Y0233225D02*
X0437047Y0233225D01*
X0437047Y0232026D02*
X0191234Y0232026D01*
X0183273Y0254798D02*
X0065747Y0254798D01*
X0065747Y0255996D02*
X0181539Y0255996D01*
X0180682Y0257195D02*
X0065747Y0257195D01*
X0065747Y0258393D02*
X0180186Y0258393D01*
X0180147Y0259592D02*
X0065747Y0259592D01*
X0065747Y0260790D02*
X0180262Y0260790D01*
X0283540Y0336297D02*
X0365447Y0336297D01*
X0363633Y0337495D02*
X0284036Y0337495D01*
X0359735Y0347083D02*
X0550135Y0347083D01*
X0549808Y0348282D02*
X0359600Y0348282D01*
X0360323Y0349480D02*
X0549487Y0349480D01*
X0549348Y0350679D02*
X0360747Y0350679D01*
X0360747Y0351877D02*
X0549348Y0351877D01*
X0549368Y0353076D02*
X0360507Y0353076D01*
X0360010Y0354274D02*
X0361591Y0354274D01*
X0359704Y0355473D02*
X0358846Y0355473D01*
X0364904Y0354274D02*
X0479091Y0354274D01*
X0477204Y0355473D02*
X0366791Y0355473D01*
X0367695Y0356671D02*
X0476300Y0356671D01*
X0475804Y0357870D02*
X0368191Y0357870D01*
X0368247Y0359068D02*
X0475747Y0359068D01*
X0475860Y0360267D02*
X0368135Y0360267D01*
X0367638Y0361465D02*
X0476357Y0361465D01*
X0477340Y0362664D02*
X0366655Y0362664D01*
X0402512Y0330304D02*
X0660996Y0330304D01*
X0663494Y0330304D02*
X0664694Y0330304D01*
X0664694Y0331503D02*
X0663494Y0331503D01*
X0663494Y0332701D02*
X0664694Y0332701D01*
X0664694Y0333900D02*
X0663494Y0333900D01*
X0663494Y0335098D02*
X0664694Y0335098D01*
X0664694Y0338694D02*
X0663494Y0338694D01*
X0663494Y0339892D02*
X0664694Y0339892D01*
X0664694Y0341091D02*
X0663494Y0341091D01*
X0670501Y0333900D02*
X0677716Y0333900D01*
X0678213Y0332701D02*
X0669885Y0332701D01*
X0668876Y0331503D02*
X0678844Y0331503D01*
X0680043Y0330304D02*
X0667192Y0330304D01*
X0681610Y0329105D02*
X0403761Y0329105D01*
X0404497Y0324311D02*
X0684272Y0324311D01*
X0680942Y0323113D02*
X0403980Y0323113D01*
X0402781Y0321914D02*
X0679102Y0321914D01*
X0553393Y0360267D02*
X0485635Y0360267D01*
X0485747Y0359068D02*
X0552195Y0359068D01*
X0551262Y0357870D02*
X0485691Y0357870D01*
X0485195Y0356671D02*
X0550570Y0356671D01*
X0550011Y0355473D02*
X0484291Y0355473D01*
X0482404Y0354274D02*
X0549689Y0354274D01*
X0506712Y0227232D02*
X0675255Y0227232D01*
X0675576Y0226034D02*
X0505514Y0226034D01*
X0504315Y0224835D02*
X0675897Y0224835D01*
X0676558Y0223637D02*
X0503117Y0223637D01*
X0501918Y0222438D02*
X0677250Y0222438D01*
X0678357Y0221239D02*
X0500720Y0221239D01*
X0499521Y0220041D02*
X0679653Y0220041D01*
X0681729Y0218842D02*
X0498322Y0218842D01*
D23*
X0287247Y0217000D03*
X0279747Y0217000D03*
X0283747Y0211000D03*
X0255747Y0142500D03*
X0255747Y0134500D03*
X0183247Y0314000D03*
D24*
X0253747Y0206500D03*
M02*
