%
M48
M72
T01C0.0150
T02C0.0170
T03C0.0180
T04C0.0187
T05C0.0197
T06C0.0200
T07C0.0236
T08C0.0315
T09C0.0400
T10C0.0709
T11C0.1102
T12C0.1181
T13C0.1260
%
T01
X25375Y20650
T02
X29225Y19300
X31225Y19400
X29675Y17350
X29675Y16250
X29675Y15150
X31475Y14850
X29375Y13550
X31475Y10150
X31475Y21900
T03
X9575Y4150
X10325Y4900
X11075Y5650
X14825Y6400
X18075Y6400
X18675Y7050
X21325Y6400
X21325Y9650
X20075Y10650
X20825Y11150
X24575Y11650
X26075Y12250
X24575Y10150
X28075Y8650
X28075Y4150
X12075Y3650
X11075Y10650
X17175Y14400
X18075Y15750
X17175Y16200
X17675Y16500
X18075Y19350
X18675Y20100
X15525Y19200
X10075Y22650
X9575Y24400
X12075Y24650
X14825Y26650
X15825Y27650
X15075Y28150
X20325Y26400
X25375Y27650
X29925Y26400
X32925Y26250
X33675Y26250
X33675Y27000
X32925Y27000
X26925Y32300
X27925Y33900
X27925Y35400
X27925Y36650
X24925Y36150
X22175Y36150
X24925Y34600
X22175Y34150
X17825Y34400
X17325Y35150
X16575Y35900
X35575Y35150
X36325Y35900
X35575Y34400
X48075Y35900
X49325Y33900
X18625Y23100
X64325Y4900
X64075Y3050
X62825Y2650
T04
X27475Y19250
X26925Y19250
X26925Y19850
X27475Y19850
X33225Y27850
X41225Y28850
X39975Y32600
X36725Y34100
T05
X34475Y33100
X35225Y31850
X34725Y29600
X31225Y29500
X30225Y31100
X39275Y29900
X39925Y30550
X49225Y29600
X56502Y29856
X58077Y29856
X58077Y29069
X56502Y29069
X56502Y28281
X56699Y27691
X57880Y27691
X58077Y28281
X57880Y26509
X58077Y25919
X56699Y26509
X56502Y25919
X56502Y25131
X58077Y25131
X58077Y24344
X56502Y24344
X38975Y26600
X29575Y20250
X23625Y20950
X22925Y20950
X22925Y21700
X23625Y21700
X23025Y22650
X23025Y23250
X24275Y23900
X24275Y24450
X24275Y25000
X24275Y25550
X21675Y22400
X20875Y22200
X20875Y21600
X22625Y14350
X23425Y14350
X23025Y13350
X21625Y13000
X20875Y13400
T06
X22925Y15350
X22925Y16050
X23825Y16050
X23825Y15350
X23825Y19300
X22925Y19300
X22925Y19950
X23825Y19950
X19075Y20700
X14075Y18650
X12575Y16650
X12825Y15300
X14475Y13950
X11575Y9650
X14075Y7650
X7825Y7450
X7825Y5800
X23975Y5050
X25825Y4400
X25825Y3250
X34575Y7150
X33475Y7750
X36075Y6400
X40600Y7175
X41700Y7525
X41825Y8200
X41325Y8700
X40575Y10150
X37575Y10150
X34575Y10150
X34575Y13150
X37575Y13150
X40575Y13150
X43575Y13150
X43575Y10150
X40575Y16150
X37575Y16150
X34575Y16150
X34575Y19150
X37575Y19150
X40575Y19150
X44575Y19650
X45325Y19650
X45325Y18900
X46075Y18900
X46825Y18900
X47575Y18900
X48325Y18900
X48325Y19650
X49075Y19650
X49075Y20400
X48325Y20400
X48325Y21150
X49075Y21150
X49075Y22400
X49075Y23150
X48325Y23150
X48325Y22400
X48325Y23900
X49075Y23900
X47575Y23900
X46825Y23900
X46075Y23900
X45325Y23900
X44575Y23900
X44575Y23150
X45325Y23150
X45325Y22400
X44575Y22400
X44575Y21150
X45325Y21150
X45325Y20400
X44575Y20400
X46075Y18150
X46825Y18150
X47575Y18150
X40575Y23150
X37575Y23150
X37275Y24350
X35975Y24350
X34825Y25150
X33295Y24530
X30075Y25650
X29745Y25030
X34575Y23150
X27275Y28200
X28745Y28520
X25325Y30150
X21575Y31650
X18975Y32350
X21225Y33400
X20325Y35300
X24075Y35550
X14575Y34650
X14075Y35650
X11825Y35650
X11375Y34350
X9925Y33300
X12925Y33000
X12875Y30650
X13575Y30150
X14225Y30600
X11325Y30700
X7825Y31400
X7825Y29750
X10225Y27900
X12075Y26150
X18525Y25950
X19225Y25050
X21575Y25400
X20325Y27030
X20825Y27900
X19825Y28850
X19275Y29550
X19275Y30400
X16075Y23150
X46075Y24650
X46825Y24650
X47575Y24650
X51075Y36650
X60575Y4700
X62825Y1900
T07
X25575Y13450
X25575Y14250
X28375Y21100
X28725Y21700
X27975Y21700
X18325Y31400
T08
X48825Y27852
X48825Y27100
X48825Y26348
T09
X53975Y18950
X53975Y16950
X57425Y16950
X57425Y18950
X57425Y14350
X57425Y12350
X53975Y12350
X53975Y14350
X53975Y9900
X57425Y9900
X57425Y7900
X53975Y7900
X15375Y37050
X14375Y37050
X13375Y37050
X12375Y37050
X11375Y37050
X10375Y37050
T10
X66409Y36957
X68575Y36957
X68575Y35304
X66409Y35304
X66409Y33650
X68575Y33650
X68575Y5457
X66409Y5457
X66409Y3804
X68575Y3804
X68575Y2150
X66409Y2150
T11
X65075Y10150
X63106Y10150
X63106Y14087
X65075Y14087
X65075Y18024
X63106Y18024
X63106Y25150
X65075Y25150
X65075Y29087
X63106Y29087
T12
X68618Y31343
X71449Y33650
X71449Y36957
X68618Y22898
X68618Y20280
X68618Y7898
X71449Y5457
X71449Y2150
T13
X56075Y3650
X22075Y3650
X8575Y35150
X56075Y35150
M30
