%
M48
M72
T01C0.0150
T02C0.0276
T03C0.0354
T04C0.0394
T05C0.0400
T06C0.0440
%
T01
X20237Y20680
X6112Y15555
X13227Y14855
T02
X14737Y15180
X14737Y14180
X14737Y13305
X14737Y12305
X14737Y11430
X14737Y10430
T03
X8487Y16930
X7487Y16930
X23362Y16680
X22362Y16680
X22862Y15055
X22862Y14055
X23987Y24680
X24987Y24680
X23987Y22680
X24987Y22680
X23987Y20680
X24987Y20680
X28987Y23680
X27987Y23680
X28987Y22680
X27987Y22680
X28987Y21680
X27987Y21680
X9487Y17930
X9487Y16930
X4987Y14930
X3987Y14930
X6487Y17930
X6487Y16930
X15487Y21180
X16487Y21180
X22987Y6805
X21987Y6805
X22612Y4930
X22612Y3930
X23112Y11680
X22112Y11680
X22612Y9930
X22612Y8930
T04
X28112Y13430
X28112Y17430
X28112Y8430
X28112Y12430
X28112Y3430
X28112Y7430
X26612Y18430
X26612Y14430
X26612Y13430
X26612Y9430
X26612Y8430
X26612Y4430
T05
X1487Y9930
X1487Y10930
X1487Y11930
X1487Y12930
X1487Y13930
X1487Y14930
X1487Y15930
X1487Y16930
X1487Y1930
X1487Y2930
X1487Y3930
X1487Y4930
X1487Y5930
X1487Y6930
X1487Y7930
X1487Y8930
X13437Y20430
X14537Y20430
X30237Y23680
X30237Y22680
X30237Y21680
X30237Y20680
X29612Y15430
X29612Y14430
X29612Y13430
X24612Y15430
X24612Y14430
X24612Y13430
X29612Y10430
X29612Y9430
X29612Y8430
X24612Y10430
X24612Y9430
X24612Y8430
X29612Y5430
X29612Y4430
X29612Y3430
X24612Y5430
X24612Y4430
X24612Y3430
X26937Y1430
X28037Y1430
T06
X33487Y11180
X33487Y10180
X33487Y9180
X26487Y20680
X26487Y21680
X26487Y22680
X26487Y23680
X26487Y24680
M30
